<svg version="1.1" id="Слой_1" xmlns="http://www.w3.org/2000/svg" x="0" y="0" viewBox="0 0 1000 1000" xml:space="preserve"><style>.st5{font-family:&apos;ArticulatCF-Light&apos;}.st6{font-size:46px}</style><g id="телега"><linearGradient id="Oval_1_" gradientUnits="userSpaceOnUse" x1="-181.533" y1="883.618" x2="-181.533" y2="883.414" gradientTransform="matrix(1000 0 0 -1000 181818 884116)"><stop offset="0" stop-color="#2aabee"/><stop offset="1" stop-color="#229ed9"/></linearGradient><circle id="Oval" cx="284.9" cy="601.1" r="102.6" fill-rule="evenodd" clip-rule="evenodd" fill="url(#Oval_1_)"/><path id="Path-3" d="M228.8 600c29.9-13 49.9-21.6 59.9-25.8 28.5-11.9 34.4-13.9 38.3-14 .8 0 2.7.2 4 1.2 1 .8 1.3 2 1.5 2.8.1.8.3 2.6.2 4-1.5 16.2-8.2 55.6-11.6 73.8-1.4 7.7-4.3 10.3-7 10.5-6 .5-10.5-3.9-16.3-7.7-9-5.9-14.1-9.6-22.9-15.4-10.1-6.7-3.6-10.3 2.2-16.3 1.5-1.6 27.8-25.5 28.3-27.6.1-.3.1-1.3-.5-1.8s-1.5-.4-2.1-.2c-.9.2-15.3 9.7-43.3 28.6-4.1 2.8-7.8 4.2-11.1 4.1-3.7-.1-10.7-2.1-16-3.8-6.4-2.1-11.5-3.2-11.1-6.7 0-1.8 2.6-3.7 7.5-5.7z" fill-rule="evenodd" clip-rule="evenodd" fill="#fff"/></g><g id="вк"><path d="M188.7 313.1c0-43.6 0-65.4 13.5-78.9s35.3-13.5 78.9-13.5h7.7c43.6 0 65.4 0 78.9 13.5s13.5 35.3 13.5 78.9v7.7c0 43.6 0 65.4-13.5 78.9s-35.3 13.5-78.9 13.5h-7.7c-43.6 0-65.4 0-78.9-13.5s-13.5-35.3-13.5-78.9v-7.7z" fill="#07f"/><path d="M291.1 359.4c-43.9 0-68.9-30.1-70-80.1h22c.7 36.7 16.9 52.3 29.8 55.5v-55.5h20.7V311c12.7-1.4 26-15.8 30.5-31.7h20.7c-3.4 19.6-17.9 34-28.2 40 10.3 4.8 26.7 17.4 33 40.2h-22.8c-4.9-15.2-17.1-27-33.2-28.6v28.6h-2.5z" fill="#fff"/></g><path fill="none" d="M441.3 276.2h365.1v166.3H441.3z"/><text transform="translate(441.324 308.427)"><tspan x="0" y="0" class="st5 st6">vk на 6% меньше, </tspan><tspan x="0" y="55.2" class="st5 st6">чем tgm</tspan></text></svg>