<?xml version="1.0" encoding="utf-8"?>
<!-- Generator: Adobe Illustrator 24.0.2, SVG Export Plug-In . SVG Version: 6.00 Build 0)  -->
<svg version="1.1" id="Слой_1" xmlns="http://www.w3.org/2000/svg" xmlns:xlink="http://www.w3.org/1999/xlink" x="0px" y="0px"
	 viewBox="0 0 1000 1000" style="enable-background:new 0 0 1000 1000;" xml:space="preserve">
<style type="text/css">
	.st0{fill-rule:evenodd;clip-rule:evenodd;fill:url(#Oval_1_);}
	.st1{fill-rule:evenodd;clip-rule:evenodd;fill:#FFFFFF;}
	.st2{fill:#0077FF;}
	.st3{fill:#FFFFFF;}
	.st4{fill:none;}
	.st5{font-family:'ArticulatCF-Light';}
	.st6{font-size:46px;}
</style>
<g id="телега">
	
		<linearGradient id="Oval_1_" gradientUnits="userSpaceOnUse" x1="-181.5331" y1="883.6176" x2="-181.5331" y2="883.4138" gradientTransform="matrix(1000 0 0 -1000 181818 884116)">
		<stop  offset="0" style="stop-color:#2AABEE"/>
		<stop  offset="1" style="stop-color:#229ED9"/>
	</linearGradient>
	<circle id="Oval" class="st0" cx="284.9" cy="601.1" r="102.6"/>
	<path id="Path-3" class="st1" d="M228.8,600c29.9-13,49.9-21.6,59.9-25.8c28.5-11.9,34.4-13.9,38.3-14c0.8,0,2.7,0.2,4,1.2
		c1,0.8,1.3,2,1.5,2.8c0.1,0.8,0.3,2.6,0.2,4c-1.5,16.2-8.2,55.6-11.6,73.8c-1.4,7.7-4.3,10.3-7,10.5c-6,0.5-10.5-3.9-16.3-7.7
		c-9-5.9-14.1-9.6-22.9-15.4c-10.1-6.7-3.6-10.3,2.2-16.3c1.5-1.6,27.8-25.5,28.3-27.6c0.1-0.3,0.1-1.3-0.5-1.8
		c-0.6-0.5-1.5-0.4-2.1-0.2c-0.9,0.2-15.3,9.7-43.3,28.6c-4.1,2.8-7.8,4.2-11.1,4.1c-3.7-0.1-10.7-2.1-16-3.8
		c-6.4-2.1-11.5-3.2-11.1-6.7C221.3,603.9,223.9,602,228.8,600z"/>
</g>
<g id="вк">
	<path class="st2" d="M188.7,313.1c0-43.6,0-65.4,13.5-78.9c13.5-13.5,35.3-13.5,78.9-13.5h7.7c43.6,0,65.4,0,78.9,13.5
		c13.5,13.5,13.5,35.3,13.5,78.9v7.7c0,43.6,0,65.4-13.5,78.9c-13.5,13.5-35.3,13.5-78.9,13.5h-7.7c-43.6,0-65.4,0-78.9-13.5
		c-13.5-13.5-13.5-35.3-13.5-78.9V313.1z"/>
	<path class="st3" d="M291.1,359.4c-43.9,0-68.9-30.1-70-80.1h22c0.7,36.7,16.9,52.3,29.8,55.5v-55.5h20.7v31.7
		c12.7-1.4,26-15.8,30.5-31.7h20.7c-3.4,19.6-17.9,34-28.2,40c10.3,4.8,26.7,17.4,33,40.2h-22.8c-4.9-15.2-17.1-27-33.2-28.6v28.6
		H291.1z"/>
</g>
<rect x="441.3" y="276.2" class="st4" width="365.1" height="166.3"/>
<text transform="matrix(1 0 0 1 441.3244 308.4266)"><tspan x="0" y="0" class="st5 st6">vk на 6% меньше, </tspan><tspan x="0" y="55.2" class="st5 st6">чем tgm</tspan></text>
</svg>
