<?xml version="1.0" encoding="utf-8"?>
<!-- Generator: Adobe Illustrator 24.0.2, SVG Export Plug-In . SVG Version: 6.00 Build 0)  -->
<svg version="1.1" id="Слой_1" xmlns="http://www.w3.org/2000/svg" xmlns:xlink="http://www.w3.org/1999/xlink" x="0px" y="0px"
	 viewBox="0 0 205.2 205.2" style="enable-background:new 0 0 205.2 205.2;" xml:space="preserve">
<style type="text/css">
	.st0{fill-rule:evenodd;clip-rule:evenodd;fill:url(#Oval_1_);}
	.st1{fill-rule:evenodd;clip-rule:evenodd;fill:#FFFFFF;}
	.st2{fill:none;}
</style>
<g id="телега">
	
		<linearGradient id="Oval_1_" gradientUnits="userSpaceOnUse" x1="-545.3514" y1="88.7532" x2="-545.3514" y2="88.5494" gradientTransform="matrix(1000 0 0 -1000 545454 88753.2031)">
		<stop  offset="0" style="stop-color:#2AABEE"/>
		<stop  offset="1" style="stop-color:#229ED9"/>
	</linearGradient>
	<circle id="Oval" class="st0" cx="102.6" cy="102.6" r="102.6"/>
	<path id="Path-3" class="st1" d="M46.5,101.5c29.9-13,49.9-21.6,59.9-25.8c28.5-11.9,34.4-13.9,38.3-14c0.8,0,2.7,0.2,4,1.2
		c1,0.8,1.3,2,1.5,2.8c0.1,0.8,0.3,2.6,0.2,4c-1.5,16.2-8.2,55.6-11.6,73.8c-1.4,7.7-4.3,10.3-7,10.5c-6,0.5-10.5-3.9-16.3-7.7
		c-9-5.9-14.1-9.6-22.9-15.4c-10.1-6.7-3.6-10.3,2.2-16.3c1.5-1.6,27.8-25.5,28.3-27.6c0.1-0.3,0.1-1.3-0.5-1.8s-1.5-0.4-2.1-0.2
		c-0.9,0.2-15.3,9.7-43.3,28.6c-4.1,2.8-7.8,4.2-11.1,4.1c-3.7-0.1-10.7-2.1-16-3.8c-6.4-2.1-11.5-3.2-11.1-6.7
		C39,105.4,41.6,103.5,46.5,101.5z"/>
</g>
<rect x="441.3" y="-518.6" class="st2" width="365.1" height="166.3"/>
</svg>
