<svg xmlns="http://www.w3.org/2000/svg" viewBox="0 0 205.2 205.2"><linearGradient id="a" gradientUnits="userSpaceOnUse" x1="-545.351" y1="88.753" x2="-545.351" y2="88.549" gradientTransform="matrix(1000 0 0 -1000 545454 88753.203)"><stop offset="0" stop-color="#2aabee"/><stop offset="1" stop-color="#229ed9"/></linearGradient><circle cx="102.6" cy="102.6" r="102.6" fill-rule="evenodd" clip-rule="evenodd" fill="url(#a)"/><path d="M46.5 101.5c29.9-13 49.9-21.6 59.9-25.8 28.5-11.9 34.4-13.9 38.3-14 .8 0 2.7.2 4 1.2 1 .8 1.3 2 1.5 2.8.1.8.3 2.6.2 4-1.5 16.2-8.2 55.6-11.6 73.8-1.4 7.7-4.3 10.3-7 10.5-6 .5-10.5-3.9-16.3-7.7-9-5.9-14.1-9.6-22.9-15.4-10.1-6.7-3.6-10.3 2.2-16.3 1.5-1.6 27.8-25.5 28.3-27.6.1-.3.1-1.3-.5-1.8s-1.5-.4-2.1-.2c-.9.2-15.3 9.7-43.3 28.6-4.1 2.8-7.8 4.2-11.1 4.1-3.7-.1-10.7-2.1-16-3.8-6.4-2.1-11.5-3.2-11.1-6.7 0-1.8 2.6-3.7 7.5-5.7z" fill-rule="evenodd" clip-rule="evenodd" fill="#fff"/><path fill="none" d="M441.3-518.6h365.1v166.3H441.3z"/></svg>