<svg xmlns="http://www.w3.org/2000/svg" viewBox="0 0 192.5 192.5"><path d="M0 92.4C0 48.8 0 27 13.5 13.5S48.8 0 92.4 0h7.7c43.6 0 65.4 0 78.9 13.5s13.5 35.3 13.5 78.9v7.7c0 43.6 0 65.4-13.5 78.9s-35.3 13.5-78.9 13.5h-7.7c-43.6 0-65.4 0-78.9-13.5S0 143.7 0 100.1v-7.7z" fill="#07f"/><path d="M102.4 138.7c-43.9 0-68.9-30.1-70-80.1h22c.7 36.7 16.9 52.3 29.8 55.5V58.6h20.7v31.7c12.7-1.4 26-15.8 30.5-31.7h20.7c-3.4 19.6-17.9 34-28.2 40 10.3 4.8 26.7 17.4 33 40.2h-22.8c-4.9-15.2-17.1-27-33.2-28.6v28.6h-2.5v-.1z" fill="#fff"/></svg>