<svg width="119" height="191" fill="none" xmlns="http://www.w3.org/2000/svg"><path d="M107.38 36.92H45.47a8.55 8.55 0 00-8.55 8.55v133.84a8.55 8.55 0 008.55 8.55h61.91a8.55 8.55 0 008.55-8.55V45.47a8.55 8.55 0 00-8.55-8.55z" fill="#F2F2F2" fill-opacity=".3"/><path d="M107.38 36.92H45.47a8.55 8.55 0 00-8.55 8.55v133.84a8.55 8.55 0 008.55 8.55h61.91a8.55 8.55 0 008.55-8.55V45.47a8.55 8.55 0 00-8.55-8.55z" stroke="url(#paint0_linear_512_1143)" stroke-width="6" stroke-miterlimit="10"/><path d="M69.84 47.9H87.4" stroke="url(#paint1_linear_512_1143)" stroke-width="4" stroke-miterlimit="10"/><path d="M61.07 49.44a1.54 1.54 0 100-3.08 1.54 1.54 0 000 3.08z" stroke="url(#paint2_linear_512_1143)" stroke-width="4" stroke-miterlimit="10"/><path d="M23.95 41.5a17.56 17.56 0 0117.56-17.55" stroke="url(#paint3_linear_512_1143)" stroke-width="4" stroke-miterlimit="10"/><path d="M12.97 41.5a28.54 28.54 0 0128.54-28.53" stroke="url(#paint4_linear_512_1143)" stroke-width="4" stroke-miterlimit="10"/><path d="M2 41.5A39.51 39.51 0 0141.51 2" stroke="url(#paint5_linear_512_1143)" stroke-width="4" stroke-miterlimit="10"/><path d="M76.96 138.25c11.714 0 21.21-9.496 21.21-21.21s-9.496-21.21-21.21-21.21-21.21 9.496-21.21 21.21 9.496 21.21 21.21 21.21z" stroke="url(#paint6_linear_512_1143)" stroke-width="5" stroke-miterlimit="10"/><path d="M78.92 125.91l1.19-4a.6.6 0 01.71-.42l5.78 1.3a.578.578 0 01.47.61l-.17 3.75a.618.618 0 01-.62.58 20.645 20.645 0 01-20-20 .615.615 0 01.373-.579.603.603 0 01.237-.051h3.83a.595.595 0 01.59.5l1.06 5.83a.599.599 0 01-.44.69l-4.09 1" stroke="url(#paint7_linear_512_1143)" stroke-width="4" stroke-linejoin="round"/><defs><linearGradient id="paint0_linear_512_1143" x1="33.92" y1="112.39" x2="118.94" y2="112.39" gradientUnits="userSpaceOnUse"><stop stop-color="gray"/><stop offset="1" stop-color="#CCC"/></linearGradient><linearGradient id="paint1_linear_512_1143" x1="-nan" y1="-nan" x2="-nan" y2="-nan" gradientUnits="userSpaceOnUse"><stop stop-color="gray"/><stop offset="1" stop-color="#CCC"/></linearGradient><linearGradient id="paint2_linear_512_1143" x1="57.53" y1="47.899" x2="64.6" y2="47.899" gradientUnits="userSpaceOnUse"><stop stop-color="gray"/><stop offset="1" stop-color="#CCC"/></linearGradient><linearGradient id="paint3_linear_512_1143" x1="21.95" y1="31.729" x2="41.51" y2="31.729" gradientUnits="userSpaceOnUse"><stop stop-color="gray"/><stop offset="1" stop-color="#CCC"/></linearGradient><linearGradient id="paint4_linear_512_1143" x1="10.97" y1="26.241" x2="41.51" y2="26.241" gradientUnits="userSpaceOnUse"><stop stop-color="gray"/><stop offset="1" stop-color="#CCC"/></linearGradient><linearGradient id="paint5_linear_512_1143" x1="0" y1="20.75" x2="41.51" y2="20.75" gradientUnits="userSpaceOnUse"><stop stop-color="gray"/><stop offset="1" stop-color="#CCC"/></linearGradient><linearGradient id="paint6_linear_512_1143" x1="53.24" y1="117.04" x2="100.67" y2="117.04" gradientUnits="userSpaceOnUse"><stop offset=".03" stop-color="#CCC"/><stop offset=".4" stop-color="gray"/><stop offset="1" stop-color="#CCC"/></linearGradient><linearGradient id="paint7_linear_512_1143" x1="64.24" y1="117.38" x2="89.07" y2="117.38" gradientUnits="userSpaceOnUse"><stop stop-color="#B3B3B3"/><stop offset="1" stop-color="#E6E6E6"/></linearGradient></defs></svg>