<svg width="81" height="54" fill="none" xmlns="http://www.w3.org/2000/svg"><path d="M10.01 2.262c-4.34 0-7.22 3.56-7.85 7.86-.81 5.58.59 13 7.87 13h61.28c4.33 0 7.22-3.57 7.84-7.86.82-5.58-.58-13-7.86-13H10.01zm0 28.71c-4.34 0-7.22 3.57-7.85 7.86-.81 5.58.59 13 7.87 13h61.28c4.33 0 7.22-3.56 7.84-7.85.82-5.59-.58-13-7.86-13.05H40.74l-30.73.04z" stroke="#575756" stroke-width="2.7" stroke-miterlimit="10"/><path d="M19.86 36.57a1 1 0 11-1.858-.737 1 1 0 011.858.737zm7.92 8.47a1 1 0 11-1.82-.75 1 1 0 111.82.75zM13.32 17.3a1 1 0 11-1.82-.75 1.002 1.002 0 011.714-.465.999.999 0 01.106 1.215zm16.42-9.838a1 1 0 11-1.864-.72 1 1 0 011.864.72zm.93 10.36a.999.999 0 11-1.82-.75 1 1 0 111.82.75zm23.65-7.102a1 1 0 01-1.92.079c-.045-.137-.061-.281-.045-.425a1 1 0 01.135-.404 1 1 0 011.29-.54 1 1 0 01.54 1.29zm7.75 3.842a1 1 0 01-1.92.078c-.045-.136-.061-.28-.045-.424a1 1 0 111.965.346zM50.2 45.96a1 1 0 11-1.856-.746 1 1 0 011.856.747zm9.54-5.41a1.002 1.002 0 01-1.714.465 1 1 0 01-.106-1.215 1.001 1.001 0 011.714-.464 1.002 1.002 0 01.106 1.214zm-15.69-2.338a1 1 0 11-1.842-.779 1 1 0 011.842.779zm28.88-22.271a1 1 0 11-1.859-.738 1 1 0 011.86.738z" stroke="#575756" stroke-width="2.7" stroke-miterlimit="10"/></svg>