<svg width="81" height="54" viewBox="0 0 81 54" fill="none" xmlns="http://www.w3.org/2000/svg">
<path d="M10.0101 2.26172C5.67009 2.26172 2.79012 5.82158 2.16012 10.1216C1.35012 15.7016 2.75011 23.1216 10.0301 23.1216H40.5801H71.3101C75.6401 23.1216 78.5301 19.5517 79.1501 15.2617C79.9701 9.68172 78.5701 2.26172 71.2901 2.26172H40.7401H10.0101Z" stroke="#575756" stroke-width="2.7" stroke-miterlimit="10"/>
<path d="M10.0101 30.9717C5.67009 30.9717 2.79012 34.5418 2.16012 38.8318C1.35012 44.4118 2.75011 51.8318 10.0301 51.8318H40.5801H71.3101C75.6401 51.8318 78.5301 48.2717 79.1501 43.9817C79.9701 38.3917 78.5701 30.9816 71.2901 30.9316H40.7401L10.0101 30.9717Z" stroke="#575756" stroke-width="2.7" stroke-miterlimit="10"/>
<path d="M19.8601 36.5703C19.7868 36.755 19.6601 36.9135 19.4962 37.0259C19.3323 37.1382 19.1386 37.1993 18.9399 37.2012C18.7412 37.203 18.5465 37.1457 18.3805 37.0364C18.2146 36.927 18.085 36.7707 18.0082 36.5874C17.9315 36.4041 17.9111 36.202 17.9497 36.0071C17.9883 35.8121 18.0841 35.6332 18.2248 35.4929C18.3656 35.3526 18.545 35.2573 18.74 35.2195C18.9351 35.1816 19.1371 35.2029 19.3201 35.2803C19.5609 35.382 19.7522 35.5741 19.8531 35.8152C19.9541 36.0563 19.9565 36.3274 19.8601 36.5703Z" stroke="#575756" stroke-width="2.7" stroke-miterlimit="10"/>
<path d="M27.7801 45.0406C27.7492 45.1836 27.6872 45.318 27.5987 45.4344C27.5101 45.5509 27.3971 45.6464 27.2675 45.7144C27.138 45.7824 26.9951 45.8212 26.849 45.828C26.7028 45.8347 26.557 45.8092 26.4217 45.7535C26.2865 45.6978 26.1651 45.6132 26.0661 45.5055C25.9672 45.3977 25.8931 45.2695 25.8491 45.13C25.8051 44.9905 25.7922 44.8429 25.8114 44.6978C25.8306 44.5528 25.8813 44.4139 25.9601 44.2906C25.9911 44.1476 26.053 44.013 26.1416 43.8966C26.2301 43.7801 26.3431 43.6845 26.4727 43.6165C26.6022 43.5485 26.7451 43.5098 26.8913 43.503C27.0374 43.4963 27.1832 43.5217 27.3185 43.5775C27.4538 43.6332 27.5752 43.718 27.6741 43.8258C27.773 43.9335 27.8471 44.0617 27.8911 44.2013C27.9352 44.3408 27.948 44.4881 27.9289 44.6331C27.9097 44.7782 27.8589 44.9173 27.7801 45.0406Z" stroke="#575756" stroke-width="2.7" stroke-miterlimit="10"/>
<path d="M13.3202 17.3004C13.2892 17.4434 13.2273 17.5777 13.1387 17.6942C13.0501 17.8106 12.9371 17.9062 12.8076 17.9742C12.678 18.0422 12.5351 18.081 12.389 18.0877C12.2429 18.0945 12.097 18.069 11.9618 18.0133C11.8265 17.9575 11.7051 17.873 11.6062 17.7652C11.5072 17.6575 11.4331 17.5293 11.3891 17.3897C11.3451 17.2502 11.3322 17.1026 11.3514 16.9576C11.3706 16.8126 11.4214 16.6737 11.5001 16.5504C11.5311 16.4074 11.593 16.2728 11.6816 16.1563C11.7702 16.0399 11.8832 15.9443 12.0127 15.8763C12.1423 15.8083 12.2852 15.7696 12.4313 15.7628C12.5774 15.756 12.7233 15.7815 12.8585 15.8372C12.9938 15.893 13.1152 15.9778 13.2141 16.0855C13.3131 16.1933 13.3872 16.3213 13.4312 16.4608C13.4752 16.6003 13.4881 16.7479 13.4689 16.8929C13.4497 17.0379 13.3989 17.1771 13.3202 17.3004Z" stroke="#575756" stroke-width="2.7" stroke-miterlimit="10"/>
<path d="M29.7404 7.46202C29.6686 7.64791 29.5429 7.80804 29.3794 7.92198C29.216 8.03593 29.0221 8.09838 28.8229 8.10143C28.6236 8.10447 28.428 8.04797 28.2612 7.93907C28.0943 7.83018 27.9637 7.67395 27.8863 7.49034C27.8088 7.30674 27.7879 7.10408 27.8264 6.90856C27.8649 6.71303 27.9609 6.53352 28.1021 6.39293C28.2433 6.25234 28.4233 6.15708 28.619 6.11949C28.8147 6.08191 29.0172 6.10372 29.2004 6.18199C29.4388 6.28379 29.6283 6.47422 29.729 6.713C29.8297 6.95178 29.8338 7.22028 29.7404 7.46202Z" stroke="#575756" stroke-width="2.7" stroke-miterlimit="10"/>
<path d="M30.6702 17.8219C30.6393 17.9649 30.5774 18.0992 30.4888 18.2157C30.4002 18.3321 30.2872 18.4277 30.1576 18.4957C30.0281 18.5637 29.8853 18.6025 29.7391 18.6092C29.593 18.616 29.4471 18.5905 29.3119 18.5348C29.1766 18.479 29.0552 18.3945 28.9563 18.2867C28.8573 18.1789 28.7832 18.0507 28.7392 17.9112C28.6952 17.7717 28.6823 17.6241 28.7015 17.4791C28.7207 17.3341 28.7715 17.1951 28.8503 17.0719C28.8812 16.9289 28.9431 16.7943 29.0317 16.6778C29.1202 16.5614 29.2333 16.4658 29.3628 16.3978C29.4924 16.3298 29.6352 16.291 29.7814 16.2843C29.9275 16.2775 30.0733 16.303 30.2086 16.3587C30.3439 16.4145 30.4652 16.4993 30.5642 16.607C30.6631 16.7148 30.7373 16.8427 30.7813 16.9823C30.8253 17.1218 30.8381 17.2694 30.8189 17.4144C30.7998 17.5594 30.749 17.6986 30.6702 17.8219Z" stroke="#575756" stroke-width="2.7" stroke-miterlimit="10"/>
<path d="M54.3201 10.7199C54.2859 10.8597 54.222 10.9904 54.1327 11.1032C54.0434 11.2161 53.9308 11.3084 53.8025 11.3737C53.6743 11.4391 53.5335 11.476 53.3897 11.4819C53.2459 11.4878 53.1026 11.4625 52.9694 11.4079C52.8363 11.3533 52.7164 11.2706 52.6182 11.1655C52.5199 11.0604 52.4455 10.9353 52.4 10.7988C52.3545 10.6623 52.3389 10.5175 52.3545 10.3745C52.37 10.2314 52.4163 10.0935 52.49 9.96993C52.5918 9.72919 52.7839 9.5379 53.025 9.43697C53.2661 9.33604 53.5371 9.33345 53.7801 9.42989C54.0208 9.53169 54.2121 9.7237 54.313 9.9648C54.414 10.2059 54.4165 10.477 54.3201 10.7199Z" stroke="#575756" stroke-width="2.7" stroke-miterlimit="10"/>
<path d="M62.0701 14.5615C62.0359 14.7013 61.972 14.832 61.8827 14.9448C61.7934 15.0577 61.6808 15.1498 61.5525 15.2151C61.4243 15.2804 61.2835 15.3174 61.1397 15.3233C60.9959 15.3292 60.8526 15.3041 60.7194 15.2495C60.5863 15.195 60.4664 15.1122 60.3682 15.0071C60.2699 14.902 60.1955 14.7769 60.15 14.6404C60.1045 14.5039 60.0889 14.3591 60.1045 14.2161C60.12 14.073 60.1663 13.9351 60.24 13.8115C60.3628 13.606 60.5553 13.4512 60.7824 13.3755C61.0095 13.2998 61.2563 13.3082 61.4778 13.3989C61.6994 13.4897 61.881 13.657 61.9897 13.8704C62.0984 14.0837 62.1269 14.329 62.0701 14.5615Z" stroke="#575756" stroke-width="2.7" stroke-miterlimit="10"/>
<path d="M50.2005 45.9606C50.1263 46.1452 49.9988 46.3034 49.8342 46.4152C49.6696 46.5269 49.4754 46.5872 49.2764 46.588C49.0775 46.5888 48.8828 46.5302 48.7174 46.4198C48.5519 46.3094 48.4231 46.1519 48.3475 45.9679C48.2719 45.7839 48.2529 45.5815 48.2929 45.3866C48.333 45.1917 48.4302 45.0132 48.5723 44.8739C48.7143 44.7346 48.8947 44.6408 49.0903 44.6046C49.286 44.5684 49.4879 44.5913 49.6704 44.6705C49.9094 44.7742 50.0985 44.967 50.1975 45.2079C50.2964 45.4488 50.2975 45.7189 50.2005 45.9606Z" stroke="#575756" stroke-width="2.7" stroke-miterlimit="10"/>
<path d="M59.7401 40.5504C59.7091 40.6934 59.6472 40.8277 59.5587 40.9442C59.4701 41.0606 59.357 41.1562 59.2275 41.2242C59.098 41.2922 58.9551 41.331 58.809 41.3377C58.6628 41.3445 58.517 41.319 58.3817 41.2633C58.2465 41.2075 58.1251 41.123 58.0262 41.0152C57.9272 40.9075 57.8531 40.7793 57.809 40.6397C57.765 40.5002 57.7521 40.3526 57.7713 40.2076C57.7905 40.0626 57.8413 39.9237 57.9201 39.8004C57.951 39.6574 58.013 39.5228 58.1015 39.4063C58.1901 39.2899 58.3032 39.1943 58.4327 39.1263C58.5622 39.0583 58.7051 39.0196 58.8512 39.0128C58.9974 39.006 59.1432 39.0315 59.2785 39.0872C59.4137 39.143 59.5351 39.2278 59.6341 39.3355C59.733 39.4433 59.8071 39.5713 59.8512 39.7108C59.8952 39.8503 59.908 39.9979 59.8888 40.1429C59.8696 40.2879 59.8189 40.4271 59.7401 40.5504Z" stroke="#575756" stroke-width="2.7" stroke-miterlimit="10"/>
<path d="M44.0499 38.2116C43.9481 38.4524 43.7561 38.6437 43.515 38.7446C43.2739 38.8455 43.0029 38.8481 42.7599 38.7517C42.5752 38.6784 42.4166 38.5516 42.3042 38.3877C42.1918 38.2238 42.1308 38.0302 42.1289 37.8315C42.1271 37.6328 42.1845 37.4379 42.2938 37.2719C42.4031 37.106 42.5594 36.9766 42.7427 36.8999C42.926 36.8231 43.1281 36.8027 43.323 36.8413C43.518 36.8799 43.697 36.9757 43.8373 37.1164C43.9775 37.2572 44.0727 37.4365 44.1106 37.6316C44.1485 37.8266 44.1273 38.0286 44.0499 38.2116Z" stroke="#575756" stroke-width="2.7" stroke-miterlimit="10"/>
<path d="M72.9304 15.9412C72.8571 16.1259 72.7304 16.2846 72.5665 16.397C72.4026 16.5094 72.209 16.5705 72.0102 16.5723C71.8115 16.5742 71.6168 16.5166 71.4508 16.4073C71.2849 16.2979 71.1553 16.1416 71.0785 15.9583C71.0018 15.775 70.9814 15.5732 71.02 15.3782C71.0586 15.1833 71.1544 15.0041 71.2951 14.8638C71.4359 14.7235 71.6153 14.6285 71.8103 14.5906C72.0054 14.5527 72.2074 14.5738 72.3904 14.6512C72.6312 14.753 72.8225 14.945 72.9234 15.1861C73.0244 15.4272 73.0268 15.6983 72.9304 15.9412Z" stroke="#575756" stroke-width="2.7" stroke-miterlimit="10"/>
</svg>
