<svg width="102" height="39" fill="none" xmlns="http://www.w3.org/2000/svg"><path d="M84.597 39c.577-5.796 2.053-11.592 4.429-17.388C91.402 15.78 94.498 9.876 98.314 3.9h-19.17V1.2h22.302v2.7C93.382 16.356 88.81 28.056 87.73 39h-3.133zM72.79 1.2h3.131L61.287 39h-3.132L72.79 1.2zM46.88 28.578H28.952v-2.646L46.88 1.2h3.186v24.732h4.32v2.646h-4.32V39H46.88V28.578zm0-2.646V5.358L32.03 25.932h14.85zM.16 37.596c0-3.24.81-5.976 2.43-8.208 1.656-2.232 4.446-4.572 8.37-7.02 2.52-1.548 4.392-2.772 5.616-3.672 1.26-.936 2.286-1.998 3.078-3.186.828-1.224 1.242-2.646 1.242-4.266 0-2.34-.774-4.212-2.322-5.616-1.548-1.44-3.582-2.16-6.102-2.16-2.628 0-4.734.774-6.318 2.322-1.584 1.548-2.376 3.726-2.376 6.534v.756H.592v-.972c0-2.232.468-4.212 1.404-5.94.972-1.728 2.358-3.06 4.158-3.996C7.954 1.2 10.06.714 12.472.714c2.34 0 4.392.45 6.156 1.35 1.764.864 3.114 2.088 4.05 3.672.936 1.584 1.404 3.384 1.404 5.4 0 1.944-.432 3.654-1.296 5.13-.864 1.44-1.998 2.718-3.402 3.834-1.404 1.08-3.312 2.358-5.724 3.834-3.348 2.052-5.85 3.978-7.506 5.778-1.62 1.764-2.43 3.798-2.43 6.102v.432h20.682V39H.16v-1.404z" fill="#575756"/></svg>