<svg width="102" height="39" viewBox="0 0 102 39" fill="none" xmlns="http://www.w3.org/2000/svg">
<path d="M84.5975 39C85.1735 33.204 86.6496 27.408 89.0256 21.612C91.4016 15.78 94.4976 9.87598 98.3136 3.89998H79.1436V1.19998H101.446V3.89998C93.3816 16.356 88.8096 28.056 87.7296 39H84.5975Z" fill="#575756"/>
<path d="M72.7893 1.19998H75.9213L61.2873 39H58.1553L72.7893 1.19998Z" fill="#575756"/>
<path d="M46.8797 28.578H28.9517V25.932L46.8797 1.19998H50.0657V25.932H54.3857V28.578H50.0657V39H46.8797V28.578ZM46.8797 25.932V5.35798L32.0297 25.932H46.8797Z" fill="#575756"/>
<path d="M0.160156 37.596C0.160156 34.356 0.970156 31.62 2.59016 29.388C4.24616 27.156 7.03616 24.816 10.9602 22.368C13.4802 20.82 15.3522 19.596 16.5762 18.696C17.8362 17.76 18.8622 16.698 19.6542 15.51C20.4822 14.286 20.8962 12.864 20.8962 11.244C20.8962 8.90399 20.1222 7.03199 18.5742 5.62799C17.0262 4.18799 14.9922 3.46799 12.4722 3.46799C9.84416 3.46799 7.73816 4.24199 6.15416 5.78999C4.57016 7.33799 3.77816 9.51599 3.77816 12.324V13.08H0.592156V12.108C0.592156 9.87599 1.06016 7.89599 1.99616 6.16799C2.96816 4.43999 4.35416 3.10799 6.15416 2.17199C7.95416 1.19999 10.0602 0.713989 12.4722 0.713989C14.8122 0.713989 16.8642 1.16399 18.6282 2.06399C20.3922 2.92799 21.7422 4.15199 22.6782 5.73599C23.6142 7.31999 24.0822 9.11999 24.0822 11.136C24.0822 13.08 23.6502 14.79 22.7862 16.266C21.9222 17.706 20.7882 18.984 19.3842 20.1C17.9802 21.18 16.0722 22.458 13.6602 23.934C10.3122 25.986 7.81016 27.912 6.15416 29.712C4.53416 31.476 3.72416 33.51 3.72416 35.814V36.246H24.4062V39H0.160156V37.596Z" fill="#575756"/>
</svg>
