<svg width="282" height="44" viewBox="0 0 282 44" fill="none" xmlns="http://www.w3.org/2000/svg">
<path d="M38.7438 12.08H51.3564V28.25H48.9309V14.2052H41.1693V28.25H38.7438V12.08ZM67.0202 28.25H64.6178V15.9608H64.5485L56.7407 28.25H54.0611V12.08H56.4635V24.4847H56.5097L64.4099 12.08H67.0202V28.25ZM73.8775 14.1821H68.911V12.08H81.2464V14.1821H76.2799V28.25H73.8775V14.1821ZM89.1682 17.8088C91.1086 17.8088 92.5793 18.2708 93.5803 19.1948C94.5813 20.1034 95.0818 21.3739 95.0818 23.0063C95.0818 24.6541 94.5813 25.94 93.5803 26.864C92.5793 27.788 91.1086 28.25 89.1682 28.25H83.1391V12.08H85.5646V17.8088H89.1682ZM89.1682 26.1479C90.2616 26.1479 91.0855 25.8784 91.6399 25.3394C92.2097 24.8004 92.4946 24.0227 92.4946 23.0063C92.4946 22.0053 92.2097 21.243 91.6399 20.7194C91.0855 20.1804 90.2616 19.9109 89.1682 19.9109H85.5646V26.1479H89.1682ZM97.0803 12.08H107.591V14.1821H99.4827V19.0331H106.898V20.9504H99.4827V26.1479H107.822V28.25H97.0803V12.08ZM115.994 12.08C117.657 12.08 118.904 12.4342 119.736 13.1426C120.567 13.851 120.983 14.8135 120.983 16.0301C120.983 16.8771 120.791 17.5855 120.406 18.1553C120.021 18.7097 119.466 19.1178 118.743 19.3796C119.805 19.6722 120.621 20.1727 121.191 20.8811C121.761 21.5895 122.046 22.4827 122.046 23.5607C122.046 24.9621 121.545 26.094 120.544 26.9564C119.543 27.8188 118.073 28.25 116.132 28.25H109.826V12.08H115.994ZM115.832 18.6173C116.694 18.6173 117.357 18.4248 117.819 18.0398C118.281 17.6394 118.512 17.0696 118.512 16.3304C118.512 15.6066 118.281 15.0599 117.819 14.6903C117.357 14.3053 116.694 14.1128 115.832 14.1128H112.228V18.6173H115.832ZM115.994 26.1941C117.164 26.1941 118.042 25.94 118.627 25.4318C119.212 24.9236 119.505 24.246 119.505 23.399C119.505 22.552 119.212 21.8821 118.627 21.3893C118.042 20.8965 117.164 20.6501 115.994 20.6501H112.228V26.1941H115.994ZM131.062 28.481C129.599 28.481 128.306 28.1499 127.182 27.4877C126.057 26.8255 125.18 25.8707 124.548 24.6233C123.917 23.3605 123.601 21.8744 123.601 20.165C123.601 18.4556 123.917 16.9772 124.548 15.7298C125.18 14.4824 126.057 13.5276 127.182 12.8654C128.306 12.2032 129.599 11.8721 131.062 11.8721C132.51 11.8721 133.796 12.2032 134.92 12.8654C136.044 13.5276 136.922 14.4824 137.554 15.7298C138.185 16.9772 138.501 18.4556 138.501 20.165C138.501 21.8744 138.185 23.3605 137.554 24.6233C136.922 25.8707 136.044 26.8255 134.92 27.4877C133.796 28.1499 132.51 28.481 131.062 28.481ZM131.062 26.402C132.048 26.402 132.918 26.1633 133.673 25.6859C134.427 25.1931 135.013 24.477 135.428 23.5376C135.844 22.5982 136.052 21.474 136.052 20.165C136.052 18.1938 135.598 16.6692 134.689 15.5912C133.781 14.4978 132.572 13.9511 131.062 13.9511C129.538 13.9511 128.321 14.4978 127.413 15.5912C126.504 16.6692 126.05 18.1938 126.05 20.165C126.05 21.474 126.258 22.5982 126.673 23.5376C127.089 24.477 127.674 25.1931 128.429 25.6859C129.184 26.1633 130.061 26.402 131.062 26.402ZM147.199 10.7171C146.029 10.7171 145.151 10.4322 144.566 9.8624C143.996 9.2772 143.711 8.5149 143.711 7.5755H145.328C145.405 8.6689 146.029 9.2156 147.199 9.2156C148.37 9.2156 148.993 8.6689 149.07 7.5755H150.687C150.687 8.5149 150.395 9.2772 149.81 9.8624C149.224 10.4322 148.354 10.7171 147.199 10.7171ZM153.69 28.25H151.288V15.9608H151.219L143.411 28.25H140.731V12.08H143.134V24.4847H143.18L151.08 12.08H153.69V28.25ZM167.696 12.08C169.621 12.08 171.077 12.5343 172.062 13.4429C173.048 14.3515 173.541 15.6066 173.541 17.2082C173.541 18.7944 173.048 20.0418 172.062 20.9504C171.077 21.8436 169.621 22.2902 167.696 22.2902H164V28.25H161.598V12.08H167.696ZM167.604 20.1881C168.759 20.1881 169.629 19.934 170.214 19.4258C170.799 18.9022 171.092 18.163 171.092 17.2082C171.092 16.238 170.799 15.4911 170.214 14.9675C169.629 14.4439 168.759 14.1821 167.604 14.1821H164V20.1881H167.604ZM175.539 12.08H186.05V14.1821H177.942V19.0331H185.357V20.9504H177.942V26.1479H186.281V28.25H175.539V12.08ZM208.266 28.25H205.448L199.072 21.0428V28.25H196.647V21.0659L190.271 28.25H187.476L194.683 20.0264L187.73 12.08H190.549L196.647 18.9869V12.08H199.072V19.01L205.194 12.08H207.989L201.036 20.0264L208.266 28.25ZM222.99 28.25H220.588V15.9608H220.519L212.711 28.25H210.031V12.08H212.434V24.4847H212.48L220.38 12.08H222.99V28.25ZM225.687 12.08H228.644L234.049 25.0622L239.454 12.08H242.411V28.25H240.009V16.3766H239.916L234.996 28.25H233.102L228.159 16.3766H228.089V28.25H225.687V12.08Z" fill="#009245"/>
<path d="M275.65 1.18164H6.25C3.35051 1.18164 1 3.53215 1 6.43164V37.6816C1 40.5811 3.35051 42.9316 6.25 42.9316H275.65C278.55 42.9316 280.9 40.5811 280.9 37.6816V6.43164C280.9 3.53215 278.55 1.18164 275.65 1.18164Z" stroke="#009245" stroke-width="2" stroke-miterlimit="10"/>
</svg>
