<svg width="282" height="44" fill="none" xmlns="http://www.w3.org/2000/svg"><path d="M38.744 12.08h12.612v16.17h-2.425V14.205h-7.762V28.25h-2.425V12.08zM67.02 28.25h-2.402V15.96h-.07l-7.807 12.29h-2.68V12.08h2.403v12.405h.046l7.9-12.405h2.61v16.17zm6.858-14.068H68.91V12.08h12.335v2.102H76.28V28.25h-2.403V14.182zm15.29 3.627c1.94 0 3.411.462 4.412 1.386 1.001.908 1.502 2.179 1.502 3.811 0 1.648-.5 2.934-1.502 3.858-1 .924-2.471 1.386-4.412 1.386H83.14V12.08h2.426v5.729h3.603zm0 8.339c1.094 0 1.917-.27 2.472-.809.57-.539.855-1.316.855-2.333 0-1-.285-1.763-.855-2.287-.555-.539-1.378-.808-2.472-.808h-3.603v6.237h3.603zM97.08 12.08h10.511v2.102h-8.108v4.851h7.415v1.917h-7.415v5.198h8.339v2.102H97.08V12.08zm18.914 0c1.663 0 2.91.354 3.742 1.063.831.708 1.247 1.67 1.247 2.887 0 .847-.192 1.555-.577 2.125-.385.555-.94.963-1.663 1.225 1.062.292 1.878.793 2.448 1.501.57.709.855 1.602.855 2.68 0 1.401-.501 2.533-1.502 3.395-1.001.863-2.471 1.294-4.412 1.294h-6.306V12.08h6.168zm-.162 6.537c.862 0 1.525-.192 1.987-.577.462-.4.693-.97.693-1.71 0-.723-.231-1.27-.693-1.64-.462-.385-1.125-.577-1.987-.577h-3.604v4.504h3.604zm.162 7.577c1.17 0 2.048-.254 2.633-.762s.878-1.186.878-2.033-.293-1.517-.878-2.01c-.585-.492-1.463-.739-2.633-.739h-3.766v5.544h3.766zm15.068 2.287c-1.463 0-2.756-.331-3.88-.993-1.125-.662-2.002-1.617-2.634-2.865-.631-1.263-.947-2.749-.947-4.458 0-1.71.316-3.188.947-4.435.632-1.248 1.509-2.202 2.634-2.865 1.124-.662 2.417-.993 3.88-.993 1.448 0 2.734.331 3.858.993 1.124.663 2.002 1.617 2.634 2.865.631 1.247.947 2.726.947 4.435 0 1.71-.316 3.195-.947 4.458-.632 1.248-1.51 2.203-2.634 2.865-1.124.662-2.41.993-3.858.993zm0-2.079c.986 0 1.856-.239 2.611-.716.754-.493 1.34-1.209 1.755-2.148.416-.94.624-2.064.624-3.373 0-1.971-.454-3.496-1.363-4.574-.908-1.093-2.117-1.64-3.627-1.64-1.524 0-2.741.547-3.649 1.64-.909 1.078-1.363 2.603-1.363 4.574 0 1.309.208 2.433.623 3.373.416.939 1.001 1.655 1.756 2.148.755.477 1.632.716 2.633.716zm16.137-15.685c-1.17 0-2.048-.285-2.633-.855-.57-.585-.855-1.347-.855-2.287h1.617c.077 1.094.701 1.64 1.871 1.64 1.171 0 1.794-.546 1.871-1.64h1.617c0 .94-.292 1.702-.877 2.287-.586.57-1.456.855-2.611.855zm6.491 17.533h-2.402V15.96h-.069l-7.808 12.29h-2.68V12.08h2.403v12.405h.046l7.9-12.405h2.61v16.17zm14.006-16.17c1.925 0 3.381.454 4.366 1.363.986.909 1.479 2.164 1.479 3.765 0 1.586-.493 2.834-1.479 3.742-.985.894-2.441 1.34-4.366 1.34H164v5.96h-2.402V12.08h6.098zm-.092 8.108c1.155 0 2.025-.254 2.61-.762.585-.524.878-1.263.878-2.218 0-.97-.293-1.717-.878-2.24-.585-.524-1.455-.786-2.61-.786H164v6.006h3.604zm7.935-8.108h10.511v2.102h-8.108v4.851h7.415v1.917h-7.415v5.198h8.339v2.102h-10.742V12.08zm32.727 16.17h-2.818l-6.376-7.207v7.207h-2.425v-7.184l-6.376 7.184h-2.795l7.207-8.224-6.953-7.946h2.819l6.098 6.907V12.08h2.425v6.93l6.122-6.93h2.795l-6.953 7.946 7.23 8.224zm14.724 0h-2.402V15.96h-.069l-7.808 12.29h-2.68V12.08h2.403v12.405h.046l7.9-12.405h2.61v16.17zm2.697-16.17h2.957l5.405 12.982 5.405-12.982h2.957v16.17h-2.402V16.377h-.093l-4.92 11.873h-1.894l-4.943-11.873h-.07V28.25h-2.402V12.08z" fill="#009245"/><path d="M275.65 1.182H6.25A5.25 5.25 0 001 6.432v31.25c0 2.9 2.35 5.25 5.25 5.25h269.4c2.9 0 5.25-2.35 5.25-5.25V6.432c0-2.9-2.35-5.25-5.25-5.25z" stroke="#009245" stroke-width="2" stroke-miterlimit="10"/></svg>