<svg width="35" height="93" viewBox="0 0 35 93" fill="none" xmlns="http://www.w3.org/2000/svg">
<path d="M25.21 91.3901H9.43997C8.32824 91.3901 7.22744 91.1703 6.20084 90.7437C5.17424 90.317 4.24205 89.6918 3.4578 88.9038C2.67355 88.1158 2.05268 87.181 1.63089 86.1523C1.2091 85.1237 0.994704 84.0219 0.999973 82.9102V30.4004C2.26997 25.8104 10.8 14.0703 10.8 14.0703H23.86C23.86 14.0703 32.38 25.8104 33.65 30.4004V82.9102C33.6553 84.0219 33.4408 85.1237 33.019 86.1523C32.5972 87.181 31.9764 88.1158 31.1921 88.9038C30.4079 89.6918 29.4757 90.317 28.4491 90.7437C27.4225 91.1703 26.3217 91.3901 25.21 91.3901Z" stroke="#009245" stroke-width="2" stroke-miterlimit="10"/>
<path d="M12.69 1.91016H22C22.5013 1.91016 22.982 2.10942 23.3364 2.46387C23.6909 2.81831 23.89 3.29903 23.89 3.80029V8.43994H10.8V3.80029C10.8 3.55209 10.8489 3.30597 10.9438 3.07666C11.0388 2.84735 11.1781 2.63937 11.3536 2.46387C11.5291 2.28836 11.7374 2.14918 11.9667 2.0542C12.196 1.95922 12.4418 1.91016 12.69 1.91016Z" stroke="#009245" stroke-width="2" stroke-miterlimit="10"/>
</svg>
