<svg width="100" height="39" viewBox="0 0 100 39" fill="none" xmlns="http://www.w3.org/2000/svg">
<path d="M83.5749 38.8983C84.8041 27.6906 89.5041 15.6875 97.6749 2.88908H77.8807V0.936768H99.8441V2.88908C91.5649 15.9045 86.9011 27.9075 85.8526 38.8983H83.5749Z" fill="#009245"/>
<path d="M72.4525 0.936768H74.6218L59.9252 38.8983H57.756L72.4525 0.936768Z" fill="#009245"/>
<path d="M47.3428 28.1064H29.0128V26.2083L47.3428 0.936768H49.5663V26.2083H53.9047V28.1064H49.5663V38.8983H47.3428V28.1064ZM47.3428 26.2083V4.02792L31.2363 26.2083H47.3428Z" fill="#009245"/>
<path d="M0.519226 37.5968C0.519226 35.4276 0.898841 33.5114 1.65807 31.8484C2.4173 30.1853 3.57423 28.6307 5.12884 27.1845C6.71961 25.7383 8.87077 24.1837 11.5823 22.5207C14.1131 20.8937 16.0292 19.5922 17.3308 18.616C18.6323 17.6399 19.6808 16.5191 20.4762 15.2537C21.2715 13.9883 21.6692 12.506 21.6692 10.8068C21.6692 8.31219 20.8558 6.28758 19.2288 4.73296C17.6019 3.17835 15.3785 2.40104 12.5585 2.40104C9.73846 2.40104 7.46077 3.23258 5.72538 4.89565C4.02615 6.55873 3.17653 8.89065 3.17653 11.8914V12.6507H0.953072V11.7287C0.953072 8.33027 2.00153 5.60066 4.09846 3.53989C6.23153 1.47912 9.05153 0.44873 12.5585 0.44873C14.8362 0.44873 16.8246 0.900654 18.5238 1.8045C20.2592 2.67219 21.5788 3.90142 22.4827 5.49219C23.4227 7.04681 23.8927 8.81835 23.8927 10.8068C23.8927 12.723 23.4588 14.4041 22.5912 15.8503C21.7596 17.2964 20.6208 18.5799 19.1746 19.7007C17.7646 20.8214 15.8485 22.123 13.4262 23.6053C9.91923 25.8107 7.29807 27.8714 5.56269 29.7876C3.8273 31.7037 2.95961 33.9272 2.95961 36.458V36.8918H24.3265V38.8983H0.519226V37.5968Z" fill="#009245"/>
</svg>
