<svg width="100" height="39" fill="none" xmlns="http://www.w3.org/2000/svg"><path d="M83.575 38.898c1.23-11.207 5.93-23.21 14.1-36.009H77.88V.937h21.963v1.952c-8.28 13.016-12.943 25.018-13.991 36.01h-2.278zM72.453.937h2.169L59.925 38.898h-2.169L72.453.937zm-25.11 27.169h-18.33v-1.898L47.343.937h2.223v25.271h4.339v1.898h-4.339v10.792h-2.223V28.106zm0-1.898V4.028l-16.107 22.18h16.107zM.52 37.597c0-2.17.379-4.086 1.138-5.749.76-1.663 1.916-3.217 3.47-4.663 1.592-1.447 3.743-3.001 6.454-4.664 2.531-1.627 4.447-2.929 5.749-3.905 1.301-.976 2.35-2.097 3.145-3.362.796-1.266 1.193-2.748 1.193-4.447 0-2.495-.813-4.52-2.44-6.074-1.627-1.555-3.85-2.332-6.67-2.332s-5.098.832-6.834 2.495C4.026 6.559 3.177 8.89 3.177 11.89v.76H.953v-.922c0-3.399 1.049-6.128 3.145-8.19C6.232 1.48 9.052.45 12.558.45c2.278 0 4.267.452 5.966 1.355 1.735.868 3.055 2.097 3.959 3.688.94 1.555 1.41 3.326 1.41 5.315 0 1.916-.434 3.597-1.302 5.043-.831 1.446-1.97 2.73-3.416 3.85-1.41 1.121-3.327 2.423-5.749 3.905-3.507 2.206-6.128 4.266-7.863 6.183-1.736 1.916-2.603 4.14-2.603 6.67v.434h21.366v2.006H.52v-1.301z" fill="#009245"/></svg>