<svg width="76" height="50" viewBox="0 0 76 50" fill="none" xmlns="http://www.w3.org/2000/svg">
<path d="M9.24001 1.61914C5.15001 1.61914 2.43005 4.9793 1.84005 9.0293C1.08005 14.2893 2.39003 21.2793 9.26003 21.3193H38.06H67.06C71.15 21.3193 73.87 17.9492 74.46 13.9092C75.22 8.63918 73.91 1.64937 67.04 1.60938H38.24L9.24001 1.61914Z" stroke="#009245" stroke-width="2" stroke-miterlimit="10"/>
<path d="M9.24001 28.6895C5.15001 28.6895 2.43005 32.0496 1.84005 36.0996C1.08005 41.3596 2.39003 48.3496 9.26003 48.3896H38.06H67.06C71.15 48.3896 73.87 45.0195 74.46 40.9795C75.22 35.7095 73.91 28.7197 67.04 28.6797H38.24L9.24001 28.6895Z" stroke="#009245" stroke-width="2" stroke-miterlimit="10"/>
<path d="M18.53 33.9707C18.4329 34.1974 18.2505 34.3767 18.0223 34.4702C17.7941 34.5638 17.5383 34.5641 17.31 34.4707C17.1963 34.4258 17.0929 34.3587 17.0058 34.273C16.9188 34.1872 16.8498 34.0846 16.8031 33.9717C16.7565 33.8588 16.7331 33.7379 16.7342 33.6157C16.7354 33.4935 16.7612 33.3727 16.81 33.2607C16.855 33.1471 16.9222 33.0434 17.0077 32.9561C17.0932 32.8687 17.1953 32.7994 17.308 32.752C17.4206 32.7045 17.5416 32.6799 17.6639 32.6797C17.7861 32.6795 17.9072 32.7034 18.02 32.7505C18.2389 32.8569 18.4115 33.0396 18.5054 33.2642C18.5993 33.4888 18.6081 33.7401 18.53 33.9707Z" stroke="#009245" stroke-width="2" stroke-miterlimit="10"/>
<path d="M26 41.9092C25.9069 42.137 25.7272 42.3185 25.5004 42.4141C25.2736 42.5097 25.0181 42.5114 24.79 42.4189C24.677 42.3723 24.5744 42.3041 24.4879 42.2178C24.4014 42.1315 24.3328 42.0293 24.2859 41.9165C24.239 41.8037 24.2147 41.6827 24.2146 41.5605C24.2145 41.4384 24.2384 41.317 24.285 41.2041C24.3316 41.0912 24.4 40.9884 24.4863 40.9019C24.5726 40.8154 24.6751 40.7471 24.7879 40.7002C24.9007 40.6533 25.0217 40.6291 25.1439 40.6289C25.266 40.6288 25.3871 40.6526 25.5 40.6992C25.6128 40.7452 25.7153 40.813 25.8016 40.8989C25.888 40.9848 25.9563 41.0871 26.0028 41.1997C26.0493 41.3123 26.0731 41.4329 26.0726 41.5547C26.0721 41.6765 26.0474 41.797 26 41.9092Z" stroke="#009245" stroke-width="2" stroke-miterlimit="10"/>
<path d="M12.36 15.8003C12.2668 16.0281 12.0872 16.2096 11.8604 16.3052C11.6336 16.4008 11.3781 16.4025 11.15 16.3101C11.0371 16.2634 10.9344 16.1952 10.8479 16.1089C10.7614 16.0226 10.6928 15.92 10.6459 15.8071C10.599 15.6943 10.5747 15.5734 10.5746 15.4512C10.5744 15.329 10.5984 15.2082 10.645 15.0952C10.6916 14.9823 10.76 14.8795 10.8463 14.793C10.9326 14.7065 11.0351 14.6377 11.1479 14.5908C11.2607 14.5439 11.3817 14.5197 11.5038 14.5195C11.626 14.5194 11.747 14.5437 11.86 14.5903C11.9728 14.6363 12.0753 14.7041 12.1616 14.79C12.2479 14.876 12.3163 14.9783 12.3629 15.0908C12.4094 15.2034 12.433 15.324 12.4326 15.4458C12.4321 15.5676 12.4074 15.6881 12.36 15.8003Z" stroke="#009245" stroke-width="2" stroke-miterlimit="10"/>
<path d="M27.84 6.52979C27.7459 6.75787 27.565 6.93899 27.3371 7.03369C27.1093 7.1284 26.8531 7.12882 26.625 7.03467C26.3969 6.94052 26.2156 6.7596 26.1209 6.53174C26.0262 6.30388 26.0259 6.04791 26.12 5.81982C26.1666 5.70689 26.235 5.60408 26.3213 5.51758C26.4076 5.43108 26.5101 5.36232 26.6229 5.31543C26.7358 5.26854 26.8567 5.24429 26.9789 5.24414C27.1011 5.24399 27.2221 5.26783 27.335 5.31445C27.448 5.36107 27.5506 5.42982 27.6371 5.51611C27.7236 5.6024 27.7922 5.70456 27.8391 5.81738C27.886 5.93021 27.9103 6.05116 27.9104 6.17334C27.9106 6.29552 27.8867 6.41685 27.84 6.52979Z" stroke="#009245" stroke-width="2" stroke-miterlimit="10"/>
<path d="M28.72 16.2896C28.6136 16.5086 28.4309 16.6811 28.2063 16.775C27.9817 16.8689 27.7306 16.878 27.5 16.7999C27.3273 16.7301 27.1792 16.6103 27.0745 16.4561C26.9699 16.302 26.9134 16.12 26.9123 15.9337C26.9112 15.7474 26.9655 15.5652 27.0683 15.4098C27.1711 15.2544 27.3178 15.133 27.4898 15.0611C27.6617 14.9893 27.8511 14.97 28.0339 15.006C28.2167 15.042 28.3847 15.1316 28.5166 15.2633C28.6484 15.395 28.7381 15.5629 28.7744 15.7457C28.8106 15.9285 28.7916 16.1176 28.72 16.2896Z" stroke="#009245" stroke-width="2" stroke-miterlimit="10"/>
<path d="M51 9.58997C50.9309 9.76057 50.8127 9.9065 50.6604 10.0099C50.5082 10.1133 50.3286 10.1692 50.1445 10.1705C49.9605 10.1718 49.7802 10.1185 49.6264 10.0172C49.4727 9.91597 49.3525 9.7713 49.281 9.60169C49.2096 9.43207 49.19 9.24531 49.2248 9.06458C49.2597 8.88384 49.3475 8.7174 49.4769 8.58655C49.6064 8.4557 49.7717 8.36603 49.9521 8.32923C50.1324 8.29242 50.3196 8.31035 50.49 8.38001C50.6036 8.42504 50.7072 8.49226 50.7945 8.57776C50.8819 8.66327 50.9514 8.76491 50.9989 8.87757C51.0464 8.99022 51.0709 9.11127 51.0711 9.23352C51.0713 9.35578 51.0471 9.47717 51 9.58997Z" stroke="#009245" stroke-width="2" stroke-miterlimit="10"/>
<path d="M58.32 13.2111C58.279 13.3309 58.2141 13.4411 58.129 13.5348C58.044 13.6286 57.9407 13.704 57.8255 13.7565C57.7103 13.809 57.5856 13.8374 57.4591 13.84C57.3325 13.8426 57.2067 13.8194 57.0895 13.7717C56.9722 13.7239 56.866 13.6529 56.7772 13.5627C56.6884 13.4724 56.619 13.3647 56.5731 13.2467C56.5273 13.1287 56.5061 13.0026 56.5107 12.8761C56.5153 12.7496 56.5457 12.6257 56.6 12.5114C56.7019 12.2969 56.882 12.1296 57.1034 12.0436C57.3248 11.9576 57.5707 11.9595 57.7907 12.049C58.0106 12.1385 58.188 12.3089 58.2864 12.5251C58.3849 12.7412 58.3969 12.9864 58.32 13.2111Z" stroke="#009245" stroke-width="2" stroke-miterlimit="10"/>
<path d="M47.13 42.82C47.0834 42.9329 47.015 43.0352 46.9287 43.1217C46.8424 43.2082 46.7399 43.277 46.6271 43.3239C46.5143 43.3708 46.3933 43.395 46.2711 43.3952C46.1489 43.3953 46.0279 43.3715 45.915 43.3248C45.802 43.2782 45.6994 43.21 45.6129 43.1237C45.5264 43.0374 45.4578 42.9347 45.4109 42.8219C45.364 42.7091 45.3397 42.5881 45.3396 42.466C45.3395 42.3438 45.3634 42.2229 45.41 42.11C45.5164 41.8911 45.699 41.718 45.9236 41.6242C46.1482 41.5303 46.3994 41.5217 46.63 41.5997C46.7431 41.6468 46.8458 41.7155 46.9323 41.8024C47.0187 41.8892 47.0871 41.9927 47.1335 42.1061C47.18 42.2195 47.2036 42.3405 47.203 42.463C47.2024 42.5855 47.1776 42.7071 47.13 42.82Z" stroke="#009245" stroke-width="2" stroke-miterlimit="10"/>
<path d="M56.13 37.7195C56.0236 37.9384 55.841 38.1109 55.6164 38.2048C55.3918 38.2987 55.1406 38.3073 54.91 38.2292C54.7051 38.1193 54.5482 37.9374 54.4697 37.7185C54.3912 37.4996 54.3966 37.2593 54.4849 37.0442C54.5732 36.829 54.7381 36.6541 54.9477 36.5534C55.1574 36.4528 55.3969 36.4335 55.62 36.4992C55.839 36.6057 56.0115 36.7883 56.1054 37.0129C56.1993 37.2375 56.2081 37.4889 56.13 37.7195Z" stroke="#009245" stroke-width="2" stroke-miterlimit="10"/>
<path d="M41.33 35.5503C41.283 35.6634 41.214 35.7661 41.1272 35.8525C41.0403 35.939 40.9373 36.0072 40.8239 36.0537C40.7105 36.1002 40.5891 36.1237 40.4666 36.123C40.3441 36.1224 40.2229 36.0979 40.11 36.0503C39.997 36.0037 39.8944 35.9349 39.8079 35.8486C39.7214 35.7623 39.6527 35.6602 39.6058 35.5474C39.5589 35.4345 39.5348 35.3136 39.5346 35.1914C39.5345 35.0692 39.5584 34.9479 39.605 34.835C39.6516 34.722 39.72 34.6197 39.8063 34.5332C39.8926 34.4467 39.9951 34.3779 40.1079 34.3311C40.2207 34.2842 40.3417 34.2599 40.4639 34.2598C40.586 34.2596 40.7071 34.2835 40.82 34.3301C41.0389 34.4365 41.2115 34.6191 41.3054 34.8438C41.3993 35.0684 41.4081 35.3197 41.33 35.5503Z" stroke="#009245" stroke-width="2" stroke-miterlimit="10"/>
<path d="M68.56 14.5201C68.4894 14.6895 68.3703 14.8343 68.2177 14.9361C68.065 15.038 67.8856 15.0923 67.7021 15.0924C67.5186 15.0925 67.3391 15.0383 67.1864 14.9366C67.0336 14.835 66.9143 14.6904 66.8435 14.5211C66.7727 14.3518 66.7536 14.1656 66.7886 13.9854C66.8236 13.8053 66.9111 13.6394 67.04 13.5089C67.169 13.3784 67.3338 13.2887 67.5135 13.2516C67.6932 13.2144 67.8799 13.2316 68.05 13.3004C68.2785 13.3956 68.4603 13.5768 68.5558 13.8053C68.6513 14.0337 68.6528 14.2906 68.56 14.5201Z" stroke="#009245" stroke-width="2" stroke-miterlimit="10"/>
</svg>
