<svg width="76" height="50" fill="none" xmlns="http://www.w3.org/2000/svg"><path d="M9.24 1.62c-4.09 0-6.81 3.36-7.4 7.41-.76 5.26.55 12.25 7.42 12.29h57.8c4.09 0 6.81-3.37 7.4-7.41.76-5.27-.55-12.26-7.42-12.3h-28.8l-29 .01zm0 27.07c-4.09 0-6.81 3.36-7.4 7.41-.76 5.26.55 12.25 7.42 12.29h57.8c4.09 0 6.81-3.37 7.4-7.41.76-5.27-.55-12.26-7.42-12.3h-28.8l-29 .01z" stroke="#009245" stroke-width="2" stroke-miterlimit="10"/><path d="M18.53 33.97a.94.94 0 01-1.22.5.91.91 0 01-.5-1.21.92.92 0 011.21-.51 1 1 0 01.51 1.22zM26 41.91a.93.93 0 01-1.512.308.93.93 0 011.012-1.519.92.92 0 01.5 1.21zm1.84-35.38a.93.93 0 11-1.719-.71.93.93 0 011.719.71zm.88 9.76a1 1 0 01-1.22.51.94.94 0 111.22-.51zm-16.912-.989a1 1 0 01-1.22.51.941.941 0 111.22-.51zM51 9.59a.93.93 0 11-.51-1.21.92.92 0 01.51 1.21zm7.32 3.621a.928.928 0 01-1.747.036.93.93 0 111.747-.036zM47.13 42.82a.929.929 0 01-1.215.505.929.929 0 01-.505-1.215 1 1 0 011.22-.51.931.931 0 01.5 1.22zm9-5.1a1 1 0 01-1.22.51.94.94 0 01.71-1.73 1 1 0 01.51 1.22zm-14.8-2.17a.93.93 0 01-1.522.299.93.93 0 011.012-1.519 1 1 0 01.51 1.22zm27.23-21.03a.93.93 0 11-.51-1.22.94.94 0 01.51 1.22z" stroke="#009245" stroke-width="2" stroke-miterlimit="10"/></svg>