<?xml version="1.0" encoding="utf-8"?>
<!-- Generator: Adobe Illustrator 24.0.2, SVG Export Plug-In . SVG Version: 6.00 Build 0)  -->
<svg version="1.1" id="Слой_1" xmlns="http://www.w3.org/2000/svg" xmlns:xlink="http://www.w3.org/1999/xlink" x="0px" y="0px"
	 viewBox="0 0 76 50" style="enable-background:new 0 0 76 50;" xml:space="preserve">
<style type="text/css">
	.st0{fill:none;stroke:#009245;stroke-width:2;stroke-miterlimit:10;}
</style>
<path class="st0" d="M9.2,1.6C5.2,1.6,2.4,5,1.8,9c-0.8,5.3,0.5,12.3,7.4,12.3h28.8h29c4.1,0,6.8-3.4,7.4-7.4
	C75.2,8.6,73.9,1.6,67,1.6H38.2L9.2,1.6z"/>
<path class="st0" d="M9.2,28.7c-4.1,0-6.8,3.4-7.4,7.4c-0.8,5.3,0.5,12.3,7.4,12.3h28.8h29c4.1,0,6.8-3.4,7.4-7.4
	c0.8-5.3-0.5-12.3-7.4-12.3H38.2L9.2,28.7z"/>
<path class="st0" d="M18.5,34c-0.1,0.2-0.3,0.4-0.5,0.5c-0.2,0.1-0.5,0.1-0.7,0c-0.1,0-0.2-0.1-0.3-0.2c-0.1-0.1-0.2-0.2-0.2-0.3
	c0-0.1-0.1-0.2-0.1-0.4c0-0.1,0-0.2,0.1-0.4c0-0.1,0.1-0.2,0.2-0.3c0.1-0.1,0.2-0.2,0.3-0.2c0.1,0,0.2-0.1,0.4-0.1
	c0.1,0,0.2,0,0.4,0.1c0.2,0.1,0.4,0.3,0.5,0.5C18.6,33.5,18.6,33.7,18.5,34z"/>
<path class="st0" d="M26,41.9c-0.1,0.2-0.3,0.4-0.5,0.5c-0.2,0.1-0.5,0.1-0.7,0c-0.1,0-0.2-0.1-0.3-0.2s-0.2-0.2-0.2-0.3
	s-0.1-0.2-0.1-0.4c0-0.1,0-0.2,0.1-0.4s0.1-0.2,0.2-0.3c0.1-0.1,0.2-0.2,0.3-0.2c0.1,0,0.2-0.1,0.4-0.1c0.1,0,0.2,0,0.4,0.1
	c0.1,0,0.2,0.1,0.3,0.2c0.1,0.1,0.2,0.2,0.2,0.3c0,0.1,0.1,0.2,0.1,0.4S26,41.8,26,41.9z"/>
<path class="st0" d="M27.8,6.5c-0.1,0.2-0.3,0.4-0.5,0.5c-0.2,0.1-0.5,0.1-0.7,0s-0.4-0.3-0.5-0.5S26,6,26.1,5.8
	c0-0.1,0.1-0.2,0.2-0.3s0.2-0.2,0.3-0.2c0.1,0,0.2-0.1,0.4-0.1c0.1,0,0.2,0,0.4,0.1c0.1,0,0.2,0.1,0.3,0.2s0.2,0.2,0.2,0.3
	c0,0.1,0.1,0.2,0.1,0.4C27.9,6.3,27.9,6.4,27.8,6.5z"/>
<path class="st0" d="M12.4,15.8c-0.1,0.2-0.3,0.4-0.5,0.5c-0.2,0.1-0.5,0.1-0.7,0c-0.2-0.1-0.4-0.3-0.5-0.5s-0.1-0.5,0-0.7
	c0-0.1,0.1-0.2,0.2-0.3s0.2-0.2,0.3-0.2c0.1,0,0.2-0.1,0.4-0.1s0.2,0,0.4,0.1c0.1,0,0.2,0.1,0.3,0.2c0.1,0.1,0.2,0.2,0.2,0.3
	c0,0.1,0.1,0.2,0.1,0.4C12.4,15.6,12.4,15.7,12.4,15.8z"/>
<path class="st0" d="M28.7,16.3c-0.1,0.2-0.3,0.4-0.5,0.5c-0.2,0.1-0.5,0.1-0.7,0c-0.2-0.1-0.3-0.2-0.4-0.3
	c-0.1-0.2-0.2-0.3-0.2-0.5c0-0.2,0.1-0.4,0.2-0.5c0.1-0.2,0.2-0.3,0.4-0.3C27.7,15,27.9,15,28,15c0.2,0,0.4,0.1,0.5,0.3
	c0.1,0.1,0.2,0.3,0.3,0.5C28.8,15.9,28.8,16.1,28.7,16.3z"/>
<path class="st0" d="M51,9.6c-0.1,0.2-0.2,0.3-0.3,0.4c-0.2,0.1-0.3,0.2-0.5,0.2c-0.2,0-0.4-0.1-0.5-0.2c-0.2-0.1-0.3-0.2-0.3-0.4
	c-0.1-0.2-0.1-0.4-0.1-0.5c0-0.2,0.1-0.3,0.3-0.5c0.1-0.1,0.3-0.2,0.5-0.3c0.2,0,0.4,0,0.5,0.1c0.1,0,0.2,0.1,0.3,0.2
	C50.9,8.7,51,8.8,51,8.9c0,0.1,0.1,0.2,0.1,0.4C51.1,9.4,51,9.5,51,9.6z"/>
<path class="st0" d="M58.3,13.2c0,0.1-0.1,0.2-0.2,0.3c-0.1,0.1-0.2,0.2-0.3,0.2s-0.2,0.1-0.4,0.1c-0.1,0-0.3,0-0.4-0.1
	c-0.1,0-0.2-0.1-0.3-0.2c-0.1-0.1-0.2-0.2-0.2-0.3c0-0.1-0.1-0.2-0.1-0.4c0-0.1,0-0.3,0.1-0.4c0.1-0.2,0.3-0.4,0.5-0.5
	c0.2-0.1,0.5-0.1,0.7,0c0.2,0.1,0.4,0.3,0.5,0.5C58.4,12.7,58.4,13,58.3,13.2z"/>
<path class="st0" d="M47.1,42.8c0,0.1-0.1,0.2-0.2,0.3c-0.1,0.1-0.2,0.2-0.3,0.2c-0.1,0-0.2,0.1-0.4,0.1c-0.1,0-0.2,0-0.4-0.1
	c-0.1,0-0.2-0.1-0.3-0.2c-0.1-0.1-0.2-0.2-0.2-0.3s-0.1-0.2-0.1-0.4c0-0.1,0-0.2,0.1-0.4c0.1-0.2,0.3-0.4,0.5-0.5
	c0.2-0.1,0.5-0.1,0.7,0c0.1,0,0.2,0.1,0.3,0.2c0.1,0.1,0.2,0.2,0.2,0.3c0,0.1,0.1,0.2,0.1,0.4C47.2,42.6,47.2,42.7,47.1,42.8z"/>
<path class="st0" d="M56.1,37.7c-0.1,0.2-0.3,0.4-0.5,0.5c-0.2,0.1-0.5,0.1-0.7,0c-0.2-0.1-0.4-0.3-0.4-0.5c-0.1-0.2-0.1-0.5,0-0.7
	c0.1-0.2,0.3-0.4,0.5-0.5c0.2-0.1,0.4-0.1,0.7-0.1c0.2,0.1,0.4,0.3,0.5,0.5C56.2,37.2,56.2,37.5,56.1,37.7z"/>
<path class="st0" d="M41.3,35.6c0,0.1-0.1,0.2-0.2,0.3c-0.1,0.1-0.2,0.2-0.3,0.2c-0.1,0-0.2,0.1-0.4,0.1c-0.1,0-0.2,0-0.4-0.1
	c-0.1,0-0.2-0.1-0.3-0.2c-0.1-0.1-0.2-0.2-0.2-0.3c0-0.1-0.1-0.2-0.1-0.4c0-0.1,0-0.2,0.1-0.4c0-0.1,0.1-0.2,0.2-0.3
	c0.1-0.1,0.2-0.2,0.3-0.2c0.1,0,0.2-0.1,0.4-0.1c0.1,0,0.2,0,0.4,0.1c0.2,0.1,0.4,0.3,0.5,0.5C41.4,35.1,41.4,35.3,41.3,35.6z"/>
<path class="st0" d="M68.6,14.5c-0.1,0.2-0.2,0.3-0.3,0.4c-0.2,0.1-0.3,0.2-0.5,0.2c-0.2,0-0.4-0.1-0.5-0.2
	c-0.2-0.1-0.3-0.2-0.3-0.4s-0.1-0.4-0.1-0.5c0-0.2,0.1-0.3,0.3-0.5c0.1-0.1,0.3-0.2,0.5-0.3c0.2,0,0.4,0,0.5,0
	c0.2,0.1,0.4,0.3,0.5,0.5C68.7,14,68.7,14.3,68.6,14.5z"/>
</svg>
