<svg width="95" height="99" fill="none" xmlns="http://www.w3.org/2000/svg"><path d="M43.8 80.277H28.38m-9.9-5.499a9.229 9.229 0 01-.79-3.75v-60.09a9.25 9.25 0 019.25-9.25h33.72a9.26 9.26 0 019.26 9.25v59" stroke="#009245" stroke-width="2" stroke-miterlimit="10"/><path d="M44.41 50.238c8.146 0 14.75-6.603 14.75-14.75 0-8.146-6.604-14.75-14.75-14.75s-14.75 6.604-14.75 14.75c0 8.147 6.604 14.75 14.75 14.75z" stroke="#009245" stroke-width="2" stroke-miterlimit="10"/><path d="M37.53 8.318h12.62m-17.21.691a.69.69 0 100-1.38.69.69 0 000 1.38z" stroke="#009245" stroke-width="2" stroke-miterlimit="10" stroke-linecap="round"/><path d="M39.3 41.428v-13.38s4.12-.08 5.48.09a3.189 3.189 0 013.14 3.32c0 2.5-1.71 3.39-3.5 3.5-1 .06-3.83-.06-3.83-.06h-2.87m.04 3.379h8.87" stroke="#009245" stroke-width="2" stroke-miterlimit="10"/><path d="M6.37 47.189v-27.72m-4.52 3.89l4.48-4.48 4.43 4.44m70.56 23.87v-27.72m-4.53 3.89l4.48-4.48 4.44 4.44m-4.46 30.489a.81.81 0 100-1.62.81.81 0 000 1.62zM6.37 96.757s-.07-23.45 0-31.4c1.12-5.57 8.78-20.95 8.78-20.95l2.46-2.46m-1.06 35.292l9.89-16.61a4.81 4.81 0 016.46-1.39c4.41 2.56 1.78 6.12 1.78 6.12l-7.1 13 4.75 8.49.13 9.89" stroke="#009245" stroke-width="2" stroke-miterlimit="10" stroke-linecap="round"/><path d="M47.47 66.818h-7.34a2.92 2.92 0 00-2.92 2.92v.34a2.92 2.92 0 002.92 2.92h7.34a2.92 2.92 0 002.92-2.92v-.34a2.92 2.92 0 00-2.92-2.92z" stroke="#009245" stroke-width="2" stroke-miterlimit="10"/><path d="M50.39 97.198l-6.58-11c-.48-1.56-1.75-4 .92-6.46 2.3-2.13 5.12-.91 6.46 0l4.18 6.34v-30.3c.19-1.94.13-5.13 5.07-5.13 3.43 0 4.5 3.19 4.5 5.07l-.12 25.69 1.64-9c.32-1.9 3.14-2.6 4.43-2.45a4.34 4.34 0 013.37 3.09l.34 9.16 1.18-7.7a4.48 4.48 0 014.66-2.8c1.62.2 3.64 1.9 3.71 3.11l.72 7.21.8-4.36c.73-3.71 2.52-4 3.93-4.06a3.87 3.87 0 014.25 4.06v19.58" stroke="#009245" stroke-width="2" stroke-linecap="round" stroke-linejoin="round"/></svg>