<svg width="102" height="102" fill="none" xmlns="http://www.w3.org/2000/svg"><path d="M20.13 72.428L3.59 88.998c-2.81 2.81-3.43 6.75-.62 9.55 2.81 2.8 6.44 2.45 9.25-.36l16.55-16.54-8.64-9.22zm40.44-.881c16.734 0 30.3-13.566 30.3-30.3s-13.566-30.3-30.3-30.3-30.3 13.566-30.3 30.3 13.566 30.3 30.3 30.3z" stroke="#009245" stroke-width="2" stroke-miterlimit="10"/><path d="M60.57 80.707c21.793 0 39.46-17.667 39.46-39.46S82.363 1.787 60.57 1.787s-39.46 17.667-39.46 39.46 17.667 39.46 39.46 39.46zm-27.4-12.389l-8.67 8.67" stroke="#009245" stroke-width="2" stroke-miterlimit="10"/></svg>