<svg width="172" height="45" viewBox="0 0 172 45" fill="none" xmlns="http://www.w3.org/2000/svg">
<path d="M26.3083 28.5707C24.8453 28.5707 23.5517 28.2396 22.4275 27.5774C21.3033 26.9152 20.4255 25.9604 19.7941 24.713C19.1627 23.4502 18.847 21.9641 18.847 20.2547C18.847 18.5453 19.1627 17.0669 19.7941 15.8195C20.4255 14.5721 21.3033 13.6173 22.4275 12.9551C23.5517 12.2929 24.8453 11.9618 26.3083 11.9618C27.7559 11.9618 29.0418 12.2929 30.166 12.9551C31.2902 13.6173 32.168 14.5721 32.7994 15.8195C33.4308 17.0669 33.7465 18.5453 33.7465 20.2547C33.7465 21.9641 33.4308 23.4502 32.7994 24.713C32.168 25.9604 31.2902 26.9152 30.166 27.5774C29.0418 28.2396 27.7559 28.5707 26.3083 28.5707ZM26.3083 26.4917C27.2939 26.4917 28.164 26.253 28.9186 25.7756C29.6732 25.2828 30.2584 24.5667 30.6742 23.6273C31.09 22.6879 31.2979 21.5637 31.2979 20.2547C31.2979 18.2835 30.8436 16.7589 29.935 15.6809C29.0264 14.5875 27.8175 14.0408 26.3083 14.0408C24.7837 14.0408 23.5671 14.5875 22.6585 15.6809C21.7499 16.7589 21.2956 18.2835 21.2956 20.2547C21.2956 21.5637 21.5035 22.6879 21.9193 23.6273C22.3351 24.5667 22.9203 25.2828 23.6749 25.7756C24.4295 26.253 25.3073 26.4917 26.3083 26.4917ZM49.7615 26.3069V29.9336H47.4284V28.3397H36.8024V29.9336H34.4693V26.3069H35.3702C36.0478 25.7063 36.5406 24.6283 36.8486 23.0729C37.1566 21.5021 37.3106 19.2075 37.3106 16.1891V12.1697H48.5603V26.3069H49.7615ZM39.7361 16.1891C39.7361 19.2383 39.5975 21.5406 39.3203 23.096C39.0431 24.636 38.5888 25.7063 37.9574 26.3069H46.1117V14.2949H39.7361V16.1891ZM58.2513 28.5707C56.7883 28.5707 55.4947 28.2396 54.3705 27.5774C53.2463 26.9152 52.3685 25.9604 51.7371 24.713C51.1057 23.4502 50.79 21.9641 50.79 20.2547C50.79 18.5453 51.1057 17.0669 51.7371 15.8195C52.3685 14.5721 53.2463 13.6173 54.3705 12.9551C55.4947 12.2929 56.7883 11.9618 58.2513 11.9618C59.6989 11.9618 60.9848 12.2929 62.109 12.9551C63.2332 13.6173 64.111 14.5721 64.7424 15.8195C65.3738 17.0669 65.6895 18.5453 65.6895 20.2547C65.6895 21.9641 65.3738 23.4502 64.7424 24.713C64.111 25.9604 63.2332 26.9152 62.109 27.5774C60.9848 28.2396 59.6989 28.5707 58.2513 28.5707ZM58.2513 26.4917C59.2369 26.4917 60.107 26.253 60.8616 25.7756C61.6162 25.2828 62.2014 24.5667 62.6172 23.6273C63.033 22.6879 63.2409 21.5637 63.2409 20.2547C63.2409 18.2835 62.7866 16.7589 61.878 15.6809C60.9694 14.5875 59.7605 14.0408 58.2513 14.0408C56.7267 14.0408 55.5101 14.5875 54.6015 15.6809C53.6929 16.7589 53.2386 18.2835 53.2386 20.2547C53.2386 21.5637 53.4465 22.6879 53.8623 23.6273C54.2781 24.5667 54.8633 25.2828 55.6179 25.7756C56.3725 26.253 57.2503 26.4917 58.2513 26.4917ZM74.0416 17.8985C75.9512 17.8985 77.3988 18.3605 78.3844 19.2845C79.37 20.1931 79.8628 21.4636 79.8628 23.096C79.8628 24.7438 79.37 26.0297 78.3844 26.9537C77.3988 27.8777 75.9512 28.3397 74.0416 28.3397H67.9201V12.1697H77.7607V14.2949H70.3456V17.8985H74.0416ZM73.9492 26.2376C75.0426 26.2376 75.8665 25.9681 76.4209 25.4291C76.9907 24.8901 77.2756 24.1124 77.2756 23.096C77.2756 22.095 76.9907 21.3327 76.4209 20.8091C75.8665 20.2701 75.0426 20.0006 73.9492 20.0006H70.3456V26.2376H73.9492ZM87.9597 12.1697C89.8847 12.1697 91.34 12.624 92.3256 13.5326C93.3112 14.4412 93.804 15.6963 93.804 17.2979C93.804 18.8841 93.3112 20.1315 92.3256 21.0401C91.34 21.9333 89.8847 22.3799 87.9597 22.3799H84.2637V28.3397H81.8613V12.1697H87.9597ZM87.8673 20.2778C89.0223 20.2778 89.8924 20.0237 90.4776 19.5155C91.0628 18.9919 91.3554 18.2527 91.3554 17.2979C91.3554 16.3277 91.0628 15.5808 90.4776 15.0572C89.8924 14.5336 89.0223 14.2718 87.8673 14.2718H84.2637V20.2778H87.8673ZM95.8025 12.1697H106.313V14.2718H98.2049V19.1228H105.62V21.0401H98.2049V26.2376H106.544V28.3397H95.8025V12.1697ZM118.781 12.1697H121.161V28.3397H118.781V21.3635H110.95V28.3397H108.548V12.1697H110.95V19.3769H118.781V12.1697ZM130.867 28.5707C129.404 28.5707 128.111 28.2396 126.987 27.5774C125.862 26.9152 124.985 25.9604 124.353 24.713C123.722 23.4502 123.406 21.9641 123.406 20.2547C123.406 18.5453 123.722 17.0669 124.353 15.8195C124.985 14.5721 125.862 13.6173 126.987 12.9551C128.111 12.2929 129.404 11.9618 130.867 11.9618C132.315 11.9618 133.601 12.2929 134.725 12.9551C135.849 13.6173 136.727 14.5721 137.358 15.8195C137.99 17.0669 138.306 18.5453 138.306 20.2547C138.306 21.9641 137.99 23.4502 137.358 24.713C136.727 25.9604 135.849 26.9152 134.725 27.5774C133.601 28.2396 132.315 28.5707 130.867 28.5707ZM130.867 26.4917C131.853 26.4917 132.723 26.253 133.478 25.7756C134.232 25.2828 134.817 24.5667 135.233 23.6273C135.649 22.6879 135.857 21.5637 135.857 20.2547C135.857 18.2835 135.403 16.7589 134.494 15.6809C133.585 14.5875 132.377 14.0408 130.867 14.0408C129.343 14.0408 128.126 14.5875 127.218 15.6809C126.309 16.7589 125.855 18.2835 125.855 20.2547C125.855 21.5637 126.063 22.6879 126.478 23.6273C126.894 24.5667 127.479 25.2828 128.234 25.7756C128.989 26.253 129.866 26.4917 130.867 26.4917Z" fill="#009245"/>
<path d="M165.3 1.37097H6.25C3.35051 1.37097 1 3.72148 1 6.62097V37.871C1 40.7705 3.35051 43.121 6.25 43.121H165.3C168.2 43.121 170.55 40.7705 170.55 37.871V6.62097C170.55 3.72148 168.2 1.37097 165.3 1.37097Z" stroke="#009245" stroke-width="2" stroke-miterlimit="10"/>
</svg>
