<svg width="172" height="45" fill="none" xmlns="http://www.w3.org/2000/svg"><path d="M26.308 28.57c-1.463 0-2.756-.33-3.88-.993-1.125-.662-2.003-1.617-2.634-2.864-.631-1.263-.947-2.749-.947-4.458 0-1.71.316-3.188.947-4.435.631-1.248 1.51-2.203 2.633-2.865 1.125-.662 2.418-.993 3.881-.993 1.448 0 2.734.33 3.858.993 1.124.662 2.002 1.617 2.633 2.864.632 1.248.947 2.726.947 4.436s-.315 3.195-.947 4.458c-.631 1.247-1.509 2.202-2.633 2.864-1.124.663-2.41.994-3.858.994zm0-2.078c.986 0 1.856-.239 2.61-.716.755-.493 1.34-1.21 1.756-2.149.416-.94.624-2.063.624-3.372 0-1.971-.454-3.496-1.363-4.574-.909-1.093-2.117-1.64-3.627-1.64-1.524 0-2.74.546-3.65 1.64-.908 1.078-1.362 2.603-1.362 4.574 0 1.309.207 2.433.623 3.372.416.94 1.001 1.656 1.756 2.149.755.477 1.632.716 2.633.716zm23.453-.185v3.627h-2.333V28.34H36.802v1.594H34.47v-3.627h.901c.678-.6 1.17-1.679 1.479-3.234.308-1.57.462-3.866.462-6.884v-4.02h11.25v14.138h1.2zM39.736 16.189c0 3.05-.139 5.352-.416 6.907-.277 1.54-.731 2.61-1.363 3.21h8.155v-12.01h-6.376v1.894zm18.515 12.382c-1.463 0-2.756-.331-3.88-.994-1.125-.662-2.003-1.617-2.634-2.864-.631-1.263-.947-2.749-.947-4.458 0-1.71.316-3.188.947-4.435.631-1.248 1.51-2.203 2.633-2.865 1.125-.662 2.418-.993 3.881-.993 1.448 0 2.734.33 3.858.993 1.124.662 2.002 1.617 2.633 2.864.632 1.248.947 2.726.947 4.436s-.315 3.195-.947 4.458c-.631 1.247-1.509 2.202-2.633 2.864-1.124.663-2.41.994-3.858.994zm0-2.08c.986 0 1.856-.238 2.61-.715.755-.493 1.34-1.21 1.756-2.149.416-.94.624-2.063.624-3.372 0-1.971-.454-3.496-1.363-4.574-.909-1.093-2.117-1.64-3.627-1.64-1.524 0-2.74.546-3.65 1.64-.908 1.078-1.362 2.603-1.362 4.574 0 1.309.208 2.433.623 3.372.416.94 1.001 1.656 1.756 2.149.755.477 1.632.716 2.633.716zm15.79-8.593c1.91 0 3.358.462 4.343 1.387.986.908 1.479 2.179 1.479 3.811 0 1.648-.493 2.934-1.479 3.858-.985.924-2.433 1.386-4.342 1.386H67.92V12.17h9.84v2.125h-7.414v3.603h3.696zm-.092 8.34c1.094 0 1.918-.27 2.472-.809.57-.539.855-1.317.855-2.333 0-1.001-.285-1.763-.855-2.287-.555-.539-1.378-.808-2.472-.808h-3.603v6.237h3.603zM87.96 12.17c1.926 0 3.381.454 4.367 1.363.985.908 1.478 2.163 1.478 3.765 0 1.586-.493 2.834-1.478 3.742-.986.893-2.441 1.34-4.366 1.34h-3.696v5.96H81.86V12.17h6.099zm-.092 8.108c1.155 0 2.025-.254 2.61-.762.586-.524.878-1.263.878-2.218 0-.97-.292-1.717-.877-2.24-.586-.524-1.456-.786-2.61-.786h-3.604v6.006h3.603zm7.935-8.108h10.511v2.102h-8.108v4.85h7.415v1.918h-7.415v5.198h8.339v2.102H95.802V12.17zm22.979 0h2.38v16.17h-2.38v-6.977h-7.831v6.977h-2.402V12.17h2.402v7.207h7.831V12.17zm12.086 16.4c-1.463 0-2.756-.33-3.88-.993-1.125-.662-2.002-1.617-2.634-2.864-.631-1.263-.947-2.749-.947-4.458 0-1.71.316-3.188.947-4.435.632-1.248 1.509-2.203 2.634-2.865 1.124-.662 2.417-.993 3.88-.993 1.448 0 2.734.33 3.858.993 1.124.662 2.002 1.617 2.633 2.864.632 1.248.948 2.726.948 4.436s-.316 3.195-.948 4.458c-.631 1.247-1.509 2.202-2.633 2.864-1.124.663-2.41.994-3.858.994zm0-2.078c.986 0 1.856-.239 2.611-.716.754-.493 1.339-1.21 1.755-2.149.416-.94.624-2.063.624-3.372 0-1.971-.454-3.496-1.363-4.574-.909-1.093-2.117-1.64-3.627-1.64-1.524 0-2.741.546-3.649 1.64-.909 1.078-1.363 2.603-1.363 4.574 0 1.309.208 2.433.623 3.372.416.94 1.001 1.656 1.756 2.149.755.477 1.632.716 2.633.716z" fill="#009245"/><path d="M165.3 1.371H6.25A5.25 5.25 0 001 6.621v31.25c0 2.9 2.35 5.25 5.25 5.25H165.3c2.9 0 5.25-2.35 5.25-5.25V6.621c0-2.9-2.35-5.25-5.25-5.25z" stroke="#009245" stroke-width="2" stroke-miterlimit="10"/></svg>