<svg width="43" height="60" fill="none" xmlns="http://www.w3.org/2000/svg"><path d="M7.82 35.361a6.7 6.7 0 100-13.4 6.7 6.7 0 000 13.4z" stroke="#666" stroke-width="2" stroke-miterlimit="10"/><path d="M21.21 35.361a6.7 6.7 0 100-13.4 6.7 6.7 0 000 13.4z" stroke="#666" stroke-width="2" stroke-miterlimit="10"/><path d="M34.61 35.361a6.7 6.7 0 100-13.4 6.7 6.7 0 000 13.4z" stroke="#666" stroke-width="2" stroke-miterlimit="10"/><path d="M27.91 46.89a6.7 6.7 0 100-13.4 6.7 6.7 0 000 13.4z" stroke="#666" stroke-width="2" stroke-miterlimit="10"/><path d="M21.21 58.76a6.7 6.7 0 100-13.4 6.7 6.7 0 000 13.4z" stroke="#666" stroke-width="2" stroke-miterlimit="10"/><path d="M14.52 46.89a6.7 6.7 0 100-13.4 6.7 6.7 0 000 13.4z" stroke="#666" stroke-width="2" stroke-miterlimit="10"/><path d="M17.82 18.32L5.3 10.03l11.73 2.72 4.19-11.1 4.18 11.1 11.46-2.35-12.25 7.92h-6.79z" stroke="#666" stroke-width="2" stroke-linejoin="round"/></svg>