<svg width="43" height="60" viewBox="0 0 43 60" fill="none" xmlns="http://www.w3.org/2000/svg">
<path d="M7.82013 35.361C11.5204 35.361 14.5201 32.3613 14.5201 28.661C14.5201 24.9607 11.5204 21.9609 7.82013 21.9609C4.11982 21.9609 1.12012 24.9607 1.12012 28.661C1.12012 32.3613 4.11982 35.361 7.82013 35.361Z" stroke="#666666" stroke-width="2" stroke-miterlimit="10"/>
<path d="M21.2098 35.361C24.9101 35.361 27.9098 32.3613 27.9098 28.661C27.9098 24.9607 24.9101 21.9609 21.2098 21.9609C17.5095 21.9609 14.5098 24.9607 14.5098 28.661C14.5098 32.3613 17.5095 35.361 21.2098 35.361Z" stroke="#666666" stroke-width="2" stroke-miterlimit="10"/>
<path d="M34.6102 35.361C38.3105 35.361 41.3101 32.3613 41.3101 28.661C41.3101 24.9607 38.3105 21.9609 34.6102 21.9609C30.9099 21.9609 27.9102 24.9607 27.9102 28.661C27.9102 32.3613 30.9099 35.361 34.6102 35.361Z" stroke="#666666" stroke-width="2" stroke-miterlimit="10"/>
<path d="M27.91 46.8903C31.6103 46.8903 34.61 43.8905 34.61 40.1902C34.61 36.4899 31.6103 33.4902 27.91 33.4902C24.2097 33.4902 21.21 36.4899 21.21 40.1902C21.21 43.8905 24.2097 46.8903 27.91 46.8903Z" stroke="#666666" stroke-width="2" stroke-miterlimit="10"/>
<path d="M21.2098 58.7594C24.9101 58.7594 27.9098 55.7598 27.9098 52.0594C27.9098 48.3591 24.9101 45.3594 21.2098 45.3594C17.5095 45.3594 14.5098 48.3591 14.5098 52.0594C14.5098 55.7598 17.5095 58.7594 21.2098 58.7594Z" stroke="#666666" stroke-width="2" stroke-miterlimit="10"/>
<path d="M14.5203 46.8903C18.2206 46.8903 21.2203 43.8905 21.2203 40.1902C21.2203 36.4899 18.2206 33.4902 14.5203 33.4902C10.82 33.4902 7.82031 36.4899 7.82031 40.1902C7.82031 43.8905 10.82 46.8903 14.5203 46.8903Z" stroke="#666666" stroke-width="2" stroke-miterlimit="10"/>
<path d="M17.8198 18.3203L5.2998 10.0304L17.0298 12.7504L21.2198 1.65039L25.3998 12.7504L36.8598 10.4004L24.6098 18.3203H17.8198Z" stroke="#666666" stroke-width="2" stroke-linejoin="round"/>
</svg>
