<svg width="49" height="61" viewBox="0 0 49 61" fill="none" xmlns="http://www.w3.org/2000/svg">
<path d="M4.19953 27.999C1.33953 22.229 5.45951 17.629 9.66951 16.119C13.8795 14.609 10.7495 4.16903 9.4095 2.17903C19.7195 0.979027 21.7795 4.92903 25.5695 9.17903C37.0795 7.97903 42.5695 14.029 43.8195 18.269C44.376 19.8291 44.6191 21.4836 44.535 23.1378C44.451 24.792 44.0413 26.4134 43.3295 27.909L4.19953 27.999Z" stroke="#666666" stroke-width="2" stroke-linejoin="round"/>
<path d="M1.25977 33.2793C1.25977 33.2793 4.82972 40.2792 21.5897 47.2092C21.5897 47.2092 22.0997 49.8192 21.2897 51.3492C19.6897 54.3492 11.2897 55.3992 11.2897 59.0992H37.7097C37.7097 55.3992 29.3497 54.3592 27.7097 51.3492C26.8997 49.8192 27.4097 47.2092 27.4097 47.2092C44.4097 39.6292 47.7397 33.2793 47.7397 33.2793H1.25977Z" stroke="#666666" stroke-width="2" stroke-linejoin="round"/>
</svg>
