<svg width="396" height="68" fill="none" xmlns="http://www.w3.org/2000/svg"><path d="M394.16 5.96h-32.68v58.651h32.68V5.961zm-16.33 0v58.651M361.48 17.97h32.69m-32.69 12.31h32.69m-32.69 11.58h32.69m-32.69 11.38h32.69m-67.18-5.56c-8.21 13.16-21.8 18.57-30.35 12.09s-8.82-22.42-.61-35.58c8.21-13.16 21.8-18.57 30.34-12.08s8.83 22.41.62 35.57z" stroke="#666" stroke-width="2" stroke-miterlimit="10"/><path d="M329.2 15.38c-5.7 1.82-12.52 2.2-17.88 11.85-5.36 9.65-2 17.18-5.2 23s-4.22 5.36-10.16 9" stroke="#666" stroke-width="2" stroke-miterlimit="10"/><path d="M222.2 32.999c-2.86-5.77 1.26-10.37 5.47-11.88 4.21-1.51 1.079-11.95-.261-13.94 10.31-1.2 12.371 2.75 16.161 7 11.51-1.2 17 4.85 18.25 9.09a12.6 12.6 0 01-.491 9.64l-39.129.09zm-2.94 5.281s3.57 7 20.33 13.93c0 0 .51 2.61-.3 4.14-1.6 3-10 4.05-10 7.75h26.42c0-3.7-8.36-4.74-10-7.75-.81-1.53-.3-4.14-.3-4.14 17-7.58 20.33-13.93 20.33-13.93h-46.48z" stroke="#666" stroke-width="2" stroke-linejoin="round"/><path d="M143.33 33c-2.16-9.59 1.69-11.6 4.33-14 .49-.43-.16-11.06 1.06-15.81 0 0 3.35-1.16 3.52-1.25 0 0 .48 16.7.83 17 3.76 3.13 3.92 16 20.6 27.14 14.71 9.78 31.83 8.55 31.83 8.55l1.67 3.63c-2.8 3.76-22.45 7.66-35.69 3.22-20.33-6.77-25.62-17.2-28.15-28.48zm-59.51 7.361a6.7 6.7 0 100-13.4 6.7 6.7 0 000 13.4z" stroke="#666" stroke-width="2" stroke-miterlimit="10"/><path d="M97.21 40.361a6.7 6.7 0 100-13.4 6.7 6.7 0 000 13.4z" stroke="#666" stroke-width="2" stroke-miterlimit="10"/><path d="M110.61 40.361a6.7 6.7 0 100-13.4 6.7 6.7 0 000 13.4z" stroke="#666" stroke-width="2" stroke-miterlimit="10"/><path d="M103.91 51.89a6.7 6.7 0 100-13.4 6.7 6.7 0 000 13.4z" stroke="#666" stroke-width="2" stroke-miterlimit="10"/><path d="M97.21 63.76a6.7 6.7 0 100-13.401 6.7 6.7 0 000 13.4z" stroke="#666" stroke-width="2" stroke-miterlimit="10"/><path d="M90.52 51.89a6.7 6.7 0 100-13.4 6.7 6.7 0 000 13.4z" stroke="#666" stroke-width="2" stroke-miterlimit="10"/><path d="M93.82 23.32L81.3 15.03l11.73 2.72 4.19-11.1 4.18 11.1 11.46-2.35-12.25 7.92h-6.79z" stroke="#666" stroke-width="2" stroke-linejoin="round"/><path d="M14.9 26.901l30.15-2.19-6.9-10.25L8 15.93l6.9 10.97z" stroke="#666" stroke-width="2" stroke-linecap="square" stroke-linejoin="bevel"/><path d="M14.9 26.9v39.14" stroke="#666" stroke-width="2" stroke-miterlimit="10"/><path d="M14.9 66.041l30.15-2.96V24.71L14.9 26.9 1 24.711v37.85l13.9 3.48z" stroke="#666" stroke-width="2" stroke-linecap="square" stroke-linejoin="bevel"/><path d="M38.15 14.46V6.28L8 7.39v8.54l-7 8.78 13.9 2.19L8 15.93l30.15-1.47z" stroke="#666" stroke-width="2" stroke-linecap="square" stroke-linejoin="bevel"/></svg>