<svg width="396" height="68" viewBox="0 0 396 68" fill="none" xmlns="http://www.w3.org/2000/svg">
<path d="M394.16 5.96094H361.48V64.611H394.16V5.96094Z" stroke="#666666" stroke-width="2" stroke-miterlimit="10"/>
<path d="M377.83 5.96094V64.611" stroke="#666666" stroke-width="2" stroke-miterlimit="10"/>
<path d="M361.48 17.9707H394.17" stroke="#666666" stroke-width="2" stroke-miterlimit="10"/>
<path d="M361.48 30.2793H394.17" stroke="#666666" stroke-width="2" stroke-miterlimit="10"/>
<path d="M361.48 41.8594H394.17" stroke="#666666" stroke-width="2" stroke-miterlimit="10"/>
<path d="M361.48 53.2402H394.17" stroke="#666666" stroke-width="2" stroke-miterlimit="10"/>
<path d="M326.99 47.6807C318.78 60.8407 305.19 66.2507 296.64 59.7707C288.09 53.2907 287.82 37.3506 296.03 24.1906C304.24 11.0306 317.83 5.62067 326.37 12.1107C334.91 18.6007 335.2 34.5207 326.99 47.6807Z" stroke="#666666" stroke-width="2" stroke-miterlimit="10"/>
<path d="M329.2 15.3809C323.5 17.2009 316.68 17.5808 311.32 27.2308C305.96 36.8808 309.32 44.4108 306.12 50.2308C302.92 56.0508 301.9 55.5908 295.96 59.2308" stroke="#666666" stroke-width="2" stroke-miterlimit="10"/>
<path d="M222.2 32.999C219.34 27.229 223.46 22.629 227.67 21.119C231.88 19.609 228.749 9.16903 227.409 7.17903C237.719 5.97903 239.78 9.92903 243.57 14.179C255.08 12.979 260.57 19.029 261.82 23.269C262.376 24.8291 262.619 26.4836 262.535 28.1378C262.451 29.792 262.041 31.4134 261.329 32.909L222.2 32.999Z" stroke="#666666" stroke-width="2" stroke-linejoin="round"/>
<path d="M219.26 38.2793C219.26 38.2793 222.83 45.2792 239.59 52.2092C239.59 52.2092 240.1 54.8192 239.29 56.3492C237.69 59.3492 229.29 60.3992 229.29 64.0992H255.71C255.71 60.3992 247.35 59.3592 245.71 56.3492C244.9 54.8192 245.41 52.2092 245.41 52.2092C262.41 44.6292 265.74 38.2793 265.74 38.2793H219.26Z" stroke="#666666" stroke-width="2" stroke-linejoin="round"/>
<path d="M143.33 32.9995C141.17 23.4095 145.02 21.3995 147.66 18.9995C148.15 18.5695 147.5 7.93945 148.72 3.18945C148.72 3.18945 152.07 2.02945 152.24 1.93945C152.24 1.93945 152.72 18.6395 153.07 18.9395C156.83 22.0695 156.99 34.9395 173.67 46.0795C188.38 55.8595 205.5 54.6295 205.5 54.6295L207.17 58.2595C204.37 62.0195 184.72 65.9195 171.48 61.4795C151.15 54.7095 145.86 44.2795 143.33 32.9995Z" stroke="#666666" stroke-width="2" stroke-miterlimit="10"/>
<path d="M83.8201 40.361C87.5204 40.361 90.5201 37.3613 90.5201 33.661C90.5201 29.9607 87.5204 26.9609 83.8201 26.9609C80.1198 26.9609 77.1201 29.9607 77.1201 33.661C77.1201 37.3613 80.1198 40.361 83.8201 40.361Z" stroke="#666666" stroke-width="2" stroke-miterlimit="10"/>
<path d="M97.2098 40.361C100.91 40.361 103.91 37.3613 103.91 33.661C103.91 29.9607 100.91 26.9609 97.2098 26.9609C93.5095 26.9609 90.5098 29.9607 90.5098 33.661C90.5098 37.3613 93.5095 40.361 97.2098 40.361Z" stroke="#666666" stroke-width="2" stroke-miterlimit="10"/>
<path d="M110.61 40.361C114.31 40.361 117.31 37.3613 117.31 33.661C117.31 29.9607 114.31 26.9609 110.61 26.9609C106.91 26.9609 103.91 29.9607 103.91 33.661C103.91 37.3613 106.91 40.361 110.61 40.361Z" stroke="#666666" stroke-width="2" stroke-miterlimit="10"/>
<path d="M103.91 51.8903C107.61 51.8903 110.61 48.8905 110.61 45.1902C110.61 41.4899 107.61 38.4902 103.91 38.4902C100.21 38.4902 97.21 41.4899 97.21 45.1902C97.21 48.8905 100.21 51.8903 103.91 51.8903Z" stroke="#666666" stroke-width="2" stroke-miterlimit="10"/>
<path d="M97.2098 63.7594C100.91 63.7594 103.91 60.7598 103.91 57.0594C103.91 53.3591 100.91 50.3594 97.2098 50.3594C93.5095 50.3594 90.5098 53.3591 90.5098 57.0594C90.5098 60.7598 93.5095 63.7594 97.2098 63.7594Z" stroke="#666666" stroke-width="2" stroke-miterlimit="10"/>
<path d="M90.5203 51.8903C94.2206 51.8903 97.2203 48.8905 97.2203 45.1902C97.2203 41.4899 94.2206 38.4902 90.5203 38.4902C86.82 38.4902 83.8203 41.4899 83.8203 45.1902C83.8203 48.8905 86.82 51.8903 90.5203 51.8903Z" stroke="#666666" stroke-width="2" stroke-miterlimit="10"/>
<path d="M93.8198 23.3203L81.2998 15.0304L93.0298 17.7504L97.2198 6.65039L101.4 17.7504L112.86 15.4004L100.61 23.3203H93.8198Z" stroke="#666666" stroke-width="2" stroke-linejoin="round"/>
<path d="M14.9 26.901L45.05 24.7109L38.15 14.4609L8 15.931L14.9 26.901Z" stroke="#666666" stroke-width="2" stroke-linecap="square" stroke-linejoin="bevel"/>
<path d="M14.9004 26.9004V66.0404" stroke="#666666" stroke-width="2" stroke-miterlimit="10"/>
<path d="M14.9 66.041L45.05 63.0809V24.7109L14.9 26.901L1 24.7109V62.561L14.9 66.041Z" stroke="#666666" stroke-width="2" stroke-linecap="square" stroke-linejoin="bevel"/>
<path d="M38.15 14.4592V6.2793L8 7.38928V15.9293L1 24.7092L14.9 26.8993L8 15.9293L38.15 14.4592Z" stroke="#666666" stroke-width="2" stroke-linecap="square" stroke-linejoin="bevel"/>
</svg>
