<svg width="39" height="99" viewBox="0 0 39 99" fill="none" xmlns="http://www.w3.org/2000/svg">
<path d="M28.0503 96.8706H11.3203C8.942 96.8706 6.6604 95.9295 4.974 94.2524C3.2876 92.5754 2.33353 90.2989 2.32031 87.9207V32.2107C3.67031 27.3407 12.7103 14.8906 12.7103 14.8906H26.5703C26.5703 14.8906 35.5703 27.3407 36.9603 32.2107V87.9106C36.9499 90.2751 36.0095 92.5406 34.3422 94.2173C32.6749 95.8939 30.4147 96.847 28.0503 96.8706Z" stroke="#575756" stroke-width="2.7" stroke-miterlimit="10"/>
<path d="M26.6202 8.88989H12.7603V3.88989C12.7629 3.38772 12.9642 2.90714 13.3203 2.55298C13.6763 2.19882 14.1581 1.99999 14.6603 2H24.7203C25.2225 1.99999 25.7042 2.19882 26.0602 2.55298C26.4163 2.90714 26.6176 3.38772 26.6202 3.88989V8.88989Z" stroke="#575756" stroke-width="2.7" stroke-miterlimit="10"/>
</svg>
