<svg width="276" height="443" viewBox="0 0 276 443" fill="none" xmlns="http://www.w3.org/2000/svg">
<path d="M211.13 424.45H1.01953V1.32031H211.13" stroke="#666666" stroke-width="2" stroke-miterlimit="10"/>
<path d="M33.1197 427.371H11.7197V437.101H33.1197V427.371Z" stroke="#666666" stroke-width="2" stroke-miterlimit="10"/>
<path d="M28.8797 437.09H15.9597C15.2306 437.09 14.6396 437.681 14.6396 438.41V440.63C14.6396 441.359 15.2306 441.95 15.9597 441.95H28.8797C29.6087 441.95 30.1996 441.359 30.1996 440.63V438.41C30.1996 437.681 29.6087 437.09 28.8797 437.09Z" stroke="#666666" stroke-width="2" stroke-miterlimit="10"/>
<path d="M257.82 427.371H236.42V437.101H257.82V427.371Z" stroke="#666666" stroke-width="2" stroke-miterlimit="10"/>
<path d="M253.58 437.09H240.66C239.931 437.09 239.34 437.681 239.34 438.41V440.63C239.34 441.359 239.931 441.95 240.66 441.95H253.58C254.309 441.95 254.9 441.359 254.9 440.63V438.41C254.9 437.681 254.309 437.09 253.58 437.09Z" stroke="#666666" stroke-width="2" stroke-miterlimit="10"/>
<path d="M153.849 318.42H58.2893C55.1303 318.42 52.5693 320.981 52.5693 324.14V363.28C52.5693 366.439 55.1303 369 58.2893 369H153.849C157.008 369 159.569 366.439 159.569 363.28V324.14C159.569 320.981 157.008 318.42 153.849 318.42Z" stroke="#666666" stroke-width="2" stroke-miterlimit="10"/>
<path d="M141.51 324.26H70.6399C67.4809 324.26 64.9199 326.821 64.9199 329.98V357.45C64.9199 360.609 67.4809 363.17 70.6399 363.17H141.51C144.669 363.17 147.23 360.609 147.23 357.45V329.98C147.23 326.821 144.669 324.26 141.51 324.26Z" stroke="#666666" stroke-width="2" stroke-miterlimit="10"/>
<path d="M255.87 347.6H225.72V370.95H255.87V347.6Z" stroke="#666666" stroke-width="2" stroke-miterlimit="10"/>
<path d="M256.739 137.5H225.819C222.538 137.5 219.879 140.159 219.879 143.44V287.19C219.879 290.471 222.538 293.13 225.819 293.13H256.739C260.019 293.13 262.679 290.471 262.679 287.19V143.44C262.679 140.159 260.019 137.5 256.739 137.5Z" stroke="#666666" stroke-width="2" stroke-miterlimit="10"/>
<path d="M252.949 200.73H227.659V221.16H252.949V200.73Z" stroke="#666666" stroke-width="2" stroke-miterlimit="10"/>
<path d="M250.03 154.031H230.58V178.351H250.03V154.031Z" stroke="#666666" stroke-width="2" stroke-miterlimit="10"/>
<path d="M251.01 257.141H230.58V284.381H251.01V257.141Z" stroke="#666666" stroke-width="2" stroke-miterlimit="10"/>
<path d="M262.679 62.5996H219.879V124.85H262.679V62.5996Z" stroke="#666666" stroke-width="2" stroke-miterlimit="10"/>
<path d="M255.87 68.4395H225.72V118.049H255.87V68.4395Z" stroke="#666666" stroke-width="2" stroke-miterlimit="10"/>
<path d="M192.95 16.8809H20.1698C16.9279 16.8809 14.2998 19.5091 14.2998 22.751V294.071C14.2998 297.313 16.9279 299.941 20.1698 299.941H192.95C196.192 299.941 198.82 297.313 198.82 294.071V22.751C198.82 19.5091 196.192 16.8809 192.95 16.8809Z" stroke="#666666" stroke-width="2" stroke-miterlimit="10"/>
<path d="M274.35 1.32031H212.1V424.45H274.35V1.32031Z" stroke="#666666" stroke-width="2" stroke-miterlimit="10"/>
<path d="M242.25 37.3105C243.863 37.3105 245.17 36.0033 245.17 34.3906C245.17 32.778 243.863 31.4707 242.25 31.4707C240.637 31.4707 239.33 32.778 239.33 34.3906C239.33 36.0033 240.637 37.3105 242.25 37.3105Z" stroke="#666666" stroke-width="2" stroke-miterlimit="10"/>
<path d="M230.579 100.541C231.656 100.541 232.529 99.6675 232.529 98.5906C232.529 97.5136 231.656 96.6406 230.579 96.6406C229.502 96.6406 228.629 97.5136 228.629 98.5906C228.629 99.6675 229.502 100.541 230.579 100.541Z" stroke="#666666" stroke-width="2" stroke-miterlimit="10"/>
<path d="M237.389 100.541C238.466 100.541 239.339 99.6675 239.339 98.5906C239.339 97.5136 238.466 96.6406 237.389 96.6406C236.313 96.6406 235.439 97.5136 235.439 98.5906C235.439 99.6675 236.313 100.541 237.389 100.541Z" stroke="#666666" stroke-width="2" stroke-miterlimit="10"/>
<path d="M244.2 100.541C245.277 100.541 246.15 99.6675 246.15 98.5906C246.15 97.5136 245.277 96.6406 244.2 96.6406C243.123 96.6406 242.25 97.5136 242.25 98.5906C242.25 99.6675 243.123 100.541 244.2 100.541Z" stroke="#666666" stroke-width="2" stroke-miterlimit="10"/>
<path d="M251.01 100.541C252.087 100.541 252.96 99.6675 252.96 98.5906C252.96 97.5136 252.087 96.6406 251.01 96.6406C249.933 96.6406 249.06 97.5136 249.06 98.5906C249.06 99.6675 249.933 100.541 251.01 100.541Z" stroke="#666666" stroke-width="2" stroke-miterlimit="10"/>
<path d="M230.579 107.349C231.656 107.349 232.529 106.476 232.529 105.399C232.529 104.322 231.656 103.449 230.579 103.449C229.502 103.449 228.629 104.322 228.629 105.399C228.629 106.476 229.502 107.349 230.579 107.349Z" stroke="#666666" stroke-width="2" stroke-miterlimit="10"/>
<path d="M237.389 107.349C238.466 107.349 239.339 106.476 239.339 105.399C239.339 104.322 238.466 103.449 237.389 103.449C236.313 103.449 235.439 104.322 235.439 105.399C235.439 106.476 236.313 107.349 237.389 107.349Z" stroke="#666666" stroke-width="2" stroke-miterlimit="10"/>
<path d="M244.2 107.349C245.277 107.349 246.15 106.476 246.15 105.399C246.15 104.322 245.277 103.449 244.2 103.449C243.123 103.449 242.25 104.322 242.25 105.399C242.25 106.476 243.123 107.349 244.2 107.349Z" stroke="#666666" stroke-width="2" stroke-miterlimit="10"/>
<path d="M251.01 107.349C252.087 107.349 252.96 106.476 252.96 105.399C252.96 104.322 252.087 103.449 251.01 103.449C249.933 103.449 249.06 104.322 249.06 105.399C249.06 106.476 249.933 107.349 251.01 107.349Z" stroke="#666666" stroke-width="2" stroke-miterlimit="10"/>
<path d="M230.579 114.16C231.656 114.16 232.529 113.287 232.529 112.21C232.529 111.133 231.656 110.26 230.579 110.26C229.502 110.26 228.629 111.133 228.629 112.21C228.629 113.287 229.502 114.16 230.579 114.16Z" stroke="#666666" stroke-width="2" stroke-miterlimit="10"/>
<path d="M237.389 114.16C238.466 114.16 239.339 113.287 239.339 112.21C239.339 111.133 238.466 110.26 237.389 110.26C236.313 110.26 235.439 111.133 235.439 112.21C235.439 113.287 236.313 114.16 237.389 114.16Z" stroke="#666666" stroke-width="2" stroke-miterlimit="10"/>
<path d="M244.2 114.16C245.277 114.16 246.15 113.287 246.15 112.21C246.15 111.133 245.277 110.26 244.2 110.26C243.123 110.26 242.25 111.133 242.25 112.21C242.25 113.287 243.123 114.16 244.2 114.16Z" stroke="#666666" stroke-width="2" stroke-miterlimit="10"/>
<path d="M251.01 114.16C252.087 114.16 252.96 113.287 252.96 112.21C252.96 111.133 252.087 110.26 251.01 110.26C249.933 110.26 249.06 111.133 249.06 112.21C249.06 113.287 249.933 114.16 251.01 114.16Z" stroke="#666666" stroke-width="2" stroke-miterlimit="10"/>
<path d="M233.99 239.63C236.944 239.63 239.34 237.235 239.34 234.28C239.34 231.325 236.944 228.93 233.99 228.93C231.035 228.93 228.64 231.325 228.64 234.28C228.64 237.235 231.035 239.63 233.99 239.63Z" stroke="#666666" stroke-width="2" stroke-miterlimit="10"/>
<path d="M249.06 237.69C251.208 237.69 252.95 235.948 252.95 233.8C252.95 231.652 251.208 229.91 249.06 229.91C246.912 229.91 245.17 231.652 245.17 233.8C245.17 235.948 246.912 237.69 249.06 237.69Z" stroke="#666666" stroke-width="2" stroke-miterlimit="10"/>
<path d="M247.12 262.98H234.47V278.54H247.12V262.98Z" stroke="#666666" stroke-width="2" stroke-miterlimit="10"/>
<path d="M234.95 16.8809H222.31C221.503 16.8809 220.85 17.5345 220.85 18.3408C220.85 19.1472 221.503 19.8008 222.31 19.8008H234.95C235.756 19.8008 236.41 19.1472 236.41 18.3408C236.41 17.5345 235.756 16.8809 234.95 16.8809Z" stroke="#666666" stroke-width="2" stroke-miterlimit="10"/>
<path d="M262.19 16.8809H249.55C248.743 16.8809 248.09 17.5345 248.09 18.3408C248.09 19.1472 248.743 19.8008 249.55 19.8008H262.19C262.996 19.8008 263.65 19.1472 263.65 18.3408C263.65 17.5345 262.996 16.8809 262.19 16.8809Z" stroke="#666666" stroke-width="2" stroke-miterlimit="10"/>
<path d="M71.2801 213.889H46.0001C44.7973 213.946 43.6003 213.691 42.5247 213.15C41.4491 212.608 40.5313 211.799 39.8601 210.799L35.0801 199.699H82.5401L77.3401 210.889C76.6656 211.86 75.756 212.645 74.6963 213.169C73.6366 213.694 72.4613 213.942 71.2801 213.889Z" stroke="#666666" stroke-width="2" stroke-miterlimit="10"/>
<path d="M35.4992 196.121H82.1091C82.1754 196.118 82.2386 196.092 82.288 196.047C82.3374 196.003 82.3701 195.943 82.3806 195.877C82.3912 195.812 82.3789 195.745 82.3459 195.687C82.3128 195.63 82.2611 195.585 82.1992 195.561L61.1992 187.971C61.1292 187.971 59.3392 185.181 59.3392 185.181C59.119 185.082 58.8805 185.031 58.6392 185.031C58.3979 185.031 58.1593 185.082 57.9392 185.181C57.9392 185.181 56.3992 187.951 56.3292 187.981L35.4392 195.561C35.3782 195.583 35.3264 195.625 35.292 195.68C35.2577 195.735 35.2428 195.8 35.2497 195.865C35.2566 195.929 35.2849 195.989 35.3302 196.036C35.3754 196.082 35.4349 196.112 35.4992 196.121Z" stroke="#666666" stroke-width="2" stroke-miterlimit="10"/>
<path d="M123.619 213.889H98.3692C97.1664 213.946 95.9694 213.691 94.8938 213.15C93.8182 212.608 92.9005 211.799 92.2292 210.799L87.4492 199.699H134.909L129.709 210.889C129.032 211.865 128.118 212.652 127.052 213.177C125.987 213.702 124.805 213.947 123.619 213.889Z" stroke="#666666" stroke-width="2" stroke-miterlimit="10"/>
<path d="M87.8397 196.121H134.45C134.515 196.116 134.577 196.088 134.625 196.043C134.673 195.998 134.704 195.938 134.713 195.873C134.723 195.808 134.71 195.741 134.676 195.685C134.643 195.628 134.591 195.584 134.53 195.561L113.53 187.971C113.46 187.971 111.66 185.181 111.66 185.181C111.441 185.082 111.204 185.031 110.965 185.031C110.725 185.031 110.488 185.082 110.27 185.181C110.27 185.181 108.72 187.951 108.66 187.981L87.7697 195.561C87.7085 195.584 87.6569 195.627 87.623 195.682C87.5892 195.738 87.5752 195.804 87.5833 195.869C87.5914 195.933 87.6211 195.994 87.6676 196.039C87.7142 196.085 87.7748 196.114 87.8397 196.121Z" stroke="#666666" stroke-width="2" stroke-miterlimit="10"/>
<path d="M175.24 213.889H150C148.797 213.946 147.6 213.691 146.525 213.15C145.449 212.608 144.531 211.799 143.86 210.799L139.08 199.699H186.55L181.34 210.889C180.662 211.866 179.746 212.655 178.679 213.179C177.611 213.704 176.428 213.949 175.24 213.889Z" stroke="#666666" stroke-width="2" stroke-miterlimit="10"/>
<path d="M139.46 196.121H186.06C186.126 196.118 186.19 196.092 186.239 196.047C186.288 196.003 186.321 195.943 186.332 195.877C186.342 195.812 186.33 195.745 186.297 195.687C186.264 195.63 186.212 195.585 186.15 195.561L165.15 187.971C165.08 187.971 163.29 185.181 163.29 185.181C163.07 185.082 162.831 185.031 162.59 185.031C162.349 185.031 162.11 185.082 161.89 185.181C161.89 185.181 160.35 187.951 160.28 187.981L139.4 195.561C139.339 195.583 139.287 195.625 139.253 195.68C139.219 195.735 139.204 195.8 139.211 195.865C139.218 195.929 139.246 195.989 139.291 196.036C139.336 196.082 139.396 196.112 139.46 196.121Z" stroke="#666666" stroke-width="2" stroke-miterlimit="10"/>
<path d="M47.2293 61.0696L67.7693 59.5796L63.0693 52.5996L42.5293 53.5996L47.2293 61.0696Z" stroke="#666666" stroke-width="2" stroke-linecap="square" stroke-linejoin="bevel"/>
<path d="M47.2295 61.0703V87.7305" stroke="#666666" stroke-width="2" stroke-miterlimit="10"/>
<path d="M47.2298 87.7302L67.7698 85.7202V59.5801L47.2298 61.0701L37.7598 59.5801V85.3601L47.2298 87.7302Z" stroke="#666666" stroke-width="2" stroke-linecap="square" stroke-linejoin="bevel"/>
<path d="M63.0698 52.5994V47.0195L42.5298 47.7795V53.5994L37.7598 59.5793L47.2298 61.0693L42.5298 53.5994L63.0698 52.5994Z" stroke="#666666" stroke-width="2" stroke-linecap="square" stroke-linejoin="bevel"/>
<path d="M84.4393 61.0696L104.979 59.5796L100.279 52.5996L79.7393 53.5996L84.4393 61.0696Z" stroke="#666666" stroke-width="2" stroke-linecap="square" stroke-linejoin="bevel"/>
<path d="M84.4395 61.0703V87.7305" stroke="#666666" stroke-width="2" stroke-miterlimit="10"/>
<path d="M84.4397 87.7302L104.98 85.7202V59.5801L84.4397 61.0701L74.9697 59.5801V85.3601L84.4397 87.7302Z" stroke="#666666" stroke-width="2" stroke-linecap="square" stroke-linejoin="bevel"/>
<path d="M100.28 52.5994V47.0195L79.7397 47.7795V53.5994L74.9697 59.5793L84.4397 61.0693L79.7397 53.5994L100.28 52.5994Z" stroke="#666666" stroke-width="2" stroke-linecap="square" stroke-linejoin="bevel"/>
<path d="M121.61 61.0696L142.15 59.5796L137.45 52.5996L116.92 53.5996L121.61 61.0696Z" stroke="#666666" stroke-width="2" stroke-linecap="square" stroke-linejoin="bevel"/>
<path d="M121.609 61.0703V87.7305" stroke="#666666" stroke-width="2" stroke-miterlimit="10"/>
<path d="M121.609 87.7302L142.149 85.7202V59.5801L121.609 61.0701L112.149 59.5801V85.3601L121.609 87.7302Z" stroke="#666666" stroke-width="2" stroke-linecap="square" stroke-linejoin="bevel"/>
<path d="M137.449 52.5994V47.0195L116.919 47.7795V53.5994L112.149 59.5793L121.609 61.0693L116.919 53.5994L137.449 52.5994Z" stroke="#666666" stroke-width="2" stroke-linecap="square" stroke-linejoin="bevel"/>
<path d="M159.25 61.0696L179.79 59.5796L175.09 52.5996L154.55 53.5996L159.25 61.0696Z" stroke="#666666" stroke-width="2" stroke-linecap="square" stroke-linejoin="bevel"/>
<path d="M159.25 61.0703V87.7305" stroke="#666666" stroke-width="2" stroke-miterlimit="10"/>
<path d="M159.249 87.7302L179.789 85.7202V59.5801L159.249 61.0701L149.789 59.5801V85.3601L159.249 87.7302Z" stroke="#666666" stroke-width="2" stroke-linecap="square" stroke-linejoin="bevel"/>
<path d="M175.089 52.5994V47.0195L154.549 47.7795V53.5994L149.789 59.5793L159.249 61.0693L154.549 53.5994L175.089 52.5994Z" stroke="#666666" stroke-width="2" stroke-linecap="square" stroke-linejoin="bevel"/>
<path d="M37.8793 253.67C36.5193 247.67 38.9393 246.36 40.6093 244.86C40.9093 244.59 40.5093 237.86 41.2793 234.86C41.2793 234.86 43.3893 234.13 43.4893 234.08C43.5893 234.03 43.7893 244.59 44.0193 244.78C46.3793 246.78 46.4793 254.89 57.0193 261.87C66.2793 268.03 77.0693 267.26 77.0693 267.26L78.0693 269.55C76.3093 271.91 63.9293 274.37 55.5893 271.55C42.8093 267.32 39.4793 260.74 37.8793 253.67Z" stroke="#666666" stroke-width="2" stroke-miterlimit="10"/>
<path d="M75.4097 253.67C74.0397 247.67 76.4697 246.36 78.1297 244.86C78.4397 244.59 78.0297 237.86 78.7997 234.86C78.7997 234.86 80.9097 234.13 81.0197 234.08C81.1297 234.03 81.3197 244.59 81.5397 244.78C83.9097 246.78 84.0097 254.89 94.5397 261.87C103.8 268.03 114.54 267.26 114.54 267.26L115.59 269.55C113.83 271.91 101.45 274.37 93.1097 271.55C80.3297 267.32 76.9997 260.74 75.4097 253.67Z" stroke="#666666" stroke-width="2" stroke-miterlimit="10"/>
<path d="M112.549 253.67C111.179 247.67 113.609 246.36 115.269 244.86C115.579 244.59 115.169 237.86 115.939 234.86C115.939 234.86 118.049 234.13 118.159 234.08C118.269 234.03 118.459 244.59 118.679 244.78C121.049 246.78 121.149 254.89 131.679 261.87C140.939 268.03 151.679 267.26 151.679 267.26L152.679 269.55C150.919 271.91 138.549 274.37 130.199 271.55C117.469 267.32 114.139 260.74 112.549 253.67Z" stroke="#666666" stroke-width="2" stroke-miterlimit="10"/>
<path d="M148.999 253.67C147.629 247.67 150.059 246.36 151.729 244.86C152.029 244.59 151.619 237.86 152.389 234.86C152.389 234.86 154.499 234.13 154.609 234.08C154.719 234.03 154.909 244.59 155.129 244.78C157.499 246.78 157.599 254.89 168.129 261.87C177.389 268.03 188.179 267.26 188.179 267.26L189.229 269.55C187.459 271.91 175.089 274.37 166.749 271.55C153.929 267.32 150.609 260.74 148.999 253.67Z" stroke="#666666" stroke-width="2" stroke-miterlimit="10"/>
<path d="M58.7896 165.32H47.8896C46.3434 165.32 44.8605 164.706 43.7671 163.613C42.6738 162.519 42.0596 161.036 42.0596 159.49V123.2C42.9396 120.03 48.8296 111.91 48.8296 111.91H57.8296C57.8296 111.91 63.7296 120.03 64.5996 123.2V159.49C64.5996 161.033 63.9881 162.513 62.8991 163.605C61.8101 164.698 60.3323 165.315 58.7896 165.32Z" stroke="#666666" stroke-width="2" stroke-miterlimit="10"/>
<path d="M50.7191 103.48H55.9991C56.5004 103.48 56.9811 103.679 57.3355 104.034C57.69 104.388 57.8891 104.869 57.8891 105.37V107.99H48.8891V105.41C48.8783 104.912 49.0645 104.43 49.4072 104.069C49.7499 103.708 50.2213 103.496 50.7191 103.48Z" stroke="#666666" stroke-width="2" stroke-miterlimit="10"/>
<path d="M87.9995 165.32H77.0995C75.5533 165.32 74.0704 164.706 72.9771 163.613C71.8838 162.519 71.2695 161.036 71.2695 159.49V123.2C72.1395 120.03 78.0396 111.91 78.0396 111.91H87.0396C87.0396 111.91 92.9295 120.03 93.8095 123.2V159.49C93.8095 161.033 93.1981 162.513 92.109 163.605C91.02 164.698 89.5423 165.315 87.9995 165.32Z" stroke="#666666" stroke-width="2" stroke-miterlimit="10"/>
<path d="M79.9993 103.48H85.2393C85.7406 103.48 86.2213 103.679 86.5758 104.034C86.9302 104.388 87.1293 104.869 87.1293 105.37V107.99H78.1293V105.41C78.124 105.161 78.1683 104.912 78.2597 104.679C78.351 104.447 78.4876 104.235 78.6615 104.055C78.8354 103.876 79.0432 103.732 79.2729 103.634C79.5025 103.535 79.7494 103.483 79.9993 103.48Z" stroke="#666666" stroke-width="2" stroke-miterlimit="10"/>
<path d="M118.12 165.32H107.22C105.673 165.32 104.191 164.706 103.097 163.613C102.004 162.519 101.39 161.036 101.39 159.49V123.2C102.27 120.03 108.16 111.91 108.16 111.91H117.16C117.16 111.91 123.06 120.03 123.93 123.2V159.49C123.93 161.033 123.318 162.513 122.229 163.605C121.14 164.698 119.662 165.315 118.12 165.32Z" stroke="#666666" stroke-width="2" stroke-miterlimit="10"/>
<path d="M110.05 103.48H115.29C115.791 103.48 116.272 103.679 116.627 104.034C116.981 104.388 117.18 104.869 117.18 105.37V107.99H108.18V105.41C108.175 105.161 108.219 104.912 108.31 104.679C108.402 104.447 108.538 104.235 108.712 104.055C108.886 103.876 109.094 103.732 109.324 103.634C109.553 103.535 109.8 103.483 110.05 103.48Z" stroke="#666666" stroke-width="2" stroke-miterlimit="10"/>
<path d="M146.619 165.32H135.719C134.172 165.32 132.688 164.706 131.593 163.613C130.498 162.52 129.882 161.037 129.879 159.49V123.2C130.759 120.03 136.649 111.91 136.649 111.91H145.649C145.649 111.91 151.539 120.03 152.419 123.2V159.49C152.419 161.031 151.809 162.51 150.722 163.602C149.635 164.695 148.16 165.312 146.619 165.32Z" stroke="#666666" stroke-width="2" stroke-miterlimit="10"/>
<path d="M138.55 103.48H143.79C144.291 103.48 144.772 103.679 145.127 104.034C145.481 104.388 145.68 104.869 145.68 105.37V107.99H136.68V105.41C136.675 105.161 136.719 104.912 136.81 104.679C136.902 104.447 137.038 104.235 137.212 104.055C137.386 103.876 137.594 103.732 137.824 103.634C138.053 103.535 138.3 103.483 138.55 103.48Z" stroke="#666666" stroke-width="2" stroke-miterlimit="10"/>
<path d="M175.32 165.32H164.42C162.874 165.32 161.391 164.706 160.297 163.613C159.204 162.519 158.59 161.036 158.59 159.49V123.2C159.46 120.03 165.36 111.91 165.36 111.91H174.36C174.36 111.91 180.25 120.03 181.13 123.2V159.49C181.13 161.033 180.518 162.513 179.429 163.605C178.34 164.698 176.863 165.315 175.32 165.32Z" stroke="#666666" stroke-width="2" stroke-miterlimit="10"/>
<path d="M167.249 103.48H172.489C172.991 103.48 173.471 103.679 173.826 104.034C174.18 104.388 174.379 104.869 174.379 105.37V107.99H165.379V105.41C165.374 105.161 165.418 104.912 165.51 104.679C165.601 104.447 165.738 104.235 165.912 104.055C166.085 103.876 166.293 103.732 166.523 103.634C166.752 103.535 166.999 103.483 167.249 103.48Z" stroke="#666666" stroke-width="2" stroke-miterlimit="10"/>
</svg>
