<svg width="276" height="443" fill="none" xmlns="http://www.w3.org/2000/svg"><path d="M211.13 424.45H1.02V1.32h210.11M33.12 427.371h-21.4v9.73h21.4v-9.73z" stroke="#666" stroke-width="2" stroke-miterlimit="10"/><path d="M28.88 437.09H15.96c-.73 0-1.32.591-1.32 1.32v2.22c0 .729.59 1.32 1.32 1.32h12.92a1.32 1.32 0 001.32-1.32v-2.22a1.32 1.32 0 00-1.32-1.32zm228.94-9.719h-21.4v9.73h21.4v-9.73z" stroke="#666" stroke-width="2" stroke-miterlimit="10"/><path d="M253.58 437.09h-12.92a1.32 1.32 0 00-1.32 1.32v2.22c0 .729.591 1.32 1.32 1.32h12.92a1.32 1.32 0 001.32-1.32v-2.22a1.32 1.32 0 00-1.32-1.32zm-99.731-118.67h-95.56a5.72 5.72 0 00-5.72 5.72v39.14a5.72 5.72 0 005.72 5.72h95.56a5.72 5.72 0 005.72-5.72v-39.14a5.72 5.72 0 00-5.72-5.72z" stroke="#666" stroke-width="2" stroke-miterlimit="10"/><path d="M141.51 324.26H70.64a5.72 5.72 0 00-5.72 5.72v27.47a5.72 5.72 0 005.72 5.72h70.87a5.72 5.72 0 005.72-5.72v-27.47a5.72 5.72 0 00-5.72-5.72zm114.36 23.34h-30.15v23.35h30.15V347.6zm.869-210.1h-30.92a5.94 5.94 0 00-5.94 5.94v143.75a5.94 5.94 0 005.94 5.94h30.92a5.94 5.94 0 005.94-5.94V143.44a5.94 5.94 0 00-5.94-5.94z" stroke="#666" stroke-width="2" stroke-miterlimit="10"/><path d="M252.949 200.73h-25.29v20.43h25.29v-20.43zm-2.919-46.699h-19.45v24.32h19.45v-24.32zm.98 103.11h-20.43v27.24h20.43v-27.24zM262.679 62.6h-42.8v62.25h42.8V62.6z" stroke="#666" stroke-width="2" stroke-miterlimit="10"/><path d="M255.87 68.44h-30.15v49.609h30.15v-49.61zm-62.92-51.56H20.17a5.87 5.87 0 00-5.87 5.871v271.32a5.87 5.87 0 005.87 5.87h172.78a5.87 5.87 0 005.87-5.87V22.751a5.87 5.87 0 00-5.87-5.87z" stroke="#666" stroke-width="2" stroke-miterlimit="10"/><path d="M274.35 1.32H212.1v423.13h62.25V1.32z" stroke="#666" stroke-width="2" stroke-miterlimit="10"/><path d="M242.25 37.31a2.92 2.92 0 100-5.839 2.92 2.92 0 000 5.84zm-11.671 63.231a1.95 1.95 0 100-3.9 1.95 1.95 0 000 3.9zm6.81 0a1.95 1.95 0 100-3.9 1.95 1.95 0 000 3.9zm6.811 0a1.95 1.95 0 100-3.9 1.95 1.95 0 000 3.9zm6.81 0a1.95 1.95 0 100-3.9 1.95 1.95 0 000 3.9zm-20.431 6.808a1.95 1.95 0 100-3.9 1.95 1.95 0 000 3.9zm6.81 0a1.95 1.95 0 100-3.9 1.95 1.95 0 000 3.9zm6.811 0a1.95 1.95 0 100-3.9 1.95 1.95 0 000 3.9zm6.81 0a1.95 1.95 0 100-3.9 1.95 1.95 0 000 3.9zm-20.431 6.811a1.95 1.95 0 100-3.9 1.95 1.95 0 000 3.9zm6.81 0a1.95 1.95 0 100-3.9 1.95 1.95 0 000 3.9zm6.811 0a1.95 1.95 0 100-3.9 1.95 1.95 0 000 3.9zm6.81 0a1.95 1.95 0 100-3.9 1.95 1.95 0 000 3.9zm-17.02 125.47a5.35 5.35 0 100-10.7 5.35 5.35 0 000 10.7zm15.07-1.94a3.89 3.89 0 10-.001-7.781 3.89 3.89 0 00.001 7.781zm-1.94 25.29h-12.65v15.56h12.65v-15.56zm-12.17-246.1h-12.64a1.46 1.46 0 100 2.92h12.64a1.46 1.46 0 000-2.92zm27.24 0h-12.64a1.46 1.46 0 100 2.92h12.64a1.46 1.46 0 000-2.92zM71.28 213.889H46a6.998 6.998 0 01-6.14-3.09l-4.78-11.1h47.46l-5.2 11.19a6.996 6.996 0 01-6.06 3zM35.5 196.121h46.61a.288.288 0 00.237-.434.293.293 0 00-.148-.126l-21-7.59c-.07 0-1.86-2.79-1.86-2.79a1.707 1.707 0 00-1.4 0s-1.54 2.77-1.61 2.8l-20.89 7.58a.29.29 0 00.06.56zm88.119 17.768h-25.25a6.998 6.998 0 01-6.14-3.09l-4.78-11.1h47.46l-5.2 11.19a6.993 6.993 0 01-6.09 3zM87.84 196.121h46.61a.29.29 0 00.08-.56l-21-7.59c-.07 0-1.87-2.79-1.87-2.79a1.687 1.687 0 00-1.39 0s-1.55 2.77-1.61 2.8l-20.89 7.58a.292.292 0 00-.102.478.29.29 0 00.172.082zm87.4 17.768H150a6.994 6.994 0 01-6.14-3.09l-4.78-11.1h47.47l-5.21 11.19a6.992 6.992 0 01-6.1 3zm-35.78-17.768h46.6a.293.293 0 00.272-.244.293.293 0 00-.182-.316l-21-7.59c-.07 0-1.86-2.79-1.86-2.79a1.707 1.707 0 00-1.4 0s-1.54 2.77-1.61 2.8l-20.88 7.58a.288.288 0 00-.189.304.293.293 0 00.08.171.295.295 0 00.169.085z" stroke="#666" stroke-width="2" stroke-miterlimit="10"/><path d="M47.23 61.07l20.54-1.49-4.7-6.98-20.54 1 4.7 7.47z" stroke="#666" stroke-width="2" stroke-linecap="square" stroke-linejoin="bevel"/><path d="M47.23 61.07v26.66" stroke="#666" stroke-width="2" stroke-miterlimit="10"/><path d="M47.23 87.73l20.54-2.01V59.58l-20.54 1.49-9.47-1.49v25.78l9.47 2.37z" stroke="#666" stroke-width="2" stroke-linecap="square" stroke-linejoin="bevel"/><path d="M63.07 52.6v-5.58l-20.54.76v5.82l-4.77 5.98 9.47 1.49-4.7-7.47 20.54-1zm21.37 8.47l20.539-1.49-4.7-6.98-20.54 1 4.7 7.47z" stroke="#666" stroke-width="2" stroke-linecap="square" stroke-linejoin="bevel"/><path d="M84.44 61.07v26.66" stroke="#666" stroke-width="2" stroke-miterlimit="10"/><path d="M84.44 87.73l20.54-2.01V59.58l-20.54 1.49-9.47-1.49v25.78l9.47 2.37z" stroke="#666" stroke-width="2" stroke-linecap="square" stroke-linejoin="bevel"/><path d="M100.28 52.6v-5.58l-20.54.76v5.82l-4.77 5.98 9.47 1.49-4.7-7.47 20.54-1zm21.33 8.47l20.54-1.49-4.7-6.98-20.53 1 4.69 7.47z" stroke="#666" stroke-width="2" stroke-linecap="square" stroke-linejoin="bevel"/><path d="M121.609 61.07v26.66" stroke="#666" stroke-width="2" stroke-miterlimit="10"/><path d="M121.609 87.73l20.54-2.01V59.58l-20.54 1.49-9.46-1.49v25.78l9.46 2.37z" stroke="#666" stroke-width="2" stroke-linecap="square" stroke-linejoin="bevel"/><path d="M137.449 52.6v-5.58l-20.53.76v5.82l-4.77 5.98 9.46 1.49-4.69-7.47 20.53-1zm21.801 8.47l20.54-1.49-4.7-6.98-20.54 1 4.7 7.47z" stroke="#666" stroke-width="2" stroke-linecap="square" stroke-linejoin="bevel"/><path d="M159.25 61.07v26.66" stroke="#666" stroke-width="2" stroke-miterlimit="10"/><path d="M159.249 87.73l20.54-2.01V59.58l-20.54 1.49-9.46-1.49v25.78l9.46 2.37z" stroke="#666" stroke-width="2" stroke-linecap="square" stroke-linejoin="bevel"/><path d="M175.089 52.6v-5.58l-20.54.76v5.82l-4.76 5.98 9.46 1.49-4.7-7.47 20.54-1z" stroke="#666" stroke-width="2" stroke-linecap="square" stroke-linejoin="bevel"/><path d="M37.88 253.67c-1.36-6 1.06-7.31 2.73-8.81.3-.27-.1-7 .67-10 0 0 2.11-.73 2.21-.78.1-.05.3 10.51.53 10.7 2.36 2 2.46 10.11 13 17.09 9.26 6.16 20.05 5.39 20.05 5.39l1 2.29c-1.76 2.36-14.14 4.82-22.48 2-12.78-4.23-16.11-10.81-17.71-17.88zm37.53 0c-1.37-6 1.06-7.31 2.72-8.81.31-.27-.1-7 .67-10 0 0 2.11-.73 2.22-.78.11-.05.3 10.51.52 10.7 2.37 2 2.47 10.11 13 17.09 9.26 6.16 20 5.39 20 5.39l1.05 2.29c-1.76 2.36-14.14 4.82-22.48 2-12.78-4.23-16.11-10.81-17.7-17.88zm37.139 0c-1.37-6 1.06-7.31 2.72-8.81.31-.27-.1-7 .67-10 0 0 2.11-.73 2.22-.78.11-.05.3 10.51.52 10.7 2.37 2 2.47 10.11 13 17.09 9.26 6.16 20 5.39 20 5.39l1 2.29c-1.76 2.36-14.13 4.82-22.48 2-12.73-4.23-16.06-10.81-17.65-17.88zm36.45 0c-1.37-6 1.06-7.31 2.73-8.81.3-.27-.11-7 .66-10 0 0 2.11-.73 2.22-.78.11-.05.3 10.51.52 10.7 2.37 2 2.47 10.11 13 17.09 9.26 6.16 20.05 5.39 20.05 5.39l1.05 2.29c-1.77 2.36-14.14 4.82-22.48 2-12.82-4.23-16.14-10.81-17.75-17.88zM58.79 165.32h-10.9a5.831 5.831 0 01-5.83-5.83V123.2c.88-3.17 6.77-11.29 6.77-11.29h9s5.9 8.12 6.77 11.29v36.29a5.827 5.827 0 01-5.81 5.83zm-8.07-61.84H56a1.888 1.888 0 011.89 1.89v2.62h-9v-2.58a1.888 1.888 0 011.83-1.93zM88 165.32H77.1a5.83 5.83 0 01-5.83-5.83V123.2c.87-3.17 6.77-11.29 6.77-11.29h9s5.89 8.12 6.77 11.29v36.29a5.827 5.827 0 01-5.81 5.83zm-8-61.84h5.24a1.888 1.888 0 011.89 1.89v2.62h-9v-2.58a1.894 1.894 0 011.143-1.776 1.89 1.89 0 01.726-.154zm38.12 61.84h-10.9a5.832 5.832 0 01-5.83-5.83V123.2c.88-3.17 6.77-11.29 6.77-11.29h9s5.9 8.12 6.77 11.29v36.29a5.828 5.828 0 01-5.81 5.83zm-8.07-61.84h5.24a1.89 1.89 0 011.89 1.89v2.62h-9v-2.58a1.906 1.906 0 01.13-.731 1.886 1.886 0 011.74-1.199zm36.569 61.84h-10.9a5.84 5.84 0 01-5.84-5.83V123.2c.88-3.17 6.77-11.29 6.77-11.29h9s5.89 8.12 6.77 11.29v36.29a5.83 5.83 0 01-5.8 5.83zm-8.069-61.84h5.24a1.89 1.89 0 011.89 1.89v2.62h-9v-2.58a1.906 1.906 0 01.13-.731 1.886 1.886 0 011.74-1.199zm36.77 61.84h-10.9a5.834 5.834 0 01-4.123-1.707 5.834 5.834 0 01-1.707-4.123V123.2c.87-3.17 6.77-11.29 6.77-11.29h9s5.89 8.12 6.77 11.29v36.29a5.828 5.828 0 01-5.81 5.83zm-8.071-61.84h5.24a1.89 1.89 0 011.89 1.89v2.62h-9v-2.58a1.889 1.889 0 011.144-1.776c.229-.099.476-.151.726-.154z" stroke="#666" stroke-width="2" stroke-miterlimit="10"/></svg>