<svg width="292" height="444" viewBox="0 0 292 444" fill="none" xmlns="http://www.w3.org/2000/svg">
<path d="M203.17 425.421H1.49023V1.64062H203.17" stroke="#666666" stroke-width="2" stroke-miterlimit="10"/>
<path d="M30.3099 428.34H8.87988V438.08H30.3099V428.34Z" stroke="#666666" stroke-width="2" stroke-miterlimit="10"/>
<path d="M26.0708 438.09H13.1208C12.3918 438.09 11.8008 438.681 11.8008 439.41V441.64C11.8008 442.369 12.3918 442.96 13.1208 442.96H26.0708C26.7998 442.96 27.3908 442.369 27.3908 441.64V439.41C27.3908 438.681 26.7998 438.09 26.0708 438.09Z" stroke="#666666" stroke-width="2" stroke-miterlimit="10"/>
<path d="M283.18 428.34H261.75V438.08H283.18V428.34Z" stroke="#666666" stroke-width="2" stroke-miterlimit="10"/>
<path d="M278.94 438.09H265.99C265.261 438.09 264.67 438.681 264.67 439.41V441.64C264.67 442.369 265.261 442.96 265.99 442.96H278.94C279.669 442.96 280.26 442.369 280.26 441.64V439.41C280.26 438.681 279.669 438.09 278.94 438.09Z" stroke="#666666" stroke-width="2" stroke-miterlimit="10"/>
<path d="M144.05 320.199H57.8704C54.7113 320.199 52.1504 322.76 52.1504 325.919V365.139C52.1504 368.298 54.7113 370.859 57.8704 370.859H144.05C147.209 370.859 149.77 368.298 149.77 365.139V325.919C149.77 322.76 147.209 320.199 144.05 320.199Z" stroke="#666666" stroke-width="2" stroke-miterlimit="10"/>
<path d="M137.181 326.039H64.8206C61.6615 326.039 59.1006 328.6 59.1006 331.759V359.289C59.1006 362.448 61.6615 365.009 64.8206 365.009H137.181C140.34 365.009 142.901 362.448 142.901 359.289V331.759C142.901 328.6 140.34 326.039 137.181 326.039Z" stroke="#666666" stroke-width="2" stroke-miterlimit="10"/>
<path d="M255.7 363.49H227.93V386.87H255.7V363.49Z" stroke="#666666" stroke-width="2" stroke-miterlimit="10"/>
<path d="M273.36 188.24H221.2C217.919 188.24 215.26 190.9 215.26 194.18V263C215.26 266.281 217.919 268.94 221.2 268.94H273.36C276.64 268.94 279.3 266.281 279.3 263V194.18C279.3 190.9 276.64 188.24 273.36 188.24Z" stroke="#666666" stroke-width="2" stroke-miterlimit="10"/>
<path d="M271.35 201.99H251.87V227.32H271.35V201.99Z" stroke="#666666" stroke-width="2" stroke-miterlimit="10"/>
<path d="M254.37 151.891H239.98V157.121H254.37V151.891Z" stroke="#666666" stroke-width="2" stroke-miterlimit="10"/>
<path d="M273.59 151.891H259.2V157.121H273.59V151.891Z" stroke="#666666" stroke-width="2" stroke-miterlimit="10"/>
<path d="M235.361 151.891H220.971V157.121H235.361V151.891Z" stroke="#666666" stroke-width="2" stroke-miterlimit="10"/>
<path d="M271.851 235.439H251.391V262.719H271.851V235.439Z" stroke="#666666" stroke-width="2" stroke-miterlimit="10"/>
<path d="M272.71 56.6602H221.85C218.21 56.6602 215.26 59.6107 215.26 63.2502V169.65C215.26 173.29 218.21 176.24 221.85 176.24H272.71C276.349 176.24 279.3 173.29 279.3 169.65V63.2502C279.3 59.6107 276.349 56.6602 272.71 56.6602Z" stroke="#666666" stroke-width="2" stroke-miterlimit="10"/>
<path d="M178.76 15.2891H26.3305C19.2336 15.2891 13.4805 21.0423 13.4805 28.1392V277.679C13.4805 284.776 19.2336 290.529 26.3305 290.529H178.76C185.857 290.529 191.61 284.776 191.61 277.679V28.1392C191.61 21.0423 185.857 15.2891 178.76 15.2891Z" stroke="#666666" stroke-width="2" stroke-miterlimit="10"/>
<path d="M290.89 1.64062H203.17V425.421H290.89V1.64062Z" stroke="#666666" stroke-width="2" stroke-miterlimit="10"/>
<path d="M246.01 31.9299C247.622 31.9299 248.93 30.6227 248.93 29.01C248.93 27.3973 247.622 26.0898 246.01 26.0898C244.397 26.0898 243.09 27.3973 243.09 29.01C243.09 30.6227 244.397 31.9299 246.01 31.9299Z" stroke="#666666" stroke-width="2" stroke-miterlimit="10"/>
<path d="M226.97 251.509C229.931 251.509 232.33 249.109 232.33 246.149C232.33 243.189 229.931 240.789 226.97 240.789C224.01 240.789 221.61 243.189 221.61 246.149C221.61 249.109 224.01 251.509 226.97 251.509Z" stroke="#666666" stroke-width="2" stroke-miterlimit="10"/>
<path d="M239.19 250.05C241.344 250.05 243.09 248.304 243.09 246.15C243.09 243.996 241.344 242.25 239.19 242.25C237.036 242.25 235.29 243.996 235.29 246.15C235.29 248.304 237.036 250.05 239.19 250.05Z" stroke="#666666" stroke-width="2" stroke-miterlimit="10"/>
<path d="M267.01 206.871H256.25V222.461H267.01V206.871Z" stroke="#666666" stroke-width="2" stroke-miterlimit="10"/>
<path d="M270.3 24.9492H265.65L263.33 28.9692L265.65 32.9993H270.3L272.62 28.9692L270.3 24.9492Z" stroke="#666666" stroke-width="2" stroke-miterlimit="10"/>
<path d="M227.13 24.9492H222.49L220.16 28.9692L222.49 32.9993H227.13L229.45 28.9692L227.13 24.9492Z" stroke="#666666" stroke-width="2" stroke-miterlimit="10"/>
<path d="M62.4503 118.66H35.0703V167.79H62.4503V118.66Z" stroke="#666666" stroke-width="2" stroke-miterlimit="10"/>
<path d="M48.7598 118.66V167.79" stroke="#666666" stroke-width="2" stroke-miterlimit="10"/>
<path d="M35.0703 128.721H62.4503" stroke="#666666" stroke-width="2" stroke-miterlimit="10"/>
<path d="M35.0703 139.031H62.4503" stroke="#666666" stroke-width="2" stroke-miterlimit="10"/>
<path d="M35.0703 148.73H62.4503" stroke="#666666" stroke-width="2" stroke-miterlimit="10"/>
<path d="M35.0703 158.26H62.4503" stroke="#666666" stroke-width="2" stroke-miterlimit="10"/>
<path d="M99.1906 118.66H71.8105V167.79H99.1906V118.66Z" stroke="#666666" stroke-width="2" stroke-miterlimit="10"/>
<path d="M85.5 118.66V167.79" stroke="#666666" stroke-width="2" stroke-miterlimit="10"/>
<path d="M71.8105 128.721H99.1906" stroke="#666666" stroke-width="2" stroke-miterlimit="10"/>
<path d="M71.8105 139.031H99.1906" stroke="#666666" stroke-width="2" stroke-miterlimit="10"/>
<path d="M71.8105 148.73H99.1906" stroke="#666666" stroke-width="2" stroke-miterlimit="10"/>
<path d="M71.8105 158.26H99.1906" stroke="#666666" stroke-width="2" stroke-miterlimit="10"/>
<path d="M134.691 118.66H107.311V167.79H134.691V118.66Z" stroke="#666666" stroke-width="2" stroke-miterlimit="10"/>
<path d="M121 118.66V167.79" stroke="#666666" stroke-width="2" stroke-miterlimit="10"/>
<path d="M107.311 128.721H134.691" stroke="#666666" stroke-width="2" stroke-miterlimit="10"/>
<path d="M107.311 139.031H134.691" stroke="#666666" stroke-width="2" stroke-miterlimit="10"/>
<path d="M107.311 148.73H134.691" stroke="#666666" stroke-width="2" stroke-miterlimit="10"/>
<path d="M107.311 158.26H134.691" stroke="#666666" stroke-width="2" stroke-miterlimit="10"/>
<path d="M170.441 118.66H143.061V167.79H170.441V118.66Z" stroke="#666666" stroke-width="2" stroke-miterlimit="10"/>
<path d="M156.75 118.66V167.79" stroke="#666666" stroke-width="2" stroke-miterlimit="10"/>
<path d="M143.061 128.721H170.441" stroke="#666666" stroke-width="2" stroke-miterlimit="10"/>
<path d="M143.061 139.031H170.441" stroke="#666666" stroke-width="2" stroke-miterlimit="10"/>
<path d="M143.061 148.73H170.441" stroke="#666666" stroke-width="2" stroke-miterlimit="10"/>
<path d="M143.061 158.26H170.441" stroke="#666666" stroke-width="2" stroke-miterlimit="10"/>
<path d="M43.6505 255.659H33.1105C32.3703 255.659 31.6374 255.513 30.9537 255.23C30.27 254.946 29.6488 254.53 29.1259 254.007C28.603 253.483 28.1885 252.861 27.9062 252.177C27.6239 251.493 27.4792 250.759 27.4805 250.019V214.949C28.3305 211.879 34.0205 204.039 34.0205 204.039H42.7405C42.7405 204.039 48.4405 211.879 49.2905 214.949V250.019C49.2905 251.515 48.6963 252.95 47.6386 254.007C46.5809 255.065 45.1463 255.659 43.6505 255.659Z" stroke="#666666" stroke-width="2" stroke-miterlimit="10"/>
<path d="M35.91 195.891H40.85C41.3512 195.891 41.832 196.09 42.1864 196.444C42.5408 196.799 42.74 197.28 42.74 197.781V200.251H34V197.781C34 197.531 34.0495 197.283 34.1458 197.053C34.242 196.822 34.383 196.613 34.5606 196.437C34.7382 196.261 34.949 196.123 35.1806 196.029C35.4122 195.935 35.6601 195.888 35.91 195.891Z" stroke="#666666" stroke-width="2" stroke-miterlimit="10"/>
<path d="M76.13 255.659H65.59C64.8498 255.659 64.1168 255.513 63.4331 255.23C62.7494 254.946 62.1283 254.53 61.6054 254.007C61.0825 253.483 60.668 252.861 60.3856 252.177C60.1033 251.493 59.9587 250.759 59.96 250.019V214.949C60.81 211.879 66.4999 204.039 66.4999 204.039H75.2199C75.2199 204.039 80.92 211.879 81.77 214.949V250.019C81.77 251.515 81.1758 252.95 80.1181 254.007C79.0603 255.065 77.6258 255.659 76.13 255.659Z" stroke="#666666" stroke-width="2" stroke-miterlimit="10"/>
<path d="M68.39 195.891H73.33C73.8313 195.891 74.312 196.09 74.6664 196.444C75.0209 196.799 75.22 197.28 75.22 197.781V200.251H66.5V197.781C66.5 197.28 66.6991 196.799 67.0536 196.444C67.408 196.09 67.8888 195.891 68.39 195.891Z" stroke="#666666" stroke-width="2" stroke-miterlimit="10"/>
<path d="M108.38 255.659H97.8499C97.1089 255.66 96.3749 255.515 95.6901 255.232C95.0052 254.949 94.3829 254.534 93.859 254.01C93.335 253.486 92.9196 252.864 92.6366 252.179C92.3536 251.494 92.2087 250.76 92.21 250.019V214.949C93.06 211.879 98.7499 204.039 98.7499 204.039H107.48C107.48 204.039 113.17 211.879 114.02 214.949V250.019C114.021 250.76 113.876 251.494 113.593 252.179C113.31 252.864 112.895 253.486 112.371 254.01C111.847 254.534 111.225 254.949 110.54 255.232C109.855 255.515 109.121 255.66 108.38 255.659Z" stroke="#666666" stroke-width="2" stroke-miterlimit="10"/>
<path d="M100.65 195.891H105.59C106.091 195.891 106.572 196.09 106.926 196.444C107.281 196.799 107.48 197.28 107.48 197.781V200.251H98.7598V197.781C98.7598 197.28 98.9589 196.799 99.3134 196.444C99.6678 196.09 100.149 195.891 100.65 195.891Z" stroke="#666666" stroke-width="2" stroke-miterlimit="10"/>
<path d="M139.54 255.659H129C128.259 255.66 127.525 255.515 126.84 255.232C126.156 254.949 125.533 254.534 125.009 254.01C124.485 253.486 124.07 252.864 123.787 252.179C123.504 251.494 123.359 250.76 123.36 250.019V214.949C124.21 211.879 129.9 204.039 129.9 204.039H138.63C138.63 204.039 144.32 211.879 145.17 214.949V250.019C145.172 250.759 145.027 251.493 144.745 252.177C144.462 252.861 144.048 253.483 143.525 254.007C143.002 254.53 142.381 254.946 141.697 255.23C141.013 255.513 140.281 255.659 139.54 255.659Z" stroke="#666666" stroke-width="2" stroke-miterlimit="10"/>
<path d="M131.81 195.891H136.75C137.251 195.891 137.732 196.09 138.086 196.444C138.441 196.799 138.64 197.28 138.64 197.781V200.251H129.92V197.781C129.92 197.28 130.119 196.799 130.474 196.444C130.828 196.09 131.309 195.891 131.81 195.891Z" stroke="#666666" stroke-width="2" stroke-miterlimit="10"/>
<path d="M171.55 255.659H161C159.505 255.659 158.07 255.065 157.012 254.007C155.955 252.95 155.36 251.515 155.36 250.019V214.949C156.21 211.879 161.91 204.039 161.91 204.039H170.63C170.63 204.039 176.32 211.879 177.17 214.949V250.019C177.172 250.759 177.027 251.491 176.746 252.175C176.464 252.858 176.05 253.479 175.528 254.003C175.007 254.527 174.387 254.943 173.704 255.227C173.022 255.511 172.29 255.658 171.55 255.659Z" stroke="#666666" stroke-width="2" stroke-miterlimit="10"/>
<path d="M163.81 195.891H168.75C169.251 195.891 169.732 196.09 170.086 196.444C170.441 196.799 170.64 197.28 170.64 197.781V200.251H161.92V197.781C161.92 197.28 162.119 196.799 162.474 196.444C162.828 196.09 163.309 195.891 163.81 195.891Z" stroke="#666666" stroke-width="2" stroke-miterlimit="10"/>
<path d="M41.3802 47H35.8203C33.1527 47 30.9902 49.1623 30.9902 51.8298V94.7C30.9902 97.3675 33.1527 99.53 35.8203 99.53H41.3802C44.0478 99.53 46.2103 97.3675 46.2103 94.7V51.8298C46.2103 49.1623 44.0478 47 41.3802 47Z" stroke="#666666" stroke-width="2" stroke-miterlimit="10"/>
<path d="M63.1908 47H57.6308C54.9633 47 52.8008 49.1623 52.8008 51.8298V94.7C52.8008 97.3675 54.9633 99.53 57.6308 99.53H63.1908C65.8583 99.53 68.0208 97.3675 68.0208 94.7V51.8298C68.0208 49.1623 65.8583 47 63.1908 47Z" stroke="#666666" stroke-width="2" stroke-miterlimit="10"/>
<path d="M84.4798 47.3203H78.9198C76.2523 47.3203 74.0898 49.4829 74.0898 52.1504V95.0205C74.0898 97.688 76.2523 99.8503 78.9198 99.8503H84.4798C87.1473 99.8503 89.3098 97.688 89.3098 95.0205V52.1504C89.3098 49.4829 87.1473 47.3203 84.4798 47.3203Z" stroke="#666666" stroke-width="2" stroke-miterlimit="10"/>
<path d="M105.4 47.3203H99.8398C97.1722 47.3203 95.0098 49.4829 95.0098 52.1504V95.0205C95.0098 97.688 97.1722 99.8503 99.8398 99.8503H105.4C108.067 99.8503 110.23 97.688 110.23 95.0205V52.1504C110.23 49.4829 108.067 47.3203 105.4 47.3203Z" stroke="#666666" stroke-width="2" stroke-miterlimit="10"/>
<path d="M127.47 47H121.91C119.242 47 117.08 49.1623 117.08 51.8298V94.7C117.08 97.3675 119.242 99.53 121.91 99.53H127.47C130.138 99.53 132.3 97.3675 132.3 94.7V51.8298C132.3 49.1623 130.138 47 127.47 47Z" stroke="#666666" stroke-width="2" stroke-miterlimit="10"/>
<path d="M148.76 47.3203H143.2C140.533 47.3203 138.37 49.4829 138.37 52.1504V95.0205C138.37 97.688 140.533 99.8503 143.2 99.8503H148.76C151.428 99.8503 153.59 97.688 153.59 95.0205V52.1504C153.59 49.4829 151.428 47.3203 148.76 47.3203Z" stroke="#666666" stroke-width="2" stroke-miterlimit="10"/>
<path d="M169.68 47.3203H164.12C161.453 47.3203 159.29 49.4829 159.29 52.1504V95.0205C159.29 97.688 161.453 99.8503 164.12 99.8503H169.68C172.348 99.8503 174.51 97.688 174.51 95.0205V52.1504C174.51 49.4829 172.348 47.3203 169.68 47.3203Z" stroke="#666666" stroke-width="2" stroke-miterlimit="10"/>
</svg>
