<svg width="292" height="444" fill="none" xmlns="http://www.w3.org/2000/svg"><path d="M203.17 425.421H1.49V1.641h201.68M30.31 428.34H8.88v9.74h21.43v-9.74zm-4.24 9.75H13.12a1.32 1.32 0 00-1.32 1.32v2.23c0 .729.592 1.32 1.32 1.32h12.95a1.32 1.32 0 001.32-1.32v-2.23a1.32 1.32 0 00-1.32-1.32zm257.11-9.75h-21.43v9.74h21.43v-9.74zm-4.24 9.75h-12.95a1.32 1.32 0 00-1.32 1.32v2.23c0 .729.591 1.32 1.32 1.32h12.95a1.32 1.32 0 001.32-1.32v-2.23a1.32 1.32 0 00-1.32-1.32z" stroke="#666" stroke-width="2" stroke-miterlimit="10"/><path d="M144.05 320.199H57.87a5.72 5.72 0 00-5.72 5.72v39.22a5.72 5.72 0 005.72 5.72h86.18a5.72 5.72 0 005.72-5.72v-39.22a5.72 5.72 0 00-5.72-5.72z" stroke="#666" stroke-width="2" stroke-miterlimit="10"/><path d="M137.181 326.039h-72.36a5.72 5.72 0 00-5.72 5.72v27.53a5.72 5.72 0 005.72 5.72h72.36a5.72 5.72 0 005.72-5.72v-27.53a5.72 5.72 0 00-5.72-5.72zM255.7 363.49h-27.77v23.38h27.77v-23.38zm17.66-175.25H221.2a5.94 5.94 0 00-5.94 5.94V263a5.94 5.94 0 005.94 5.94h52.16a5.94 5.94 0 005.94-5.94v-68.82a5.94 5.94 0 00-5.94-5.94z" stroke="#666" stroke-width="2" stroke-miterlimit="10"/><path d="M271.35 201.99h-19.48v25.33h19.48v-25.33zm-16.98-50.099h-14.39v5.23h14.39v-5.23zm19.22 0H259.2v5.23h14.39v-5.23zm-38.229 0h-14.39v5.23h14.39v-5.23zm36.49 83.548h-20.46v27.28h20.46v-27.28z" stroke="#666" stroke-width="2" stroke-miterlimit="10"/><path d="M272.71 56.66h-50.86a6.59 6.59 0 00-6.59 6.59v106.4a6.59 6.59 0 006.59 6.59h50.86a6.59 6.59 0 006.59-6.59V63.25a6.59 6.59 0 00-6.59-6.59zm-93.95-41.37H26.33c-7.096 0-12.85 5.752-12.85 12.85v249.539c0 7.097 5.754 12.85 12.85 12.85h152.43c7.097 0 12.85-5.753 12.85-12.85V28.139c0-7.097-5.753-12.85-12.85-12.85z" stroke="#666" stroke-width="2" stroke-miterlimit="10"/><path d="M290.89 1.64h-87.72v423.781h87.72V1.641z" stroke="#666" stroke-width="2" stroke-miterlimit="10"/><path d="M246.01 31.93a2.92 2.92 0 100-5.84 2.92 2.92 0 000 5.84zm-19.04 219.579a5.36 5.36 0 100-10.72 5.36 5.36 0 000 10.72zm12.22-1.459a3.9 3.9 0 100-7.8 3.9 3.9 0 000 7.8zm27.82-43.179h-10.76v15.59h10.76v-15.59zM270.3 24.95h-4.65l-2.32 4.02 2.32 4.03h4.65l2.32-4.03-2.32-4.02zm-43.17 0h-4.64l-2.33 4.02 2.33 4.03h4.64l2.32-4.03-2.32-4.02zM62.45 118.66H35.07v49.13h27.38v-49.13zm-13.69 0v49.13m-13.69-39.069h27.38m-27.38 10.31h27.38m-27.38 9.699h27.38m-27.38 9.53h27.38m36.74-39.6H71.81v49.13h27.38v-49.13zm-13.69 0v49.13m-13.69-39.069h27.38m-27.38 10.31h27.38m-27.38 9.699h27.38m-27.38 9.53h27.38m35.501-39.6h-27.38v49.13h27.38v-49.13zm-13.691 0v49.13m-13.689-39.069h27.38m-27.38 10.31h27.38m-27.38 9.699h27.38m-27.38 9.53h27.38m35.75-39.6h-27.38v49.13h27.38v-49.13zm-13.691 0v49.13m-13.689-39.069h27.38m-27.38 10.31h27.38m-27.38 9.699h27.38m-27.38 9.53h27.38M43.65 255.659H33.11a5.64 5.64 0 01-3.984-1.652 5.634 5.634 0 01-1.646-3.988v-35.07c.85-3.07 6.54-10.91 6.54-10.91h8.72s5.7 7.84 6.55 10.91v35.07a5.638 5.638 0 01-5.64 5.64zm-7.74-59.768h4.94a1.891 1.891 0 011.89 1.89v2.47H34v-2.47a1.887 1.887 0 011.18-1.752 1.88 1.88 0 01.73-.138zm40.22 59.768H65.59a5.64 5.64 0 01-3.985-1.652 5.636 5.636 0 01-1.645-3.988v-35.07c.85-3.07 6.54-10.91 6.54-10.91h8.72s5.7 7.84 6.55 10.91v35.07a5.638 5.638 0 01-5.64 5.64zm-7.74-59.768h4.94a1.891 1.891 0 011.89 1.89v2.47H66.5v-2.47a1.893 1.893 0 011.89-1.89zm39.99 59.768H97.85a5.635 5.635 0 01-5.213-3.48 5.63 5.63 0 01-.427-2.16v-35.07c.85-3.07 6.54-10.91 6.54-10.91h8.73s5.69 7.84 6.54 10.91v35.07a5.637 5.637 0 01-1.649 3.991 5.628 5.628 0 01-3.991 1.649zm-7.73-59.768h4.94a1.89 1.89 0 011.89 1.89v2.47h-8.72v-2.47a1.893 1.893 0 011.89-1.89zm38.89 59.768H129a5.637 5.637 0 01-3.991-1.649 5.628 5.628 0 01-1.649-3.991v-35.07c.85-3.07 6.54-10.91 6.54-10.91h8.73s5.69 7.84 6.54 10.91v35.07a5.625 5.625 0 01-5.63 5.64zm-7.73-59.768h4.94a1.89 1.89 0 011.89 1.89v2.47h-8.72v-2.47a1.89 1.89 0 011.89-1.89zm39.74 59.768H161a5.64 5.64 0 01-5.64-5.64v-35.07c.85-3.07 6.55-10.91 6.55-10.91h8.72s5.69 7.84 6.54 10.91v35.07a5.633 5.633 0 01-1.642 3.984 5.609 5.609 0 01-3.978 1.656zm-7.74-59.768h4.94a1.89 1.89 0 011.89 1.89v2.47h-8.72v-2.47a1.89 1.89 0 011.89-1.89zM41.38 47h-5.56a4.83 4.83 0 00-4.83 4.83V94.7a4.83 4.83 0 004.83 4.83h5.56a4.83 4.83 0 004.83-4.83V51.83A4.83 4.83 0 0041.38 47zm21.81 0h-5.56a4.83 4.83 0 00-4.83 4.83V94.7a4.83 4.83 0 004.83 4.83h5.56a4.83 4.83 0 004.83-4.83V51.83A4.83 4.83 0 0063.19 47zm21.29.32h-5.56a4.83 4.83 0 00-4.83 4.83v42.87a4.83 4.83 0 004.83 4.83h5.56a4.83 4.83 0 004.83-4.83V52.15a4.83 4.83 0 00-4.83-4.83zm20.92 0h-5.56a4.83 4.83 0 00-4.83 4.83v42.87a4.83 4.83 0 004.83 4.83h5.56a4.83 4.83 0 004.83-4.83V52.15a4.83 4.83 0 00-4.83-4.83zm22.07-.32h-5.56a4.83 4.83 0 00-4.83 4.83V94.7a4.83 4.83 0 004.83 4.83h5.56a4.83 4.83 0 004.83-4.83V51.83a4.83 4.83 0 00-4.83-4.83zm21.29.32h-5.56a4.83 4.83 0 00-4.83 4.83v42.87a4.83 4.83 0 004.83 4.83h5.56a4.83 4.83 0 004.83-4.83V52.15a4.83 4.83 0 00-4.83-4.83zm20.92 0h-5.56a4.83 4.83 0 00-4.83 4.83v42.87a4.83 4.83 0 004.83 4.83h5.56a4.83 4.83 0 004.83-4.83V52.15a4.83 4.83 0 00-4.83-4.83z" stroke="#666" stroke-width="2" stroke-miterlimit="10"/></svg>