<svg width="163" height="435" fill="none" xmlns="http://www.w3.org/2000/svg"><path d="M113.97 1.031H1.63v398.84h112.34V1.031zm47.89 403.19H1.63v29.61h160.23v-29.61zm-6.97-114.951H121.8v35.699h33.09V289.27z" stroke="#666" stroke-width="2" stroke-miterlimit="10"/><path d="M161.86 1.031h-47.9v398.84h47.9V1.031z" stroke="#666" stroke-width="2" stroke-miterlimit="10"/><path d="M155.76 26.281h-34.83v187.23h34.83V26.281z" stroke="#666" stroke-width="2" stroke-miterlimit="10"/><path d="M150.54 30.64h-24.38v16.55h24.38V30.64zm.05 20.15H126.1v35.7h24.49v-35.7zm-3.85 45.16h-16.79a3.85 3.85 0 00-3.85 3.85v9.719a3.85 3.85 0 003.85 3.85h16.79a3.85 3.85 0 003.85-3.85v-9.72a3.85 3.85 0 00-3.85-3.85zm3.801 48.761h-12.65v16.55h12.65v-16.55zm.049 22.648H126.1v25.25h24.49v-25.25z" stroke="#666" stroke-width="2" stroke-miterlimit="10"/><path d="M144.21 155.42a3.41 3.41 0 100-6.82 3.41 3.41 0 000 6.82zm-12.09-2.87a2.61 2.61 0 100-5.22 2.61 2.61 0 000 5.22zm14.39-51.38h-16.33v6.97h16.33v-6.97zm-59.06 27H28.14c-5.506 0-9.97 4.464-9.97 9.97v125.49c0 5.506 4.464 9.97 9.97 9.97h59.31c5.506 0 9.97-4.464 9.97-9.97V138.14c0-5.506-4.464-9.97-9.97-9.97zm-.09 155.01H26.49c-6.997 0-12.67 5.672-12.67 12.67v81.77c0 6.997 5.673 12.67 12.67 12.67h60.87c6.998 0 12.67-5.673 12.67-12.67v-81.77c0-6.998-5.672-12.67-12.67-12.67zm.87-271.7H27.36c-6.998 0-12.67 5.673-12.67 12.67v80.9c0 6.998 5.672 12.67 12.67 12.67h60.87c6.997 0 12.67-5.672 12.67-12.67v-80.9c0-6.997-5.673-12.67-12.67-12.67zm50.12 302.181a6.97 6.97 0 10-.001-13.941 6.97 6.97 0 00.001 13.941z" stroke="#666" stroke-width="2" stroke-miterlimit="10"/><path d="M138.35 319.751c7.213 0 13.06-5.847 13.06-13.06s-5.847-13.06-13.06-13.06-13.06 5.847-13.06 13.06 5.847 13.06 13.06 13.06zM86.8 211.77H28.79a3.65 3.65 0 00-3.65 3.649v46.69a3.65 3.65 0 003.65 3.651H86.8a3.65 3.65 0 003.65-3.651v-46.69a3.65 3.65 0 00-3.65-3.649zm-32.92-70.54a2.61 2.61 0 10-.001-5.22 2.61 2.61 0 000 5.22zm0 6.961a2.61 2.61 0 10-.001-5.22 2.61 2.61 0 000 5.22zm8.7 0a2.61 2.61 0 100-5.22 2.61 2.61 0 000 5.22zm0-6.961a2.61 2.61 0 100-5.22 2.61 2.61 0 000 5.22zm-8.7 13.929a2.61 2.61 0 100-5.22 2.61 2.61 0 000 5.22zm0 6.971a2.61 2.61 0 100-5.22 2.61 2.61 0 000 5.22zm8.7 0a2.61 2.61 0 100-5.22 2.61 2.61 0 000 5.22zm0-6.971a2.61 2.61 0 100-5.22 2.61 2.61 0 000 5.22zm-8.7 13.932a2.61 2.61 0 100-5.22 2.61 2.61 0 000 5.22zm0 6.969a2.61 2.61 0 10-.001-5.22 2.61 2.61 0 000 5.22zm8.7 0a2.61 2.61 0 100-5.22 2.61 2.61 0 000 5.22zm0-6.969a2.61 2.61 0 100-5.22 2.61 2.61 0 000 5.22zm-8.7 13.94a2.61 2.61 0 10-.001-5.22 2.61 2.61 0 000 5.22zm0 6.959a2.61 2.61 0 10-.001-5.221 2.61 2.61 0 000 5.221zm8.7 0a2.61 2.61 0 10-.001-5.221 2.61 2.61 0 000 5.221zm0-6.959a2.61 2.61 0 100-5.22 2.61 2.61 0 000 5.22zm-8.7 13.929a2.61 2.61 0 100-5.22 2.61 2.61 0 000 5.22zm0 6.971a2.61 2.61 0 10-.001-5.22 2.61 2.61 0 000 5.22zm8.7 0a2.61 2.61 0 100-5.22 2.61 2.61 0 000 5.22zm0-6.971a2.61 2.61 0 100-5.22 2.61 2.61 0 000 5.22z" stroke="#666" stroke-width="2" stroke-miterlimit="10"/><path d="M42.047 299.795h-2.031a1.989 1.989 0 00-.227-.701 1.794 1.794 0 00-.441-.529 1.96 1.96 0 00-.622-.334 2.387 2.387 0 00-.756-.115c-.492 0-.92.122-1.285.366-.365.241-.648.594-.849 1.058-.2.46-.301 1.02-.301 1.679 0 .677.1 1.246.301 1.707.205.461.489.808.854 1.043a2.28 2.28 0 001.266.353c.27 0 .518-.036.747-.107a1.96 1.96 0 00.617-.31c.18-.14.328-.308.445-.506.12-.198.204-.424.25-.677l2.032.009a3.782 3.782 0 01-1.234 2.342 3.938 3.938 0 01-1.252.752 4.613 4.613 0 01-1.637.274c-.847 0-1.605-.192-2.273-.576-.665-.383-1.19-.938-1.577-1.665-.384-.727-.575-1.606-.575-2.639 0-1.036.194-1.918.584-2.644.39-.727.919-1.281 1.586-1.661.668-.383 1.42-.575 2.255-.575.55 0 1.06.077 1.53.232.474.154.893.38 1.258.677.364.294.661.654.89 1.081.232.427.38.915.446 1.466zm10.17 1.424c0 1.036-.196 1.917-.588 2.644-.39.727-.922 1.282-1.596 1.665-.671.38-1.426.571-2.264.571-.844 0-1.602-.192-2.273-.576-.67-.383-1.201-.938-1.59-1.665-.39-.727-.585-1.606-.585-2.639 0-1.036.195-1.918.584-2.644.39-.727.92-1.281 1.591-1.661.671-.383 1.43-.575 2.273-.575.838 0 1.593.192 2.264.575.674.38 1.206.934 1.596 1.661.392.726.589 1.608.589 2.644zm-2.036 0c0-.671-.1-1.237-.301-1.698-.198-.461-.478-.81-.84-1.048-.361-.238-.785-.357-1.27-.357-.486 0-.91.119-1.272.357-.361.238-.643.587-.844 1.048-.198.461-.297 1.027-.297 1.698s.1 1.237.297 1.698c.201.46.482.81.844 1.048s.786.357 1.271.357c.486 0 .91-.119 1.271-.357.362-.238.642-.588.84-1.048.2-.461.301-1.027.301-1.698zm3.525 4.75v-9.5h6.29v1.656h-4.282v2.263h3.864v1.656h-3.864v3.925h-2.008zm7.64 0v-9.5h6.29v1.656h-4.28v2.263h3.863v1.656h-3.864v3.925h-2.008zm7.642 0v-9.5h6.4v1.656h-4.392v2.263h4.064v1.656h-4.064v2.269h4.412v1.656h-6.42zm7.998 0v-9.5h6.401v1.656h-4.393v2.263h4.064v1.656h-4.064v2.269h4.412v1.656h-6.42zm-42.487 9.484h-1v1h1v-1zm0-4.636v-1h-1v1h1zm21.846 0h1v-1h-1v1zm0 4.636v1h1v-1h-1zm-8.143 0v-1h-1v1h1zm0 21.964v1h1v-1h-1zm-5.56 0h-1v1h1v-1zm0-21.964h1v-1h-1v1zm-7.143 0v-4.636h-2v4.636h2zm-1-3.636h21.846v-2H34.5v2zm20.846-1v4.636h2v-4.636h-2zm1 3.636h-8.143v2h8.143v-2zm-9.143 1v21.964h2v-21.964h-2zm1 20.964h-5.56v2h5.56v-2zm-4.56 1v-21.964h-2v21.964h2zm-1-22.964H34.5v2h8.144v-2zm38.88 17.067l-.879-.476-.002.003.882.473zm-4.467 4.663l.493.87.001-.001-.494-.869zm-12.703-.013l.496-.869-.496.869zm-4.455-4.663l-.88.472.88-.472zm0-14.794l.882.473-.882-.473zm4.455-4.649l.493.87.004-.002-.497-.868zm12.703 0l-.496.868.004.002.492-.87zm4.468 4.649l-.882.473.002.003.88-.476zm-4.897 2.65l-.919.395.003.005.916-.4zm-2.35-2.935l-.55.835.55-.835zm-7.118 0l.55.835-.55-.835zm-2.364 2.935l-.917-.4-.002.005.919.395zm0 9.507l-.919.395.002.005.917-.4zm2.364 2.936l.55-.836-.55.836zm7.117 0l-.55-.836.55.836zm2.351-2.936l-.916-.4-.003.006.92.394zm5.546-4.753c0 2.776-.526 5.071-1.529 6.927l1.76.951c1.196-2.213 1.77-4.853 1.77-7.878h-2zm-1.53 6.93c-1.008 1.88-2.368 3.292-4.082 4.266l.99 1.739c2.061-1.173 3.68-2.87 4.854-5.06l-1.763-.945zm-4.08 4.266c-1.716.972-3.656 1.467-5.845 1.467v2c2.504 0 4.789-.57 6.83-1.727l-.985-1.74zm-5.845 1.467c-2.207 0-4.154-.499-5.868-1.479l-.993 1.737c2.044 1.168 4.34 1.742 6.86 1.742v-2zm-5.868-1.479c-1.705-.974-3.062-2.386-4.07-4.267l-1.763.945c1.174 2.189 2.787 3.886 4.84 5.059l.992-1.737zm-4.07-4.267c-.996-1.857-1.518-4.149-1.518-6.917h-2c0 3.016.569 5.65 1.755 7.862l1.763-.945zm-1.518-6.917c0-2.778.522-5.074 1.518-6.931l-1.763-.945c-1.186 2.213-1.755 4.851-1.755 7.876h2zm1.518-6.931c1.008-1.88 2.363-3.287 4.066-4.252l-.986-1.74c-2.055 1.164-3.669 2.857-4.843 5.047l1.763.945zm4.07-4.254c1.714-.98 3.661-1.479 5.868-1.479v-2c-2.522 0-4.817.574-6.86 1.742l.992 1.737zm5.868-1.479c2.187 0 4.126.499 5.842 1.479l.992-1.737c-2.043-1.167-4.329-1.742-6.834-1.742v2zm5.846 1.481c1.712.966 3.07 2.373 4.078 4.252l1.763-.945c-1.174-2.191-2.794-3.884-4.858-5.048l-.983 1.741zm4.08 4.255c1.003 1.856 1.53 4.151 1.53 6.928h2c0-3.026-.574-5.666-1.77-7.879l-1.76.951zm-2.173 6.928c0-1.973-.294-3.703-.927-5.154l-1.833.8c.492 1.129.76 2.569.76 4.354h2zm-.925-5.149c-.619-1.441-1.519-2.585-2.72-3.376l-1.1 1.671c.826.543 1.493 1.355 1.982 2.495l1.838-.79zm-2.72-3.376c-1.196-.787-2.578-1.165-4.108-1.165v2c1.188 0 2.178.289 3.009.836l1.1-1.671zm-4.108-1.165c-1.53 0-2.913.378-4.109 1.165l1.1 1.671c.83-.547 1.82-.836 3.009-.836v-2zm-4.109 1.165c-1.2.79-2.103 1.932-2.73 3.371l1.833.8c.498-1.142 1.17-1.956 1.997-2.5l-1.1-1.671zm-2.733 3.376c-.622 1.45-.912 3.177-.912 5.149h2c0-1.787.264-3.228.75-4.359l-1.838-.79zm-.912 5.149c0 1.971.29 3.699.912 5.148l1.838-.789c-.486-1.131-.75-2.573-.75-4.359h-2zm.914 5.153c.628 1.439 1.531 2.581 2.731 3.371l1.1-1.671c-.827-.544-1.5-1.358-1.997-2.5l-1.834.8zm2.731 3.371c1.196.787 2.578 1.165 4.109 1.165v-2c-1.189 0-2.179-.289-3.01-.836l-1.099 1.671zm4.109 1.165c1.53 0 2.912-.378 4.108-1.165l-1.1-1.671c-.83.547-1.82.836-3.008.836v2zm4.108-1.165c1.201-.791 2.101-1.935 2.72-3.376l-1.838-.789c-.489 1.139-1.156 1.951-1.981 2.494l1.1 1.671zm2.718-3.371c.633-1.451.927-3.181.927-5.153h-2c0 1.785-.268 3.224-.76 4.353l1.833.8zM50.52 350.895l-.96.276.207.724h.753v-1zm-.766-1.676l-.832.555.004.007.828-.562zm-1.208-1.246l-.595.803.008.006.008.006.579-.815zm-1.61-.793l-.292.957.004.001.287-.958zm-5.572.741l-.549-.837-.003.002.552.835zm-2.39 2.948l.913.407.001-.002-.914-.405zm2.377 12.404l-.554.833.005.003.548-.836zm6.91.337l.446.895.004-.002-.45-.893zm2.077-1.935l-.864-.504-.003.007.867.497zm.728-2.948l.146-.99-1.146-.169v1.159h1zm1.143.169v1l.146-1.99-.146.99zm-6.858 0h-1v1h1v-1zm0-4.235v-1h-1v1h1zm11.13 0h1v-1h-1v1zm-1.48 9.378l.861.508.001-.001-.862-.507zm-4.078 3.87l.461.888.004-.002-.465-.886zm-12.52-.298l-.507.862.003.002.503-.864zm-4.417-4.715l-.89.456.003.005.887-.461zm-.636-13.04l-.937-.349-.001.002.938.347zm2.65-4.312l.72.693-.72-.693zm3.96-2.689l-.377-.926.378.926zm9.105-.26l-.321.947.005.002.316-.949zm3.455 1.845l-.621.783.003.003.618-.786zm2.481 2.844l-.864.504.002.003.862-.507zm1.234 3.611v1h1.148l-.157-1.137-.991.137zm-4.754-.277a6.827 6.827 0 00-.9-1.96l-1.655 1.123c.263.387.477.847.633 1.39l1.922-.553zm-.895-1.953a5.716 5.716 0 00-1.462-1.508l-1.157 1.631c.375.266.693.593.955.986l1.664-1.109zm-1.445-1.496a6.198 6.198 0 00-1.918-.947l-.575 1.916a4.19 4.19 0 011.303.638l1.19-1.607zm-1.914-.945a7.798 7.798 0 00-2.279-.317v2c.645 0 1.207.081 1.696.23l.583-1.913zm-2.279-.317c-1.533 0-2.923.384-4.133 1.177l1.097 1.673c.85-.558 1.85-.85 3.036-.85v-2zm-4.136 1.179c-1.204.796-2.116 1.94-2.753 3.378l1.829.81c.506-1.143 1.188-1.965 2.027-2.519l-1.103-1.669zm-2.752 3.376c-.644 1.443-.944 3.158-.944 5.109h2c0-1.756.272-3.176.771-4.295l-1.827-.814zm-.944 5.109c0 1.949.296 3.668.927 5.125l1.835-.795c-.494-1.141-.761-2.574-.761-4.33h-2zm.927 5.125c.628 1.45 1.54 2.604 2.754 3.41l1.107-1.667c-.847-.562-1.528-1.391-2.026-2.538l-1.835.795zm2.76 3.413c1.214.796 2.628 1.177 4.197 1.177v-2c-1.236 0-2.256-.295-3.101-.85l-1.097 1.673zM45 365.286c1.388 0 2.636-.246 3.707-.781l-.894-1.789c-.73.365-1.655.57-2.813.57v2zm3.71-.783c1.073-.541 1.916-1.319 2.496-2.331l-1.735-.994c-.373.65-.915 1.163-1.661 1.54l.9 1.785zm2.492-2.324c.589-1.01.864-2.173.864-3.452h-2c0 .989-.21 1.791-.591 2.444l1.727 1.008zm-.282-2.463l1.142.169.293-1.979-1.143-.169-.293 1.979zm1.289-1.82H45.35v2h6.858v-2zm-5.858 1v-4.235h-2v4.235h2zm-1-3.235h11.13v-2h-11.13v2zm10.13-1v3.351h2v-3.351h-2zm0 3.351c0 2.196-.462 4.022-1.342 5.52l1.724 1.014c1.094-1.862 1.619-4.053 1.619-6.534h-2zm-1.34 5.518a9.095 9.095 0 01-3.683 3.494l.93 1.771a11.09 11.09 0 004.474-4.248l-1.722-1.017zm-3.68 3.492c-1.57.817-3.39 1.238-5.487 1.238v2c2.371 0 4.517-.479 6.41-1.463l-.922-1.775zm-5.487 1.238c-2.342 0-4.354-.515-6.068-1.513l-1.007 1.728c2.06 1.2 4.43 1.785 7.075 1.785v-2zm-6.066-1.512c-1.717-1.008-3.06-2.437-4.034-4.313l-1.775.922c1.139 2.193 2.739 3.908 4.797 5.116l1.012-1.725zm-4.032-4.308c-.96-1.875-1.461-4.136-1.461-6.817h-2c0 2.929.547 5.517 1.681 7.729l1.78-.912zm-1.461-6.817c0-2.061.298-3.863.873-5.421l-1.876-.693c-.672 1.819-.997 3.862-.997 6.114h2zm.872-5.418c.59-1.583 1.403-2.899 2.433-3.968l-1.44-1.387c-1.24 1.287-2.193 2.845-2.867 4.657l1.874.698zm2.433-3.968a10.46 10.46 0 013.619-2.456l-.756-1.852a12.446 12.446 0 00-4.304 2.921l1.44 1.387zm3.619-2.456c1.377-.562 2.88-.848 4.518-.848v-2c-1.877 0-3.638.329-5.274.996l.756 1.852zm4.518-.848c1.408 0 2.701.206 3.887.609l.643-1.893c-1.412-.481-2.924-.716-4.53-.716v2zm3.892.611c1.196.399 2.243.96 3.15 1.679l1.243-1.567a12.199 12.199 0 00-3.76-2.009l-.633 1.897zm3.153 1.682a8.982 8.982 0 012.235 2.562l1.728-1.007a10.979 10.979 0 00-2.727-3.127l-1.236 1.572zm2.237 2.565c.57.971.94 2.048 1.105 3.241l1.982-.274a10.663 10.663 0 00-1.363-3.98l-1.724 1.013zm2.096 2.104H50.52v2h5.715v-2zM83.5 363l-.88-.476v.003l.88.473zm-4.468 4.663l.494.87v-.001l-.493-.869zm-12.702-.013l.496-.869-.496.869zm-4.455-4.663l-.881.472.881-.472zm0-14.794l.881.473-.88-.473zm4.455-4.649l.493.87.003-.002-.496-.868zm12.703 0l-.497.868.005.002.492-.87zm4.467 4.649l-.88.473v.003l.88-.476zm-4.896 2.65l-.919.395.002.005.917-.4zm-2.351-2.935l-.55.835.55-.835zm-7.118 0l.55.835-.55-.835zm-2.363 2.935l-.917-.4-.002.005.919.395zm0 9.507l-.92.395.003.005.917-.4zm2.363 2.936l.55-.836-.55.836zm7.118 0l-.55-.836.55.836zm2.35-2.936l-.916-.4-.002.006.919.394zm5.547-4.753c0 2.776-.526 5.071-1.53 6.927l1.76.951c1.196-2.213 1.77-4.853 1.77-7.878h-2zm-1.53 6.93c-1.009 1.88-2.369 3.292-4.082 4.266l.989 1.739c2.062-1.173 3.68-2.87 4.855-5.06l-1.763-.945zm-4.08 4.266c-1.716.972-3.657 1.467-5.846 1.467v2c2.504 0 4.79-.57 6.832-1.727l-.987-1.74zm-5.846 1.467c-2.206 0-4.154-.499-5.868-1.479l-.992 1.737c2.044 1.168 4.339 1.742 6.86 1.742v-2zm-5.868-1.479c-1.705-.974-3.061-2.386-4.07-4.267l-1.762.945c1.173 2.189 2.787 3.886 4.84 5.059l.992-1.737zm-4.07-4.267c-.995-1.857-1.517-4.149-1.517-6.917h-2c0 3.016.569 5.65 1.755 7.862l1.762-.945zm-1.517-6.917c0-2.778.522-5.074 1.517-6.931l-1.762-.945c-1.187 2.213-1.755 4.851-1.755 7.876h2zm1.517-6.931c1.009-1.88 2.364-3.287 4.067-4.253l-.986-1.739c-2.055 1.164-3.67 2.857-4.843 5.047l1.762.945zm4.07-4.254c1.714-.98 3.662-1.479 5.868-1.479v-2c-2.521 0-4.816.574-6.86 1.742l.992 1.737zm5.868-1.479c2.188 0 4.127.499 5.842 1.479l.993-1.737c-2.043-1.167-4.33-1.742-6.835-1.742v2zm5.847 1.481c1.712.966 3.07 2.373 4.078 4.252l1.763-.945c-1.175-2.191-2.794-3.884-4.858-5.048l-.983 1.741zm4.08 4.255c1.003 1.856 1.529 4.151 1.529 6.928h2c0-3.026-.574-5.666-1.77-7.879l-1.76.951zm-2.173 6.928c0-1.973-.295-3.703-.927-5.154l-1.834.8c.493 1.129.761 2.569.761 4.354h2zm-.925-5.149c-.62-1.441-1.52-2.585-2.72-3.376l-1.1 1.671c.825.543 1.493 1.355 1.982 2.495l1.838-.79zm-2.72-3.376c-1.196-.787-2.578-1.165-4.109-1.165v2c1.189 0 2.179.289 3.01.836l1.099-1.671zm-4.109-1.165c-1.53 0-2.913.378-4.108 1.165l1.1 1.671c.83-.547 1.82-.836 3.008-.836v-2zm-4.108 1.165c-1.2.79-2.103 1.932-2.73 3.371l1.832.8c.498-1.142 1.17-1.956 1.997-2.5l-1.1-1.671zm-2.733 3.376c-.623 1.45-.913 3.177-.913 5.149h2c0-1.787.265-3.228.75-4.359l-1.837-.79zm-.913 5.149c0 1.971.29 3.699.913 5.148l1.838-.789c-.486-1.131-.75-2.573-.75-4.359h-2zm.915 5.153c.628 1.439 1.531 2.581 2.73 3.371l1.1-1.671c-.826-.544-1.499-1.358-1.997-2.5l-1.833.8zm2.73 3.371c1.196.787 2.579 1.165 4.11 1.165v-2c-1.19 0-2.18-.289-3.01-.836l-1.1 1.671zm4.11 1.165c1.53 0 2.912-.378 4.108-1.165l-1.1-1.671c-.83.547-1.82.836-3.009.836v2zm4.108-1.165c1.2-.791 2.1-1.935 2.72-3.376l-1.838-.789c-.49 1.139-1.157 1.951-1.982 2.494l1.1 1.671zm2.718-3.371c.632-1.451.927-3.181.927-5.153h-2c0 1.785-.268 3.224-.76 4.353l1.832.8z" fill="#666"/><path d="M59.28 88.54l.52 5.82h19.7l3.07-33.89H56.73l.3 3.28" stroke="#666" stroke-width="2" stroke-miterlimit="10"/><path d="M61.08 97.82h17.14l.52-3.46H60.57l.51 3.46zm-5.37-40.75h28.4v-1.4a1.73 1.73 0 00-1.54-1.41H57.19a1.38 1.38 0 00-1.48 1.41v1.4z" stroke="#666" stroke-width="2" stroke-miterlimit="10"/><path d="M58.52 54.26h22.77l-.25-2.56-.26-2.56H59.04l-.26 2.56-.26 2.56zm-19.61 40.1h19.7l3.07-30.07H35.84l3.07 30.07zm1.27 3.46h17.15l.51-3.46H39.67l.51 3.46zm10.22-58.5l-2.29 2a1.9 1.9 0 000 2.84l2.44 2.17a1.911 1.911 0 010 2.8l-2.46 2.34a1.89 1.89 0 00.17 2.89l2.88 2.18M45.1 39.32l-2.29 2a1.901 1.901 0 000 2.84l2.44 2.17a1.91 1.91 0 010 2.8l-2.46 2.34a1.889 1.889 0 00.17 2.89l2.88 2.18" stroke="#666" stroke-width="2" stroke-miterlimit="10"/></svg>