<svg width="163" height="435" viewBox="0 0 163 435" fill="none" xmlns="http://www.w3.org/2000/svg">
<path d="M113.97 1.03125H1.62988V399.871H113.97V1.03125Z" stroke="#666666" stroke-width="2" stroke-miterlimit="10"/>
<path d="M161.86 404.221H1.62988V433.831H161.86V404.221Z" stroke="#666666" stroke-width="2" stroke-miterlimit="10"/>
<path d="M154.89 289.27H121.8V324.969H154.89V289.27Z" stroke="#666666" stroke-width="2" stroke-miterlimit="10"/>
<path d="M161.86 1.03125H113.96V399.871H161.86V1.03125Z" stroke="#666666" stroke-width="2" stroke-miterlimit="10"/>
<path d="M155.76 26.2812H120.93V213.511H155.76V26.2812Z" stroke="#666666" stroke-width="2" stroke-miterlimit="10"/>
<path d="M150.54 30.6406H126.16V47.1907H150.54V30.6406Z" stroke="#666666" stroke-width="2" stroke-miterlimit="10"/>
<path d="M150.59 50.7891H126.1V86.4893H150.59V50.7891Z" stroke="#666666" stroke-width="2" stroke-miterlimit="10"/>
<path d="M146.74 95.9492H129.95C127.823 95.9492 126.1 97.6728 126.1 99.7991V109.519C126.1 111.646 127.823 113.369 129.95 113.369H146.74C148.866 113.369 150.59 111.646 150.59 109.519V99.7991C150.59 97.6728 148.866 95.9492 146.74 95.9492Z" stroke="#666666" stroke-width="2" stroke-miterlimit="10"/>
<path d="M150.541 144.711H137.891V161.261H150.541V144.711Z" stroke="#666666" stroke-width="2" stroke-miterlimit="10"/>
<path d="M150.59 167.359H126.1V192.609H150.59V167.359Z" stroke="#666666" stroke-width="2" stroke-miterlimit="10"/>
<path d="M144.21 155.42C146.093 155.42 147.62 153.893 147.62 152.01C147.62 150.126 146.093 148.6 144.21 148.6C142.326 148.6 140.8 150.126 140.8 152.01C140.8 153.893 142.326 155.42 144.21 155.42Z" stroke="#666666" stroke-width="2" stroke-miterlimit="10"/>
<path d="M132.12 152.55C133.561 152.55 134.73 151.382 134.73 149.94C134.73 148.499 133.561 147.33 132.12 147.33C130.678 147.33 129.51 148.499 129.51 149.94C129.51 151.382 130.678 152.55 132.12 152.55Z" stroke="#666666" stroke-width="2" stroke-miterlimit="10"/>
<path d="M146.51 101.17H130.18V108.14H146.51V101.17Z" stroke="#666666" stroke-width="2" stroke-miterlimit="10"/>
<path d="M87.4498 128.17H28.1399C22.6336 128.17 18.1699 132.634 18.1699 138.14V263.63C18.1699 269.136 22.6336 273.6 28.1399 273.6H87.4498C92.9561 273.6 97.4199 269.136 97.4199 263.63V138.14C97.4199 132.634 92.9561 128.17 87.4498 128.17Z" stroke="#666666" stroke-width="2" stroke-miterlimit="10"/>
<path d="M87.3604 283.18H26.4904C19.4929 283.18 13.8203 288.852 13.8203 295.85V377.62C13.8203 384.617 19.4929 390.29 26.4904 390.29H87.3604C94.3578 390.29 100.03 384.617 100.03 377.62V295.85C100.03 288.852 94.3578 283.18 87.3604 283.18Z" stroke="#666666" stroke-width="2" stroke-miterlimit="10"/>
<path d="M88.2295 11.4805H27.3595C20.362 11.4805 14.6895 17.1529 14.6895 24.1504V105.05C14.6895 112.048 20.362 117.72 27.3595 117.72H88.2295C95.2269 117.72 100.9 112.048 100.9 105.05V24.1504C100.9 17.1529 95.2269 11.4805 88.2295 11.4805Z" stroke="#666666" stroke-width="2" stroke-miterlimit="10"/>
<path d="M138.35 313.661C142.199 313.661 145.32 310.54 145.32 306.691C145.32 302.841 142.199 299.721 138.35 299.721C134.5 299.721 131.38 302.841 131.38 306.691C131.38 310.54 134.5 313.661 138.35 313.661Z" stroke="#666666" stroke-width="2" stroke-miterlimit="10"/>
<path d="M138.35 319.751C145.563 319.751 151.41 313.904 151.41 306.691C151.41 299.478 145.563 293.631 138.35 293.631C131.137 293.631 125.29 299.478 125.29 306.691C125.29 313.904 131.137 319.751 138.35 319.751Z" stroke="#666666" stroke-width="2" stroke-miterlimit="10"/>
<path d="M86.8007 211.77H28.7906C26.7748 211.77 25.1406 213.404 25.1406 215.419V262.109C25.1406 264.125 26.7748 265.76 28.7906 265.76H86.8007C88.8165 265.76 90.4506 264.125 90.4506 262.109V215.419C90.4506 213.404 88.8165 211.77 86.8007 211.77Z" stroke="#666666" stroke-width="2" stroke-miterlimit="10"/>
<path d="M53.8795 141.23C55.321 141.23 56.4895 140.061 56.4895 138.62C56.4895 137.178 55.321 136.01 53.8795 136.01C52.4381 136.01 51.2695 137.178 51.2695 138.62C51.2695 140.061 52.4381 141.23 53.8795 141.23Z" stroke="#666666" stroke-width="2" stroke-miterlimit="10"/>
<path d="M53.8795 148.191C55.321 148.191 56.4895 147.022 56.4895 145.581C56.4895 144.139 55.321 142.971 53.8795 142.971C52.4381 142.971 51.2695 144.139 51.2695 145.581C51.2695 147.022 52.4381 148.191 53.8795 148.191Z" stroke="#666666" stroke-width="2" stroke-miterlimit="10"/>
<path d="M62.5797 148.191C64.0212 148.191 65.1897 147.022 65.1897 145.581C65.1897 144.139 64.0212 142.971 62.5797 142.971C61.1382 142.971 59.9697 144.139 59.9697 145.581C59.9697 147.022 61.1382 148.191 62.5797 148.191Z" stroke="#666666" stroke-width="2" stroke-miterlimit="10"/>
<path d="M62.5797 141.23C64.0212 141.23 65.1897 140.061 65.1897 138.62C65.1897 137.178 64.0212 136.01 62.5797 136.01C61.1382 136.01 59.9697 137.178 59.9697 138.62C59.9697 140.061 61.1382 141.23 62.5797 141.23Z" stroke="#666666" stroke-width="2" stroke-miterlimit="10"/>
<path d="M53.8795 155.159C55.321 155.159 56.4895 153.991 56.4895 152.549C56.4895 151.108 55.321 149.939 53.8795 149.939C52.4381 149.939 51.2695 151.108 51.2695 152.549C51.2695 153.991 52.4381 155.159 53.8795 155.159Z" stroke="#666666" stroke-width="2" stroke-miterlimit="10"/>
<path d="M53.8795 162.13C55.321 162.13 56.4895 160.962 56.4895 159.52C56.4895 158.079 55.321 156.91 53.8795 156.91C52.4381 156.91 51.2695 158.079 51.2695 159.52C51.2695 160.962 52.4381 162.13 53.8795 162.13Z" stroke="#666666" stroke-width="2" stroke-miterlimit="10"/>
<path d="M62.5797 162.13C64.0212 162.13 65.1897 160.962 65.1897 159.52C65.1897 158.079 64.0212 156.91 62.5797 156.91C61.1382 156.91 59.9697 158.079 59.9697 159.52C59.9697 160.962 61.1382 162.13 62.5797 162.13Z" stroke="#666666" stroke-width="2" stroke-miterlimit="10"/>
<path d="M62.5797 155.159C64.0212 155.159 65.1897 153.991 65.1897 152.549C65.1897 151.108 64.0212 149.939 62.5797 149.939C61.1382 149.939 59.9697 151.108 59.9697 152.549C59.9697 153.991 61.1382 155.159 62.5797 155.159Z" stroke="#666666" stroke-width="2" stroke-miterlimit="10"/>
<path d="M53.8795 169.091C55.321 169.091 56.4895 167.923 56.4895 166.481C56.4895 165.04 55.321 163.871 53.8795 163.871C52.4381 163.871 51.2695 165.04 51.2695 166.481C51.2695 167.923 52.4381 169.091 53.8795 169.091Z" stroke="#666666" stroke-width="2" stroke-miterlimit="10"/>
<path d="M53.8795 176.06C55.321 176.06 56.4895 174.891 56.4895 173.45C56.4895 172.008 55.321 170.84 53.8795 170.84C52.4381 170.84 51.2695 172.008 51.2695 173.45C51.2695 174.891 52.4381 176.06 53.8795 176.06Z" stroke="#666666" stroke-width="2" stroke-miterlimit="10"/>
<path d="M62.5797 176.06C64.0212 176.06 65.1897 174.891 65.1897 173.45C65.1897 172.008 64.0212 170.84 62.5797 170.84C61.1382 170.84 59.9697 172.008 59.9697 173.45C59.9697 174.891 61.1382 176.06 62.5797 176.06Z" stroke="#666666" stroke-width="2" stroke-miterlimit="10"/>
<path d="M62.5797 169.091C64.0212 169.091 65.1897 167.923 65.1897 166.481C65.1897 165.04 64.0212 163.871 62.5797 163.871C61.1382 163.871 59.9697 165.04 59.9697 166.481C59.9697 167.923 61.1382 169.091 62.5797 169.091Z" stroke="#666666" stroke-width="2" stroke-miterlimit="10"/>
<path d="M53.8795 183.031C55.321 183.031 56.4895 181.862 56.4895 180.421C56.4895 178.979 55.321 177.811 53.8795 177.811C52.4381 177.811 51.2695 178.979 51.2695 180.421C51.2695 181.862 52.4381 183.031 53.8795 183.031Z" stroke="#666666" stroke-width="2" stroke-miterlimit="10"/>
<path d="M53.8795 189.99C55.321 189.99 56.4895 188.821 56.4895 187.379C56.4895 185.938 55.321 184.77 53.8795 184.77C52.4381 184.77 51.2695 185.938 51.2695 187.379C51.2695 188.821 52.4381 189.99 53.8795 189.99Z" stroke="#666666" stroke-width="2" stroke-miterlimit="10"/>
<path d="M62.5797 189.99C64.0212 189.99 65.1897 188.821 65.1897 187.379C65.1897 185.938 64.0212 184.77 62.5797 184.77C61.1382 184.77 59.9697 185.938 59.9697 187.379C59.9697 188.821 61.1382 189.99 62.5797 189.99Z" stroke="#666666" stroke-width="2" stroke-miterlimit="10"/>
<path d="M62.5797 183.031C64.0212 183.031 65.1897 181.862 65.1897 180.421C65.1897 178.979 64.0212 177.811 62.5797 177.811C61.1382 177.811 59.9697 178.979 59.9697 180.421C59.9697 181.862 61.1382 183.031 62.5797 183.031Z" stroke="#666666" stroke-width="2" stroke-miterlimit="10"/>
<path d="M53.8795 196.96C55.321 196.96 56.4895 195.792 56.4895 194.35C56.4895 192.909 55.321 191.74 53.8795 191.74C52.4381 191.74 51.2695 192.909 51.2695 194.35C51.2695 195.792 52.4381 196.96 53.8795 196.96Z" stroke="#666666" stroke-width="2" stroke-miterlimit="10"/>
<path d="M53.8795 203.931C55.321 203.931 56.4895 202.762 56.4895 201.321C56.4895 199.879 55.321 198.711 53.8795 198.711C52.4381 198.711 51.2695 199.879 51.2695 201.321C51.2695 202.762 52.4381 203.931 53.8795 203.931Z" stroke="#666666" stroke-width="2" stroke-miterlimit="10"/>
<path d="M62.5797 203.931C64.0212 203.931 65.1897 202.762 65.1897 201.321C65.1897 199.879 64.0212 198.711 62.5797 198.711C61.1382 198.711 59.9697 199.879 59.9697 201.321C59.9697 202.762 61.1382 203.931 62.5797 203.931Z" stroke="#666666" stroke-width="2" stroke-miterlimit="10"/>
<path d="M62.5797 196.96C64.0212 196.96 65.1897 195.792 65.1897 194.35C65.1897 192.909 64.0212 191.74 62.5797 191.74C61.1382 191.74 59.9697 192.909 59.9697 194.35C59.9697 195.792 61.1382 196.96 62.5797 196.96Z" stroke="#666666" stroke-width="2" stroke-miterlimit="10"/>
<path d="M42.0475 299.795H40.0158C39.9787 299.532 39.9029 299.298 39.7885 299.094C39.6741 298.887 39.5272 298.711 39.3479 298.565C39.1685 298.42 38.9613 298.309 38.7263 298.231C38.4943 298.154 38.2423 298.116 37.9702 298.116C37.4785 298.116 37.0502 298.238 36.6853 298.482C36.3204 298.723 36.0374 299.076 35.8364 299.54C35.6354 300 35.5349 300.56 35.5349 301.219C35.5349 301.896 35.6354 302.465 35.8364 302.926C36.0405 303.387 36.325 303.734 36.6899 303.969C37.0548 304.205 37.4769 304.322 37.9563 304.322C38.2253 304.322 38.4742 304.286 38.7031 304.215C38.935 304.144 39.1407 304.041 39.32 303.905C39.4994 303.765 39.6478 303.597 39.7653 303.399C39.8859 303.201 39.9694 302.975 40.0158 302.722L42.0475 302.731C41.995 303.167 41.8635 303.588 41.6533 303.993C41.4461 304.395 41.1662 304.755 40.8137 305.073C40.4642 305.389 40.0467 305.639 39.5612 305.825C39.0788 306.007 38.533 306.099 37.9238 306.099C37.0765 306.099 36.3188 305.907 35.6509 305.523C34.986 305.14 34.4603 304.585 34.0737 303.858C33.6903 303.131 33.4985 302.252 33.4985 301.219C33.4985 300.183 33.6934 299.301 34.083 298.575C34.4726 297.848 35.0015 297.294 35.6694 296.914C36.3374 296.531 37.0888 296.339 37.9238 296.339C38.4742 296.339 38.9845 296.416 39.4545 296.571C39.9277 296.725 40.3467 296.951 40.7116 297.248C41.0765 297.542 41.3734 297.902 41.6022 298.329C41.8342 298.756 41.9826 299.244 42.0475 299.795ZM52.2178 301.219C52.2178 302.255 52.0214 303.136 51.6287 303.863C51.239 304.59 50.7071 305.145 50.033 305.528C49.3619 305.908 48.6074 306.099 47.7693 306.099C46.9251 306.099 46.1674 305.907 45.4964 305.523C44.8253 305.14 44.295 304.585 43.9053 303.858C43.5157 303.131 43.3209 302.252 43.3209 301.219C43.3209 300.183 43.5157 299.301 43.9053 298.575C44.295 297.848 44.8253 297.294 45.4964 296.914C46.1674 296.531 46.9251 296.339 47.7693 296.339C48.6074 296.339 49.3619 296.531 50.033 296.914C50.7071 297.294 51.239 297.848 51.6287 298.575C52.0214 299.301 52.2178 300.183 52.2178 301.219ZM50.1814 301.219C50.1814 300.548 50.0809 299.982 49.8799 299.521C49.682 299.06 49.4021 298.711 49.0403 298.473C48.6785 298.235 48.2548 298.116 47.7693 298.116C47.2838 298.116 46.8601 298.235 46.4983 298.473C46.1365 298.711 45.8551 299.06 45.6541 299.521C45.4562 299.982 45.3572 300.548 45.3572 301.219C45.3572 301.89 45.4562 302.456 45.6541 302.917C45.8551 303.377 46.1365 303.727 46.4983 303.965C46.8601 304.203 47.2838 304.322 47.7693 304.322C48.2548 304.322 48.6785 304.203 49.0403 303.965C49.4021 303.727 49.682 303.377 49.8799 302.917C50.0809 302.456 50.1814 301.89 50.1814 301.219ZM53.7056 305.969V296.469H59.9956V298.125H55.7141V300.388H59.5781V302.044H55.7141V305.969H53.7056ZM61.3466 305.969V296.469H67.6366V298.125H63.3551V300.388H67.2191V302.044H63.3551V305.969H61.3466ZM68.9876 305.969V296.469H75.3889V298.125H70.9961V300.388H75.0596V302.044H70.9961V304.313H75.4075V305.969H68.9876ZM76.9858 305.969V296.469H83.3871V298.125H78.9943V300.388H83.0578V302.044H78.9943V304.313H83.4057V305.969H76.9858Z" fill="#666666"/>
<path d="M34.499 315.453H33.499V316.453H34.499V315.453ZM34.499 310.817V309.817H33.499V310.817H34.499ZM56.3452 310.817H57.3452V309.817H56.3452V310.817ZM56.3452 315.453V316.453H57.3452V315.453H56.3452ZM48.2016 315.453V314.453H47.2016V315.453H48.2016ZM48.2016 337.417V338.417H49.2016V337.417H48.2016ZM42.6426 337.417H41.6426V338.417H42.6426V337.417ZM42.6426 315.453H43.6426V314.453H42.6426V315.453ZM35.499 315.453V310.817H33.499V315.453H35.499ZM34.499 311.817H56.3452V309.817H34.499V311.817ZM55.3452 310.817V315.453H57.3452V310.817H55.3452ZM56.3452 314.453H48.2016V316.453H56.3452V314.453ZM47.2016 315.453V337.417H49.2016V315.453H47.2016ZM48.2016 336.417H42.6426V338.417H48.2016V336.417ZM43.6426 337.417V315.453H41.6426V337.417H43.6426ZM42.6426 314.453H34.499V316.453H42.6426V314.453ZM81.5228 331.52L80.643 331.044L80.6415 331.047L81.5228 331.52ZM77.0548 336.183L77.5479 337.053L77.5492 337.052L77.0548 336.183ZM64.3524 336.17L64.8485 335.301L64.3524 336.17ZM59.8974 331.507L59.0161 331.979L59.0161 331.979L59.8974 331.507ZM59.8974 316.713L60.7787 317.186L60.7787 317.186L59.8974 316.713ZM64.3524 312.064L64.8455 312.934L64.8485 312.932L64.3524 312.064ZM77.0548 312.064L76.5587 312.932L76.5634 312.934L77.0548 312.064ZM81.5228 316.713L80.6414 317.186L80.643 317.189L81.5228 316.713ZM76.6262 319.363L75.7074 319.758L75.7096 319.763L76.6262 319.363ZM74.2754 316.428L73.7256 317.263L73.7256 317.263L74.2754 316.428ZM67.1578 316.428L67.7076 317.263L67.7076 317.263L67.1578 316.428ZM64.794 319.363L63.8774 318.963L63.8751 318.968L64.794 319.363ZM64.794 328.87L63.8751 329.265L63.8774 329.27L64.794 328.87ZM67.1578 331.806L67.7076 330.97L67.7076 330.97L67.1578 331.806ZM74.2754 331.806L73.7256 330.97L73.7256 330.97L74.2754 331.806ZM76.6262 328.87L75.7096 328.47L75.7074 328.476L76.6262 328.87ZM82.1723 324.117C82.1723 326.893 81.6462 329.188 80.643 331.044L82.4025 331.995C83.5987 329.782 84.1723 327.142 84.1723 324.117H82.1723ZM80.6415 331.047C79.6336 332.927 78.2738 334.339 76.5604 335.313L77.5492 337.052C79.6111 335.879 81.2299 334.182 82.4041 331.992L80.6415 331.047ZM76.5617 335.313C74.846 336.285 72.9057 336.78 70.7166 336.78V338.78C73.2206 338.78 75.5058 338.21 77.5479 337.053L76.5617 335.313ZM70.7166 336.78C68.5102 336.78 66.5627 336.281 64.8485 335.301L63.8562 337.038C65.9 338.206 68.1952 338.78 70.7166 338.78V336.78ZM64.8485 335.301C63.1436 334.327 61.7872 332.915 60.7787 331.034L59.0161 331.979C60.1896 334.168 61.8033 335.865 63.8562 337.038L64.8485 335.301ZM60.7787 331.034C59.7829 329.177 59.2609 326.885 59.2609 324.117H57.2609C57.2609 327.133 57.8299 329.767 59.0161 331.979L60.7787 331.034ZM59.2609 324.117C59.2609 321.339 59.7831 319.043 60.7787 317.186L59.0161 316.241C57.8297 318.454 57.2609 321.092 57.2609 324.117H59.2609ZM60.7787 317.186C61.7869 315.306 63.1423 313.899 64.8455 312.934L63.8593 311.194C61.8045 312.358 60.19 314.051 59.0161 316.241L60.7787 317.186ZM64.8485 312.932C66.5627 311.952 68.5102 311.453 70.7166 311.453V309.453C68.1952 309.453 65.9 310.027 63.8562 311.195L64.8485 312.932ZM70.7166 311.453C72.9042 311.453 74.8434 311.952 76.5587 312.932L77.551 311.195C75.5083 310.028 73.222 309.453 70.7166 309.453V311.453ZM76.5634 312.934C78.275 313.9 79.6339 315.307 80.6415 317.186L82.4041 316.241C81.2296 314.05 79.6099 312.357 77.5462 311.193L76.5634 312.934ZM80.643 317.189C81.6462 319.045 82.1723 321.34 82.1723 324.117H84.1723C84.1723 321.091 83.5987 318.451 82.4025 316.238L80.643 317.189ZM78.4704 324.117C78.4704 322.144 78.1758 320.414 77.5428 318.963L75.7096 319.763C76.2023 320.892 76.4704 322.332 76.4704 324.117H78.4704ZM77.545 318.968C76.9261 317.527 76.0263 316.383 74.8251 315.592L73.7256 317.263C74.5506 317.806 75.218 318.618 75.7074 319.758L77.545 318.968ZM74.8251 315.592C73.6295 314.805 72.247 314.427 70.7166 314.427V316.427C71.9051 316.427 72.895 316.716 73.7256 317.263L74.8251 315.592ZM70.7166 314.427C69.1862 314.427 67.8037 314.805 66.6081 315.592L67.7076 317.263C68.5381 316.716 69.5281 316.427 70.7166 316.427V314.427ZM66.6081 315.592C65.4084 316.382 64.505 317.524 63.8774 318.963L65.7106 319.763C66.2086 318.621 66.8811 317.807 67.7076 317.263L66.6081 315.592ZM63.8751 318.968C63.2526 320.418 62.9627 322.145 62.9627 324.117H64.9627C64.9627 322.33 65.227 320.889 65.7128 319.758L63.8751 318.968ZM62.9627 324.117C62.9627 326.088 63.2526 327.816 63.8751 329.265L65.7128 328.476C65.227 327.345 64.9627 325.903 64.9627 324.117H62.9627ZM63.8774 329.27C64.505 330.709 65.4084 331.851 66.6081 332.641L67.7076 330.97C66.8811 330.426 66.2086 329.612 65.7106 328.47L63.8774 329.27ZM66.6081 332.641C67.8037 333.428 69.1862 333.806 70.7166 333.806V331.806C69.5281 331.806 68.5381 331.517 67.7076 330.97L66.6081 332.641ZM70.7166 333.806C72.247 333.806 73.6295 333.428 74.8251 332.641L73.7256 330.97C72.895 331.517 71.9051 331.806 70.7166 331.806V333.806ZM74.8251 332.641C76.0263 331.85 76.9261 330.706 77.545 329.265L75.7074 328.476C75.218 329.615 74.5506 330.427 73.7256 330.97L74.8251 332.641ZM77.5428 329.27C78.1758 327.819 78.4704 326.089 78.4704 324.117H76.4704C76.4704 325.902 76.2023 327.341 75.7096 328.47L77.5428 329.27Z" fill="#666666"/>
<path d="M50.5202 350.895L49.5592 351.171L49.7673 351.895H50.5202V350.895ZM49.7539 349.219L48.9218 349.774L48.9264 349.781L49.7539 349.219ZM48.546 347.973L47.9507 348.776L47.9591 348.782L47.9675 348.788L48.546 347.973ZM46.9354 347.18L46.6443 348.137L46.6481 348.138L46.9354 347.18ZM41.3635 347.921L40.8153 347.084L40.8121 347.086L41.3635 347.921ZM38.9737 350.869L39.887 351.276L39.888 351.274L38.9737 350.869ZM41.3505 363.273L40.7974 364.106L40.8023 364.109L41.3505 363.273ZM48.2602 363.61L48.7074 364.505L48.7108 364.503L48.2602 363.61ZM50.3383 361.675L49.4745 361.171L49.4707 361.178L50.3383 361.675ZM51.0657 358.727L51.2118 357.737L50.0657 357.568V358.727H51.0657ZM52.2086 358.896V359.896L52.3548 357.906L52.2086 358.896ZM45.3509 358.896H44.3509V359.896H45.3509V358.896ZM45.3509 354.661V353.661H44.3509V354.661H45.3509ZM56.4818 354.661H57.4818V353.661H56.4818V354.661ZM55.0011 364.039L55.8621 364.547L55.8633 364.546L55.0011 364.039ZM50.9228 367.909L51.3842 368.797L51.3876 368.795L50.9228 367.909ZM38.4022 367.611L37.8959 368.473L37.8988 368.475L38.4022 367.611ZM33.9862 362.896L33.0963 363.352L33.0987 363.357L33.9862 362.896ZM33.3498 349.856L32.4127 349.507L32.4117 349.509L33.3498 349.856ZM35.9994 345.544L36.7196 346.237L36.7196 346.237L35.9994 345.544ZM39.9608 342.855L39.583 341.929L39.583 341.929L39.9608 342.855ZM49.0655 342.595L48.7436 343.542L48.7493 343.544L49.0655 342.595ZM52.5204 344.44L51.899 345.223L51.9022 345.226L52.5204 344.44ZM55.0011 347.284L54.1371 347.788L54.1388 347.791L55.0011 347.284ZM56.235 350.895V351.895H57.3826L57.2256 350.758L56.235 350.895ZM51.4812 350.618C51.2737 349.897 50.9764 349.24 50.5813 348.658L48.9264 349.781C49.1894 350.168 49.403 350.628 49.5592 351.171L51.4812 350.618ZM50.5859 348.665C50.1901 348.071 49.7021 347.566 49.1244 347.157L47.9675 348.788C48.3424 349.054 48.6595 349.381 48.9218 349.774L50.5859 348.665ZM49.1412 347.169C48.5729 346.748 47.93 346.435 47.2228 346.222L46.6481 348.138C47.1531 348.29 47.5839 348.504 47.9507 348.776L49.1412 347.169ZM47.2266 346.224C46.5207 346.009 45.7584 345.907 44.9482 345.907V347.907C45.5928 347.907 46.1552 347.988 46.6443 348.137L47.2266 346.224ZM44.9482 345.907C43.415 345.907 42.0253 346.291 40.8153 347.084L41.9117 348.757C42.7625 348.199 43.7627 347.907 44.9482 347.907V345.907ZM40.8121 347.086C39.6077 347.882 38.6962 349.026 38.0594 350.464L39.888 351.274C40.3941 350.131 41.0758 349.309 41.9149 348.755L40.8121 347.086ZM38.0604 350.462C37.4165 351.905 37.1165 353.62 37.1165 355.571H39.1165C39.1165 353.815 39.3878 352.395 39.887 351.276L38.0604 350.462ZM37.1165 355.571C37.1165 357.52 37.4119 359.239 38.0431 360.696L39.8782 359.901C39.3838 358.76 39.1165 357.327 39.1165 355.571H37.1165ZM38.0431 360.696C38.6714 362.146 39.5837 363.3 40.7974 364.106L41.9036 362.439C41.0566 361.877 40.3756 361.048 39.8782 359.901L38.0431 360.696ZM40.8023 364.109C42.0174 364.905 43.4305 365.286 45.0002 365.286V363.286C43.7645 363.286 42.7444 362.991 41.8987 362.436L40.8023 364.109ZM45.0002 365.286C46.3884 365.286 47.6363 365.04 48.7074 364.505L47.813 362.716C47.0831 363.081 46.1577 363.286 45.0002 363.286V365.286ZM48.7108 364.503C49.7832 363.962 50.6262 363.184 51.206 362.172L49.4707 361.178C49.098 361.828 48.5556 362.341 47.8096 362.718L48.7108 364.503ZM51.2021 362.179C51.791 361.169 52.0657 360.006 52.0657 358.727H50.0657C50.0657 359.716 49.8554 360.518 49.4746 361.171L51.2021 362.179ZM50.9195 359.716L52.0625 359.885L52.3548 357.906L51.2118 357.737L50.9195 359.716ZM52.2086 357.896H45.3509V359.896H52.2086V357.896ZM46.3509 358.896V354.661H44.3509V358.896H46.3509ZM45.3509 355.661H56.4818V353.661H45.3509V355.661ZM55.4818 354.661V358.012H57.4818V354.661H55.4818ZM55.4818 358.012C55.4818 360.208 55.0193 362.034 54.1389 363.532L55.8633 364.546C56.9571 362.684 57.4818 360.493 57.4818 358.012H55.4818ZM54.1401 363.53C53.2482 365.04 52.0266 366.2 50.458 367.024L51.3876 368.795C53.2826 367.8 54.7798 366.38 55.8621 364.547L54.1401 363.53ZM50.4615 367.022C48.8916 367.839 47.0709 368.26 44.9742 368.26V370.26C47.3454 370.26 49.4905 369.781 51.3842 368.797L50.4615 367.022ZM44.9742 368.26C42.6319 368.26 40.6198 367.745 38.9056 366.747L37.8988 368.475C39.9598 369.675 42.3291 370.26 44.9742 370.26V368.26ZM38.9085 366.748C37.1911 365.74 35.8477 364.311 34.8737 362.435L33.0987 363.357C34.2375 365.55 35.838 367.265 37.8959 368.473L38.9085 366.748ZM34.8761 362.44C33.9151 360.565 33.4146 358.304 33.4146 355.623H31.4146C31.4146 358.552 31.9619 361.14 33.0964 363.352L34.8761 362.44ZM33.4146 355.623C33.4146 353.562 33.7126 351.76 34.2879 350.202L32.4117 349.509C31.7401 351.328 31.4146 353.371 31.4146 355.623H33.4146ZM34.2869 350.205C34.8763 348.622 35.6903 347.306 36.7196 346.237L35.2792 344.85C34.0399 346.137 33.0875 347.695 32.4127 349.507L34.2869 350.205ZM36.7196 346.237C37.7577 345.16 38.9617 344.343 40.3386 343.781L39.583 341.929C37.9466 342.597 36.5097 343.572 35.2792 344.85L36.7196 346.237ZM40.3386 343.781C41.7159 343.219 43.2187 342.933 44.8573 342.933V340.933C42.9805 340.933 41.2189 341.262 39.583 341.929L40.3386 343.781ZM44.8573 342.933C46.2652 342.933 47.5581 343.139 48.7436 343.542L49.3874 341.649C47.9752 341.168 46.4627 340.933 44.8573 340.933V342.933ZM48.7493 343.544C49.9451 343.943 50.9919 344.504 51.899 345.223L53.1418 343.656C52.04 342.782 50.7836 342.114 49.3817 341.647L48.7493 343.544ZM51.9022 345.226C52.8176 345.946 53.5606 346.798 54.1371 347.788L55.8651 346.781C55.1601 345.571 54.2493 344.527 53.1385 343.654L51.9022 345.226ZM54.1388 347.791C54.7096 348.762 55.0797 349.839 55.2444 351.032L57.2256 350.758C57.0266 349.318 56.5741 347.988 55.8634 346.778L54.1388 347.791ZM56.235 349.895H50.5202V351.895H56.235V349.895ZM83.5004 363L82.6207 362.524L82.6191 362.527L83.5004 363ZM79.0325 367.663L79.5256 368.533L79.5269 368.532L79.0325 367.663ZM66.3301 367.65L66.8262 366.781L66.3301 367.65ZM61.8751 362.987L60.9938 363.459L60.9938 363.459L61.8751 362.987ZM61.8751 348.193L62.7564 348.666L62.7564 348.666L61.8751 348.193ZM66.3301 343.544L66.8232 344.414L66.8262 344.412L66.3301 343.544ZM79.0325 343.544L78.5364 344.412L78.5411 344.414L79.0325 343.544ZM83.5004 348.193L82.6191 348.666L82.6207 348.669L83.5004 348.193ZM78.6039 350.843L77.6851 351.238L77.6873 351.243L78.6039 350.843ZM76.253 347.908L75.7033 348.743L75.7033 348.743L76.253 347.908ZM69.1355 347.908L69.6852 348.743L69.6852 348.743L69.1355 347.908ZM66.7717 350.843L65.8551 350.443L65.8528 350.448L66.7717 350.843ZM66.7717 360.35L65.8528 360.745L65.8551 360.75L66.7717 360.35ZM69.1355 363.286L69.6852 362.45L69.6852 362.45L69.1355 363.286ZM76.253 363.286L75.7033 362.45L75.7033 362.45L76.253 363.286ZM78.6039 360.35L77.6873 359.95L77.6851 359.956L78.6039 360.35ZM84.1499 355.597C84.1499 358.373 83.6238 360.668 82.6207 362.524L84.3802 363.475C85.5764 361.262 86.1499 358.622 86.1499 355.597H84.1499ZM82.6191 362.527C81.6113 364.407 80.2515 365.819 78.5381 366.793L79.5269 368.532C81.5888 367.359 83.2076 365.662 84.3818 363.472L82.6191 362.527ZM78.5394 366.793C76.8236 367.765 74.8833 368.26 72.6943 368.26V370.26C75.1983 370.26 77.4835 369.69 79.5256 368.533L78.5394 366.793ZM72.6943 368.26C70.4879 368.26 68.5403 367.761 66.8262 366.781L65.8339 368.518C67.8777 369.686 70.1729 370.26 72.6943 370.26V368.26ZM66.8262 366.781C65.1212 365.807 63.7649 364.395 62.7564 362.514L60.9938 363.459C62.1673 365.648 63.781 367.345 65.8339 368.518L66.8262 366.781ZM62.7564 362.514C61.7606 360.657 61.2386 358.365 61.2386 355.597H59.2386C59.2386 358.613 59.8076 361.247 60.9938 363.459L62.7564 362.514ZM61.2386 355.597C61.2386 352.819 61.7608 350.523 62.7564 348.666L60.9938 347.721C59.8074 349.934 59.2386 352.572 59.2386 355.597H61.2386ZM62.7564 348.666C63.7646 346.786 65.12 345.379 66.8232 344.413L65.8369 342.674C63.7822 343.838 62.1676 345.531 60.9938 347.721L62.7564 348.666ZM66.8262 344.412C68.5403 343.432 70.4879 342.933 72.6943 342.933V340.933C70.1729 340.933 67.8777 341.507 65.8339 342.675L66.8262 344.412ZM72.6943 342.933C74.8819 342.933 76.8211 343.432 78.5364 344.412L79.5286 342.675C77.486 341.508 75.1997 340.933 72.6943 340.933V342.933ZM78.5411 344.414C80.2527 345.38 81.6116 346.787 82.6191 348.666L84.3818 347.721C83.2073 345.53 81.5875 343.837 79.5239 342.673L78.5411 344.414ZM82.6207 348.669C83.6238 350.525 84.1499 352.82 84.1499 355.597H86.1499C86.1499 352.571 85.5764 349.931 84.3802 347.718L82.6207 348.669ZM80.4481 355.597C80.4481 353.624 80.1534 351.894 79.5205 350.443L77.6873 351.243C78.18 352.372 78.4481 353.812 78.4481 355.597H80.4481ZM79.5227 350.448C78.9038 349.007 78.0039 347.863 76.8028 347.072L75.7033 348.743C76.5283 349.286 77.1957 350.098 77.6851 351.238L79.5227 350.448ZM76.8028 347.072C75.6072 346.285 74.2247 345.907 72.6943 345.907V347.907C73.8827 347.907 74.8727 348.196 75.7033 348.743L76.8028 347.072ZM72.6943 345.907C71.1639 345.907 69.7813 346.285 68.5858 347.072L69.6852 348.743C70.5158 348.196 71.5058 347.907 72.6943 347.907V345.907ZM68.5858 347.072C67.3861 347.862 66.4827 349.004 65.8551 350.443L67.6882 351.243C68.1863 350.101 68.8588 349.287 69.6852 348.743L68.5858 347.072ZM65.8528 350.448C65.2303 351.898 64.9404 353.625 64.9404 355.597H66.9404C66.9404 353.81 67.2047 352.369 67.6905 351.238L65.8528 350.448ZM64.9404 355.597C64.9404 357.568 65.2303 359.296 65.8528 360.745L67.6905 359.956C67.2047 358.825 66.9404 357.383 66.9404 355.597H64.9404ZM65.8551 360.75C66.4827 362.189 67.3861 363.331 68.5858 364.121L69.6852 362.45C68.8588 361.906 68.1863 361.092 67.6882 359.95L65.8551 360.75ZM68.5858 364.121C69.7813 364.908 71.1639 365.286 72.6943 365.286V363.286C71.5058 363.286 70.5158 362.997 69.6852 362.45L68.5858 364.121ZM72.6943 365.286C74.2247 365.286 75.6072 364.908 76.8028 364.121L75.7033 362.45C74.8727 362.997 73.8827 363.286 72.6943 363.286V365.286ZM76.8028 364.121C78.0039 363.33 78.9038 362.186 79.5227 360.745L77.6851 359.956C77.1957 361.095 76.5283 361.907 75.7033 362.45L76.8028 364.121ZM79.5205 360.75C80.1534 359.299 80.4481 357.569 80.4481 355.597H78.4481C78.4481 357.382 78.18 358.821 77.6873 359.95L79.5205 360.75Z" fill="#666666"/>
<path d="M59.2805 88.5405L59.8005 94.3606H79.5005L82.5704 60.4707H56.7305L57.0305 63.7507" stroke="#666666" stroke-width="2" stroke-miterlimit="10"/>
<path d="M61.0803 97.8193H78.2203L78.7404 94.3594H60.5703L61.0803 97.8193Z" stroke="#666666" stroke-width="2" stroke-miterlimit="10"/>
<path d="M55.7094 57.0693H84.1094V55.6694C84.0414 55.2987 83.8541 54.9603 83.5761 54.7058C83.2981 54.4513 82.9446 54.2947 82.5694 54.2595H57.1894C56.9974 54.2455 56.8046 54.2717 56.6233 54.3367C56.4421 54.4016 56.2765 54.5039 56.1371 54.6367C55.9977 54.7695 55.8877 54.9298 55.814 55.1077C55.7404 55.2855 55.7047 55.477 55.7094 55.6694V57.0693Z" stroke="#666666" stroke-width="2" stroke-miterlimit="10"/>
<path d="M58.5195 54.2607H81.2896L81.0396 51.7007L80.7795 49.1406H61.6395H59.0396L58.7795 51.7007L58.5195 54.2607Z" stroke="#666666" stroke-width="2" stroke-miterlimit="10"/>
<path d="M38.9099 94.3591H58.6099L61.6799 64.2891H35.8398L38.9099 94.3591Z" stroke="#666666" stroke-width="2" stroke-miterlimit="10"/>
<path d="M40.1799 97.8193H57.3298L57.8398 94.3594H39.6699L40.1799 97.8193Z" stroke="#666666" stroke-width="2" stroke-miterlimit="10"/>
<path d="M50.4003 39.3203L48.1102 41.3203C47.9097 41.4986 47.7492 41.7174 47.6393 41.9622C47.5294 42.2069 47.4727 42.4722 47.4727 42.7405C47.4727 43.0088 47.5294 43.274 47.6393 43.5188C47.7492 43.7635 47.9097 43.9821 48.1102 44.1604L50.5503 46.3303C50.7429 46.5091 50.8965 46.7259 51.0016 46.9668C51.1067 47.2077 51.161 47.4676 51.161 47.7305C51.161 47.9933 51.1067 48.2532 51.0016 48.4941C50.8965 48.735 50.7429 48.9516 50.5503 49.1304L48.0902 51.4705C47.8897 51.66 47.7332 51.891 47.6315 52.1475C47.5298 52.4039 47.4855 52.6797 47.5017 52.9551C47.5179 53.2305 47.5942 53.4989 47.7252 53.7417C47.8563 53.9845 48.0389 54.1957 48.2603 54.3604L51.1403 56.5403" stroke="#666666" stroke-width="2" stroke-miterlimit="10"/>
<path d="M45.0995 39.3203L42.8096 41.3203C42.6091 41.4986 42.4485 41.7174 42.3386 41.9622C42.2287 42.2069 42.1719 42.4722 42.1719 42.7405C42.1719 43.0088 42.2287 43.274 42.3386 43.5188C42.4485 43.7635 42.6091 43.9821 42.8096 44.1604L45.2495 46.3303C45.4422 46.5091 45.5958 46.7259 45.7009 46.9668C45.806 47.2077 45.8602 47.4676 45.8602 47.7305C45.8602 47.9933 45.806 48.2532 45.7009 48.4941C45.5958 48.735 45.4422 48.9516 45.2495 49.1304L42.7896 51.4705C42.589 51.66 42.4324 51.891 42.3307 52.1475C42.229 52.4039 42.1847 52.6797 42.2009 52.9551C42.2171 53.2305 42.2934 53.4989 42.4244 53.7417C42.5555 53.9845 42.7381 54.1957 42.9595 54.3604L45.8395 56.5403" stroke="#666666" stroke-width="2" stroke-miterlimit="10"/>
</svg>
