<svg width="35" height="56" fill="none" xmlns="http://www.w3.org/2000/svg"><path d="M6.93 9.55s1-7 1.76-7.65c.43-.4 15-.4 15.4 0 .77.7 1.4 7.65 1.4 7.65H6.93zm.18 35.55s.81 8 1.58 8.67c.43.39 15 .39 15.4 0 .77-.71 1.58-8.67 1.58-8.67H7.11zm-.42-.07a5.26 5.26 0 01-3.54-1.38 5.2 5.2 0 01-1.3-2.73v-27a5.15 5.15 0 011.3-2.72 5.24 5.24 0 013.54-1.39h19a5.25 5.25 0 013.54 1.39 5.08 5.08 0 011.29 2.72v5.14h1.15c.303.004.6.087.86.24a1.5 1.5 0 01.48.71v4.58a1.509 1.509 0 01-.48.72c-.26.154-.557.237-.86.24h-1.15v15.38a5.13 5.13 0 01-1.29 2.73 5.28 5.28 0 01-3.54 1.38l-19-.01z" stroke="#009245" stroke-width="2" stroke-miterlimit="10"/><path d="M10 24.72l6.22 9.78 8.15-15.49" stroke="#009245" stroke-width="2" stroke-miterlimit="10" stroke-linecap="round"/></svg>