<svg width="38" height="58" fill="none" xmlns="http://www.w3.org/2000/svg"><path d="M2 37.07a6.89 6.89 0 014.28-1.75c3 0 10 4.82 10 4.82V16.78s.26-3.41 2.55-3.41c2.73 0 2.78 3.49 2.78 3.49v13.3a5 5 0 013.17-1.7 3.48 3.48 0 012.68 1.53 3.9 3.9 0 012.43-.85 5.12 5.12 0 012.36 1.62 6.15 6.15 0 012.59-.51 2.94 2.94 0 012.11 1.87s0 12.28-.73 16.46c-.81 5.8-4.7 7.5-4.7 7.5h-11s-4.37-1.45-5.93-5.29C11.59 41.33 2 37.07 2 37.07z" stroke="#009245" stroke-width="2" stroke-miterlimit="10" stroke-linecap="round"/><path d="M11.77 20.1a8.29 8.29 0 01-1.37-4.55 8.63 8.63 0 1117.26 0 8.24 8.24 0 01-1.41 4.62" stroke="#009245" stroke-width="2" stroke-miterlimit="10" stroke-linecap="round"/><path d="M7.42 22.46a13.3 13.3 0 01-2.28-7.45 13.9 13.9 0 0127.79 0 13.23 13.23 0 01-2.29 7.45" stroke="#009245" stroke-width="2" stroke-miterlimit="10" stroke-linecap="round"/></svg>