<svg width="57" height="44" fill="none" xmlns="http://www.w3.org/2000/svg"><path d="M48.17 14.082v-7.7s-10.37-5.38-19.7-5.38c-14.33-.1-25.08 4.45-27.25 17-1.74 12.21 6.84 23.34 24.7 24.53 10.69.28 22.68-5.53 22.68-5.53v-8.15s-6.4 3.9-12.42 3.9-12.86-3.47-12.86-11.61c0-8.14 8.36-10.37 10.36-10.53a23.59 23.59 0 0114.49 3.47z" stroke="#009245" stroke-width="2" stroke-miterlimit="10" stroke-linecap="round"/><path d="M10.45 32.852v-15.66a3.24 3.24 0 013.36-3 3.36 3.36 0 013.48 3 3.27 3.27 0 01-3.48 3.63 9.32 9.32 0 01-1.37-.3v3.9a21.08 21.08 0 002.66 0 6.56 6.56 0 006-6.54 7.36 7.36 0 00-7.51-7.49c-3.91 0-6.27 2-7.07 5.72v13.38s.34 2.48 3.93 3.36z" fill="#009245"/><path d="M45.92 25.772h5.96v-5.48h3.21v-3.04H42.66v3.04h3.26v5.48z" stroke="#009245" stroke-width="2" stroke-miterlimit="10" stroke-linecap="round"/></svg>