<svg width="46" height="64" fill="none" xmlns="http://www.w3.org/2000/svg"><path d="M16.11 1.22c2.83-1 4 1.74 6.35 1.44 2.35-.3 2.56-1.67 5.12-1.42 3.14.31 1.75 2.33 4.13 3.89s4.14.24 5.77 1.94c1.93 2 .27 3.18 1.09 4.78 1.17 2.29 3.06 1.56 3.95 4 .89 2.44-1.79 3.62-1.32 5.51.47 1.89 1.3 3.73.63 5.52-.75 2-2 1.59-3.12 3.74-1 2 1 3.31-1.23 5.06-2.23 1.75-4.09.77-5.93 2.13-1.84 1.36-1.12 2.64-3.59 3.61-2 .8-3.48-1.85-5.48-1.33-2 .52-2.07 1.65-5 1.42-2.93-.23-1.66-1.92-3.46-3.18-2.43-1.71-3.74 0-5.9-2-2-1.8-.86-2.28-1.72-4.86-.86-2.58-3.25-2.19-4-4.62s1.36-3.76 1.33-5.5c0-1.92-1.36-2.42-1.48-4.91-.12-2.49 2.33-2.66 3.93-4.33s-.25-3.21 1-5.1c1.25-1.89 3.16 0 5.42-1.52s1.4-3.47 3.51-4.27z" stroke="#009245" stroke-width="2" stroke-miterlimit="10"/><path d="M38 21.29a15.5 15.5 0 11-30.998.02A15.5 15.5 0 0138 21.29z" stroke="#009245" stroke-width="2" stroke-miterlimit="10"/><path d="M8.15 36.39L1.6 53.89l8.6-1.58 5.22 6.96 7.05-17.22 7.77 19.21 5.23-6.98 8.61 1.57-7.62-19.08" stroke="#009245" stroke-width="2" stroke-miterlimit="10"/><path d="M17.4 19.19l4.95 7.78 6.49-12.33" stroke="#009245" stroke-width="2" stroke-miterlimit="10" stroke-linecap="round"/></svg>