<svg width="172" height="144" viewBox="0 0 172 144" fill="none" xmlns="http://www.w3.org/2000/svg">
<path d="M2.10458 125.74L2.0952 124.596C2.07353 121.956 2.7151 119.707 4.06425 117.892C5.3694 116.077 7.59744 114.123 10.7931 112.116C12.8505 110.823 14.3822 109.799 15.388 109.042C16.3938 108.286 17.223 107.443 17.8746 106.426C18.5267 105.453 18.8253 104.306 18.8144 102.986C18.783 99.1582 15.9905 96.6731 11.8987 96.7067C7.63082 96.7417 4.83657 99.4047 4.87412 103.981L4.87918 104.597L2.28327 104.618L2.27677 103.826C2.23164 98.326 5.94046 94.5115 11.8803 94.4627C17.6881 94.4151 21.3688 97.905 21.4096 102.877C21.4356 106.045 19.9148 108.389 17.6413 110.168C16.5049 111.101 14.9737 112.17 13.0035 113.374C7.5751 116.763 4.95649 119.38 4.98718 123.12L4.99007 123.472L21.8415 123.334L21.8599 125.578L2.10458 125.74ZM40.1712 125.428L40.1015 116.936L25.494 117.056L25.4763 114.9L39.9185 94.6287L42.5144 94.6074L42.6797 114.759L46.1996 114.73L46.2173 116.886L42.6974 116.915L42.7671 125.406L40.1712 125.428ZM27.9842 114.879L40.0838 114.78L39.9463 98.0165L27.9842 114.879ZM49.3583 125.352L61.0292 94.4554L63.5811 94.4345L51.9102 125.331L49.3583 125.352ZM73.4551 125.154L70.9031 125.175C71.7495 115.708 75.7201 106.259 81.8441 96.4847L66.2246 96.6129L66.2066 94.4129L84.3779 94.2638L84.396 96.4637C77.9236 106.681 74.2617 116.216 73.4551 125.154Z" fill="#009245"/>
<path d="M170.723 52.4387C170.723 61.8623 162.954 69.4999 153.367 69.4999C143.78 69.4999 136 61.8728 136 52.4387C136 44.6435 141.28 34.6 148.568 34.2323C150.086 34.1588 151.7 34.495 153.367 35.367C155.162 34.537 156.84 34.1798 158.379 34.2218C166.235 34.4004 170.723 44.5699 170.723 52.4387Z" stroke="#009245" stroke-width="2" stroke-miterlimit="10"/>
<path d="M153.42 32.047C153.42 32.047 152.287 22.8756 159.971 24.1152" stroke="#009245" stroke-width="2" stroke-miterlimit="10"/>
<path d="M104.861 67.3214H65.3623C61.1824 67.3214 57.4013 65.4269 55.7523 62.4971L48.2744 44.0137H122.578L114.387 62.6353C112.699 65.4961 108.972 67.3214 104.861 67.3214Z" stroke="#009245" stroke-width="2" stroke-miterlimit="10"/>
<path d="M48.8498 38.4245H121.803C121.909 38.4202 122.01 38.3794 122.09 38.3091C122.169 38.2389 122.222 38.1433 122.239 38.0388C122.256 37.9342 122.237 37.8269 122.184 37.735C122.131 37.6432 122.048 37.5725 121.949 37.5347L89.0233 26.7972C88.9159 26.7972 86.1165 22.4254 86.1165 22.4254C85.9401 22.1186 84.0994 22.1186 83.9307 22.4254C83.9307 22.4254 81.5147 26.7589 81.3997 26.7972L48.7042 37.5347C48.6052 37.5725 48.5223 37.6432 48.4694 37.735C48.4166 37.8269 48.3971 37.9342 48.4143 38.0388C48.4314 38.1433 48.4841 38.2389 48.5634 38.3091C48.6428 38.3794 48.744 38.4202 48.8498 38.4245Z" stroke="#009245" stroke-width="2" stroke-miterlimit="10"/>
<path d="M19.5753 67.328H7.9328C6.28243 67.328 4.69956 66.6731 3.53185 65.5069C2.36415 64.3406 1.70711 62.7584 1.70508 61.1081V22.3458C2.64077 18.9635 8.93752 10.2969 8.93752 10.2969H18.5782C18.5782 10.2969 24.8673 18.9635 25.803 22.3458V61.1081C25.803 61.9256 25.6419 62.7351 25.3288 63.4902C25.0157 64.2454 24.5569 64.9314 23.9785 65.5091C23.4001 66.0868 22.7135 66.5448 21.9579 66.8569C21.2024 67.1691 20.3927 67.329 19.5753 67.328Z" stroke="#009245" stroke-width="2" stroke-miterlimit="10"/>
<path d="M10.3871 1.2832H17.121C17.5054 1.2832 17.8741 1.43603 18.146 1.70788C18.4178 1.97972 18.5705 2.34842 18.5705 2.73287V6.09956H8.9375V2.73287C8.9375 2.34842 9.09019 1.97972 9.36203 1.70788C9.63388 1.43603 10.0026 1.2832 10.3871 1.2832Z" stroke="#009245" stroke-width="2" stroke-miterlimit="10"/>
</svg>
