<svg width="172" height="144" fill="none" xmlns="http://www.w3.org/2000/svg"><path d="M2.105 125.74l-.01-1.144c-.021-2.64.62-4.889 1.97-6.704 1.304-1.815 3.532-3.769 6.728-5.776 2.058-1.293 3.59-2.317 4.595-3.074 1.006-.756 1.835-1.599 2.487-2.616.652-.973.95-2.12.94-3.44-.032-3.828-2.825-6.313-6.916-6.28-4.268.036-7.062 2.699-7.025 7.275l.005.616-2.596.021-.006-.792c-.045-5.5 3.663-9.314 9.603-9.363 5.808-.048 9.489 3.442 9.53 8.414.026 3.168-1.495 5.512-3.769 7.291-1.136.933-2.667 2.002-4.637 3.206-5.429 3.389-8.048 6.006-8.017 9.746l.003.352 16.852-.138.018 2.244-19.755.162zm38.066-.312l-.07-8.492-14.607.12-.018-2.156L39.92 94.629l2.595-.022.166 20.152 3.52-.029.017 2.156-3.52.029.07 8.491-2.596.022zm-12.187-10.549l12.1-.099-.138-16.764-11.962 16.863zm21.374 10.473L61.03 94.455l2.552-.02-11.67 30.896-2.553.021zm24.097-.198l-2.552.021c.846-9.467 4.817-18.916 10.941-28.69l-15.62.128-.017-2.2 18.17-.15.019 2.2c-6.472 10.218-10.134 19.753-10.94 28.691z" fill="#009245"/><path d="M170.723 52.439c0 9.423-7.769 17.06-17.356 17.06C143.78 69.5 136 61.874 136 52.44c0-7.795 5.28-17.839 12.568-18.207 1.518-.073 3.132.263 4.799 1.135 1.795-.83 3.473-1.187 5.012-1.145 7.856.178 12.344 10.348 12.344 18.217zM153.42 32.047s-1.133-9.171 6.551-7.932m-55.11 43.206H65.362c-4.18 0-7.96-1.894-9.61-4.824l-7.478-18.483h74.304l-8.191 18.621c-1.688 2.861-5.415 4.686-9.526 4.686zM48.85 38.425h72.953a.463.463 0 00.436-.386.46.46 0 00-.29-.504L89.023 26.797c-.107 0-2.906-4.372-2.906-4.372-.177-.306-2.018-.306-2.186 0 0 0-2.416 4.334-2.531 4.372L48.704 37.535a.46.46 0 00.146.89zM19.575 67.328H7.933a6.228 6.228 0 01-6.228-6.22V22.346c.936-3.383 7.233-12.05 7.233-12.05h9.64s6.29 8.668 7.225 12.05v38.762a6.22 6.22 0 01-6.228 6.22zM10.387 1.283h6.734a1.45 1.45 0 011.45 1.45V6.1H8.936V2.733a1.45 1.45 0 011.45-1.45z" stroke="#009245" stroke-width="2" stroke-miterlimit="10"/></svg>