<svg width="38" height="24" fill="none" xmlns="http://www.w3.org/2000/svg"><path d="M14.104 2.629h10.25v18.37h-10.25V2.629z" fill="#FF6A13"/><path d="M14.475 12a11.69 11.69 0 014.48-9.2 11.71 11.71 0 100 18.4 11.69 11.69 0 01-4.48-9.2z" fill="#EF0812"/><path d="M37.754 12a11.72 11.72 0 01-19 9.2 11.69 11.69 0 000-18.4 11.72 11.72 0 0119 9.2z" fill="#F79E1B"/><path fill-rule="evenodd" clip-rule="evenodd" d="M37.804 18.92v.45h-.09V19l-.12.3h-.09l-.13-.3v.34h-.07v-.45h.13l.13.32.14-.32.1.03zm-.75.08v.37h-.05V19h-.15v-.08h.38V19h-.18z" fill="#F79E1B"/></svg>