<svg width="54" height="19" fill="none" xmlns="http://www.w3.org/2000/svg"><path d="M23.244 18.3h-4L21.714.94h4l-2.47 17.36zm16.61-16.62a11.07 11.07 0 00-4-.74c-4.45 0-7.58 2.37-7.6 5.76 0 2.51 2.25 3.9 3.95 4.73 1.7.83 2.33 1.41 2.33 2.17 0 1.17-1.41 1.71-2.7 1.71a8.92 8.92 0 01-4.22-.93l-.6-.28-.63 3.91a13.77 13.77 0 005 .93c4.73 0 7.8-2.34 7.84-6 0-2-1.19-3.51-3.78-4.75-1.57-.79-2.54-1.33-2.54-2.15 0-.82.82-1.5 2.59-1.5a7.66 7.66 0 013.36.67l.4.18.61-3.76-.01.05z" fill="#00579F"/><path fill-rule="evenodd" clip-rule="evenodd" d="M47.214.939h3.32l3.47 17.36h-4l-.51-2.61h-5.49l-.91 2.61h-4.51l6.39-15.92a2.11 2.11 0 012.24-1.44zm-.27 6.35s-1.36 3.86-1.72 4.86h3.58c-.18-.87-1-5-1-5l-.3-1.49c-.13.38-.31.91-.44 1.27s-.13.38-.12.36z" fill="#00579F"/><path d="M14.854.94l-4.1 11.85-.45-2.41a13.11 13.11 0 00-5.8-7.28l3.76 15.2h4.44L19.294.94h-4.44z" fill="#00579F"/><path d="M7.324.94H.074l-.07.36c5.65 1.47 9.39 5 10.93 9.28l-1.58-8.15a1.86 1.86 0 00-2-1.49h-.03z" fill="#FAA61A"/></svg>