<svg width="54" height="19" viewBox="0 0 54 19" fill="none" xmlns="http://www.w3.org/2000/svg">
<path d="M23.2441 18.2996H19.2441L21.7142 0.939472H25.7142L23.2441 18.2996ZM39.8541 1.67946C38.5779 1.18783 37.2217 0.936939 35.8541 0.939472C31.4041 0.939472 28.2742 3.30948 28.2542 6.69948C28.2542 9.20948 30.5042 10.5995 32.2042 11.4295C33.9042 12.2595 34.5342 12.8396 34.5342 13.5996C34.5342 14.7696 33.1242 15.3096 31.8342 15.3096C30.3725 15.3502 28.9233 15.0306 27.6141 14.3794L27.0142 14.0996L26.3842 18.0095C27.9785 18.6278 29.6742 18.9431 31.3842 18.9395C36.1142 18.9395 39.1841 16.5995 39.2241 12.9395C39.2241 10.9395 38.0342 9.42947 35.4442 8.18947C33.8742 7.39947 32.9042 6.85957 32.9042 6.03957C32.9042 5.21957 33.7241 4.53957 35.4941 4.53957C36.6504 4.50635 37.7991 4.73533 38.8541 5.20949L39.2542 5.38942L39.8641 1.62941L39.8541 1.67946Z" fill="#00579F"/>
<path fill-rule="evenodd" clip-rule="evenodd" d="M47.214 0.938895H50.534L54.004 18.299H50.004L49.494 15.6889H44.004L43.094 18.299H38.584L44.9739 2.37884C45.1249 1.91793 45.4302 1.52319 45.8381 1.26092C46.2461 0.998643 46.732 0.88491 47.214 0.938895ZM46.944 7.28899C46.944 7.28899 45.5839 11.1489 45.2239 12.1489H48.804C48.624 11.2789 47.804 7.14886 47.804 7.14886L47.504 5.65887C47.374 6.03887 47.194 6.56888 47.064 6.92888C46.934 7.28889 46.934 7.30899 46.944 7.28899Z" fill="#00579F"/>
<path d="M14.8539 0.939453L10.7539 12.7896L10.3039 10.3794C9.32609 7.32499 7.26261 4.73516 4.50391 3.09961L8.26392 18.2996H12.7039L19.2939 0.939453H14.8539Z" fill="#00579F"/>
<path d="M7.32391 0.939944H0.0739136L0.00390625 1.30005C5.65391 2.77005 9.3939 6.30008 10.9339 10.5801L9.35388 2.42993C9.26428 1.97796 9.01012 1.57533 8.64062 1.30005C8.27113 1.02478 7.81259 0.896467 7.35388 0.939944H7.32391Z" fill="#FAA61A"/>
</svg>
