<svg width="63" height="19" fill="none" xmlns="http://www.w3.org/2000/svg"><path d="M16.804.88a3 3 0 00-2.9 2.181c-.61 2.16-2.3 8.11-2.35 8.28v.16h-.81l-.05-.17s-1.73-6.08-2.34-8.28a3.06 3.06 0 00-2.91-2.18H.004v17.45h5.18V7.691h.82l3.28 10.63h3.58l3.28-10.62h.86v10.62h5.18V.871l-5.38.01zm18.33 1.741l-4 8.88h-.84V.871h-5.18v17.45h5.09a3 3 0 002.3-1.75l4-8.88h.84v10.63h5.18V.871h-5.08a2.92 2.92 0 00-2.31 1.75zm15.43 9.989h6.32A5.87 5.87 0 0062.294 9h-16.91v9.32h5.18v-5.71z" fill="#00A42A"/><path d="M56.813.52h-12.37a8.9 8.9 0 006.34 6.67 8.7 8.7 0 002.32.31h9.56c.06-.33.09-.665.09-1a6 6 0 00-5.94-5.98z" fill="url(#paint0_linear_215_121)"/><defs><linearGradient id="paint0_linear_215_121" x1="44.173" y1="4.01" x2="62.983" y2="4.01" gradientUnits="userSpaceOnUse"><stop offset=".3" stop-color="#00B4E6"/><stop offset="1" stop-color="#088CCB"/></linearGradient></defs></svg>