<svg width="63" height="19" viewBox="0 0 63 19" fill="none" xmlns="http://www.w3.org/2000/svg">
<path d="M16.8039 0.880859C16.1488 0.877751 15.5107 1.08926 14.987 1.48291C14.4633 1.87656 14.083 2.43087 13.9039 3.06104C13.2939 5.22104 11.6039 11.1711 11.5539 11.3411V11.501H10.7439L10.6939 11.3311C10.6939 11.3311 8.96388 5.25103 8.35388 3.05103C8.1657 2.42425 7.78156 1.8743 7.25781 1.48193C6.73406 1.08957 6.09831 0.875532 5.44391 0.871094H0.00390625V18.321H5.1839V7.69092H6.00391L9.28394 18.321H12.8639L16.1439 7.70093H17.0039V18.321H22.1839V0.871094L16.8039 0.880859Z" fill="#00A42A"/>
<path d="M35.1343 2.62109L31.1343 11.501H30.2943V0.871094H25.1143V18.321H30.2043C30.704 18.2466 31.1768 18.0471 31.5789 17.7412C31.981 17.4353 32.2993 17.0328 32.5043 16.571L36.5043 7.69092H37.3443V18.321H42.5243V0.871094H37.4443C36.9402 0.936515 36.462 1.13228 36.0568 1.43921C35.6517 1.74613 35.3337 2.15358 35.1343 2.62109Z" fill="#00A42A"/>
<path d="M50.5638 12.6101H56.8838C58.041 12.6086 59.1718 12.2651 60.1344 11.6228C61.097 10.9805 61.8483 10.068 62.2938 9H45.3838V18.3201H50.5638V12.6101Z" fill="#00A42A"/>
<path d="M56.8134 0.519531H44.4434C44.7921 2.10346 45.567 3.562 46.6844 4.73755C47.8018 5.91309 49.2192 6.76087 50.7834 7.18945C51.5392 7.39682 52.3196 7.50115 53.1033 7.49951H62.6634C62.7225 7.16944 62.7526 6.83483 62.7534 6.49951C62.7482 4.92202 62.1219 3.40997 61.0102 2.29077C59.8985 1.17157 58.3908 0.535298 56.8134 0.519531Z" fill="url(#paint0_linear_215_121)"/>
<defs>
<linearGradient id="paint0_linear_215_121" x1="44.1734" y1="4.00952" x2="62.9834" y2="4.00952" gradientUnits="userSpaceOnUse">
<stop offset="0.3" stop-color="#00B4E6"/>
<stop offset="1" stop-color="#088CCB"/>
</linearGradient>
</defs>
</svg>
