<svg width="38" height="24" viewBox="0 0 38 24" fill="none" xmlns="http://www.w3.org/2000/svg">
<path d="M14.1045 2.62891H24.3545V20.999H14.1045V2.62891Z" fill="#FF6A13"/>
<path d="M14.4745 11.9991C14.4748 10.2263 14.8783 8.47677 15.6545 6.88289C16.4306 5.28901 17.5591 3.89256 18.9546 2.79915C17.2276 1.43925 15.1528 0.592796 12.9673 0.356769C10.7819 0.120742 8.57429 0.504621 6.5968 1.46443C4.61932 2.42425 2.95188 3.92127 1.78528 5.78426C0.618677 7.64725 0 9.80099 0 11.9991C0 14.1972 0.618677 16.351 1.78528 18.2139C2.95188 20.0769 4.61932 21.574 6.5968 22.5338C8.57429 23.4936 10.7819 23.8775 12.9673 23.6414C15.1528 23.4054 17.2276 22.559 18.9546 21.1991C17.5591 20.1056 16.4306 18.7092 15.6545 17.1153C14.8783 15.5214 14.4748 13.7719 14.4745 11.9991Z" fill="#EF0812"/>
<path d="M37.7539 12.0008C37.7568 14.2053 37.1378 16.3659 35.9682 18.2345C34.7986 20.103 33.1257 21.6038 31.1416 22.5645C29.1575 23.5253 26.9427 23.9068 24.7515 23.6656C22.5603 23.4244 20.4815 22.5701 18.7539 21.2008C20.149 20.1071 21.277 18.7106 22.0528 17.1168C22.8286 15.5229 23.2317 13.7734 23.2317 12.0008C23.2317 10.2282 22.8286 8.47871 22.0528 6.88485C21.277 5.29098 20.149 3.8945 18.7539 2.80086C20.4815 1.43154 22.5603 0.577237 24.7515 0.336017C26.9427 0.094797 29.1575 0.476373 31.1416 1.43709C33.1257 2.39781 34.7986 3.89859 35.9682 5.76717C37.1378 7.63574 37.7568 9.79636 37.7539 12.0008Z" fill="#F79E1B"/>
<path fill-rule="evenodd" clip-rule="evenodd" d="M37.8045 18.9207V19.3708H37.7145V19.0007L37.5945 19.3008H37.5045L37.3745 19.0007V19.3408H37.3045V18.8906H37.4345L37.5645 19.2107L37.7045 18.8906L37.8045 18.9207ZM37.0545 19.0007V19.3708H37.0045V19.0007H36.8545V18.9207H37.2345V19.0007H37.0545Z" fill="#F79E1B"/>
</svg>
