<svg width="55" height="55" viewBox="0 0 55 55" fill="none" xmlns="http://www.w3.org/2000/svg">
<path d="M27.1121 0.589844C12.2073 0.589844 0.103516 12.6937 0.103516 27.5984C0.103516 32.8 1.60399 37.9017 4.40487 42.203L1.90408 53.6066L11.9072 49.9055C24.2111 58.3081 41.0165 55.1071 49.4191 42.7032C57.8218 30.3993 54.6208 13.594 42.2168 5.1913C37.8155 2.19035 32.5138 0.589844 27.1121 0.589844ZM44.4175 36.7013C42.9171 39.2021 40.5163 41.1027 37.7154 41.8029C32.9139 42.7032 26.2118 39.6022 20.71 35.2008C15.2083 30.7994 10.6068 24.9976 10.4068 20.196C10.5068 17.2951 11.7072 14.4942 13.8079 12.4936C17.6091 9.2926 21.9104 15.3945 22.5106 16.4949C23.811 18.3955 22.1105 19.996 20.8101 21.5965C18.8094 24.1973 21.1102 27.1983 24.8113 30.0992C28.5125 33.0001 32.0136 34.6006 34.0143 31.9998C35.3147 30.3993 36.415 28.3986 38.6157 29.1989C39.8161 29.499 46.7183 32.2999 44.4175 36.7013Z" fill="url(#paint0_linear_366_345)"/>
<defs>
<linearGradient id="paint0_linear_366_345" x1="27.0915" y1="55.4572" x2="27.0915" y2="-12.2542" gradientUnits="userSpaceOnUse">
<stop stop-color="#474747"/>
<stop offset="1" stop-color="#F2F2F2" stop-opacity="0"/>
</linearGradient>
</defs>
</svg>
