<svg width="55" height="55" fill="none" xmlns="http://www.w3.org/2000/svg"><path d="M27.112.59C12.207.59.104 12.694.104 27.598c0 5.202 1.5 10.304 4.3 14.605l-2.5 11.404 10.003-3.701c12.304 8.402 29.11 5.201 37.512-7.203 8.403-12.304 5.202-29.109-7.202-37.512-4.401-3-9.703-4.601-15.105-4.601zM44.417 36.7c-1.5 2.501-3.9 4.402-6.702 5.102-4.801.9-11.503-2.2-17.005-6.602-5.502-4.402-10.103-10.203-10.303-15.005.1-2.9 1.3-5.702 3.4-7.702 3.802-3.201 8.103 2.9 8.704 4 1.3 1.901-.4 3.502-1.7 5.102-2.002 2.601.3 5.602 4 8.503 3.701 2.901 7.203 4.502 9.203 1.9 1.3-1.6 2.401-3.6 4.602-2.8 1.2.3 8.102 3.1 5.801 7.502z" fill="url(#paint0_linear_366_345)"/><defs><linearGradient id="paint0_linear_366_345" x1="27.091" y1="55.457" x2="27.091" y2="-12.254" gradientUnits="userSpaceOnUse"><stop stop-color="#474747"/><stop offset="1" stop-color="#F2F2F2" stop-opacity="0"/></linearGradient></defs></svg>