<svg width="59" height="50" fill="none" xmlns="http://www.w3.org/2000/svg"><path d="M42.738 12.825c-.2.1-15.213 9.509-18.216 11.31-4.104 2.302-8.407 6.106-13.412 4.905C9.509 28.74 0 25.336 0 23.635c0-.901 1.401-1.401 2.202-1.802 1-.5 51.546-21.319 54.049-21.62 1.2-.2 2.302.501 2.702 1.602.4 1.602-6.406 43.24-6.906 44.74-.3 1.001-.3 2.703-1.902 3.003-1.802.4-3.703-1.1-5.205-2.102-1.2-.7-12.911-8.007-17.215-11.51-.6-.5-1.101-1.001-1.602-1.602-.5-.7-.5-1.601-.2-2.402.901-1.601 14.914-15.614 17.616-18.316.6-.4.1-1.301-.8-.8z" fill="url(#paint0_linear_366_344)"/><defs><linearGradient id="paint0_linear_366_344" x1="-.035" y1="24.936" x2="58.987" y2="24.936" gradientUnits="userSpaceOnUse"><stop stop-color="#474747"/><stop offset="1" stop-color="#fff"/></linearGradient></defs></svg>