<svg width="59" height="50" viewBox="0 0 59 50" fill="none" xmlns="http://www.w3.org/2000/svg">
<path d="M42.7384 12.8251C42.5383 12.9252 27.5248 22.3337 24.5221 24.1353C20.4184 26.4374 16.1145 30.2408 11.11 29.0397C9.50855 28.7394 0 25.3364 0 23.6348C0 22.734 1.40126 22.2336 2.20198 21.8332C3.20288 21.3328 53.7483 0.514041 56.2506 0.213771C57.4517 0.013591 58.5527 0.714227 58.953 1.81522C59.3534 3.41666 52.5473 45.0541 52.0468 46.5555C51.7465 47.5564 51.7465 49.2579 50.1451 49.5582C48.3435 49.9585 46.4418 48.4572 44.9404 47.4563C43.7393 46.7556 32.0288 39.4491 27.7249 35.9459C27.1244 35.4455 26.6239 34.945 26.1235 34.3445C25.623 33.6438 25.623 32.743 25.9233 31.9423C26.8241 30.3409 40.8367 16.3283 43.5391 13.6258C44.1397 13.2255 43.6393 12.3247 42.7384 12.8251Z" fill="url(#paint0_linear_366_344)"/>
<defs>
<linearGradient id="paint0_linear_366_344" x1="-0.0350315" y1="24.9361" x2="58.9866" y2="24.9361" gradientUnits="userSpaceOnUse">
<stop stop-color="#474747"/>
<stop offset="1" stop-color="white"/>
</linearGradient>
</defs>
</svg>
