<svg width="55" height="55" viewBox="0 0 55 55" fill="none" xmlns="http://www.w3.org/2000/svg">
<path d="M27.1121 0.450195C12.2073 0.450195 0.103516 12.554 0.103516 27.4587C0.103516 32.6604 1.60399 37.762 4.40487 42.0634L1.90408 53.467L11.9072 49.7658C24.2111 58.1685 41.0165 54.9675 49.4191 42.5635C57.8218 30.2596 54.6208 13.4543 42.2168 5.05166C37.8155 2.05071 32.5138 0.450195 27.1121 0.450195ZM13.9079 31.46C11.7072 31.46 9.90661 29.6594 9.90661 27.4587C9.90661 25.258 11.7072 23.4575 13.9079 23.4575C16.1086 23.4575 17.9091 25.258 17.9091 27.4587C17.9091 29.5594 16.1086 31.36 13.9079 31.46ZM27.3121 31.46C25.1114 31.46 23.3109 29.6594 23.3109 27.4587C23.3109 25.258 25.1114 23.4575 27.3121 23.4575C29.5128 23.4575 31.3134 25.258 31.3134 27.4587C31.2134 29.5594 29.5128 31.36 27.3121 31.46ZM40.6163 31.46C38.4156 31.46 36.6151 29.6594 36.6151 27.4587C36.6151 25.258 38.4156 23.4575 40.6163 23.4575C42.817 23.4575 44.6176 25.258 44.6176 27.4587C44.6176 29.5594 42.817 31.36 40.6163 31.46Z" fill="url(#paint0_linear_366_340)"/>
<defs>
<linearGradient id="paint0_linear_366_340" x1="27.0915" y1="70.4223" x2="27.0915" y2="-3.71112" gradientUnits="userSpaceOnUse">
<stop stop-color="#474747"/>
<stop offset="1" stop-color="white"/>
</linearGradient>
</defs>
</svg>
