<svg width="55" height="55" fill="none" xmlns="http://www.w3.org/2000/svg"><path d="M27.112.45C12.207.45.104 12.554.104 27.46c0 5.201 1.5 10.303 4.3 14.604l-2.5 11.404 10.003-3.701c12.304 8.403 29.11 5.202 37.512-7.203 8.403-12.303 5.202-29.109-7.202-37.511C37.816 2.05 32.514.45 27.112.45zM13.908 31.46c-2.2 0-4.001-1.8-4.001-4.001 0-2.201 1.8-4.002 4-4.002a4.013 4.013 0 014.002 4.002c0 2.1-1.8 3.901-4.001 4.001zm13.404 0c-2.2 0-4.001-1.8-4.001-4.001 0-2.201 1.8-4.002 4.001-4.002 2.2 0 4.001 1.801 4.001 4.002-.1 2.1-1.8 3.901-4 4.001zm13.304 0c-2.2 0-4-1.8-4-4.001 0-2.201 1.8-4.002 4-4.002a4.014 4.014 0 014.002 4.002c0 2.1-1.801 3.901-4.002 4.001z" fill="url(#paint0_linear_366_340)"/><defs><linearGradient id="paint0_linear_366_340" x1="27.091" y1="70.422" x2="27.091" y2="-3.711" gradientUnits="userSpaceOnUse"><stop stop-color="#474747"/><stop offset="1" stop-color="#fff"/></linearGradient></defs></svg>