<svg width="62" height="95" viewBox="0 0 62 95" fill="none" xmlns="http://www.w3.org/2000/svg">
<path d="M37.9236 17.3164H4.93442C2.43525 17.3164 0.335938 19.3158 0.335938 21.9149V90.1925C0.335938 92.6917 2.33528 94.7909 4.93442 94.7909H37.9236C40.4228 94.7909 42.5221 92.7916 42.5221 90.1925V21.9149C42.4221 19.3158 40.4228 17.3164 37.9236 17.3164ZM16.9305 22.7147H25.9275C26.5273 22.7147 26.9272 23.1145 26.9272 23.7143C26.9272 24.3141 26.5273 24.714 25.9275 24.714H16.9305C16.3307 24.714 15.9308 24.3141 15.9308 23.7143C15.9308 23.2145 16.3307 22.7147 16.9305 22.7147ZM21.6289 69.0994C14.8312 69.0994 9.33298 63.6012 9.33298 56.8034C9.33298 50.0057 14.8312 44.5075 21.6289 44.5075C28.4267 44.5075 33.9249 50.0057 33.9249 56.8034C33.9249 63.5012 28.4267 68.9994 21.6289 69.0994Z" fill="url(#paint0_linear_366_333)"/>
<path d="M39.9229 11.6172C45.421 11.6172 49.8196 16.1157 49.8196 21.5139H47.8203C47.8203 17.1154 44.3214 13.6165 39.9229 13.6165V11.6172Z" fill="url(#paint1_linear_366_333)"/>
<path d="M39.9229 8.11848V6.11914C48.52 6.11914 55.4178 13.1168 55.4178 21.614H53.4184C53.4184 14.2165 47.4204 8.11848 39.9229 8.11848Z" fill="url(#paint2_linear_366_333)"/>
<path d="M39.9229 2.52083V0.521484C51.519 0.521484 61.0159 10.0184 61.0159 21.6146H59.0166C59.0166 11.118 50.5194 2.52083 39.9229 2.52083Z" fill="url(#paint3_linear_366_333)"/>
<path d="M27.0271 58.8035L23.9281 58.1037C23.2283 57.9038 22.5285 58.4036 22.3286 59.1034L22.0287 60.1031C20.5292 59.2034 19.2296 58.0038 18.4299 56.5043L19.3296 56.3043C20.0293 56.1044 20.4292 55.4046 20.3292 54.7049L19.7294 51.6059C19.6295 50.9061 19.0297 50.4062 18.3299 50.4062H16.2306C15.8307 50.4062 15.5308 50.6062 15.2309 50.8061C14.931 51.106 14.8311 51.4059 14.8311 51.8058C15.031 58.2037 20.1293 63.302 26.5272 63.502C27.227 63.502 27.8268 62.9022 27.9267 62.2024L28.0267 60.203C28.1267 59.5033 27.6269 58.9035 27.0271 58.8035Z" fill="url(#paint4_linear_366_333)"/>
<defs>
<linearGradient id="paint0_linear_366_333" x1="-8.41888" y1="66.8248" x2="51.2253" y2="45.1162" gradientUnits="userSpaceOnUse">
<stop stop-color="#F2F2F2" stop-opacity="0"/>
<stop offset="0.0827772" stop-color="#DDDDDD" stop-opacity="0.0827772"/>
<stop offset="0.3118" stop-color="#A8A8A8" stop-opacity="0.3118"/>
<stop offset="0.5258" stop-color="#7E7E7E" stop-opacity="0.5258"/>
<stop offset="0.7185" stop-color="#606060" stop-opacity="0.7185"/>
<stop offset="0.883" stop-color="#4E4E4E" stop-opacity="0.883"/>
<stop offset="1" stop-color="#474747"/>
</linearGradient>
<linearGradient id="paint1_linear_366_333" x1="49.8647" y1="16.6255" x2="39.9179" y2="16.6255" gradientUnits="userSpaceOnUse">
<stop stop-color="#474747"/>
<stop offset="0.1263" stop-color="#555555" stop-opacity="0.8737"/>
<stop offset="0.3635" stop-color="#797979" stop-opacity="0.6365"/>
<stop offset="0.683" stop-color="#B2B2B2" stop-opacity="0.317"/>
<stop offset="1" stop-color="#F2F2F2" stop-opacity="0"/>
</linearGradient>
<linearGradient id="paint2_linear_366_333" x1="55.4428" y1="13.8666" x2="39.9179" y2="13.8666" gradientUnits="userSpaceOnUse">
<stop stop-color="#474747"/>
<stop offset="0.1263" stop-color="#555555" stop-opacity="0.8737"/>
<stop offset="0.3635" stop-color="#797979" stop-opacity="0.6365"/>
<stop offset="0.683" stop-color="#B2B2B2" stop-opacity="0.317"/>
<stop offset="1" stop-color="#F2F2F2" stop-opacity="0"/>
</linearGradient>
<linearGradient id="paint3_linear_366_333" x1="61.0109" y1="11.088" x2="39.9179" y2="11.088" gradientUnits="userSpaceOnUse">
<stop stop-color="#474747"/>
<stop offset="0.1263" stop-color="#555555" stop-opacity="0.8737"/>
<stop offset="0.3635" stop-color="#797979" stop-opacity="0.6365"/>
<stop offset="0.683" stop-color="#B2B2B2" stop-opacity="0.317"/>
<stop offset="1" stop-color="#F2F2F2" stop-opacity="0"/>
</linearGradient>
<linearGradient id="paint4_linear_366_333" x1="14.8855" y1="56.954" x2="28.0912" y2="56.954" gradientUnits="userSpaceOnUse">
<stop stop-color="#474747"/>
<stop offset="1" stop-color="#F2F2F2" stop-opacity="0"/>
</linearGradient>
</defs>
</svg>
