<svg width="62" height="95" fill="none" xmlns="http://www.w3.org/2000/svg"><path d="M37.924 17.316H4.934c-2.499 0-4.598 2-4.598 4.599v68.277c0 2.5 2 4.599 4.598 4.599h32.99c2.499 0 4.598-2 4.598-4.599V21.915c-.1-2.6-2.1-4.599-4.598-4.599zM16.93 22.715h8.997c.6 0 1 .4 1 1s-.4.999-1 .999H16.93c-.6 0-1-.4-1-1 0-.5.4-1 1-1zm4.699 46.384A12.287 12.287 0 019.333 56.803a12.287 12.287 0 0112.296-12.295 12.287 12.287 0 0112.296 12.295c0 6.698-5.498 12.196-12.296 12.296z" fill="url(#paint0_linear_366_333)"/><path d="M39.923 11.617c5.498 0 9.897 4.499 9.897 9.897h-2a7.85 7.85 0 00-7.897-7.897v-2z" fill="url(#paint1_linear_366_333)"/><path d="M39.923 8.118V6.12c8.597 0 15.495 6.998 15.495 15.495h-2c0-7.398-5.998-13.496-13.495-13.496z" fill="url(#paint2_linear_366_333)"/><path d="M39.923 2.52V.522c11.596 0 21.093 9.497 21.093 21.094h-2c0-10.497-8.497-19.094-19.093-19.094z" fill="url(#paint3_linear_366_333)"/><path d="M27.027 58.803l-3.099-.7c-.7-.2-1.4.3-1.6 1l-.3 1c-1.499-.9-2.798-2.1-3.598-3.599l.9-.2c.7-.2 1.1-.9 1-1.6l-.6-3.098c-.1-.7-.7-1.2-1.4-1.2h-2.1c-.4 0-.7.2-1 .4-.299.3-.399.6-.399 1a12.048 12.048 0 0011.696 11.696c.7 0 1.3-.6 1.4-1.3l.1-1.999c.1-.7-.4-1.3-1-1.4z" fill="url(#paint4_linear_366_333)"/><defs><linearGradient id="paint0_linear_366_333" x1="-8.419" y1="66.825" x2="51.225" y2="45.116" gradientUnits="userSpaceOnUse"><stop stop-color="#F2F2F2" stop-opacity="0"/><stop offset=".083" stop-color="#DDD" stop-opacity=".083"/><stop offset=".312" stop-color="#A8A8A8" stop-opacity=".312"/><stop offset=".526" stop-color="#7E7E7E" stop-opacity=".526"/><stop offset=".719" stop-color="#606060" stop-opacity=".719"/><stop offset=".883" stop-color="#4E4E4E" stop-opacity=".883"/><stop offset="1" stop-color="#474747"/></linearGradient><linearGradient id="paint1_linear_366_333" x1="49.865" y1="16.625" x2="39.918" y2="16.625" gradientUnits="userSpaceOnUse"><stop stop-color="#474747"/><stop offset=".126" stop-color="#555" stop-opacity=".874"/><stop offset=".363" stop-color="#797979" stop-opacity=".636"/><stop offset=".683" stop-color="#B2B2B2" stop-opacity=".317"/><stop offset="1" stop-color="#F2F2F2" stop-opacity="0"/></linearGradient><linearGradient id="paint2_linear_366_333" x1="55.443" y1="13.867" x2="39.918" y2="13.867" gradientUnits="userSpaceOnUse"><stop stop-color="#474747"/><stop offset=".126" stop-color="#555" stop-opacity=".874"/><stop offset=".363" stop-color="#797979" stop-opacity=".636"/><stop offset=".683" stop-color="#B2B2B2" stop-opacity=".317"/><stop offset="1" stop-color="#F2F2F2" stop-opacity="0"/></linearGradient><linearGradient id="paint3_linear_366_333" x1="61.011" y1="11.088" x2="39.918" y2="11.088" gradientUnits="userSpaceOnUse"><stop stop-color="#474747"/><stop offset=".126" stop-color="#555" stop-opacity=".874"/><stop offset=".363" stop-color="#797979" stop-opacity=".636"/><stop offset=".683" stop-color="#B2B2B2" stop-opacity=".317"/><stop offset="1" stop-color="#F2F2F2" stop-opacity="0"/></linearGradient><linearGradient id="paint4_linear_366_333" x1="14.886" y1="56.954" x2="28.091" y2="56.954" gradientUnits="userSpaceOnUse"><stop stop-color="#474747"/><stop offset="1" stop-color="#F2F2F2" stop-opacity="0"/></linearGradient></defs></svg>