<svg width="50" height="51" viewBox="0 0 50 51" fill="none" xmlns="http://www.w3.org/2000/svg">
<path d="M26.59 25.751C26.59 26.1228 26.4797 26.4862 26.2731 26.7954C26.0665 27.1046 25.7729 27.3455 25.4294 27.4878C25.0859 27.6301 24.7079 27.6675 24.3432 27.595C23.9785 27.5224 23.6435 27.3432 23.3806 27.0803C23.1177 26.8174 22.9386 26.4824 22.8661 26.1177C22.7935 25.753 22.8308 25.375 22.9731 25.0315C23.1154 24.688 23.3563 24.3943 23.6655 24.1877C23.9746 23.9812 24.3381 23.8711 24.7099 23.8711C25.2086 23.8711 25.6868 24.0691 26.0393 24.4216C26.3919 24.7742 26.59 25.2524 26.59 25.751Z" stroke="#666666" stroke-width="2.5" stroke-miterlimit="10"/>
<path d="M24.71 13.8008V23.8708" stroke="#666666" stroke-width="2.5" stroke-miterlimit="10"/>
<path d="M26.4299 24.9907L40.42 16.4707" stroke="#666666" stroke-width="2.5" stroke-miterlimit="10"/>
<path d="M1.87 24.3203C2.11075 18.3588 4.61575 12.7135 8.87445 8.5349C13.1331 4.35632 18.825 1.95904 24.7899 1.83153C30.7549 1.70402 36.544 3.85585 40.9774 7.84862C45.4108 11.8414 48.1547 17.3746 48.65 23.3203L48.72 26.1401C48.5266 32.0599 46.0993 37.6871 41.9261 41.8901C37.7529 46.0932 32.1432 48.5605 26.2249 48.7961C20.3067 49.0317 14.5186 47.0181 10.0245 43.1601C5.53039 39.3021 2.66341 33.8859 2 28.0002L1.87 24.3203Z" stroke="#666666" stroke-width="2.5" stroke-miterlimit="10"/>
<path d="M24.61 4V8.48999" stroke="#666666" stroke-width="2.5" stroke-miterlimit="10"/>
<path d="M25.36 43.0098V46.8298" stroke="#666666" stroke-width="2.5" stroke-miterlimit="10"/>
<path d="M5.38 26.1602H9.47" stroke="#666666" stroke-width="2.5" stroke-miterlimit="10"/>
<path d="M41.24 26.1602H45.2" stroke="#666666" stroke-width="2.5" stroke-miterlimit="10"/>
</svg>
