<svg width="44" height="54" fill="none" xmlns="http://www.w3.org/2000/svg"><path d="M29.8 16.7c0 6.08-3.88 11-8.67 11s-8.66-4.94-8.66-11 3.88-11 8.66-11a7.34 7.34 0 014.63 1.7c.268.213.521.444.76.69a12.28 12.28 0 013.28 8.61zM17.57 27.06c.08 2.69-.29 7.51-.29 7.51S5.85 38.4 4.22 39.15c-1.63.75-2.86 3-2.86 8.54" stroke="#666" stroke-width="2.5" stroke-miterlimit="10"/><path d="M26.5 25.6c-.08 2.68.29 9 .29 9s11.44 3.83 13.06 4.58c1.62.75 2.84 5.3 2.84 8.5" stroke="#666" stroke-width="2.5" stroke-miterlimit="10"/><path d="M17.28 34.57L22.2 49.8l4.59-15.23M8.78 32.93s-.1-16.3.44-20.18C9.76 8.87 12.9 2 20.71 2c3.57 0 12.55 1.71 12.55 12.72v17.6" stroke="#666" stroke-width="2.5" stroke-miterlimit="10"/></svg>