<svg width="39" height="46" fill="none" xmlns="http://www.w3.org/2000/svg"><path d="M.37 1.53h38.05M3.49 8a10.81 10.81 0 003.86 6.19c3.29 2.56 8.61 3.77 8.72 7.43.1 3.32-4.06 4.77-7.33 7.85-2.65 2.5-5 5.38-5.25 7.7h3.08l28.1-.14a18.499 18.499 0 00-4.54-6.91c-2.86-2.59-8-5.17-8-8.25-.07-4.47 5.72-5.28 8.59-7.51 2.69-2.09 4.1-4.11 4.39-6.35L3.49 8z" stroke="#666" stroke-width="2.5" stroke-miterlimit="10"/><path d="M7.11 37.16c.74-1.71 1.63-3.34 3.71-3.92a31.736 31.736 0 005.63-1.88c1.34-.65 2.25-1.1 2.6-1.89.75-1.63.15 1 3.74 2.36a46.178 46.178 0 005.25 1.39c1.64.43 3.73 1.82 3.54 3.82M12.71 17.38c1.68.35 6.11 1.42 6.46 4l.2 1.51a6 6 0 01.92-3 12.38 12.38 0 015.75-3.06m12.38 27.72H.37" stroke="#666" stroke-width="2.5" stroke-miterlimit="10"/></svg>