<svg width="89" height="117" fill="none" xmlns="http://www.w3.org/2000/svg"><path d="M75.32 25.418v77.21a3.92 3.92 0 01-3.92 3.92H5a3.92 3.92 0 01-3.92-3.92v-87.05A3.92 3.92 0 015 11.658h58.31" stroke="#009245" stroke-width="2" stroke-miterlimit="10"/><path d="M45.79 19.889H11.98a2.75 2.75 0 00-2.75 2.75v59.59a2.75 2.75 0 002.75 2.75h33.81a2.75 2.75 0 002.75-2.75v-59.59a2.75 2.75 0 00-2.75-2.75zM8.96 37.588h39.58M8.96 56.648h39.58m-39.58 20.2h39.58" stroke="#009245" stroke-width="2" stroke-miterlimit="10"/><path d="M20.36 64.838h-4.77a.97.97 0 00-.97.97v10.07c0 .536.434.97.97.97h4.77a.97.97 0 00.97-.97v-10.07a.97.97 0 00-.97-.97zm10.78 0h-4.77a.97.97 0 00-.97.97v10.07c0 .536.434.97.97.97h4.77a.97.97 0 00.97-.97v-10.07a.97.97 0 00-.97-.97zm10.8 0h-4.77a.97.97 0 00-.97.97v10.07c0 .536.434.97.97.97h4.77a.97.97 0 00.97-.97v-10.07a.97.97 0 00-.97-.97zm0-20.25h-4.77a.97.97 0 00-.97.97v10.07c0 .536.434.97.97.97h4.77a.97.97 0 00.97-.97v-10.07a.97.97 0 00-.97-.97zm-10.8 0h-4.77a.97.97 0 00-.97.97v10.07c0 .536.434.97.97.97h4.77a.97.97 0 00.97-.97v-10.07a.97.97 0 00-.97-.97zm-10.78 0h-4.77a.97.97 0 00-.97.97v10.07c0 .536.434.97.97.97h4.77a.97.97 0 00.97-.97v-10.07a.97.97 0 00-.97-.97zm0-19.1h-4.77a.97.97 0 00-.97.97v10.07c0 .536.434.97.97.97h4.77a.97.97 0 00.97-.97v-10.07a.97.97 0 00-.97-.97zm10.78 0h-4.77a.97.97 0 00-.97.97v10.07c0 .536.434.97.97.97h4.77a.97.97 0 00.97-.97v-10.07a.97.97 0 00-.97-.97zm-15.28 82.51v4.65a3.28 3.28 0 01-3.28 3.27 3.28 3.28 0 01-3.27-3.27v-4.65h6.55zm51.26 0v4.65a3.27 3.27 0 01-6.54 0v-4.65h6.54zm-25.18-82.51h-4.77a.97.97 0 00-.97.97v10.07c0 .536.434.97.97.97h4.77a.97.97 0 00.97-.97v-10.07a.97.97 0 00-.97-.97zm-5.47 66.209H21.06a2.22 2.22 0 00-2.22 2.22v3.65a2.22 2.22 0 002.22 2.22h15.41a2.22 2.22 0 002.22-2.22v-3.65a2.22 2.22 0 00-2.22-2.22zM55.6 11.658v94.89" stroke="#009245" stroke-width="2" stroke-miterlimit="10"/><path d="M62.5 47.148v2.35m4.72-2.35v2.35m-4.72 3.08v2.36m4.72-2.36v2.36m-6.86 5.72h8.91m-.53-31.029h-7.22a1.12 1.12 0 00-1.12 1.12v11.24c0 .619.501 1.12 1.12 1.12h7.22a1.12 1.12 0 001.12-1.12v-11.24a1.12 1.12 0 00-1.12-1.12z" stroke="#009245" stroke-width="2" stroke-miterlimit="10" stroke-linecap="round"/><path d="M75.32 25.418c6.622 0 11.99-5.369 11.99-11.99 0-6.622-5.368-11.99-11.99-11.99s-11.99 5.368-11.99 11.99c0 6.621 5.368 11.99 11.99 11.99z" stroke="#009245" stroke-width="2" stroke-miterlimit="10"/><path d="M69.86 12.198l5.35 5.35 5.53-8.24" stroke="#009245" stroke-width="2" stroke-linecap="round" stroke-linejoin="round"/></svg>