<svg width="90" height="117" fill="none" xmlns="http://www.w3.org/2000/svg"><path d="M66.43 99.277H51m25.45-5.499a9.23 9.23 0 00.79-3.75v-60.09a9.25 9.25 0 00-9.25-9.25H34.27a9.25 9.25 0 00-9.25 9.25v59m19.75-61.62H57.4" stroke="#009245" stroke-width="2" stroke-miterlimit="10"/><path d="M40.19 28.009a.69.69 0 100-1.38.69.69 0 000 1.38zm48.37 87.748s.07-23.45 0-31.4c-1.12-5.57-8.78-20.95-8.78-20.95l-2.45-2.46m1.05 35.292l-9.89-16.61a4.81 4.81 0 00-6.46-1.39c-4.41 2.56-1.77 6.12-1.77 6.12l7.09 13-4.75 8.489-.13 9.89m-7.67-29.92h-7.34a2.92 2.92 0 00-2.92 2.92v.34a2.92 2.92 0 002.92 2.92h7.34a2.92 2.92 0 002.92-2.92v-.34a2.92 2.92 0 00-2.92-2.92z" stroke="#009245" stroke-width="2" stroke-miterlimit="10"/><path d="M44.54 116.198l6.58-11c.48-1.56 1.75-4-.91-6.46-2.31-2.13-5.13-.91-6.47 0l-4.18 6.34v-30.3c-.19-1.94-.13-5.13-5.07-5.13-3.42 0-4.5 3.19-4.5 5.07l.12 25.69-1.64-9c-.32-1.9-3.14-2.6-4.43-2.45a4.34 4.34 0 00-3.37 3.09l-.34 9.16-1.18-7.7a4.48 4.48 0 00-4.66-2.8c-1.62.2-3.64 1.9-3.71 3.11l-.72 7.21-.8-4.36c-.73-3.71-2.51-4-3.93-4.06a3.859 3.859 0 00-4.24 4.06v19.58m63.14-76.52h-26.1v26.1h26.1v-26.1z" stroke="#009245" stroke-width="2" stroke-miterlimit="10"/><path d="M45.7 43.379h-3.48v3.48h3.48v-3.48zm3.49 3.529h-3.48v3.48h3.48v-3.48zm3.5-3.51h-3.48v3.48h3.48v-3.48zm3.5 3.5h-3.48v3.48h3.48v-3.48zm-7 7h-3.48v3.48h3.48v-3.48zm7-.009h-3.48v3.48h3.48v-3.48zm3.49-10.51H56.2v3.48h3.48v-3.48zm-13.98 7h-3.48v3.48h3.48v-3.48zm6.99.019h-3.48v3.48h3.48v-3.48zm6.99-.019H56.2v3.48h3.48v-3.48zM45.7 57.408h-3.48v3.48h3.48v-3.48zm6.99.02h-3.48v3.48h3.48v-3.48zm6.99-.02H56.2v3.48h3.48v-3.48z" fill="#009245"/><path d="M5.08 26.997a25.88 25.88 0 0125.88-25.88M11.71 26.998a20.43 20.43 0 0119.25-20.4M17.82 26.997a13.139 13.139 0 0113.14-13.14" stroke="#009245" stroke-width="2" stroke-miterlimit="10"/></svg>