<svg width="156" height="48" fill="none" xmlns="http://www.w3.org/2000/svg"><path d="M95 38.979h1.64c.371-.008.742.04 1.1.14.268.073.517.202.73.38.182.15.32.347.4.57.089.222.133.46.13.7a1.71 1.71 0 01-.32 1.06 1.81 1.81 0 01-.82.59 1.79 1.79 0 011 .54c.275.322.414.738.39 1.16a2.19 2.19 0 01-.2 1 1.92 1.92 0 01-.56.67c-.258.18-.546.311-.85.39a4.466 4.466 0 01-1.06.12h-1.97v-7.2l.39-.12zm1.12 1h-.43v2.08h1c.163.003.325-.02.48-.07.142-.04.274-.108.39-.2a1 1 0 00.27-.34c.061-.149.092-.309.09-.47a.9.9 0 00-.34-.77 1.48 1.48 0 00-1-.27l-.46.04zm-.43 5.24h.98a1.83 1.83 0 001.11-.3 1 1 0 00.39-.88.89.89 0 00-.38-.79 1.9 1.9 0 00-1.07-.26h-1l-.03 2.23zM106.84 39v1h-3.04v2.07h2.75v1h-2.75v2.14h3.2v1h-4.23v-7.23l4.07.02zm4.52 4.05v3.18h-1.07V39h1.07v3H115v-3h1.06v7.23H115v-3.18h-3.64zm8.57 2.17a2.67 2.67 0 00.29-.5c.145-.305.262-.623.35-.95.137-.466.244-.94.32-1.42.105-.629.171-1.263.2-1.9l.07-1.45h4.37v6.22h1v2.3h-1V46.2h-5.34v1.32h-1v-2.33l.74.03zm2-2.45c-.08.45-.17.84-.26 1.18a8.187 8.187 0 01-.29.82 3.2 3.2 0 01-.24.45h3.33v-5.21h-2.25l-.1 1.27c-.034.49-.097.978-.19 1.46v.03zM129.7 39h1.07v5.46l4.09-5.46h.94v7.23h-1.08v-5.45l-4.08 5.45h-.94V39zm11 4.05v3.18h-1.1V39h1.07v3h3.64v-3h1.07v7.23h-1.07v-3.18h-3.61zM153.26 39v1h-3v6.22h-1.07v-7.23l4.07.01zm-2.09-14.48a1.9 1.9 0 011.93-2 2 2 0 11-1.93 2zm-75.93-5.14l.29.5-.32-.58-.18-.35v-.07c.04.21.13.38.21.54v-.04zm51.6-10.88a10.725 10.725 0 00-3.29-2.22 10.251 10.251 0 00-8.08 0 11.004 11.004 0 00-3.33 2.28 10.735 10.735 0 00-2.32 3.67 9.87 9.87 0 00-.64 3.57v8.37a2.001 2.001 0 002 2 2 2 0 001.19-.37 1.873 1.873 0 00.707-1.035.105.105 0 00-.007-.035.089.089 0 010-.06 5.614 5.614 0 01.87-1.77 5.992 5.992 0 011.37-1.39 6.586 6.586 0 011.75-.9 6.49 6.49 0 012-.32c.116.015.234.015.35 0h6.34v3.86a1.903 1.903 0 00.6 1.42 1.993 1.993 0 001.43.58 2 2 0 002-2v-8.37a10.203 10.203 0 00-.82-4 10.525 10.525 0 00-2.12-3.26V8.5zm-1 7.81h-6.69a10.17 10.17 0 00-6 1.9v-2.39a6.36 6.36 0 01.34-2.06 6.846 6.846 0 013.17-3.59 5.998 5.998 0 012.85-.69 6.2 6.2 0 015 2.42c.094.111.18.228.26.35l.26.39a.085.085 0 000 .05c.534.941.81 2.007.8 3.09l.01.53zM64.49 5.52a2 2 0 00-1.13.35l-5.92 6a1.92 1.92 0 01-2.61 0L49.1 6.11l-.26-.23a2 2 0 00-1.13-.35 1.9 1.9 0 00-1.41.58 1.921 1.921 0 00-.58 1.42v16.7a1.92 1.92 0 00.58 1.42 2.05 2.05 0 002.86 0 1.92 1.92 0 00.58-1.42V12.29l2.6 2.61a5.14 5.14 0 001.74 1.19 5.301 5.301 0 002.08.42 5.181 5.181 0 002.07-.42 5.49 5.49 0 001.75-1.19l2.57-2.58v11.91a2 2 0 00.57 1.42 1.85 1.85 0 001.4.58 1.9 1.9 0 001.41-.58 1.92 1.92 0 00.58-1.42V7.519a1.92 1.92 0 00-.58-1.42 1.9 1.9 0 00-1.44-.58zm81.31 16.71h-2.38a6.108 6.108 0 01-2.46-.5 6.587 6.587 0 01-2-1.35 6.296 6.296 0 01-1.37-6.94c.321-.75.787-1.43 1.37-2a6.583 6.583 0 012-1.35 5.998 5.998 0 012.46-.5h2.38a1.897 1.897 0 001.42-.6 2 2 0 00.58-1.43 1.919 1.919 0 00-.58-1.42 2.008 2.008 0 00-1.42-.58h-2.38a10.09 10.09 0 00-4 .82 10.539 10.539 0 00-5.53 5.51 9.846 9.846 0 00-.82 4 9.987 9.987 0 00.82 4 10.733 10.733 0 002.24 3.28 10.845 10.845 0 003.29 2.22 9.92 9.92 0 004 .82h2.38a1.916 1.916 0 001.42-.58 1.896 1.896 0 00.58-1.41 1.998 1.998 0 00-.58-1.44 1.933 1.933 0 00-1.42-.54v-.01zM87.93 8.609a9.86 9.86 0 00-4.15-2.57 10.46 10.46 0 00-4.9-.39 10.94 10.94 0 00-3.64 1.37 9.76 9.76 0 00-2.89 2.62c-.11.13-.21.26-.31.4l-.27.41a10 10 0 00-1.53 5 10.249 10.249 0 001.08 5.1 9.458 9.458 0 001.51 2.22 10 10 0 002 1.72 10.711 10.711 0 005.04 1.73h.71a1.86 1.86 0 001.4-.58 2 2 0 00.56-1.42 1.912 1.912 0 00-2-2h-.13a6.568 6.568 0 01-2.35-.52 5.881 5.881 0 01-1.8-1.15 6.53 6.53 0 01-1.28-1.61l.18.35.32.58-.29-.5c-.08-.16-.17-.33-.25-.5v.07l-.14-.26a4.61 4.61 0 01-.35-.81h14.32a2.06 2.06 0 001.43-.61 2.004 2.004 0 00.63-1.41v-.13a9.67 9.67 0 00-.79-3.87 10.74 10.74 0 00-2.11-3.23v-.01zm-13.39 5.28a6.74 6.74 0 011-1.92 6.352 6.352 0 011.61-1.49 6.46 6.46 0 012.44-.92 5.9 5.9 0 012.58.15 6.4 6.4 0 012.33 1.17 6.19 6.19 0 011.66 2c.173.322.323.657.45 1l-12.07.01zm32.34-8.4h-.29a23.19 23.19 0 00-7.45 1 9.31 9.31 0 00-3.24 2.16 10.61 10.61 0 00-2.14 3.25 10.12 10.12 0 00-.79 4v8.37a1.998 1.998 0 00.58 1.42 1.921 1.921 0 001.42.58 2 2 0 001.43-.58 1.901 1.901 0 00.6-1.42v-8.37a6.087 6.087 0 01.47-2.41 6.419 6.419 0 011.28-2 6.638 6.638 0 011.93-1.37c1-.46 4-.58 5.95-.58h.16a2 2 0 002-2 1.84 1.84 0 00-.57-1.36 2.07 2.07 0 00-1.34-.66v-.03zM9.14 7.64a.11.11 0 01.1-.16h20.1A7.24 7.24 0 0036.43.53a.122.122 0 00-.028-.088.12.12 0 00-.037-.029A.12.12 0 0036.32.4H8C4.11.4.2 3.69 1.11 7.46l12.15 23.88c.81 1.28 2.19 2.41 5.38 2.41 2.83 0 4.67-1.12 5.46-2.41l10.67-21a.11.11 0 00-.046-.147.11.11 0 00-.054-.013H28.5a2.44 2.44 0 00-2.14 1.16l-7.63 14.89a.11.11 0 01-.1.065.11.11 0 01-.1-.065L9.14 7.639z" fill="#333"/></svg>