<svg width="32" height="29" fill="none" xmlns="http://www.w3.org/2000/svg"><path d="M8.07 6.29a.11.11 0 01.09-.15h17.46a6.28 6.28 0 006.15-6 .1.1 0 00-.052-.098.1.1 0 00-.038-.012H7.1c-3.38 0-6.78 2.85-6 6.13L11.66 26.9c.71 1.11 1.91 2.09 4.68 2.09 2.46 0 4-1 4.74-2.09l9.27-18.24a.1.1 0 00-.09-.14H24.9a2.16 2.16 0 00-1.86 1l-6.63 12.94a.09.09 0 01-.137.044.09.09 0 01-.033-.044L8.07 6.29z" fill="url(#paint0_linear_221_505)"/><defs><linearGradient id="paint0_linear_221_505" x1="1" y1="14.5" x2="31.77" y2="14.5" gradientUnits="userSpaceOnUse"><stop offset=".04" stop-color="#fff"/><stop offset=".14" stop-color="#D8D8D8"/><stop offset=".25" stop-color="#B5B5B5"/><stop offset=".37" stop-color="#989898"/><stop offset=".5" stop-color="#828282"/><stop offset=".63" stop-color="#727272"/><stop offset=".79" stop-color="#696969"/><stop offset="1" stop-color="#666"/></linearGradient></defs></svg>