<svg width="344" height="53" fill="none" xmlns="http://www.w3.org/2000/svg"><path d="M254.498 29.463c.25-.007.521-.014.811-.028.291-.013.588-.02.892-.027.304-.007.595-.007.878-.007.683 0 1.257.075 1.73.219.473.15.852.348 1.142.6.291.253.5.553.635.902.129.348.196.723.196 1.112 0 .69-.169 1.25-.5 1.68-.331.43-.763.743-1.284.941v.035c.636.13 1.163.416 1.568.86s.608 1.058.608 1.843c0 .587-.108 1.099-.317 1.522-.21.423-.5.778-.879 1.058-.371.28-.817.485-1.331.615a6.769 6.769 0 01-1.662.198c-.25 0-.52 0-.811-.007-.29-.007-.581-.014-.865-.014a27.11 27.11 0 01-.804-.027c-.25-.014-.453-.02-.615-.034v-11.42c.156-.008.365-.015.608-.021zm1.757 1.55c-.27.013-.5.026-.682.047v3.29h1.574c.27 0 .52-.034.757-.109a1.77 1.77 0 00.615-.32 1.53 1.53 0 00.419-.54c.101-.218.155-.471.155-.75 0-.533-.176-.943-.534-1.223-.358-.28-.858-.416-1.507-.416-.263 0-.527.007-.797.02zm-.682 8.307c.162.02.378.04.655.048.277.006.568.013.885.013.744 0 1.325-.157 1.744-.464.418-.314.621-.778.621-1.4 0-.559-.203-.975-.601-1.255-.399-.28-.96-.417-1.689-.417h-1.622v3.475h.007zm17.196-9.864v1.604h-4.797v3.277h4.31v1.59h-4.31v3.393h4.959v1.604h-6.649V29.456h6.487zm6.784 6.423v5.045h-1.689V29.456h1.689v4.82h5.723v-4.82h1.669v11.468h-1.669V35.88h-5.723zm13.142 3.44c.122-.142.27-.402.453-.784.182-.382.365-.887.554-1.516.182-.628.351-1.378.5-2.252.148-.874.257-1.878.311-3.018l.114-2.293h6.859v9.864h1.54v3.7h-1.574v-2.096h-8.385v2.096h-1.575v-3.7h1.203zm3.115-3.883c-.128.71-.27 1.33-.419 1.87-.149.533-.304.97-.453 1.31a3.976 3.976 0 01-.371.704h5.236v-8.26h-3.534l-.162 2.014a25.77 25.77 0 01-.297 2.362zm11.872-5.98h1.689v8.67l6.419-8.67h1.473v11.468h-1.689v-8.649l-6.419 8.65h-1.473v-11.47zm16.912 6.423v5.045h-1.689V29.456h1.689v4.82h5.723v-4.82h1.669v11.468h-1.669V35.88h-5.723zM344 29.456v1.604h-4.689v9.864h-1.689V29.456H344zm-108.063 8.867c0-1.89 1.264-3.222 3.034-3.222 1.77 0 2.987 1.331 2.987 3.222 0 1.837-1.163 3.222-3.034 3.222-1.771-.007-2.987-1.385-2.987-3.222zm-119.286-8.15c.135.252.284.518.453.792l-.507-.922a42.357 42.357 0 01-.29-.56 5.202 5.202 0 01-.061-.102c.135.273.27.532.405.792zm81.056-17.271c-1.466-1.481-3.189-2.656-5.162-3.523-1.973-.867-4.088-1.303-6.345-1.303-2.257 0-4.372.443-6.345 1.33a17.357 17.357 0 00-5.236 3.626 16.934 16.934 0 00-3.642 5.823c-.676 1.767-1.014 3.658-1.014 5.672v13.284c0 .888.304 1.632.912 2.246.608.615 1.345.922 2.223.922a3.12 3.12 0 001.872-.587c.54-.39.912-.908 1.115-1.557.034-.034.054-.068.054-.102a.14.14 0 01.047-.102 9.426 9.426 0 011.365-2.813 9.837 9.837 0 012.149-2.198 9.816 9.816 0 012.757-1.434 9.9 9.9 0 013.182-.512c.27 0 .453-.013.554-.054v.054h9.966v6.13c0 .888.311 1.632.933 2.246a3.086 3.086 0 002.25.922c.878 0 1.615-.307 2.223-.922.608-.614.912-1.358.912-2.245V24.52c0-2.245-.432-4.375-1.29-6.39-.852-2.006-2.014-3.747-3.48-5.228zm-1.541 12.39h-10.52a15.838 15.838 0 00-9.359 3.017v-3.782c0-1.16.176-2.246.534-3.27a10.28 10.28 0 011.494-2.812 10.415 10.415 0 013.412-2.888c1.365-.73 2.858-1.099 4.473-1.099 1.621 0 3.101.342 4.453 1.024a9.71 9.71 0 013.385 2.813c.135.17.27.355.405.56l.406.614c0 .034.006.061.027.075.013.02.027.04.027.075.844 1.502 1.263 3.133 1.263 4.908v.765zM99.746 8.123a3.03 3.03 0 00-1.77.56h-.048l-9.304 9.455c-.608.546-1.284.819-2.02.819-.778 0-1.467-.273-2.075-.82l-9-9.147-.405-.355v.055a3.03 3.03 0 00-1.77-.56c-.88 0-1.616.307-2.224.922-.608.614-.912 1.365-.912 2.246v26.52c0 .888.304 1.632.919 2.246.615.614 1.358.922 2.243.922.885 0 1.629-.308 2.244-.922.614-.614.918-1.358.918-2.246V18.855l4.088 4.136a8.007 8.007 0 002.723 1.891 8.273 8.273 0 003.277.662c1.142 0 2.23-.218 3.257-.662a8.602 8.602 0 002.75-1.89l4.034-4.09v18.902c0 .888.297 1.632.885 2.246.588.615 1.325.922 2.203.922.878 0 1.615-.307 2.223-.922.608-.614.912-1.358.912-2.245V11.29c0-.888-.304-1.639-.912-2.246a3.043 3.043 0 00-2.236-.922zm127.765 26.52h-3.743a9.52 9.52 0 01-3.872-.791 10.434 10.434 0 01-3.162-2.143 9.835 9.835 0 01-2.149-3.195 9.986 9.986 0 01-.783-3.932 9.85 9.85 0 01.783-3.884 9.835 9.835 0 012.149-3.195 10.435 10.435 0 013.162-2.144 9.518 9.518 0 013.872-.791h3.743a2.97 2.97 0 002.223-.942c.609-.629.913-1.386.913-2.274 0-.887-.304-1.638-.913-2.246a3.012 3.012 0 00-2.223-.921h-3.743a15.49 15.49 0 00-6.297 1.304 16.785 16.785 0 00-5.176 3.522c-1.48 1.481-2.649 3.222-3.514 5.209-.865 1.993-1.297 4.116-1.297 6.362 0 2.28.432 4.416 1.297 6.41a16.826 16.826 0 003.514 5.215c1.473 1.481 3.203 2.656 5.176 3.523a15.489 15.489 0 006.297 1.303h3.743c.879 0 1.615-.307 2.223-.921.609-.615.913-1.359.913-2.246 0-.888-.304-1.645-.913-2.273a2.961 2.961 0 00-2.223-.95zm-90.934-21.618a15.45 15.45 0 00-6.527-4.09 16.352 16.352 0 00-7.689-.614 17.149 17.149 0 00-5.716 2.171 15.48 15.48 0 00-4.555 4.164 7.353 7.353 0 00-.479.642c-.149.225-.298.437-.433.642-1.486 2.416-2.284 5.051-2.405 7.89a16.598 16.598 0 001.696 8.097 15.727 15.727 0 002.378 3.53c.946 1.057 2 1.965 3.162 2.73a17.375 17.375 0 003.771 1.863c1.351.478 2.729.765 4.148.867.169.034.913.048 1.115.048.879 0 1.608-.307 2.203-.922.588-.614.885-1.358.885-2.245 0-.888-.297-1.625-.885-2.226-.588-.594-1.324-.894-2.203-.894h-.202c-1.352-.068-2.582-.341-3.69-.82a9.698 9.698 0 01-2.831-1.835 10.661 10.661 0 01-2.013-2.554c.094.192.196.383.29.56l.507.922c-.169-.273-.324-.54-.453-.792-.135-.253-.27-.519-.405-.792l.061.102a7.607 7.607 0 01-.21-.41 8.17 8.17 0 01-.554-1.276h22.507a3.27 3.27 0 002.25-.969 3.23 3.23 0 00.987-2.246v-.198a15.51 15.51 0 00-1.237-6.13 17.333 17.333 0 00-3.473-5.215zm-21.041 8.382a10.875 10.875 0 011.615-3.037 10.38 10.38 0 012.527-2.376 9.997 9.997 0 013.845-1.454 9.288 9.288 0 014.047.232c1.352.376 2.575.997 3.669 1.864a9.655 9.655 0 012.602 3.14c.304.58.54 1.126.709 1.631h-19.014zM166.362 8.07h-.453c-2.284-.137-8.48.266-11.703 1.563-1.959.792-3.676 1.932-5.088 3.42a16.802 16.802 0 00-3.365 5.16c-.824 1.96-1.236 4.063-1.236 6.308v13.284c0 .888.304 1.632.912 2.246.608.615 1.344.922 2.223.922.878 0 1.628-.307 2.25-.922.622-.614.932-1.358.932-2.245V24.52c0-1.358.244-2.642.737-3.83a9.94 9.94 0 012.02-3.14 10.17 10.17 0 013.034-2.17c1.547-.737 6.318-.922 9.338-.922h.25c.878 0 1.628-.314 2.25-.942a3.112 3.112 0 00.932-2.273c0-.853-.297-1.577-.885-2.17a3.282 3.282 0 00-2.148-1.004zm-153.57 3.42a.179.179 0 01.155-.26h31.581c6.048 0 10.717-4.928 11.136-11.038A.179.179 0 0055.488 0h-44.46C4.926 0-1.222 5.215.21 11.209c.007.014.007.027.013.04l19.089 37.908c0 .007.006.013.006.02C20.595 51.205 22.764 53 27.771 53c4.453 0 7.331-1.782 8.588-3.823.007-.007.007-.013.007-.02L53.13 15.83a.179.179 0 00-.156-.259h-9.689c-1.54.068-2.878.812-3.365 1.843l-11.987 23.64a.178.178 0 01-.317 0L12.79 11.489z" fill="#000"/></svg>