<svg width="344" height="53" viewBox="0 0 344 53" fill="none" xmlns="http://www.w3.org/2000/svg">
<path d="M254.498 29.4626C254.748 29.4558 255.019 29.449 255.309 29.4353C255.6 29.4217 255.897 29.4149 256.201 29.408C256.505 29.4012 256.796 29.4012 257.079 29.4012C257.762 29.4012 258.336 29.4763 258.809 29.6197C259.282 29.7698 259.661 29.9678 259.951 30.2204C260.242 30.473 260.451 30.7733 260.586 31.1215C260.715 31.4696 260.782 31.8451 260.782 32.2342C260.782 32.9236 260.613 33.4834 260.282 33.9134C259.951 34.3435 259.519 34.6575 258.998 34.8555V34.8896C259.634 35.0193 260.161 35.306 260.566 35.7497C260.971 36.1935 261.174 36.8078 261.174 37.5929C261.174 38.1799 261.066 38.6919 260.857 39.1151C260.647 39.5384 260.357 39.8934 259.978 40.1732C259.607 40.4531 259.161 40.6579 258.647 40.7876C258.134 40.9173 257.579 40.9856 256.985 40.9856C256.735 40.9856 256.465 40.9856 256.174 40.9787C255.884 40.9719 255.593 40.9651 255.309 40.9651C255.025 40.9583 254.755 40.9514 254.505 40.9378C254.255 40.9241 254.052 40.9173 253.89 40.9037V29.4831C254.046 29.4763 254.255 29.4695 254.498 29.4626ZM256.255 31.0122C255.985 31.0259 255.755 31.0395 255.573 31.06V34.3503H257.147C257.417 34.3503 257.667 34.3162 257.904 34.2411C258.134 34.1728 258.343 34.0636 258.519 33.9203C258.694 33.7769 258.836 33.5994 258.938 33.381C259.039 33.1625 259.093 32.91 259.093 32.6301C259.093 32.0976 258.917 31.688 258.559 31.4082C258.201 31.1283 257.701 30.9918 257.052 30.9918C256.789 30.9918 256.525 30.9986 256.255 31.0122ZM255.573 39.3199C255.735 39.3404 255.951 39.3609 256.228 39.3677C256.505 39.3745 256.796 39.3814 257.113 39.3814C257.857 39.3814 258.438 39.2244 258.857 38.9172C259.275 38.6032 259.478 38.139 259.478 37.5178C259.478 36.958 259.275 36.5416 258.877 36.2617C258.478 35.9818 257.917 35.8453 257.188 35.8453H255.566V39.3199H255.573ZM272.769 29.4558V31.06H267.972V34.3367H272.282V35.9272H267.972V39.3199H272.931V40.9241H266.282V29.4558H272.769ZM279.553 35.8794V40.9241H277.864V29.4558H279.553V34.2752H285.276V29.4558H286.945V40.9241H285.276V35.8794H279.553ZM292.695 39.3199C292.817 39.1766 292.965 38.9172 293.148 38.5349C293.33 38.1526 293.513 37.6475 293.702 37.0194C293.884 36.3914 294.053 35.6405 294.202 34.7667C294.35 33.893 294.459 32.8895 294.513 31.7495L294.627 29.4558H301.486V39.3199H303.026V43.0198H301.452V40.9241H293.067V43.0198H291.492V39.3199H292.695ZM295.81 35.4357C295.682 36.1457 295.54 36.7669 295.391 37.3062C295.242 37.8386 295.087 38.2755 294.938 38.6168C294.79 38.9581 294.661 39.1902 294.567 39.3199H299.803V31.06H296.269L296.107 33.0738C296.033 33.9408 295.938 34.7258 295.81 35.4357ZM307.682 29.4558H309.371V38.1253L315.79 29.4558H317.263V40.9241H315.574V32.2751L309.155 40.9241H307.682V29.4558ZM324.594 35.8794V40.9241H322.905V29.4558H324.594V34.2752H330.317V29.4558H331.986V40.9241H330.317V35.8794H324.594ZM344 29.4558V31.06H339.311V40.9241H337.622V29.4558H344ZM235.937 38.3233C235.937 36.4324 237.201 35.1012 238.971 35.1012C240.741 35.1012 241.958 36.4324 241.958 38.3233C241.958 40.1596 240.795 41.5453 238.924 41.5453C237.153 41.5385 235.937 40.1596 235.937 38.3233ZM116.651 30.1726C116.786 30.4252 116.935 30.6914 117.104 30.9645C116.935 30.6573 116.766 30.3501 116.597 30.0429C116.503 29.8654 116.401 29.6674 116.307 29.4831C116.286 29.449 116.266 29.4149 116.246 29.3807C116.381 29.6538 116.516 29.9132 116.651 30.1726ZM197.707 12.9019C196.241 11.4205 194.518 10.2464 192.545 9.37944C190.572 8.51249 188.457 8.07561 186.2 8.07561C183.943 8.07561 181.828 8.51932 179.855 9.40675C177.882 10.2942 176.139 11.5024 174.619 13.0316C172.997 14.7382 171.787 16.6768 170.977 18.8545C170.301 20.6225 169.963 22.5134 169.963 24.5272V37.3539V37.8113C169.963 38.6987 170.267 39.4428 170.875 40.0572C171.483 40.6716 172.22 40.9787 173.098 40.9787C173.808 40.9787 174.429 40.7808 174.97 40.3917C175.51 40.0026 175.882 39.4838 176.085 38.8353C176.119 38.8011 176.139 38.767 176.139 38.7329C176.139 38.6987 176.152 38.6646 176.186 38.6305C176.49 37.6065 176.943 36.6713 177.551 35.818C178.159 34.9647 178.875 34.2343 179.7 33.6199C180.524 33.0055 181.443 32.5277 182.457 32.1864C183.47 31.8451 184.531 31.6744 185.639 31.6744C185.909 31.6744 186.092 31.6607 186.193 31.6198V31.6744H196.159V37.8045C196.159 38.6919 196.47 39.436 197.092 40.0504C197.714 40.6647 198.464 40.9719 199.342 40.9719C200.22 40.9719 200.957 40.6647 201.565 40.0504C202.173 39.436 202.477 38.6919 202.477 37.8045V24.5203C202.477 22.2745 202.045 20.1446 201.187 18.1309C200.335 16.1239 199.173 14.3832 197.707 12.9019ZM196.166 25.2917H186.2H185.646C183.896 25.2917 182.22 25.558 180.639 26.0836C179.051 26.6092 177.605 27.3533 176.287 28.309V24.5272C176.287 23.3667 176.463 22.2813 176.821 21.2573C177.179 20.2334 177.673 19.2982 178.315 18.4449C179.227 17.2503 180.362 16.2877 181.727 15.5573C183.092 14.8269 184.585 14.4583 186.2 14.4583C187.821 14.4583 189.301 14.7996 190.653 15.4822C191.997 16.1649 193.132 17.1001 194.038 18.2947C194.173 18.4654 194.308 18.6497 194.443 18.8545C194.578 19.0592 194.713 19.264 194.849 19.4688C194.849 19.503 194.855 19.5303 194.876 19.5439C194.889 19.5644 194.903 19.5849 194.903 19.619C195.747 21.1208 196.166 22.7523 196.166 24.5272V25.2917ZM99.7455 8.12339C99.1036 8.12339 98.5158 8.3077 97.9752 8.68315H97.9279L88.6237 18.1377C88.0156 18.6838 87.3399 18.9569 86.6034 18.9569C85.8264 18.9569 85.1372 18.6838 84.529 18.1377L75.5289 8.99034L75.1235 8.63537V8.68998C74.5829 8.31453 73.9951 8.13022 73.3532 8.13022C72.4748 8.13022 71.7383 8.4374 71.1302 9.05178C70.522 9.66615 70.218 10.4171 70.218 11.2977V37.8181C70.218 38.7056 70.522 39.4496 71.1369 40.064C71.7518 40.6784 72.495 40.9856 73.3802 40.9856C74.2653 40.9856 75.0086 40.6784 75.6235 40.064C76.2384 39.4496 76.5424 38.7056 76.5424 37.8181V18.8545L80.6303 22.9912C81.4006 23.8104 82.3128 24.4384 83.3533 24.8821C84.3939 25.3259 85.4885 25.5443 86.6304 25.5443C87.7724 25.5443 88.8602 25.3259 89.8873 24.8821C90.9143 24.4384 91.8332 23.8104 92.6373 22.9912L96.6712 18.9022V37.8045C96.6712 38.6919 96.9685 39.436 97.5563 40.0504C98.1442 40.6647 98.8807 40.9719 99.7591 40.9719C100.637 40.9719 101.374 40.6647 101.982 40.0504C102.59 39.436 102.894 38.6919 102.894 37.8045V11.2908C102.894 10.4034 102.59 9.6525 101.982 9.04495C101.367 8.43058 100.624 8.12339 99.7455 8.12339ZM227.511 34.6439H223.768C222.383 34.6439 221.092 34.3776 219.896 33.852C218.7 33.3264 217.646 32.6096 216.734 31.7085C215.822 30.8074 215.106 29.7425 214.585 28.5138C214.065 27.285 213.802 25.9744 213.802 24.5818C213.802 23.2165 214.065 21.9263 214.585 20.6976C215.106 19.4688 215.822 18.4039 216.734 17.5028C217.646 16.6018 218.7 15.885 219.896 15.3594C221.092 14.8337 222.383 14.5675 223.768 14.5675H227.511C228.39 14.5675 229.126 14.2535 229.734 13.6255C230.343 12.9974 230.647 12.2397 230.647 11.3523C230.647 10.4648 230.343 9.71394 229.734 9.10639C229.126 8.49201 228.383 8.18483 227.511 8.18483H223.768C221.545 8.18483 219.444 8.62172 217.471 9.48867C215.498 10.3556 213.775 11.5298 212.295 13.0111C210.815 14.4924 209.646 16.2331 208.781 18.2196C207.916 20.2129 207.484 22.3359 207.484 24.5818C207.484 26.8618 207.916 28.9985 208.781 30.9918C209.646 32.9851 210.822 34.7258 212.295 36.2071C213.768 37.6884 215.498 38.8626 217.471 39.7295C219.444 40.5965 221.545 41.0334 223.768 41.0334H227.511C228.39 41.0334 229.126 40.7262 229.734 40.1118C230.343 39.4974 230.647 38.7533 230.647 37.8659C230.647 36.9785 230.343 36.2208 229.734 35.5927C229.126 34.9579 228.383 34.6439 227.511 34.6439ZM136.577 13.0247C134.76 11.1202 132.584 9.75489 130.05 8.93573C127.523 8.11656 124.955 7.91177 122.361 8.32135C120.341 8.69681 118.435 9.4204 116.645 10.4921C114.854 11.5639 113.34 12.9565 112.09 14.6562C111.921 14.861 111.759 15.0726 111.611 15.2979C111.462 15.5232 111.313 15.7348 111.178 15.9396C109.692 18.3561 108.894 20.9911 108.773 23.8309C108.658 26.6775 109.219 29.3739 110.469 31.927C111.111 33.224 111.901 34.3981 112.847 35.4562C113.793 36.5143 114.847 37.4222 116.009 38.1868C117.172 38.9513 118.428 39.5725 119.78 40.0504C121.131 40.5282 122.509 40.8149 123.928 40.9173C124.097 40.9514 124.841 40.9651 125.043 40.9651C125.922 40.9651 126.651 40.6579 127.246 40.0435C127.834 39.4292 128.131 38.6851 128.131 37.7977C128.131 36.9102 127.834 36.173 127.246 35.5723C126.658 34.9784 125.922 34.678 125.043 34.678H124.841C123.489 34.6097 122.259 34.3367 121.151 33.8588C120.104 33.4151 119.158 32.8007 118.32 32.0225C117.509 31.2648 116.84 30.4115 116.307 29.4695C116.401 29.6606 116.503 29.8518 116.597 30.0292C116.766 30.3364 116.935 30.6436 117.104 30.9508C116.935 30.6777 116.78 30.4115 116.651 30.1589C116.516 29.9064 116.381 29.6401 116.246 29.3671C116.266 29.4012 116.286 29.4353 116.307 29.4695C116.232 29.3329 116.165 29.2032 116.097 29.0599C115.861 28.6162 115.678 28.1929 115.543 27.7834H138.05C138.929 27.7492 139.679 27.4284 140.3 26.814C140.922 26.1996 141.253 25.4487 141.287 24.5681V24.4657V24.3702C141.287 22.2267 140.875 20.1788 140.05 18.2401C139.212 16.2946 138.057 14.5607 136.577 13.0247ZM115.536 21.4075C115.908 20.3153 116.449 19.305 117.151 18.3698C117.861 17.4346 118.705 16.6427 119.678 15.9942C120.861 15.2433 122.138 14.7586 123.523 14.5402C124.908 14.3217 126.253 14.3968 127.57 14.7723C128.922 15.1477 130.145 15.7689 131.239 16.6359C132.334 17.5028 133.206 18.5541 133.841 19.776C134.145 20.3563 134.381 20.9024 134.55 21.4075H115.536ZM166.362 8.06878H166.26H166.213H165.909C163.625 7.93225 157.429 8.33501 154.206 9.63202C152.247 10.4239 150.53 11.5639 149.118 13.052C147.699 14.5334 146.577 16.2536 145.753 18.2128C144.929 20.1719 144.517 22.2745 144.517 24.5203V37.8045C144.517 38.6919 144.821 39.436 145.429 40.0504C146.037 40.6647 146.773 40.9719 147.652 40.9719C148.53 40.9719 149.28 40.6647 149.902 40.0504C150.524 39.436 150.834 38.6919 150.834 37.8045V24.5203C150.834 23.1619 151.078 21.8785 151.571 20.6908C152.057 19.4961 152.733 18.4517 153.591 17.5506C154.449 16.6495 155.463 15.9328 156.625 15.3798C158.172 14.6426 162.943 14.4583 165.963 14.4583H166.213C167.091 14.4583 167.841 14.1443 168.463 13.5162C169.085 12.8882 169.395 12.1305 169.395 11.243C169.395 10.3897 169.098 9.66615 168.51 9.07226C167.922 8.47154 167.206 8.13704 166.362 8.06878ZM12.7912 11.4888C12.7304 11.3727 12.8183 11.2294 12.9467 11.2294H44.5283C50.5757 11.2294 55.2447 6.30075 55.6637 0.191139C55.6704 0.0887429 55.5893 0 55.488 0H11.0277C4.92624 0 -1.22252 5.21535 0.209936 11.2089C0.216693 11.2226 0.216693 11.2362 0.223449 11.2499L19.3116 49.1568C19.3116 49.1636 19.3184 49.1704 19.3184 49.1772C20.5954 51.2047 22.7644 53 27.7712 53C32.224 53 35.1025 51.2183 36.3592 49.1772C36.366 49.1704 36.366 49.1636 36.366 49.1568L53.1298 15.8304C53.1906 15.7143 53.1028 15.571 52.9744 15.571H43.285C41.7445 15.6392 40.4066 16.3833 39.9201 17.4141L27.9334 41.0538C27.8658 41.1835 27.6834 41.1835 27.6158 41.0538L12.7912 11.4888Z" fill="black"/>
</svg>
