<svg width="273" height="83" viewBox="0 0 273 83" fill="none" xmlns="http://www.w3.org/2000/svg">
<path d="M166.469 67.9571H167.389H169.372C170.03 67.9436 170.686 68.0269 171.32 68.2039C171.794 68.332 172.235 68.5601 172.612 68.8731C172.934 69.1387 173.179 69.4851 173.321 69.8768C173.478 70.2687 173.556 70.6881 173.551 71.1102C173.575 71.7778 173.376 72.4348 172.984 72.9774C172.609 73.4539 172.106 73.8141 171.532 74.0164C172.211 74.1337 172.832 74.4677 173.303 74.9677C173.789 75.5346 174.037 76.267 173.993 77.0112C174.016 77.6179 173.895 78.2214 173.639 78.7727C173.404 79.2366 173.065 79.6403 172.648 79.9527C172.191 80.2683 171.681 80.5012 171.143 80.6399C170.528 80.7847 169.898 80.855 169.266 80.8506H166.469H165.778V68.1687L166.469 67.9571ZM168.452 69.7186H167.69V73.3825H169.461C169.749 73.3873 170.036 73.3459 170.311 73.2595C170.562 73.1889 170.797 73.0688 171.001 72.9069C171.203 72.7445 171.366 72.5403 171.479 72.3083C171.588 72.0459 171.642 71.7639 171.639 71.48C171.657 71.2222 171.612 70.9638 171.507 70.7274C171.402 70.491 171.24 70.2838 171.037 70.1237C170.523 69.7581 169.895 69.5892 169.266 69.648L168.452 69.7186ZM167.69 78.949H168.416H169.425C170.121 78.9875 170.81 78.8017 171.391 78.42C171.628 78.2403 171.815 78.0047 171.936 77.7337C172.056 77.4627 172.106 77.1655 172.081 76.8702C172.099 76.6002 172.047 76.3305 171.929 76.0866C171.811 75.8428 171.632 75.633 171.408 75.4786C170.836 75.1432 170.177 74.9843 169.514 75.021H167.743L167.69 78.949ZM187.431 67.9924V69.7538H182.049V73.3997H186.918V75.1612H182.049V78.9309H187.715V80.6924H180.226V67.9571L187.431 67.9924ZM195.434 75.1259V80.7277H193.54V67.9924H195.434V73.2767H201.879V67.9924H203.756V80.7277H201.879V75.1259H195.434ZM210.607 78.949C210.81 78.675 210.983 78.3797 211.121 78.0683C211.378 77.5305 211.586 76.97 211.741 76.3945C211.983 75.5738 212.172 74.7384 212.307 73.8934C212.493 72.7859 212.611 71.6685 212.661 70.5468L212.785 67.9924H220.522V78.949H222.293V83H220.522V80.6752H211.068V83H209.297V78.8957L210.607 78.949ZM214.148 74.6331C214.007 75.4257 213.847 76.113 213.688 76.7119C213.543 77.2021 213.371 77.6839 213.175 78.156C213.054 78.4309 212.912 78.6963 212.75 78.949H218.645V69.7719H214.662L214.485 72.0081C214.425 72.8714 214.313 73.731 214.148 74.5806V74.6331ZM227.905 67.9924H229.8V77.6098L237.041 67.9924H238.705V80.7277H236.793V71.1274L229.57 80.7277H227.905V67.9924ZM247.381 75.1259V80.7277H245.433V67.9924H247.328V73.2767H253.772V67.9924H255.667V80.7277H253.772V75.1259H247.381ZM269.618 67.9924V69.7538H264.307V80.7105H262.412V67.9752L269.618 67.9924ZM265.918 42.4865C265.894 42.0279 265.964 41.569 266.126 41.1388C266.287 40.7086 266.536 40.3167 266.857 39.9863C267.177 39.6558 267.563 39.3941 267.989 39.2182C268.415 39.0423 268.874 38.9557 269.335 38.9636C270.04 38.939 270.737 39.125 271.335 39.4969C271.933 39.8687 272.406 40.4099 272.694 41.051C272.981 41.6922 273.069 42.4042 272.946 43.0955C272.824 43.7868 272.497 44.4258 272.007 44.9309C271.517 45.436 270.887 45.7841 270.197 45.9303C269.507 46.0765 268.788 46.014 268.134 45.7514C267.48 45.4888 266.919 45.0378 266.524 44.4561C266.13 43.8744 265.918 43.1884 265.918 42.4865ZM131.484 33.4324L131.997 34.3131L131.43 33.2913L131.112 32.6755V32.5517C131.183 32.9216 131.342 33.2211 131.484 33.5029V33.4324ZM222.842 14.268C221.162 12.6151 219.186 11.2886 217.017 10.3572C214.757 9.39283 212.323 8.89587 209.864 8.89587C207.405 8.89587 204.971 9.39283 202.711 10.3572C200.514 11.3227 198.515 12.6848 196.815 14.3738C195.018 16.2279 193.62 18.4276 192.708 20.8382C191.943 22.8467 191.558 24.9785 191.574 27.1262V41.8698C191.574 42.8042 191.948 43.7008 192.612 44.3615C193.276 45.0222 194.176 45.3927 195.115 45.3927C195.87 45.4043 196.608 45.1757 197.222 44.7408C197.822 44.3081 198.258 43.6879 198.462 42.9793C198.47 42.9598 198.474 42.9395 198.474 42.9183C198.474 42.8971 198.47 42.8759 198.462 42.8564C198.45 42.8222 198.45 42.7848 198.462 42.7506C198.786 41.6291 199.308 40.5736 200.002 39.6328C200.671 38.6904 201.49 37.8639 202.428 37.185C203.375 36.505 204.419 35.9699 205.526 35.599C206.669 35.2279 207.864 35.038 209.067 35.0356C209.273 35.0628 209.481 35.0628 209.687 35.0356H220.912V41.8346C220.903 42.3022 220.993 42.767 221.176 43.1978C221.359 43.6286 221.631 44.0158 221.974 44.3357C222.307 44.6643 222.702 44.9241 223.137 45.0995C223.572 45.2748 224.037 45.3625 224.506 45.3575C225.445 45.3575 226.346 44.9869 227.01 44.3262C227.674 43.6656 228.047 42.7689 228.047 41.8346V27.091C228.046 24.6689 227.552 22.2721 226.595 20.0452C225.713 17.9158 224.44 15.9689 222.842 14.3032V14.268ZM221.071 28.025H209.226C205.419 27.9951 201.7 29.1666 198.603 31.3716V27.1615C198.602 25.9272 198.805 24.702 199.205 23.5337C199.629 22.4093 200.227 21.3574 200.976 20.4159C202.018 19.0926 203.327 18.0001 204.818 17.2095C206.373 16.3954 208.107 15.9779 209.864 15.9942C211.571 15.9708 213.26 16.3439 214.797 17.0839C216.334 17.8239 217.676 18.9103 218.716 20.2567C218.882 20.4526 219.036 20.6587 219.177 20.8734L219.637 21.5606C219.629 21.5894 219.629 21.6196 219.637 21.6484C220.583 23.3067 221.072 25.1842 221.053 27.091L221.071 28.025ZM112.451 9.01886C111.736 9.01895 111.039 9.23403 110.45 9.63554L99.9685 20.2043C99.34 20.7837 98.5148 21.1056 97.658 21.1056C96.8012 21.1056 95.976 20.7837 95.3475 20.2043L85.2025 10.0578L84.7421 9.65274C84.153 9.25123 83.4556 9.03616 82.7415 9.03606C82.277 9.02562 81.8154 9.11137 81.3857 9.28721C80.9561 9.46304 80.5677 9.72528 80.2451 10.0578C79.9103 10.3822 79.6463 10.7723 79.4696 11.2026C79.2929 11.633 79.2074 12.0942 79.2182 12.559V41.9756C79.2074 42.4404 79.2929 42.9025 79.4696 43.3328C79.6463 43.7632 79.9103 44.1524 80.2451 44.4768C80.9227 45.1331 81.8311 45.5003 82.7769 45.5003C83.7226 45.5003 84.6311 45.1331 85.3087 44.4768C85.6435 44.1524 85.9074 43.7632 86.0841 43.3328C86.2608 42.9025 86.3464 42.4404 86.3356 41.9756V20.944L90.9389 25.5411C91.8092 26.4441 92.8582 27.1577 94.0196 27.6371C95.1845 28.1282 96.4371 28.3806 97.7022 28.3777C98.962 28.3841 100.21 28.1315 101.367 27.6371C102.527 27.145 103.579 26.4331 104.466 25.5411L109.016 20.9964V41.9756C109.006 42.9095 109.369 43.809 110.025 44.4768C110.342 44.8115 110.727 45.0756 111.154 45.2517C111.582 45.4278 112.041 45.512 112.504 45.4985C112.968 45.509 113.43 45.4241 113.859 45.2483C114.289 45.0724 114.677 44.8093 115 44.4768C115.335 44.1524 115.599 43.7632 115.776 43.3328C115.952 42.9025 116.038 42.4404 116.027 41.9756V12.5418C116.038 12.077 115.952 11.6149 115.776 11.1846C115.599 10.7542 115.335 10.365 115 10.0406C114.671 9.70138 114.274 9.43488 113.835 9.25882C113.396 9.08277 112.924 9.00098 112.451 9.01886ZM256.41 38.4527H252.197C250.699 38.4622 249.216 38.1623 247.841 37.572C246.524 37.0033 245.323 36.1969 244.3 35.1939C242.712 33.6319 241.632 31.6322 241.2 29.4528C240.768 27.2733 241.003 25.0145 241.875 22.9695C242.444 21.6487 243.268 20.4518 244.3 19.4465C245.323 18.4435 246.524 17.6371 247.841 17.0684C249.214 16.4726 250.699 16.1724 252.197 16.1877H256.41C256.88 16.1961 257.347 16.1065 257.78 15.9245C258.213 15.7425 258.603 15.4726 258.924 15.1315C259.255 14.8002 259.516 14.4062 259.692 13.9738C259.868 13.5414 259.956 13.0789 259.951 12.6123C259.962 12.1475 259.877 11.6854 259.7 11.2551C259.523 10.8247 259.259 10.4355 258.924 10.1112C258.594 9.78466 258.201 9.52617 257.77 9.35085C257.338 9.17554 256.876 9.08671 256.41 9.08939H252.197C249.762 9.08564 247.352 9.57686 245.115 10.5335C240.723 12.4027 237.218 15.8768 235.324 20.2395C234.35 22.4615 233.856 24.8616 233.872 27.2854C233.864 29.7083 234.358 32.1069 235.324 34.3312C236.273 36.4858 237.618 38.4449 239.29 40.1084C240.973 41.7574 242.948 43.0835 245.115 44.0192C247.349 44.984 249.761 45.4756 252.197 45.4633H256.41C256.877 45.474 257.342 45.3888 257.774 45.213C258.207 45.0372 258.599 44.7746 258.924 44.4415C259.259 44.1205 259.523 43.7345 259.699 43.307C259.876 42.8796 259.962 42.4205 259.951 41.9584C259.959 41.4889 259.872 41.0222 259.695 40.5866C259.519 40.151 259.257 39.7545 258.924 39.4212C258.592 39.1017 258.198 38.8527 257.765 38.6892C257.333 38.5257 256.872 38.4519 256.41 38.4708V38.4527ZM153.951 14.4615C151.922 12.3637 149.395 10.8073 146.604 9.93485C143.808 9.02351 140.834 8.78778 137.928 9.24764C135.652 9.66263 133.47 10.4801 131.484 11.661C129.483 12.8412 127.743 14.411 126.367 16.2763C126.172 16.5053 125.995 16.7341 125.818 16.9807L125.34 17.7031C123.668 20.3479 122.733 23.3876 122.631 26.5104C122.48 29.6188 123.138 32.7127 124.543 35.4932C125.243 36.9165 126.143 38.2336 127.217 39.404C128.257 40.565 129.448 41.5841 130.758 42.4341C132.081 43.3008 133.509 43.9985 135.007 44.512C136.516 45.0348 138.087 45.361 139.681 45.4813C139.876 45.4813 140.708 45.4813 140.938 45.4813C141.4 45.4937 141.86 45.4088 142.287 45.2328C142.714 45.0568 143.099 44.7934 143.417 44.4596C144.067 43.789 144.423 42.8898 144.408 41.9584C144.431 41.4898 144.355 41.0208 144.185 40.5831C144.015 40.1455 143.755 39.7486 143.422 39.4169C143.088 39.0851 142.689 38.8264 142.249 38.6574C141.809 38.4884 141.338 38.4129 140.867 38.4355H140.637C139.205 38.3877 137.795 38.0771 136.476 37.5195C135.299 37.0435 134.218 36.3563 133.289 35.4932C132.388 34.6729 131.623 33.7159 131.023 32.6575L131.342 33.2741L131.908 34.2959L131.395 33.4152C131.253 33.1334 131.094 32.8339 130.952 32.5345V32.6575L130.704 32.1999C130.453 31.7451 130.245 31.2672 130.085 30.773H155.438C156.391 30.7576 157.3 30.3722 157.97 29.6988C158.312 29.379 158.587 28.9941 158.779 28.5678C158.97 28.1414 159.075 27.6817 159.086 27.2148V26.9861C159.096 24.6422 158.62 22.3213 157.687 20.169C156.797 18.0637 155.531 16.1362 153.951 14.4795V14.4615ZM130.244 23.7625C130.647 22.5476 131.245 21.4057 132.015 20.3806C132.805 19.3478 133.769 18.4593 134.865 17.7556C136.179 16.9289 137.649 16.3776 139.185 16.1352C140.709 15.8864 142.269 15.9764 143.753 16.3993C145.256 16.7973 146.66 17.4987 147.878 18.46C149.098 19.4142 150.099 20.6149 150.817 21.9829C151.124 22.551 151.39 23.1396 151.614 23.7444L130.244 23.7625ZM187.502 8.96639H186.989C182.525 8.83598 178.07 9.43095 173.799 10.7279C171.638 11.5796 169.683 12.8757 168.062 14.532C166.455 16.1915 165.171 18.1324 164.273 20.2567C163.331 22.4866 162.855 24.8839 162.875 27.3026V42.0462C162.872 42.5098 162.961 42.969 163.137 43.3982C163.314 43.8274 163.573 44.2181 163.901 44.5473C164.227 44.8803 164.619 45.143 165.052 45.3188C165.484 45.4946 165.948 45.5798 166.416 45.5691C166.885 45.5741 167.35 45.4864 167.785 45.311C168.219 45.1357 168.614 44.8759 168.947 44.5473C169.29 44.2274 169.562 43.8394 169.745 43.4085C169.928 42.9777 170.018 42.5138 170.01 42.0462V27.3026C169.995 25.846 170.278 24.4022 170.842 23.058C171.37 21.7538 172.139 20.559 173.108 19.5351C174.093 18.5336 175.25 17.716 176.525 17.1217C178.296 16.3115 183.607 16.0999 187.06 16.0999H187.343C188.282 16.0999 189.183 15.7285 189.847 15.0678C190.511 14.4072 190.884 13.5114 190.884 12.577C190.891 12.1301 190.805 11.6863 190.631 11.274C190.457 10.8617 190.2 10.4902 189.875 10.1817C189.257 9.51392 188.411 9.09911 187.502 9.01886V8.96639ZM14.4531 12.7534C14.4378 12.7235 14.4305 12.6905 14.4319 12.657C14.4334 12.6236 14.4435 12.5908 14.4614 12.5624C14.4792 12.534 14.5041 12.5104 14.5337 12.4945C14.5633 12.4785 14.5965 12.4706 14.6301 12.4712H50.2173C53.4837 12.4065 56.602 11.1032 58.9351 8.82792C61.2682 6.5526 62.6399 3.47657 62.7702 0.228783C62.7726 0.201006 62.7695 0.173646 62.761 0.147075C62.7525 0.120504 62.7388 0.0952518 62.7207 0.0739674C62.7026 0.0526829 62.6804 0.0359514 62.6555 0.0232223C62.6306 0.0104932 62.6034 0.00221895 62.5754 0H12.4347C5.54743 0 -1.37525 5.79529 0.235912 12.436L21.7475 54.4993C23.1817 56.754 25.625 58.7447 31.2729 58.7447C36.2834 58.7447 39.5411 56.7716 40.9398 54.4993L59.8311 17.5088C59.8464 17.479 59.8537 17.4459 59.8522 17.4124C59.8508 17.379 59.8406 17.3471 59.8228 17.3187C59.805 17.2903 59.7801 17.2667 59.7505 17.2507C59.7209 17.2348 59.6877 17.2269 59.6541 17.2275H48.7301C47.974 17.2083 47.2261 17.3867 46.5612 17.7453C45.8963 18.1039 45.3377 18.6295 44.9412 19.2702L31.4322 45.4985C31.4167 45.5323 31.3917 45.5611 31.3604 45.5811C31.329 45.6011 31.2925 45.6121 31.2552 45.6121C31.2179 45.6121 31.1814 45.6011 31.15 45.5811C31.1186 45.5611 31.0937 45.5323 31.0781 45.4985L14.4531 12.7534Z" fill="black"/>
</svg>
