<svg width="273" height="83" fill="none" xmlns="http://www.w3.org/2000/svg"><path d="M166.469 67.957h2.903a6.73 6.73 0 011.948.247c.474.128.915.356 1.292.67.322.265.567.611.709 1.003.157.392.235.811.23 1.233a3.004 3.004 0 01-.567 1.867 3.2 3.2 0 01-1.452 1.04c.679.117 1.3.45 1.771.95.486.568.734 1.3.69 2.044a3.836 3.836 0 01-.354 1.762 3.387 3.387 0 01-.991 1.18 4.726 4.726 0 01-1.505.687 7.947 7.947 0 01-1.877.21h-3.488V68.17l.691-.212zm1.983 1.762h-.762v3.663h1.771c.288.005.575-.036.85-.123.251-.07.486-.19.69-.352a1.75 1.75 0 00.478-.599c.109-.262.163-.544.16-.828a1.582 1.582 0 00-.602-1.356 2.632 2.632 0 00-1.771-.476l-.814.07zm-.762 9.23h1.735a3.253 3.253 0 001.966-.529 1.762 1.762 0 00.69-1.55 1.56 1.56 0 00-.673-1.391 3.376 3.376 0 00-1.894-.458h-1.771l-.053 3.928zm19.741-10.957v1.762h-5.382V73.4h4.869v1.761h-4.869v3.77h5.666v1.761h-7.489V67.957l7.205.035zm8.003 7.134v5.602h-1.894V67.992h1.894v5.285h6.445v-5.285h1.877v12.736h-1.877v-5.602h-6.445zm15.173 3.823c.203-.274.376-.57.514-.88a9.786 9.786 0 00.62-1.675c.242-.82.431-1.656.566-2.5.186-1.108.304-2.226.354-3.347l.124-2.555h7.737V78.95h1.771V83h-1.771v-2.325h-9.454V83h-1.771v-4.104l1.31.053zm3.541-4.316a25.33 25.33 0 01-.46 2.079c-.145.49-.317.972-.513 1.444-.121.275-.263.54-.425.793h5.895v-9.177h-3.983l-.177 2.236a21.21 21.21 0 01-.337 2.573v.052zm13.757-6.64h1.895v9.617l7.241-9.618h1.664v12.736h-1.912v-9.6l-7.223 9.6h-1.665V67.992zm19.476 7.133v5.602h-1.948V67.992h1.895v5.285h6.444v-5.285h1.895v12.736h-1.895v-5.602h-6.391zm22.237-7.134v1.762h-5.311V80.71h-1.895V67.975l7.206.017zm-3.7-25.506a3.33 3.33 0 01.939-2.5 3.363 3.363 0 012.478-1.022 3.554 3.554 0 012 .533 3.537 3.537 0 011.359 1.554 3.513 3.513 0 01-.687 3.88 3.545 3.545 0 01-3.873.82 3.54 3.54 0 01-1.61-1.295 3.514 3.514 0 01-.606-1.97zm-134.434-9.054l.513.881-.567-1.022-.318-.615v-.124c.071.37.23.67.372.95v-.07zm91.358-19.164a18.99 18.99 0 00-5.825-3.91 18.228 18.228 0 00-14.306 0 19.493 19.493 0 00-5.896 4.016 18.899 18.899 0 00-4.107 6.464 17.303 17.303 0 00-1.134 6.288V41.87c0 .934.374 1.83 1.038 2.492a3.548 3.548 0 002.503 1.03 3.55 3.55 0 002.107-.651 3.295 3.295 0 001.24-1.762.16.16 0 000-.123.16.16 0 010-.105 9.866 9.866 0 011.54-3.118 10.585 10.585 0 012.426-2.448 11.666 11.666 0 013.098-1.586 11.542 11.542 0 013.541-.563c.206.027.414.027.62 0h11.225v6.799a3.324 3.324 0 001.062 2.5 3.54 3.54 0 002.532 1.023 3.55 3.55 0 002.504-1.032 3.515 3.515 0 001.037-2.491V27.09a17.863 17.863 0 00-1.452-7.046 18.548 18.548 0 00-3.753-5.742v-.035zm-1.771 13.757h-11.845a18.073 18.073 0 00-10.623 3.347v-4.21c-.001-1.235.202-2.46.602-3.628a11.562 11.562 0 011.771-3.118 12.112 12.112 0 013.842-3.207 10.668 10.668 0 015.046-1.215 11.03 11.03 0 014.933 1.09 10.957 10.957 0 013.919 3.173c.166.196.32.402.461.616l.46.688a.164.164 0 000 .087 10.766 10.766 0 011.416 5.443l.018.934zM112.451 9.019c-.715 0-1.412.215-2.001.617L99.969 20.204a3.409 3.409 0 01-4.621 0L85.203 10.058l-.46-.405a3.554 3.554 0 00-2.001-.617 3.38 3.38 0 00-2.497 1.022 3.385 3.385 0 00-1.027 2.501v29.417a3.367 3.367 0 001.027 2.5 3.64 3.64 0 005.064 0 3.38 3.38 0 001.027-2.5V20.944l4.603 4.597a9.1 9.1 0 003.08 2.096 9.425 9.425 0 003.683.74 9.21 9.21 0 003.665-.74 9.727 9.727 0 003.099-2.096l4.55-4.545v20.98a3.515 3.515 0 001.009 2.5 3.275 3.275 0 002.479 1.023A3.374 3.374 0 00115 44.477a3.375 3.375 0 001.027-2.501V12.542A3.375 3.375 0 00115 10.04a3.371 3.371 0 00-2.549-1.022zM256.41 38.453h-4.213c-1.498.01-2.981-.29-4.356-.881a11.662 11.662 0 01-3.541-2.378 11.05 11.05 0 01-2.425-12.224 10.988 10.988 0 012.425-3.523 11.662 11.662 0 013.541-2.379 10.672 10.672 0 014.356-.88h4.213a3.381 3.381 0 002.514-1.056 3.511 3.511 0 001.027-2.52 3.358 3.358 0 00-1.027-2.5 3.535 3.535 0 00-2.514-1.023h-4.213a17.942 17.942 0 00-7.082 1.444 18.612 18.612 0 00-9.791 9.707 17.264 17.264 0 00-1.452 7.045 17.54 17.54 0 001.452 7.046 18.892 18.892 0 003.966 5.777 19.197 19.197 0 005.825 3.911 17.64 17.64 0 007.082 1.444h4.213a3.414 3.414 0 002.514-1.022 3.324 3.324 0 001.027-2.483 3.509 3.509 0 00-1.027-2.537 3.432 3.432 0 00-2.514-.95v-.018zM153.951 14.46a17.474 17.474 0 00-7.347-4.526 18.612 18.612 0 00-8.676-.687 19.426 19.426 0 00-6.444 2.413 17.242 17.242 0 00-5.117 4.615c-.195.23-.372.458-.549.705l-.478.722a17.553 17.553 0 00-2.709 8.807 17.979 17.979 0 001.912 8.983c.7 1.423 1.6 2.74 2.674 3.911a17.657 17.657 0 003.541 3.03 18.993 18.993 0 004.249 2.078 18.54 18.54 0 004.674.97h1.257a3.309 3.309 0 002.479-1.022 3.513 3.513 0 00.991-2.502 3.347 3.347 0 00-.986-2.541 3.387 3.387 0 00-2.555-.982h-.23a11.686 11.686 0 01-4.161-.916 10.428 10.428 0 01-3.187-2.026 11.516 11.516 0 01-2.266-2.836l.319.617.566 1.022-.513-.88c-.142-.283-.301-.582-.443-.881v.123l-.248-.458a8.15 8.15 0 01-.619-1.427h25.353a3.655 3.655 0 002.532-1.074 3.512 3.512 0 001.116-2.484v-.229a16.957 16.957 0 00-1.399-6.817 18.918 18.918 0 00-3.736-5.69v-.018zm-23.707 9.301a11.835 11.835 0 011.771-3.381 11.22 11.22 0 012.85-2.625 11.47 11.47 0 014.32-1.62 10.498 10.498 0 014.568.263 11.35 11.35 0 014.125 2.061 10.907 10.907 0 012.939 3.523c.307.568.573 1.157.797 1.761l-21.37.018zm57.258-14.796h-.513a41.25 41.25 0 00-13.19 1.762 16.482 16.482 0 00-5.737 3.804 18.69 18.69 0 00-3.789 5.725 17.728 17.728 0 00-1.398 7.046v14.743a3.502 3.502 0 001.026 2.501 3.401 3.401 0 002.515 1.022 3.558 3.558 0 002.531-1.022 3.346 3.346 0 001.063-2.5V27.302c-.015-1.457.268-2.9.832-4.245a11.29 11.29 0 012.266-3.523 11.763 11.763 0 013.417-2.413c1.771-.81 7.082-1.022 10.535-1.022h.283a3.55 3.55 0 002.504-1.032 3.513 3.513 0 001.037-2.491 3.221 3.221 0 00-1.009-2.395 3.673 3.673 0 00-2.373-1.163v-.053zM14.453 12.753a.193.193 0 01.177-.282h35.587a12.852 12.852 0 008.718-3.643 12.724 12.724 0 003.835-8.6.208.208 0 00-.05-.154.214.214 0 00-.145-.074h-50.14C5.547 0-1.375 5.795.235 12.436l21.512 42.063c1.435 2.255 3.878 4.246 9.526 4.246 5.01 0 8.268-1.973 9.667-4.246L59.83 17.51a.192.192 0 00-.08-.258.196.196 0 00-.097-.024H48.73a4.337 4.337 0 00-2.169.518 4.31 4.31 0 00-1.62 1.525L31.432 45.5a.194.194 0 01-.354 0L14.453 12.752z" fill="#000"/></svg>