<svg width="236" height="112" viewBox="0 0 236 112" fill="none" xmlns="http://www.w3.org/2000/svg">
<path d="M6.974 10.2306C9.768 10.2306 12.144 12.2106 12.144 16.1706C12.144 20.1306 9.768 22.1106 6.974 22.1106C5.214 22.1106 3.652 21.3406 2.838 19.9326V26.0706H1.276V10.4506H2.838V12.4086C3.652 11.0006 5.214 10.2306 6.974 10.2306ZM6.732 20.7906C8.822 20.7906 10.67 19.2066 10.67 16.1706C10.67 13.1346 8.822 11.5506 6.732 11.5506C4.642 11.5506 2.772 13.1346 2.772 16.1706C2.772 19.2066 4.642 20.7906 6.732 20.7906ZM23.2746 14.1246V20.2406C23.2746 20.7246 23.4946 20.9666 23.9346 20.9446V21.9126C23.8026 21.9786 23.6046 22.0226 23.3186 22.0226C22.3726 22.0226 21.8006 21.5826 21.8006 20.7246V19.9106H21.7346C21.3606 20.6586 19.9746 22.1106 17.3566 22.1106C15.0686 22.1106 13.6166 21.0546 13.6166 19.0306C13.6166 17.1606 14.8926 16.1706 17.4666 15.8186L19.9746 15.4886C21.1406 15.3346 21.7126 15.0706 21.7126 14.7406V14.1246C21.7126 12.1886 20.7446 11.4406 18.7426 11.4406C16.7846 11.4406 15.8166 12.1666 15.8166 13.6626V13.9046H14.3206V13.5526C14.3206 11.3306 15.9266 10.2306 18.8086 10.2306C21.8226 10.2306 23.2746 11.3966 23.2746 14.1246ZM21.7126 17.8866V15.9946C21.6686 16.2806 21.1406 16.4786 20.1066 16.6106L17.7966 16.9406C15.8606 17.2046 15.1786 17.8646 15.1786 18.9426C15.1786 20.2626 16.1466 20.8566 17.6426 20.8566C20.2606 20.9226 21.7346 18.8326 21.7126 17.8866ZM30.5893 22.1106C27.5533 22.1106 25.0893 20.1086 25.0893 16.1926C25.0893 12.2326 27.5533 10.2306 30.5893 10.2306C31.7773 10.2306 32.8333 10.5386 33.7573 11.1766C34.6593 11.8146 35.2093 12.8486 35.4073 14.2786H33.9993C33.6693 12.4086 32.2613 11.5506 30.5673 11.5506C28.2133 11.5506 26.6073 13.2006 26.6073 16.1926C26.6073 19.1186 28.2133 20.7906 30.5673 20.7906C32.2613 20.7906 33.6693 19.9326 33.9993 18.0186H35.4073C35.2313 19.4706 34.6813 20.5046 33.7793 21.1426C32.8553 21.7806 31.7993 22.1106 30.5893 22.1106ZM37.3483 21.8906V10.4506H46.4563V21.8906H44.8943V11.7266H38.9103V21.8906H37.3483ZM53.9638 22.1106C51.0378 22.1106 48.4858 20.0866 48.4858 16.1706C48.4858 12.2546 51.0378 10.2306 53.9638 10.2306C56.8678 10.2306 59.4198 12.2546 59.4198 16.1706C59.4198 20.0866 56.8678 22.1106 53.9638 22.1106ZM53.9638 20.7906C56.0758 20.7906 57.9238 19.2506 57.9238 16.1706C57.9238 13.0906 56.0758 11.5506 53.9638 11.5506C51.8078 11.5506 50.0038 13.0906 50.0038 16.1706C50.0038 19.2506 51.8078 20.7906 53.9638 20.7906ZM60.078 22.0006V20.7246C61.838 20.7466 62.806 19.8446 62.806 17.0946V10.4506H71.474V21.8906H69.934L69.912 11.7266H64.368V17.1606C64.368 20.7906 62.806 22.1766 60.078 22.0006ZM78.9501 22.1106C76.0241 22.1106 73.4721 20.0866 73.4721 16.1706C73.4721 12.2546 76.0241 10.2306 78.9501 10.2306C81.8541 10.2306 84.4061 12.2546 84.4061 16.1706C84.4061 20.0866 81.8541 22.1106 78.9501 22.1106ZM78.9501 20.7906C81.0621 20.7906 82.9101 19.2506 82.9101 16.1706C82.9101 13.0906 81.0621 11.5506 78.9501 11.5506C76.7941 11.5506 74.9901 13.0906 74.9901 16.1706C74.9901 19.2506 76.7941 20.7906 78.9501 20.7906ZM94.3126 16.1046L100.121 21.8906H98.1846L93.1906 16.8526V21.8906H91.6286V16.8306L86.6126 21.8906H84.6766L90.4846 16.1046L84.8746 10.4506H86.8106L91.6286 15.3566V10.4506H93.1906V15.3346L97.9866 10.4506H99.9226L94.3126 16.1046ZM101.672 21.8906V10.4506H103.234V19.8446H103.3L110.054 10.4506H111.792V21.8906H110.23V12.5406H110.186L103.476 21.8906H101.672ZM113.732 10.4506H122.708V11.7266H118.99V21.8906H117.428V11.7266H113.732V10.4506ZM124.639 10.4506H126.201V14.6526H129.809C132.647 14.6526 134.165 15.9726 134.165 18.2826C134.165 20.5926 132.647 21.8906 129.809 21.8906H124.639V10.4506ZM126.201 20.6146H129.721C131.767 20.6146 132.669 19.7566 132.669 18.2826C132.669 16.7206 131.679 15.9286 129.721 15.9286H126.201V20.6146ZM151.389 21.8906H149.607L144.877 16.4566L142.809 18.6126V21.8906H141.247V10.4506H142.809V16.7646L148.837 10.4506H150.663L145.867 15.4446L151.389 21.8906ZM152.031 22.0006V20.7246C153.791 20.7466 154.759 19.8446 154.759 17.0946V10.4506H163.427V21.8906H161.887L161.865 11.7266H156.321V17.1606C156.321 20.7906 154.759 22.1766 152.031 22.0006ZM165.975 21.8906V10.4506H167.537V19.8446H167.603L174.357 10.4506H176.095V21.8906H174.533V12.5406H174.489L167.779 21.8906H165.975ZM188.463 15.8406C188.463 16.1706 188.441 16.4346 188.397 16.6326H179.619C179.729 19.4486 181.115 20.8786 183.579 20.8786C185.273 20.8786 186.373 20.1746 186.879 18.7666H188.309C187.583 21.1426 185.801 22.1326 183.513 22.1326C180.235 22.1326 178.101 20.0866 178.101 16.2146C178.101 12.1666 180.433 10.2306 183.403 10.2306C186.461 10.2306 188.463 12.2106 188.463 15.8406ZM179.641 15.4886H186.967C186.945 12.9146 185.581 11.4846 183.381 11.4846C181.247 11.4846 179.751 12.8706 179.641 15.4886ZM190.467 21.8906V10.4506H192.029V15.3126H197.881V10.4506H199.443V21.8906H197.881V16.5886H192.029V21.8906H190.467ZM201.389 10.4506H210.365V11.7266H206.647V21.8906H205.085V11.7266H201.389V10.4506ZM216.794 22.1106C213.868 22.1106 211.316 20.0866 211.316 16.1706C211.316 12.2546 213.868 10.2306 216.794 10.2306C219.698 10.2306 222.25 12.2546 222.25 16.1706C222.25 20.0866 219.698 22.1106 216.794 22.1106ZM216.794 20.7906C218.906 20.7906 220.754 19.2506 220.754 16.1706C220.754 13.0906 218.906 11.5506 216.794 11.5506C214.638 11.5506 212.834 13.0906 212.834 16.1706C212.834 19.2506 214.638 20.7906 216.794 20.7906ZM224.284 10.4506H229.762C232.116 10.4506 233.458 11.4846 233.458 13.2226C233.458 14.3886 232.908 15.1586 231.808 15.5766C233.502 16.0166 234.316 17.1166 234.316 18.6126C234.316 20.7246 232.732 21.8906 229.762 21.8906H224.284V10.4506ZM225.846 15.2026H229.586C231.192 15.2026 232.006 14.6306 232.006 13.4866C232.006 12.3646 231.192 11.7926 229.564 11.7926H225.846V15.2026ZM225.846 20.5486H229.586C231.94 20.5486 232.776 19.7566 232.776 18.4586C232.776 17.1386 231.896 16.2366 229.608 16.2366H225.846V20.5486Z" fill="white"/>
<path d="M60.016 65.5293V40.3293H63.76V62.2533H76.252V65.5293H60.016ZM86.8568 65.8893C82.0328 65.8893 77.7488 62.6493 77.7488 56.1693C77.7488 49.6893 82.0328 46.4493 86.8568 46.4493C91.7168 46.4493 96.0008 49.6893 96.0008 56.1693C96.0008 62.6493 91.7168 65.8893 86.8568 65.8893ZM86.8568 62.8293C90.1328 62.8293 92.5448 60.5253 92.5448 56.1693C92.5448 51.8133 90.1328 49.5093 86.8568 49.5093C83.5808 49.5093 81.2048 51.8133 81.2048 56.1693C81.2048 60.5253 83.5808 62.8293 86.8568 62.8293ZM98.5273 72.5493V69.4173C98.8153 69.4533 99.2113 69.4893 99.6793 69.4893C101.803 69.4893 102.883 68.5533 103.567 66.8613C103.783 66.3213 103.891 65.8893 103.891 65.4933C103.891 65.2053 103.819 64.8453 103.639 64.3773L96.6193 46.8093H100.363L105.727 61.1013L111.127 46.8093H114.871L106.951 66.6093C105.223 70.9293 103.207 72.6213 99.8953 72.6213C99.2833 72.6213 98.8513 72.5853 98.5273 72.5493ZM124.291 46.4493C129.511 46.4493 131.923 48.4653 131.923 52.9653V65.5293H128.539V62.6133H128.395C128.035 63.3333 127.351 64.0533 126.307 64.7733C125.263 65.5293 123.787 65.8893 121.843 65.8893C118.063 65.8893 115.507 64.1613 115.507 60.6693C115.507 57.3573 117.811 55.9173 121.843 55.3773L125.947 54.8733C127.639 54.6213 128.287 54.2973 128.287 53.7573V53.0733C128.287 50.1933 126.883 49.1853 124.147 49.1853C121.519 49.1853 120.079 50.0853 120.079 52.3893V52.7853H116.623V52.0653C116.623 48.3213 119.251 46.4493 124.291 46.4493ZM128.287 58.5813V56.6373C128.035 56.9973 127.315 57.2493 126.163 57.3933L122.707 57.8613C120.079 58.1853 119.143 58.9773 119.143 60.4533C119.143 62.1453 120.367 63.0453 122.491 63.0453C126.307 63.0453 128.287 60.1653 128.287 58.5813ZM135.954 65.5293V40.3293H139.59V65.5293H135.954ZM151.61 62.8293H153.014V65.6733C152.474 65.7453 151.718 65.7813 150.674 65.7813C147.398 65.7813 145.418 64.2693 145.418 60.7773V49.6533H142.358V46.8093H145.418V42.0933H149.054V46.8093H152.762V49.6533H149.054V60.1653C149.054 62.0373 149.774 62.8293 151.61 62.8293ZM156.605 72.5493V69.4173C156.893 69.4533 157.289 69.4893 157.757 69.4893C159.881 69.4893 160.961 68.5533 161.645 66.8613C161.861 66.3213 161.969 65.8893 161.969 65.4933C161.969 65.2053 161.897 64.8453 161.717 64.3773L154.697 46.8093H158.441L163.805 61.1013L169.205 46.8093H172.949L165.029 66.6093C163.301 70.9293 161.285 72.6213 157.973 72.6213C157.361 72.6213 156.929 72.5853 156.605 72.5493Z" fill="white"/>
<path d="M80.854 105L73.765 101.498V100.325L80.854 96.823V98.013L74.836 100.92L80.854 103.81V105ZM87.1322 105.119V103.98C87.3192 103.997 87.4382 104.014 87.5232 104.014C88.4752 104.014 88.9852 103.538 89.3762 102.603C89.4952 102.28 89.5632 102.025 89.5632 101.821C89.5632 101.634 89.5122 101.447 89.4272 101.226L86.0102 93.1H87.3702L90.2772 100.308L93.2012 93.1H94.5612L90.5662 102.671C89.8352 104.388 88.9342 105.153 87.6422 105.153C87.5232 105.153 87.3532 105.136 87.1322 105.119ZM99.2633 105.153C96.9003 105.153 95.5913 103.946 95.5913 102.025H96.6963C96.6963 103.317 97.6653 104.218 99.2973 104.218C100.725 104.218 101.694 103.521 101.694 102.45C101.694 101.294 100.589 100.682 98.8723 100.699V99.968C100.487 99.951 101.32 99.356 101.32 98.455C101.32 97.571 100.47 96.959 99.2633 96.959C97.9203 96.959 97.0703 97.707 97.0703 98.744H95.9483C95.9483 97.112 97.1723 96.041 99.2633 96.041C101.218 96.041 102.442 96.993 102.442 98.353C102.442 99.322 101.779 100.019 100.674 100.274C101.881 100.461 102.884 101.226 102.884 102.535C102.884 103.334 102.544 103.98 101.881 104.439C101.201 104.915 100.334 105.153 99.2633 105.153ZM104.533 105V96.16H105.74V99.917H110.262V96.16H111.469V105H110.262V100.903H105.74V105H104.533ZM120.486 98.999V103.725C120.486 104.099 120.656 104.286 120.996 104.269V105.017C120.894 105.068 120.741 105.102 120.52 105.102C119.789 105.102 119.347 104.762 119.347 104.099V103.47H119.296C119.007 104.048 117.936 105.17 115.913 105.17C114.145 105.17 113.023 104.354 113.023 102.79C113.023 101.345 114.009 100.58 115.998 100.308L117.936 100.053C118.837 99.934 119.279 99.73 119.279 99.475V98.999C119.279 97.503 118.531 96.925 116.984 96.925C115.471 96.925 114.723 97.486 114.723 98.642V98.829H113.567V98.557C113.567 96.84 114.808 95.99 117.035 95.99C119.364 95.99 120.486 96.891 120.486 98.999ZM119.279 101.906V100.444C119.245 100.665 118.837 100.818 118.038 100.92L116.253 101.175C114.757 101.379 114.23 101.889 114.23 102.722C114.23 103.742 114.978 104.201 116.134 104.201C118.157 104.252 119.296 102.637 119.279 101.906ZM121.754 96.16H128.69V97.146H125.817V105H124.61V97.146H121.754V96.16ZM130.182 96.16H131.389V99.407H134.177C136.37 99.407 137.543 100.427 137.543 102.212C137.543 103.997 136.37 105 134.177 105H130.182V96.16ZM131.389 104.014H134.109C135.69 104.014 136.387 103.351 136.387 102.212C136.387 101.005 135.622 100.393 134.109 100.393H131.389V104.014ZM150.852 105H149.475L145.82 100.801L144.222 102.467V105H143.015V96.16H144.222V101.039L148.88 96.16H150.291L146.585 100.019L150.852 105ZM158.786 98.999V103.725C158.786 104.099 158.956 104.286 159.296 104.269V105.017C159.194 105.068 159.041 105.102 158.82 105.102C158.089 105.102 157.647 104.762 157.647 104.099V103.47H157.596C157.307 104.048 156.236 105.17 154.213 105.17C152.445 105.17 151.323 104.354 151.323 102.79C151.323 101.345 152.309 100.58 154.298 100.308L156.236 100.053C157.137 99.934 157.579 99.73 157.579 99.475V98.999C157.579 97.503 156.831 96.925 155.284 96.925C153.771 96.925 153.023 97.486 153.023 98.642V98.829H151.867V98.557C151.867 96.84 153.108 95.99 155.335 95.99C157.664 95.99 158.786 96.891 158.786 98.999ZM157.579 101.906V100.444C157.545 100.665 157.137 100.818 156.338 100.92L154.553 101.175C153.057 101.379 152.53 101.889 152.53 102.722C152.53 103.742 153.278 104.201 154.434 104.201C156.457 104.252 157.596 102.637 157.579 101.906ZM168.533 105H167.156L163.501 100.801L161.903 102.467V105H160.696V96.16H161.903V101.039L166.561 96.16H167.972L164.266 100.019L168.533 105Z" fill="#009245"/>
</svg>
