<svg width="236" height="112" fill="none" xmlns="http://www.w3.org/2000/svg"><path d="M6.974 10.23c2.794 0 5.17 1.98 5.17 5.94 0 3.96-2.376 5.94-5.17 5.94-1.76 0-3.322-.77-4.136-2.177v6.138H1.276V10.45h1.562v1.958C3.652 11 5.214 10.23 6.974 10.23zm-.242 10.56c2.09 0 3.938-1.583 3.938-4.62 0-3.035-1.848-4.62-3.938-4.62s-3.96 1.585-3.96 4.62c0 3.037 1.87 4.62 3.96 4.62zm16.543-6.665v6.116c0 .484.22.726.66.704v.968c-.132.066-.33.11-.616.11-.946 0-1.518-.44-1.518-1.298v-.814h-.066c-.374.748-1.76 2.2-4.378 2.2-2.288 0-3.74-1.056-3.74-3.08 0-1.87 1.276-2.86 3.85-3.212l2.508-.33c1.166-.154 1.738-.418 1.738-.748v-.616c0-1.936-.968-2.684-2.97-2.684-1.958 0-2.926.726-2.926 2.222v.242H14.32v-.352c0-2.222 1.606-3.322 4.488-3.322 3.014 0 4.466 1.166 4.466 3.894zm-1.562 3.762v-1.892c-.044.286-.572.484-1.606.616l-2.31.33c-1.936.264-2.618.924-2.618 2.002 0 1.32.968 1.914 2.464 1.914 2.618.066 4.092-2.024 4.07-2.97zm8.876 4.224c-3.036 0-5.5-2.002-5.5-5.918 0-3.96 2.464-5.962 5.5-5.962 1.188 0 2.244.308 3.168.946.902.638 1.452 1.672 1.65 3.102H34c-.33-1.87-1.738-2.728-3.432-2.728-2.354 0-3.96 1.65-3.96 4.642 0 2.926 1.606 4.598 3.96 4.598 1.694 0 3.102-.858 3.432-2.772h1.408c-.176 1.452-.726 2.486-1.628 3.124-.924.638-1.98.968-3.19.968zm6.76-.22V10.45h9.107v11.44h-1.562V11.727H38.91V21.89h-1.562zm16.615.22c-2.926 0-5.478-2.024-5.478-5.94 0-3.916 2.552-5.94 5.478-5.94 2.904 0 5.456 2.024 5.456 5.94 0 3.916-2.552 5.94-5.456 5.94zm0-1.32c2.112 0 3.96-1.54 3.96-4.62s-1.848-4.62-3.96-4.62c-2.156 0-3.96 1.54-3.96 4.62s1.804 4.62 3.96 4.62zM60.078 22v-1.276c1.76.022 2.728-.88 2.728-3.63V10.45h8.668v11.44h-1.54l-.022-10.164h-5.544v5.434c0 3.63-1.562 5.016-4.29 4.84zm18.872.11c-2.926 0-5.478-2.024-5.478-5.94 0-3.916 2.552-5.94 5.478-5.94 2.904 0 5.456 2.024 5.456 5.94 0 3.916-2.552 5.94-5.456 5.94zm0-1.32c2.112 0 3.96-1.54 3.96-4.62s-1.848-4.62-3.96-4.62c-2.156 0-3.96 1.54-3.96 4.62s1.804 4.62 3.96 4.62zm15.363-4.686l5.808 5.786h-1.936l-4.994-5.038v5.038h-1.562v-5.06l-5.016 5.06h-1.936l5.808-5.786-5.61-5.654h1.936l4.818 4.906V10.45h1.562v4.884l4.796-4.884h1.936l-5.61 5.654zm7.359 5.786V10.45h1.562v9.394h.066l6.754-9.394h1.738v11.44h-1.562v-9.35h-.044l-6.71 9.35h-1.804zm12.06-11.44h8.976v1.276h-3.718V21.89h-1.562V11.727h-3.696V10.45zm10.907 0h1.562v4.202h3.608c2.838 0 4.356 1.32 4.356 3.63 0 2.31-1.518 3.608-4.356 3.608h-5.17V10.45zm1.562 10.164h3.52c2.046 0 2.948-.858 2.948-2.332 0-1.562-.99-2.354-2.948-2.354h-3.52v4.686zm25.188 1.276h-1.782l-4.73-5.434-2.068 2.156v3.278h-1.562V10.45h1.562v6.314l6.028-6.314h1.826l-4.796 4.994 5.522 6.446zm.642.11v-1.276c1.76.022 2.728-.88 2.728-3.63V10.45h8.668v11.44h-1.54l-.022-10.164h-5.544v5.434c0 3.63-1.562 5.016-4.29 4.84zm13.944-.11V10.45h1.562v9.394h.066l6.754-9.394h1.738v11.44h-1.562v-9.35h-.044l-6.71 9.35h-1.804zm22.488-6.05c0 .33-.022.594-.066.792h-8.778c.11 2.816 1.496 4.246 3.96 4.246 1.694 0 2.794-.704 3.3-2.112h1.43c-.726 2.376-2.508 3.366-4.796 3.366-3.278 0-5.412-2.046-5.412-5.918 0-4.048 2.332-5.984 5.302-5.984 3.058 0 5.06 1.98 5.06 5.61zm-8.822-.352h7.326c-.022-2.574-1.386-4.004-3.586-4.004-2.134 0-3.63 1.386-3.74 4.004zm10.826 6.402V10.45h1.562v4.862h5.852V10.45h1.562v11.44h-1.562v-5.302h-5.852v5.302h-1.562zm10.922-11.44h8.976v1.276h-3.718V21.89h-1.562V11.727h-3.696V10.45zm15.405 11.66c-2.926 0-5.478-2.024-5.478-5.94 0-3.916 2.552-5.94 5.478-5.94 2.904 0 5.456 2.024 5.456 5.94 0 3.916-2.552 5.94-5.456 5.94zm0-1.32c2.112 0 3.96-1.54 3.96-4.62s-1.848-4.62-3.96-4.62c-2.156 0-3.96 1.54-3.96 4.62s1.804 4.62 3.96 4.62zm7.49-10.34h5.478c2.354 0 3.696 1.034 3.696 2.772 0 1.166-.55 1.936-1.65 2.354 1.694.44 2.508 1.54 2.508 3.036 0 2.112-1.584 3.278-4.554 3.278h-5.478V10.45zm1.562 4.752h3.74c1.606 0 2.42-.572 2.42-1.716 0-1.122-.814-1.694-2.442-1.694h-3.718v3.41zm0 5.346h3.74c2.354 0 3.19-.792 3.19-2.09 0-1.32-.88-2.222-3.168-2.222h-3.762v4.312zM60.016 65.53v-25.2h3.744v21.923h12.492v3.276H60.016zm26.84.36c-4.823 0-9.107-3.24-9.107-9.72s4.284-9.72 9.108-9.72c4.86 0 9.144 3.24 9.144 9.72s-4.284 9.72-9.144 9.72zm0-3.06c3.277 0 5.689-2.305 5.689-6.66 0-4.357-2.412-6.66-5.688-6.66s-5.652 2.303-5.652 6.66c0 4.355 2.376 6.66 5.652 6.66zm11.671 9.72v-3.133c.288.036.684.072 1.152.072 2.124 0 3.204-.936 3.888-2.628.216-.54.324-.972.324-1.368 0-.288-.072-.648-.252-1.116l-7.02-17.568h3.744l5.364 14.292 5.4-14.292h3.744l-7.92 19.8c-1.728 4.32-3.744 6.012-7.056 6.012-.612 0-1.044-.036-1.368-.072zm25.764-26.1c5.22 0 7.632 2.015 7.632 6.515V65.53h-3.384v-2.916h-.144c-.36.72-1.044 1.44-2.088 2.16-1.044.756-2.52 1.116-4.464 1.116-3.78 0-6.336-1.728-6.336-5.22 0-3.312 2.304-4.752 6.336-5.292l4.104-.504c1.692-.252 2.34-.576 2.34-1.116v-.684c0-2.88-1.404-3.888-4.14-3.888-2.628 0-4.068.9-4.068 3.204v.396h-3.456v-.72c0-3.744 2.628-5.616 7.668-5.616zm3.996 12.131v-1.944c-.252.36-.972.612-2.124.756l-3.456.468c-2.628.324-3.564 1.116-3.564 2.592 0 1.692 1.224 2.592 3.348 2.592 3.816 0 5.796-2.88 5.796-4.464zm7.667 6.948v-25.2h3.636v25.2h-3.636zm15.656-2.7h1.404v2.844c-.54.072-1.296.108-2.34.108-3.276 0-5.256-1.512-5.256-5.004V49.653h-3.06V46.81h3.06v-4.716h3.636v4.716h3.708v2.844h-3.708v10.512c0 1.872.72 2.664 2.556 2.664zm4.995 9.72v-3.132c.288.036.684.072 1.152.072 2.124 0 3.204-.936 3.888-2.628.216-.54.324-.972.324-1.368 0-.288-.072-.648-.252-1.116l-7.02-17.568h3.744l5.364 14.292 5.4-14.292h3.744l-7.92 19.8c-1.728 4.32-3.744 6.012-7.056 6.012-.612 0-1.044-.036-1.368-.072z" fill="#fff"/><path d="M80.854 105l-7.089-3.502v-1.173l7.089-3.502v1.19l-6.018 2.907 6.018 2.89V105zm6.278.119v-1.139c.187.017.306.034.391.034.952 0 1.462-.476 1.853-1.411.12-.323.187-.578.187-.782 0-.187-.05-.374-.136-.595L86.01 93.1h1.36l2.907 7.208 2.924-7.208h1.36l-3.995 9.571c-.73 1.717-1.632 2.482-2.924 2.482-.119 0-.289-.017-.51-.034zm12.131.034c-2.363 0-3.672-1.207-3.672-3.128h1.105c0 1.292.97 2.193 2.601 2.193 1.428 0 2.397-.697 2.397-1.768 0-1.156-1.105-1.768-2.822-1.751v-.731c1.615-.017 2.448-.612 2.448-1.513 0-.884-.85-1.496-2.057-1.496-1.343 0-2.193.748-2.193 1.785h-1.122c0-1.632 1.224-2.703 3.315-2.703 1.955 0 3.179.952 3.179 2.312 0 .969-.663 1.666-1.768 1.921 1.207.187 2.21.952 2.21 2.261 0 .799-.34 1.445-1.003 1.904-.68.476-1.547.714-2.618.714zm5.27-.153v-8.84h1.207v3.757h4.522V96.16h1.207V105h-1.207v-4.097h-4.522V105h-1.207zm15.953-6.001v4.726c0 .374.17.561.51.544v.748c-.102.051-.255.085-.476.085-.731 0-1.173-.34-1.173-1.003v-.629h-.051c-.289.578-1.36 1.7-3.383 1.7-1.768 0-2.89-.816-2.89-2.38 0-1.445.986-2.21 2.975-2.482l1.938-.255c.901-.119 1.343-.323 1.343-.578v-.476c0-1.496-.748-2.074-2.295-2.074-1.513 0-2.261.561-2.261 1.717v.187h-1.156v-.272c0-1.717 1.241-2.567 3.468-2.567 2.329 0 3.451.901 3.451 3.009zm-1.207 2.907v-1.462c-.034.221-.442.374-1.241.476l-1.785.255c-1.496.204-2.023.714-2.023 1.547 0 1.02.748 1.479 1.904 1.479 2.023.051 3.162-1.564 3.145-2.295zm2.475-5.746h6.936v.986h-2.873V105h-1.207v-7.854h-2.856v-.986zm8.428 0h1.207v3.247h2.788c2.193 0 3.366 1.02 3.366 2.805 0 1.785-1.173 2.788-3.366 2.788h-3.995v-8.84zm1.207 7.854h2.72c1.581 0 2.278-.663 2.278-1.802 0-1.207-.765-1.819-2.278-1.819h-2.72v3.621zm19.463.986h-1.377l-3.655-4.199-1.598 1.666V105h-1.207v-8.84h1.207v4.879l4.658-4.879h1.411l-3.706 3.859 4.267 4.981zm7.934-6.001v4.726c0 .374.17.561.51.544v.748c-.102.051-.255.085-.476.085-.731 0-1.173-.34-1.173-1.003v-.629h-.051c-.289.578-1.36 1.7-3.383 1.7-1.768 0-2.89-.816-2.89-2.38 0-1.445.986-2.21 2.975-2.482l1.938-.255c.901-.119 1.343-.323 1.343-.578v-.476c0-1.496-.748-2.074-2.295-2.074-1.513 0-2.261.561-2.261 1.717v.187h-1.156v-.272c0-1.717 1.241-2.567 3.468-2.567 2.329 0 3.451.901 3.451 3.009zm-1.207 2.907v-1.462c-.034.221-.442.374-1.241.476l-1.785.255c-1.496.204-2.023.714-2.023 1.547 0 1.02.748 1.479 1.904 1.479 2.023.051 3.162-1.564 3.145-2.295zM168.533 105h-1.377l-3.655-4.199-1.598 1.666V105h-1.207v-8.84h1.207v4.879l4.658-4.879h1.411l-3.706 3.859 4.267 4.981z" fill="#009245"/></svg>