<svg width="247" height="112" viewBox="0 0 247 112" fill="none" xmlns="http://www.w3.org/2000/svg">
<path d="M6.204 21.9095C3.278 21.9095 0.726 19.8855 0.726 15.9695C0.726 12.0535 3.278 10.0295 6.204 10.0295C9.108 10.0295 11.66 12.0535 11.66 15.9695C11.66 19.8855 9.108 21.9095 6.204 21.9095ZM6.204 20.5895C8.316 20.5895 10.164 19.0495 10.164 15.9695C10.164 12.8895 8.316 11.3495 6.204 11.3495C4.048 11.3495 2.244 12.8895 2.244 15.9695C2.244 19.0495 4.048 20.5895 6.204 20.5895ZM18.622 21.8875C15.916 21.8875 13.364 19.8635 13.364 15.3975V11.3495C13.386 8.00545 15.058 6.28945 18.204 6.28945H19.832C20.778 6.28945 21.196 6.13545 21.526 5.80545H23.022C22.428 7.12545 21.636 7.56545 19.766 7.56545H18.204C16.114 7.56545 14.86 8.79745 14.86 10.7555V12.5375C15.542 10.9755 17.17 10.1395 18.842 10.1395C21.438 10.1395 23.88 12.0975 23.88 15.9915C23.88 19.9515 21.262 21.8875 18.622 21.8875ZM18.622 20.5675C20.624 20.5675 22.406 19.0495 22.406 15.9915C22.406 12.9115 20.624 11.4155 18.622 11.4155C16.642 11.4155 14.882 12.9115 14.882 15.9915C14.882 19.0275 16.664 20.5675 18.622 20.5675ZM35.795 15.6395C35.795 15.9695 35.773 16.2335 35.729 16.4315H26.951C27.061 19.2475 28.447 20.6775 30.911 20.6775C32.605 20.6775 33.705 19.9735 34.211 18.5655H35.641C34.915 20.9415 33.133 21.9315 30.845 21.9315C27.567 21.9315 25.433 19.8855 25.433 16.0135C25.433 11.9655 27.765 10.0295 30.735 10.0295C33.793 10.0295 35.795 12.0095 35.795 15.6395ZM26.973 15.2875H34.299C34.277 12.7135 32.913 11.2835 30.713 11.2835C28.579 11.2835 27.083 12.6695 26.973 15.2875ZM42.8569 21.9095C39.8209 21.9095 37.3569 19.9075 37.3569 15.9915C37.3569 12.0315 39.8209 10.0295 42.8569 10.0295C44.0449 10.0295 45.1009 10.3375 46.0249 10.9755C46.9269 11.6135 47.4769 12.6475 47.6749 14.0775H46.2669C45.9369 12.2075 44.5289 11.3495 42.8349 11.3495C40.4809 11.3495 38.8749 12.9995 38.8749 15.9915C38.8749 18.9175 40.4809 20.5895 42.8349 20.5895C44.5289 20.5895 45.9369 19.7315 46.2669 17.8175H47.6749C47.4989 19.2695 46.9489 20.3035 46.0469 20.9415C45.1229 21.5795 44.0669 21.9095 42.8569 21.9095ZM49.6158 21.6895V10.2495H58.7238V21.6895H57.1618V11.5255H51.1778V21.6895H49.6158ZM71.1153 15.6395C71.1153 15.9695 71.0933 16.2335 71.0493 16.4315H62.2713C62.3813 19.2475 63.7673 20.6775 66.2313 20.6775C67.9253 20.6775 69.0253 19.9735 69.5313 18.5655H70.9613C70.2353 20.9415 68.4533 21.9315 66.1653 21.9315C62.8873 21.9315 60.7533 19.8855 60.7533 16.0135C60.7533 11.9655 63.0853 10.0295 66.0553 10.0295C69.1133 10.0295 71.1153 12.0095 71.1153 15.6395ZM62.2933 15.2875H69.6193C69.5973 12.7135 68.2333 11.2835 66.0333 11.2835C63.8993 11.2835 62.4033 12.6695 62.2933 15.2875ZM80.7758 10.2495H82.3378V21.6895H80.7758V16.1895C80.5118 17.0915 78.9938 18.6975 76.5518 18.6975C74.1978 18.6975 72.5697 17.3555 72.5697 14.3635V10.2495H74.1318V14.1875C74.1318 16.4095 75.2978 17.3555 77.0358 17.3555C79.3238 17.3555 80.7758 15.6175 80.7758 14.1875V10.2495ZM84.8932 21.6895V10.2495H86.4552V19.6435H86.5212L93.2752 10.2495H95.0132V21.6895H93.4512V12.3395H93.4072L86.6972 21.6895H84.8932ZM96.953 10.2495H105.929V11.5255H102.211V21.6895H100.649V11.5255H96.953V10.2495ZM107.86 10.2495H109.422V14.4515H113.03C115.868 14.4515 117.386 15.7715 117.386 18.0815C117.386 20.3915 115.868 21.6895 113.03 21.6895H107.86V10.2495ZM109.422 20.4135H112.942C114.988 20.4135 115.89 19.5555 115.89 18.0815C115.89 16.5195 114.9 15.7275 112.942 15.7275H109.422V20.4135ZM134.697 20.4135H135.445V23.1415H134.015V21.6895H125.127V23.1415H123.697V20.4135H124.423C125.061 19.6435 125.325 18.3235 125.413 16.5415C125.435 15.6395 125.457 14.3635 125.457 12.6695V10.2495H134.697V20.4135ZM125.963 20.4135H133.135V11.5255H127.019V12.6695C127.019 14.3635 126.997 15.6395 126.975 16.5415C126.931 17.4435 126.843 18.2135 126.689 18.8515C126.535 19.5115 126.293 20.0395 125.963 20.4135ZM137.229 21.6895V10.2495H138.791V19.6435H138.857L145.611 10.2495H147.349V21.6895H145.787V12.3395H145.743L139.033 21.6895H137.229ZM154.855 21.9095C151.819 21.9095 149.355 19.9075 149.355 15.9915C149.355 12.0315 151.819 10.0295 154.855 10.0295C156.043 10.0295 157.099 10.3375 158.023 10.9755C158.925 11.6135 159.475 12.6475 159.673 14.0775H158.265C157.935 12.2075 156.527 11.3495 154.833 11.3495C152.479 11.3495 150.873 12.9995 150.873 15.9915C150.873 18.9175 152.479 20.5895 154.833 20.5895C156.527 20.5895 157.935 19.7315 158.265 17.8175H159.673C159.497 19.2695 158.947 20.3035 158.045 20.9415C157.121 21.5795 156.065 21.9095 154.855 21.9095ZM170.722 10.2495V20.4135H171.602V24.7695H170.106V21.6895H161.614V10.2495H163.176V20.4135H169.16V10.2495H170.722ZM174.161 21.6895V10.2495H175.723V19.6435H175.789L182.543 10.2495H184.281V21.6895H182.719V12.3395H182.675L175.965 21.6895H174.161ZM186.837 21.6895V10.2495H195.945V21.6895H194.383V11.5255H188.399V21.6895H186.837ZM197.578 21.7995V20.5235C199.338 20.5455 200.306 19.6435 200.306 16.8935V10.2495H208.974V21.6895H207.434L207.412 11.5255H201.868V16.9595C201.868 20.5895 200.306 21.9755 197.578 21.7995ZM211.522 21.6895V10.2495H213.084V19.6435H213.15L219.904 10.2495H221.642V21.6895H220.08V12.3395H220.036L213.326 21.6895H211.522ZM224.198 21.6895V10.2495H225.76V15.1115H231.612V10.2495H233.174V21.6895H231.612V16.3875H225.76V21.6895H224.198ZM236.153 25.8915V24.5275C236.439 24.5495 236.659 24.5715 236.769 24.5715C237.979 24.5715 238.727 23.9335 239.233 22.6795C239.365 22.3275 239.431 22.0195 239.431 21.7775C239.431 21.6235 239.387 21.4255 239.321 21.2055L234.965 10.2495H236.593L240.289 19.8855L243.963 10.2495H245.591L240.619 22.7455C239.717 24.9455 238.551 25.9355 236.857 25.9355C236.549 25.9355 236.307 25.9135 236.153 25.8915Z" fill="#1A1A1A"/>
<path d="M76.676 65V43.076H68.936V39.8H88.16V43.076H80.42V65H76.676ZM92.9098 43.04C91.7578 43.04 90.7498 42.068 90.7498 40.916C90.7498 39.764 91.7578 38.792 92.9098 38.792C94.0618 38.792 95.0698 39.764 95.0698 40.916C95.0698 42.068 94.0618 43.04 92.9098 43.04ZM91.1098 65V46.28H94.7458V65H91.1098ZM120.302 45.92C124.19 45.92 126.674 48.296 126.674 53.336V65H123.038V54.164C123.038 50.708 121.706 48.98 119.006 48.98C116.306 48.98 114.542 50.888 114.542 54.164V65H110.906V54.164C110.906 50.816 109.574 48.98 106.874 48.98C104.174 48.98 102.41 50.888 102.41 54.164V65H98.7738V46.28H102.41V50.024H102.518C102.878 48.404 104.822 45.92 108.314 45.92C111.086 45.92 113.246 47.288 114.11 50.168C114.614 48.44 116.666 45.92 120.302 45.92ZM132.496 43.04C131.344 43.04 130.336 42.068 130.336 40.916C130.336 39.764 131.344 38.792 132.496 38.792C133.648 38.792 134.656 39.764 134.656 40.916C134.656 42.068 133.648 43.04 132.496 43.04ZM130.696 65V46.28H134.332V65H130.696ZM148.404 45.92C152.328 45.92 155.028 48.296 155.028 53.336V65H151.392V54.164C151.392 50.816 149.916 48.98 147 48.98C143.976 48.98 141.996 50.888 141.996 54.164V65H138.36V46.28H141.996V50.024H142.104C142.464 48.404 144.516 45.92 148.404 45.92ZM172.567 46.28H176.203V64.604C176.203 67.52 175.303 69.572 173.467 70.76C171.631 71.948 169.507 72.524 167.023 72.524C164.791 72.524 162.847 72.056 161.227 71.12C159.571 70.184 158.743 68.636 158.707 66.476H161.911C162.019 68.492 164.179 69.68 166.951 69.68C170.263 69.68 172.567 68.024 172.567 64.604V61.472C171.379 63.38 169.003 64.568 166.303 64.568C161.983 64.568 158.167 61.652 158.167 55.244C158.167 48.836 162.055 45.92 166.303 45.92C169.003 45.92 171.379 47.108 172.567 49.016V46.28ZM167.167 61.544C170.155 61.544 172.747 59.384 172.747 55.244C172.747 51.104 170.155 48.98 167.167 48.98C164.035 48.98 161.587 51.176 161.587 55.244C161.587 59.312 164.035 61.544 167.167 61.544Z" fill="black"/>
<path d="M77.598 104.158V103.019C77.785 103.036 77.904 103.053 77.989 103.053C78.941 103.053 79.451 102.577 79.842 101.642C79.961 101.319 80.029 101.064 80.029 100.86C80.029 100.673 79.978 100.486 79.893 100.265L76.476 92.1391H77.836L80.743 99.3471L83.667 92.1391H85.027L81.032 101.71C80.301 103.427 79.4 104.192 78.108 104.192C77.989 104.192 77.819 104.175 77.598 104.158ZM89.7291 104.192C87.3661 104.192 86.0571 102.985 86.0571 101.064H87.1621C87.1621 102.356 88.1311 103.257 89.7631 103.257C91.1911 103.257 92.1601 102.56 92.1601 101.489C92.1601 100.333 91.0551 99.7211 89.3381 99.7381V99.0071C90.9531 98.9901 91.7861 98.3951 91.7861 97.4941C91.7861 96.6101 90.9361 95.9981 89.7291 95.9981C88.3861 95.9981 87.5361 96.7461 87.5361 97.7831H86.4141C86.4141 96.1511 87.6381 95.0801 89.7291 95.0801C91.6841 95.0801 92.9081 96.0321 92.9081 97.3921C92.9081 98.3611 92.2451 99.0581 91.1401 99.3131C92.3471 99.5001 93.3501 100.265 93.3501 101.574C93.3501 102.373 93.0101 103.019 92.3471 103.478C91.6671 103.954 90.8001 104.192 89.7291 104.192ZM94.9987 104.039V95.1991H96.2057V98.9561H100.728V95.1991H101.935V104.039H100.728V99.9421H96.2057V104.039H94.9987ZM110.952 98.0381V102.764C110.952 103.138 111.122 103.325 111.462 103.308V104.056C111.36 104.107 111.207 104.141 110.986 104.141C110.255 104.141 109.813 103.801 109.813 103.138V102.509H109.762C109.473 103.087 108.402 104.209 106.379 104.209C104.611 104.209 103.489 103.393 103.489 101.829C103.489 100.384 104.475 99.6191 106.464 99.3471L108.402 99.0921C109.303 98.9731 109.745 98.7691 109.745 98.5141V98.0381C109.745 96.5421 108.997 95.9641 107.45 95.9641C105.937 95.9641 105.189 96.5251 105.189 97.6811V97.8681H104.033V97.5961C104.033 95.8791 105.274 95.0291 107.501 95.0291C109.83 95.0291 110.952 95.9301 110.952 98.0381ZM109.745 100.945V99.4831C109.711 99.7041 109.303 99.8571 108.504 99.9591L106.719 100.214C105.223 100.418 104.696 100.928 104.696 101.761C104.696 102.781 105.444 103.24 106.6 103.24C108.623 103.291 109.762 101.676 109.745 100.945ZM112.22 95.1991H119.156V96.1851H116.283V104.039H115.076V96.1851H112.22V95.1991ZM120.648 95.1991H121.855V98.4461H124.643C126.836 98.4461 128.009 99.4661 128.009 101.251C128.009 103.036 126.836 104.039 124.643 104.039H120.648V95.1991ZM121.855 103.053H124.575C126.156 103.053 126.853 102.39 126.853 101.251C126.853 100.044 126.088 99.4321 124.575 99.4321H121.855V103.053ZM141.318 104.039H139.941L136.286 99.8401L134.688 101.506V104.039H133.481V95.1991H134.688V100.078L139.346 95.1991H140.757L137.051 99.0581L141.318 104.039ZM149.252 98.0381V102.764C149.252 103.138 149.422 103.325 149.762 103.308V104.056C149.66 104.107 149.507 104.141 149.286 104.141C148.555 104.141 148.113 103.801 148.113 103.138V102.509H148.062C147.773 103.087 146.702 104.209 144.679 104.209C142.911 104.209 141.789 103.393 141.789 101.829C141.789 100.384 142.775 99.6191 144.764 99.3471L146.702 99.0921C147.603 98.9731 148.045 98.7691 148.045 98.5141V98.0381C148.045 96.5421 147.297 95.9641 145.75 95.9641C144.237 95.9641 143.489 96.5251 143.489 97.6811V97.8681H142.333V97.5961C142.333 95.8791 143.574 95.0291 145.801 95.0291C148.13 95.0291 149.252 95.9301 149.252 98.0381ZM148.045 100.945V99.4831C148.011 99.7041 147.603 99.8571 146.804 99.9591L145.019 100.214C143.523 100.418 142.996 100.928 142.996 101.761C142.996 102.781 143.744 103.24 144.9 103.24C146.923 103.291 148.062 101.676 148.045 100.945ZM158.999 104.039H157.622L153.967 99.8401L152.369 101.506V104.039H151.162V95.1991H152.369V100.078L157.027 95.1991H158.438L154.732 99.0581L158.999 104.039ZM163.923 104.039V102.849L169.941 99.9591L163.923 97.0521V95.8621L171.012 99.3641V100.537L163.923 104.039Z" fill="#009245"/>
</svg>
