<svg width="247" height="112" fill="none" xmlns="http://www.w3.org/2000/svg"><path d="M6.204 21.91c-2.926 0-5.478-2.024-5.478-5.94 0-3.917 2.552-5.94 5.478-5.94 2.904 0 5.456 2.024 5.456 5.94 0 3.915-2.552 5.94-5.456 5.94zm0-1.32c2.112 0 3.96-1.54 3.96-4.62s-1.848-4.62-3.96-4.62c-2.156 0-3.96 1.54-3.96 4.62s1.804 4.62 3.96 4.62zm12.418 1.297c-2.706 0-5.258-2.024-5.258-6.49V11.35c.022-3.345 1.694-5.06 4.84-5.06h1.628c.946 0 1.364-.155 1.694-.485h1.496c-.594 1.32-1.386 1.76-3.256 1.76h-1.562c-2.09 0-3.344 1.232-3.344 3.19v1.782c.682-1.562 2.31-2.398 3.982-2.398 2.596 0 5.038 1.959 5.038 5.853 0 3.96-2.618 5.895-5.258 5.895zm0-1.32c2.002 0 3.784-1.518 3.784-4.575 0-3.08-1.782-4.577-3.784-4.577-1.98 0-3.74 1.497-3.74 4.577 0 3.035 1.782 4.575 3.74 4.575zm17.173-4.928c0 .33-.022.595-.066.793h-8.778c.11 2.816 1.496 4.245 3.96 4.245 1.694 0 2.794-.703 3.3-2.111h1.43c-.726 2.376-2.508 3.366-4.796 3.366-3.278 0-5.412-2.046-5.412-5.918 0-4.048 2.332-5.984 5.302-5.984 3.058 0 5.06 1.98 5.06 5.61zm-8.822-.351h7.326c-.022-2.575-1.386-4.005-3.586-4.005-2.134 0-3.63 1.386-3.74 4.005zm15.884 6.622c-3.036 0-5.5-2.003-5.5-5.918 0-3.96 2.464-5.963 5.5-5.963 1.188 0 2.244.309 3.168.947.902.637 1.452 1.671 1.65 3.101h-1.408c-.33-1.87-1.738-2.727-3.432-2.727-2.354 0-3.96 1.65-3.96 4.642 0 2.925 1.606 4.598 3.96 4.598 1.694 0 3.102-.858 3.432-2.773h1.408c-.176 1.453-.726 2.486-1.628 3.125-.924.637-1.98.968-3.19.968zm6.759-.22V10.25h9.108v11.44h-1.562V11.524h-5.984V21.69h-1.562zm21.5-6.05c0 .33-.023.593-.067.791h-8.778c.11 2.816 1.496 4.246 3.96 4.246 1.694 0 2.794-.703 3.3-2.111h1.43c-.726 2.376-2.508 3.366-4.796 3.366-3.278 0-5.412-2.046-5.412-5.918 0-4.048 2.332-5.984 5.302-5.984 3.058 0 5.06 1.98 5.06 5.61zm-8.823-.353h7.326c-.022-2.574-1.386-4.004-3.586-4.004-2.134 0-3.63 1.386-3.74 4.005zm18.483-5.038h1.562v11.44h-1.562v-5.5c-.264.902-1.782 2.509-4.224 2.509-2.354 0-3.982-1.343-3.982-4.335V10.25h1.562v3.938c0 2.223 1.166 3.168 2.904 3.168 2.288 0 3.74-1.738 3.74-3.168V10.25zm4.117 11.44V10.25h1.562v9.394h.066l6.754-9.394h1.738v11.44h-1.562v-9.35h-.044l-6.71 9.35h-1.804zm12.06-11.44h8.976v1.276h-3.718V21.69h-1.562V11.525h-3.696V10.25zm10.907 0h1.562v4.202h3.608c2.838 0 4.356 1.32 4.356 3.63 0 2.31-1.518 3.608-4.356 3.608h-5.17V10.25zm1.562 10.164h3.52c2.046 0 2.948-.858 2.948-2.332 0-1.561-.99-2.354-2.948-2.354h-3.52v4.686zm25.275 0h.748v2.729h-1.43v-1.453h-8.888v1.453h-1.43v-2.729h.726c.638-.77.902-2.09.99-3.872.022-.902.044-2.178.044-3.872v-2.42h9.24v10.164zm-8.734 0h7.172v-8.888h-6.116v1.144c0 1.694-.022 2.97-.044 3.872-.044.902-.132 1.672-.286 2.31-.154.66-.396 1.189-.726 1.563zm11.266 1.276V10.25h1.562v9.394h.066l6.754-9.394h1.738v11.44h-1.562v-9.35h-.044l-6.71 9.35h-1.804zm17.626.22c-3.036 0-5.5-2.002-5.5-5.917 0-3.96 2.464-5.963 5.5-5.963 1.188 0 2.244.309 3.168.947.902.637 1.452 1.671 1.65 3.101h-1.408c-.33-1.87-1.738-2.727-3.432-2.727-2.354 0-3.96 1.65-3.96 4.642 0 2.925 1.606 4.598 3.96 4.598 1.694 0 3.102-.858 3.432-2.773h1.408c-.176 1.453-.726 2.486-1.628 3.125-.924.637-1.98.968-3.19.968zm15.867-11.66v10.164h.88v4.357h-1.496v-3.08h-8.492V10.25h1.562v10.163h5.984V10.25h1.562zm3.439 11.44V10.25h1.562v9.394h.066l6.754-9.394h1.738v11.44h-1.562v-9.35h-.044l-6.71 9.35h-1.804zm12.676 0V10.25h9.108v11.44h-1.562V11.525h-5.984V21.69h-1.562zm10.741.11v-1.276c1.76.023 2.728-.88 2.728-3.63V10.25h8.668v11.44h-1.54l-.022-10.164h-5.544v5.434c0 3.63-1.562 5.017-4.29 4.84zm13.944-.11V10.25h1.562v9.394h.066l6.754-9.394h1.738v11.44h-1.562v-9.35h-.044l-6.71 9.35h-1.804zm12.676 0V10.25h1.562v4.862h5.852V10.25h1.562v11.44h-1.562v-5.302h-5.852v5.302h-1.562zm11.955 4.203v-1.364c.286.021.506.044.616.044 1.21 0 1.958-.639 2.464-1.892.132-.352.198-.66.198-.902 0-.154-.044-.352-.11-.572l-4.356-10.957h1.628l3.696 9.636 3.674-9.636h1.628l-4.972 12.496c-.902 2.2-2.068 3.19-3.762 3.19-.308 0-.55-.021-.704-.043z" fill="#1A1A1A"/><path d="M76.676 65V43.076h-7.74V39.8H88.16v3.276h-7.74V65h-3.744zM92.91 43.04c-1.152 0-2.16-.972-2.16-2.124 0-1.152 1.008-2.124 2.16-2.124 1.152 0 2.16.972 2.16 2.124 0 1.152-1.008 2.124-2.16 2.124zM91.11 65V46.28h3.636V65H91.11zm29.192-19.08c3.888 0 6.372 2.376 6.372 7.416V65h-3.636V54.164c0-3.456-1.332-5.184-4.032-5.184s-4.464 1.908-4.464 5.184V65h-3.636V54.164c0-3.348-1.332-5.184-4.032-5.184s-4.464 1.908-4.464 5.184V65h-3.636V46.28h3.636v3.744h.108c.36-1.62 2.304-4.104 5.796-4.104 2.772 0 4.932 1.368 5.796 4.248.504-1.728 2.556-4.248 6.192-4.248zm12.194-2.88c-1.152 0-2.16-.972-2.16-2.124 0-1.152 1.008-2.124 2.16-2.124 1.152 0 2.16.972 2.16 2.124 0 1.152-1.008 2.124-2.16 2.124zm-1.8 21.96V46.28h3.636V65h-3.636zm17.708-19.08c3.924 0 6.624 2.376 6.624 7.416V65h-3.636V54.164c0-3.348-1.476-5.184-4.392-5.184-3.024 0-5.004 1.908-5.004 5.184V65h-3.636V46.28h3.636v3.744h.108c.36-1.62 2.412-4.104 6.3-4.104zm24.163.36h3.636v18.324c0 2.916-.9 4.968-2.736 6.156-1.836 1.188-3.96 1.764-6.444 1.764-2.232 0-4.176-.468-5.796-1.404-1.656-.936-2.484-2.484-2.52-4.644h3.204c.108 2.016 2.268 3.204 5.04 3.204 3.312 0 5.616-1.656 5.616-5.076v-3.132c-1.188 1.908-3.564 3.096-6.264 3.096-4.32 0-8.136-2.916-8.136-9.324 0-6.408 3.888-9.324 8.136-9.324 2.7 0 5.076 1.188 6.264 3.096V46.28zm-5.4 15.264c2.988 0 5.58-2.16 5.58-6.3s-2.592-6.264-5.58-6.264c-3.132 0-5.58 2.196-5.58 6.264s2.448 6.3 5.58 6.3z" fill="#000"/><path d="M77.598 104.158v-1.139c.187.017.306.034.391.034.952 0 1.462-.476 1.853-1.411.119-.323.187-.578.187-.782 0-.187-.051-.374-.136-.595l-3.417-8.126h1.36l2.907 7.208 2.924-7.208h1.36l-3.995 9.571c-.731 1.717-1.632 2.482-2.924 2.482-.119 0-.289-.017-.51-.034zm12.131.034c-2.363 0-3.672-1.207-3.672-3.128h1.105c0 1.292.97 2.193 2.601 2.193 1.428 0 2.397-.697 2.397-1.768 0-1.156-1.105-1.768-2.822-1.75v-.732c1.615-.017 2.448-.612 2.448-1.513 0-.884-.85-1.496-2.057-1.496-1.343 0-2.193.748-2.193 1.785h-1.122c0-1.632 1.224-2.703 3.315-2.703 1.955 0 3.18.952 3.18 2.312 0 .97-.664 1.666-1.769 1.921 1.207.187 2.21.952 2.21 2.261 0 .799-.34 1.445-1.003 1.904-.68.476-1.547.714-2.618.714zm5.27-.153v-8.84h1.207v3.757h4.522V95.2h1.207v8.84h-1.207v-4.097h-4.522v4.097h-1.207zm15.953-6v4.725c0 .374.17.561.51.544v.748c-.102.051-.255.085-.476.085-.731 0-1.173-.34-1.173-1.003v-.629h-.051c-.289.578-1.36 1.7-3.383 1.7-1.768 0-2.89-.816-2.89-2.38 0-1.445.986-2.21 2.975-2.482l1.938-.255c.901-.119 1.343-.323 1.343-.578v-.476c0-1.496-.748-2.074-2.295-2.074-1.513 0-2.261.561-2.261 1.717v.187h-1.156v-.272c0-1.717 1.241-2.567 3.468-2.567 2.329 0 3.451.901 3.451 3.01zm-1.207 2.906v-1.462c-.034.221-.442.374-1.241.476l-1.785.255c-1.496.204-2.023.714-2.023 1.547 0 1.02.748 1.479 1.904 1.479 2.023.051 3.162-1.564 3.145-2.295zm2.475-5.746h6.936v.986h-2.873v7.854h-1.207v-7.854h-2.856V95.2zm8.428 0h1.207v3.247h2.788c2.193 0 3.366 1.02 3.366 2.805 0 1.785-1.173 2.788-3.366 2.788h-3.995v-8.84zm1.207 7.854h2.72c1.581 0 2.278-.663 2.278-1.802 0-1.207-.765-1.819-2.278-1.819h-2.72v3.621zm19.463.986h-1.377l-3.655-4.199-1.598 1.666v2.533h-1.207v-8.84h1.207v4.879l4.658-4.879h1.411l-3.706 3.86 4.267 4.98zm7.934-6v4.725c0 .374.17.561.51.544v.748c-.102.051-.255.085-.476.085-.731 0-1.173-.34-1.173-1.003v-.629h-.051c-.289.578-1.36 1.7-3.383 1.7-1.768 0-2.89-.816-2.89-2.38 0-1.445.986-2.21 2.975-2.482l1.938-.255c.901-.119 1.343-.323 1.343-.578v-.476c0-1.496-.748-2.074-2.295-2.074-1.513 0-2.261.561-2.261 1.717v.187h-1.156v-.272c0-1.717 1.241-2.567 3.468-2.567 2.329 0 3.451.901 3.451 3.01zm-1.207 2.906v-1.462c-.034.221-.442.374-1.241.476l-1.785.255c-1.496.204-2.023.714-2.023 1.547 0 1.02.748 1.479 1.904 1.479 2.023.051 3.162-1.564 3.145-2.295zm10.954 3.094h-1.377l-3.655-4.199-1.598 1.666v2.533h-1.207v-8.84h1.207v4.879l4.658-4.879h1.411l-3.706 3.86 4.267 4.98zm4.924 0v-1.19l6.018-2.89-6.018-2.907v-1.19l7.089 3.502v1.173l-7.089 3.502z" fill="#009245"/></svg>