<svg width="226" height="111" viewBox="0 0 226 111" fill="none" xmlns="http://www.w3.org/2000/svg">
<path d="M33.9858 21.22C30.9498 21.22 28.4858 19.218 28.4858 15.302C28.4858 11.342 30.9498 9.34 33.9858 9.34C35.1738 9.34 36.2298 9.648 37.1538 10.286C38.0558 10.924 38.6058 11.958 38.8038 13.388H37.3958C37.0658 11.518 35.6578 10.66 33.9638 10.66C31.6098 10.66 30.0038 12.31 30.0038 15.302C30.0038 18.228 31.6098 19.9 33.9638 19.9C35.6578 19.9 37.0658 19.042 37.3958 17.128H38.8038C38.6278 18.58 38.0778 19.614 37.1758 20.252C36.2518 20.89 35.1958 21.22 33.9858 21.22ZM45.5653 21.22C42.6393 21.22 40.0873 19.196 40.0873 15.28C40.0873 11.364 42.6393 9.34 45.5653 9.34C48.4693 9.34 51.0213 11.364 51.0213 15.28C51.0213 19.196 48.4693 21.22 45.5653 21.22ZM45.5653 19.9C47.6773 19.9 49.5253 18.36 49.5253 15.28C49.5253 12.2 47.6773 10.66 45.5653 10.66C43.4093 10.66 41.6053 12.2 41.6053 15.28C41.6053 18.36 43.4093 19.9 45.5653 19.9ZM57.2573 21.198C54.1993 21.198 52.5053 19.636 52.5053 17.15H53.9353C53.9353 18.822 55.1893 19.988 57.3013 19.988C59.1493 19.988 60.4033 19.086 60.4033 17.7C60.4033 16.204 58.9733 15.412 56.7513 15.434V14.488C58.8413 14.466 59.9193 13.696 59.9193 12.53C59.9193 11.386 58.8193 10.594 57.2573 10.594C55.5193 10.594 54.4193 11.562 54.4193 12.904H52.9673C52.9673 10.792 54.5513 9.406 57.2573 9.406C59.7873 9.406 61.3713 10.638 61.3713 12.398C61.3713 13.652 60.5133 14.554 59.0833 14.884C60.6453 15.126 61.9433 16.116 61.9433 17.81C61.9433 18.844 61.5033 19.68 60.6453 20.274C59.7653 20.89 58.6433 21.198 57.2573 21.198ZM73.8771 19.724H74.6251V22.452H73.1951V21H64.3071V22.452H62.8771V19.724H63.6031C64.2411 18.954 64.5051 17.634 64.5931 15.852C64.6151 14.95 64.6371 13.674 64.6371 11.98V9.56H73.8771V19.724ZM65.1431 19.724H72.3151V10.836H66.1991V11.98C66.1991 13.674 66.1771 14.95 66.1551 15.852C66.1111 16.754 66.0231 17.524 65.8691 18.162C65.7151 18.822 65.4731 19.35 65.1431 19.724ZM85.5168 13.234V19.35C85.5168 19.834 85.7368 20.076 86.1768 20.054V21.022C86.0448 21.088 85.8468 21.132 85.5608 21.132C84.6148 21.132 84.0428 20.692 84.0428 19.834V19.02H83.9768C83.6028 19.768 82.2168 21.22 79.5988 21.22C77.3108 21.22 75.8588 20.164 75.8588 18.14C75.8588 16.27 77.1348 15.28 79.7088 14.928L82.2168 14.598C83.3828 14.444 83.9548 14.18 83.9548 13.85V13.234C83.9548 11.298 82.9868 10.55 80.9848 10.55C79.0268 10.55 78.0588 11.276 78.0588 12.772V13.014H76.5628V12.662C76.5628 10.44 78.1688 9.34 81.0508 9.34C84.0648 9.34 85.5168 10.506 85.5168 13.234ZM83.9548 16.996V15.104C83.9108 15.39 83.3828 15.588 82.3488 15.72L80.0388 16.05C78.1028 16.314 77.4208 16.974 77.4208 18.052C77.4208 19.372 78.3888 19.966 79.8848 19.966C82.5028 20.032 83.9768 17.942 83.9548 16.996ZM87.158 9.56H96.134V10.836H92.416V21H90.854V10.836H87.158V9.56ZM98.0651 9.56H99.6271V13.762H103.235C106.073 13.762 107.591 15.082 107.591 17.392C107.591 19.702 106.073 21 103.235 21H98.0651V9.56ZM99.6271 19.724H103.147C105.193 19.724 106.095 18.866 106.095 17.392C106.095 15.83 105.105 15.038 103.147 15.038H99.6271V19.724ZM124.814 21H123.032L118.302 15.566L116.234 17.722V21H114.672V9.56H116.234V15.874L122.262 9.56H124.088L119.292 14.554L124.814 21ZM130.558 21.22C127.632 21.22 125.08 19.196 125.08 15.28C125.08 11.364 127.632 9.34 130.558 9.34C133.462 9.34 136.014 11.364 136.014 15.28C136.014 19.196 133.462 21.22 130.558 21.22ZM130.558 19.9C132.67 19.9 134.518 18.36 134.518 15.28C134.518 12.2 132.67 10.66 130.558 10.66C128.402 10.66 126.598 12.2 126.598 15.28C126.598 18.36 128.402 19.9 130.558 19.9ZM138.047 21V9.56H139.785L144.405 19.24L149.025 9.56H150.763V21H149.201V12.376H149.113L145.065 21H143.745L139.697 12.376H139.609V21H138.047ZM162.431 13.234V19.35C162.431 19.834 162.651 20.076 163.091 20.054V21.022C162.959 21.088 162.761 21.132 162.475 21.132C161.529 21.132 160.957 20.692 160.957 19.834V19.02H160.891C160.517 19.768 159.131 21.22 156.513 21.22C154.225 21.22 152.773 20.164 152.773 18.14C152.773 16.27 154.049 15.28 156.623 14.928L159.131 14.598C160.297 14.444 160.869 14.18 160.869 13.85V13.234C160.869 11.298 159.901 10.55 157.899 10.55C155.941 10.55 154.973 11.276 154.973 12.772V13.014H153.477V12.662C153.477 10.44 155.083 9.34 157.965 9.34C160.979 9.34 162.431 10.506 162.431 13.234ZM160.869 16.996V15.104C160.825 15.39 160.297 15.588 159.263 15.72L156.953 16.05C155.017 16.314 154.335 16.974 154.335 18.052C154.335 19.372 155.303 19.966 156.799 19.966C159.417 20.032 160.891 17.942 160.869 16.996ZM164.903 21V9.56H166.465V14.422H172.317V9.56H173.879V21H172.317V15.698H166.465V21H164.903ZM186.67 19.724H187.418V22.452H185.988V21H177.1V22.452H175.67V19.724H176.396C177.034 18.954 177.298 17.634 177.386 15.852C177.408 14.95 177.43 13.674 177.43 11.98V9.56H186.67V19.724ZM177.936 19.724H185.108V10.836H178.992V11.98C178.992 13.674 178.97 14.95 178.948 15.852C178.904 16.754 178.816 17.524 178.662 18.162C178.508 18.822 178.266 19.35 177.936 19.724ZM189.62 25.202V23.838C189.906 23.86 190.126 23.882 190.236 23.882C191.446 23.882 192.194 23.244 192.7 21.99C192.832 21.638 192.898 21.33 192.898 21.088C192.898 20.934 192.854 20.736 192.788 20.516L188.432 9.56H190.06L193.756 19.196L197.43 9.56H199.058L194.086 22.056C193.184 24.256 192.018 25.246 190.324 25.246C190.016 25.246 189.774 25.224 189.62 25.202Z" fill="#1A1A1A"/>
<path d="M8.676 65.1992V43.2752H0.936V39.9992H20.16V43.2752H12.42V65.1992H8.676ZM36.0838 55.5512C36.0838 56.0552 36.0478 56.5232 35.9758 56.9192H22.1158C22.3678 60.8432 24.2758 62.7872 27.8398 62.7872C30.2518 62.7872 31.8358 61.8872 32.5918 59.7632H35.8318C34.7878 63.7592 31.7638 65.6312 27.7318 65.6312C25.0318 65.6312 22.8718 64.8032 21.1798 63.1832C19.4878 61.5632 18.6238 59.1152 18.6238 55.9112C18.6238 49.2152 22.5478 46.1192 27.5518 46.1192C32.6278 46.1192 36.0838 49.2512 36.0838 55.5512ZM22.1158 54.3272H32.6278C32.5198 50.9792 30.7198 48.9632 27.5158 48.9632C24.4558 48.9632 22.4398 50.7632 22.1158 54.3272ZM47.0953 46.1192C52.3153 46.1192 54.7273 48.1352 54.7273 52.6352V65.1992H51.3433V62.2832H51.1993C50.8393 63.0032 50.1553 63.7232 49.1113 64.4432C48.0673 65.1992 46.5913 65.5592 44.6473 65.5592C40.8673 65.5592 38.3113 63.8312 38.3113 60.3392C38.3113 57.0272 40.6153 55.5872 44.6473 55.0472L48.7513 54.5432C50.4433 54.2912 51.0913 53.9672 51.0913 53.4272V52.7432C51.0913 49.8632 49.6873 48.8552 46.9513 48.8552C44.3233 48.8552 42.8833 49.7552 42.8833 52.0592V52.4552H39.4273V51.7352C39.4273 47.9912 42.0553 46.1192 47.0953 46.1192ZM51.0913 58.2512V56.3072C50.8393 56.6672 50.1193 56.9192 48.9673 57.0632L45.5113 57.5312C42.8833 57.8552 41.9473 58.6472 41.9473 60.1232C41.9473 61.8152 43.1713 62.7152 45.2953 62.7152C49.1113 62.7152 51.0913 59.8352 51.0913 58.2512ZM80.462 46.1192C84.35 46.1192 86.834 48.4952 86.834 53.5352V65.1992H83.198V54.3632C83.198 50.9072 81.866 49.1792 79.166 49.1792C76.466 49.1792 74.702 51.0872 74.702 54.3632V65.1992H71.066V54.3632C71.066 51.0152 69.734 49.1792 67.034 49.1792C64.334 49.1792 62.57 51.0872 62.57 54.3632V65.1992H58.934V46.4792H62.57V50.2232H62.678C63.038 48.6032 64.982 46.1192 68.474 46.1192C71.246 46.1192 73.406 47.4872 74.27 50.3672C74.774 48.6392 76.826 46.1192 80.462 46.1192ZM109.053 46.1192C113.445 46.1192 117.405 49.2512 117.405 55.8392C117.405 62.3552 113.445 65.5592 109.053 65.5592C106.281 65.5592 103.905 64.2992 102.789 62.2472V65.1992H99.1527V39.9992H102.789V49.4312C103.905 47.3792 106.281 46.1192 109.053 46.1192ZM108.297 62.4992C111.321 62.4992 113.949 60.2672 113.949 55.8392C113.949 51.4112 111.321 49.1792 108.297 49.1792C105.273 49.1792 102.609 51.4112 102.609 55.8392C102.609 60.2672 105.273 62.4992 108.297 62.4992ZM133.56 46.4792H137.196V65.1992H133.56V61.4552H133.452C133.092 63.0752 131.04 65.5592 127.152 65.5592C123.228 65.5592 120.528 63.1832 120.528 58.1432V46.4792H124.164V57.3152C124.164 60.6632 125.64 62.4992 128.556 62.4992C131.58 62.4992 133.56 60.5912 133.56 57.3152V46.4792ZM143.035 43.2392C141.883 43.2392 140.875 42.2672 140.875 41.1152C140.875 39.9632 141.883 38.9912 143.035 38.9912C144.187 38.9912 145.195 39.9632 145.195 41.1152C145.195 42.2672 144.187 43.2392 143.035 43.2392ZM141.235 65.1992V46.4792H144.871V65.1992H141.235ZM148.899 65.1992V39.9992H152.535V65.1992H148.899ZM170.279 39.9992H173.915V65.1992H170.279V62.2472C169.163 64.2992 166.751 65.5592 164.015 65.5592C159.623 65.5592 155.663 62.3552 155.663 55.8392C155.663 49.2512 159.623 46.1192 164.015 46.1192C166.751 46.1192 169.163 47.3792 170.279 49.4312V39.9992ZM164.771 62.4992C167.795 62.4992 170.459 60.2672 170.459 55.8392C170.459 51.4112 167.795 49.1792 164.771 49.1792C161.747 49.1792 159.083 51.4112 159.083 55.8392C159.083 60.2672 161.747 62.4992 164.771 62.4992ZM179.738 43.2392C178.586 43.2392 177.578 42.2672 177.578 41.1152C177.578 39.9632 178.586 38.9912 179.738 38.9912C180.89 38.9912 181.898 39.9632 181.898 41.1152C181.898 42.2672 180.89 43.2392 179.738 43.2392ZM177.938 65.1992V46.4792H181.574V65.1992H177.938ZM195.646 46.1192C199.57 46.1192 202.27 48.4952 202.27 53.5352V65.1992H198.634V54.3632C198.634 51.0152 197.158 49.1792 194.242 49.1792C191.218 49.1792 189.238 51.0872 189.238 54.3632V65.1992H185.602V46.4792H189.238V50.2232H189.346C189.706 48.6032 191.758 46.1192 195.646 46.1192ZM219.809 46.4792H223.445V64.8032C223.445 67.7192 222.545 69.7712 220.709 70.9592C218.873 72.1472 216.749 72.7232 214.265 72.7232C212.033 72.7232 210.089 72.2552 208.469 71.3192C206.813 70.3832 205.985 68.8352 205.949 66.6752H209.153C209.261 68.6912 211.421 69.8792 214.193 69.8792C217.505 69.8792 219.809 68.2232 219.809 64.8032V61.6712C218.621 63.5792 216.245 64.7672 213.545 64.7672C209.225 64.7672 205.409 61.8512 205.409 55.4432C205.409 49.0352 209.297 46.1192 213.545 46.1192C216.245 46.1192 218.621 47.3072 219.809 49.2152V46.4792ZM214.409 61.7432C217.397 61.7432 219.989 59.5832 219.989 55.4432C219.989 51.3032 217.397 49.1792 214.409 49.1792C211.277 49.1792 208.829 51.3752 208.829 55.4432C208.829 59.5112 211.277 61.7432 214.409 61.7432Z" fill="black"/>
<path d="M67.854 103.93L60.765 100.428V99.2547L67.854 95.7527V96.9427L61.836 99.8497L67.854 102.74V103.93ZM74.1322 104.049V102.91C74.3192 102.927 74.4382 102.944 74.5232 102.944C75.4752 102.944 75.9852 102.468 76.3762 101.533C76.4952 101.21 76.5632 100.955 76.5632 100.751C76.5632 100.564 76.5122 100.377 76.4272 100.156L73.0102 92.0297H74.3702L77.2772 99.2377L80.2012 92.0297H81.5612L77.5662 101.601C76.8352 103.318 75.9342 104.083 74.6422 104.083C74.5232 104.083 74.3532 104.066 74.1322 104.049ZM86.2633 104.083C83.9003 104.083 82.5913 102.876 82.5913 100.955H83.6963C83.6963 102.247 84.6653 103.148 86.2973 103.148C87.7253 103.148 88.6943 102.451 88.6943 101.38C88.6943 100.224 87.5893 99.6117 85.8723 99.6287V98.8977C87.4873 98.8807 88.3203 98.2857 88.3203 97.3847C88.3203 96.5007 87.4703 95.8887 86.2633 95.8887C84.9203 95.8887 84.0703 96.6367 84.0703 97.6737H82.9483C82.9483 96.0417 84.1723 94.9707 86.2633 94.9707C88.2183 94.9707 89.4423 95.9227 89.4423 97.2827C89.4423 98.2517 88.7793 98.9487 87.6743 99.2037C88.8813 99.3907 89.8843 100.156 89.8843 101.465C89.8843 102.264 89.5443 102.91 88.8813 103.369C88.2013 103.845 87.3343 104.083 86.2633 104.083ZM91.5329 103.93V95.0897H92.7399V98.8467H97.2619V95.0897H98.4689V103.93H97.2619V99.8327H92.7399V103.93H91.5329ZM107.486 97.9287V102.655C107.486 103.029 107.656 103.216 107.996 103.199V103.947C107.894 103.998 107.741 104.032 107.52 104.032C106.789 104.032 106.347 103.692 106.347 103.029V102.4H106.296C106.007 102.978 104.936 104.1 102.913 104.1C101.145 104.1 100.023 103.284 100.023 101.72C100.023 100.275 101.009 99.5097 102.998 99.2377L104.936 98.9827C105.837 98.8637 106.279 98.6597 106.279 98.4047V97.9287C106.279 96.4327 105.531 95.8547 103.984 95.8547C102.471 95.8547 101.723 96.4157 101.723 97.5717V97.7587H100.567V97.4867C100.567 95.7697 101.808 94.9197 104.035 94.9197C106.364 94.9197 107.486 95.8207 107.486 97.9287ZM106.279 100.836V99.3737C106.245 99.5947 105.837 99.7477 105.038 99.8497L103.253 100.105C101.757 100.309 101.23 100.819 101.23 101.652C101.23 102.672 101.978 103.131 103.134 103.131C105.157 103.182 106.296 101.567 106.279 100.836ZM108.754 95.0897H115.69V96.0757H112.817V103.93H111.61V96.0757H108.754V95.0897ZM117.182 95.0897H118.389V98.3367H121.177C123.37 98.3367 124.543 99.3567 124.543 101.142C124.543 102.927 123.37 103.93 121.177 103.93H117.182V95.0897ZM118.389 102.944H121.109C122.69 102.944 123.387 102.281 123.387 101.142C123.387 99.9347 122.622 99.3227 121.109 99.3227H118.389V102.944ZM137.852 103.93H136.475L132.82 99.7307L131.222 101.397V103.93H130.015V95.0897H131.222V99.9687L135.88 95.0897H137.291L133.585 98.9487L137.852 103.93ZM145.786 97.9287V102.655C145.786 103.029 145.956 103.216 146.296 103.199V103.947C146.194 103.998 146.041 104.032 145.82 104.032C145.089 104.032 144.647 103.692 144.647 103.029V102.4H144.596C144.307 102.978 143.236 104.1 141.213 104.1C139.445 104.1 138.323 103.284 138.323 101.72C138.323 100.275 139.309 99.5097 141.298 99.2377L143.236 98.9827C144.137 98.8637 144.579 98.6597 144.579 98.4047V97.9287C144.579 96.4327 143.831 95.8547 142.284 95.8547C140.771 95.8547 140.023 96.4157 140.023 97.5717V97.7587H138.867V97.4867C138.867 95.7697 140.108 94.9197 142.335 94.9197C144.664 94.9197 145.786 95.8207 145.786 97.9287ZM144.579 100.836V99.3737C144.545 99.5947 144.137 99.7477 143.338 99.8497L141.553 100.105C140.057 100.309 139.53 100.819 139.53 101.652C139.53 102.672 140.278 103.131 141.434 103.131C143.457 103.182 144.596 101.567 144.579 100.836ZM155.533 103.93H154.156L150.501 99.7307L148.903 101.397V103.93H147.696V95.0897H148.903V99.9687L153.561 95.0897H154.972L151.266 98.9487L155.533 103.93Z" fill="#009245"/>
</svg>
