<svg width="267" height="111" fill="none" xmlns="http://www.w3.org/2000/svg"><path d="M5.478 21.198c-3.058 0-4.752-1.562-4.752-4.048h1.43c0 1.672 1.254 2.838 3.366 2.838 1.848 0 3.102-.902 3.102-2.288 0-1.496-1.43-2.288-3.652-2.266v-.946c2.09-.022 3.168-.792 3.168-1.958 0-1.144-1.1-1.936-2.662-1.936-1.738 0-2.838.968-2.838 2.31H1.188c0-2.112 1.584-3.498 4.29-3.498 2.53 0 4.114 1.232 4.114 2.992 0 1.254-.858 2.156-2.288 2.486 1.562.242 2.86 1.232 2.86 2.926 0 1.034-.44 1.87-1.298 2.464-.88.616-2.002.924-3.388.924zm15.928-7.964v6.116c0 .484.22.726.66.704v.968c-.133.066-.33.11-.616.11-.947 0-1.518-.44-1.518-1.298v-.814h-.066c-.375.748-1.76 2.2-4.378 2.2-2.288 0-3.74-1.056-3.74-3.08 0-1.87 1.276-2.86 3.85-3.212l2.507-.33c1.166-.154 1.738-.418 1.738-.748v-.616c0-1.936-.968-2.684-2.97-2.684-1.958 0-2.926.726-2.926 2.222v.242h-1.495v-.352c0-2.222 1.605-3.322 4.487-3.322 3.014 0 4.466 1.166 4.466 3.894zm-1.563 3.762v-1.892c-.044.286-.572.484-1.605.616l-2.31.33c-1.937.264-2.619.924-2.619 2.002 0 1.32.969 1.914 2.465 1.914 2.618.066 4.092-2.024 4.07-2.97zm8.963 4.202c-2.706 0-5.258-2.024-5.258-6.49V10.66c.022-3.344 1.694-5.06 4.84-5.06h1.628c.946 0 1.364-.154 1.694-.484h1.496c-.594 1.32-1.386 1.76-3.256 1.76h-1.562c-2.09 0-3.344 1.232-3.344 3.19v1.782c.682-1.562 2.31-2.398 3.982-2.398 2.596 0 5.038 1.958 5.038 5.852 0 3.96-2.618 5.896-5.258 5.896zm0-1.32c2.002 0 3.784-1.518 3.784-4.576 0-3.08-1.782-4.576-3.784-4.576-1.98 0-3.74 1.496-3.74 4.576 0 3.036 1.782 4.576 3.74 4.576zm12.289 1.342c-2.926 0-5.478-2.024-5.478-5.94 0-3.916 2.552-5.94 5.478-5.94 2.904 0 5.456 2.024 5.456 5.94 0 3.916-2.552 5.94-5.456 5.94zm0-1.32c2.112 0 3.96-1.54 3.96-4.62s-1.848-4.62-3.96-4.62c-2.156 0-3.96 1.54-3.96 4.62s1.804 4.62 3.96 4.62zm6.444-10.34h8.976v1.276h-3.718V21h-1.562V10.836h-3.696V9.56zM58.446 21V9.56h1.562v9.394h.066l6.754-9.394h1.738V21h-1.562v-9.35h-.044L60.25 21h-1.804zm12.06-11.44h8.976v1.276h-3.718V21h-1.562V10.836h-3.696V9.56zm10.907 0h1.562v4.202h3.608c2.838 0 4.356 1.32 4.356 3.63 0 2.31-1.518 3.608-4.356 3.608h-5.17V9.56zm1.562 10.164h3.52c2.046 0 2.948-.858 2.948-2.332 0-1.562-.99-2.354-2.948-2.354h-3.52v4.686zm15.032 1.496c-3.036 0-5.5-2.002-5.5-5.918 0-3.96 2.464-5.962 5.5-5.962 1.188 0 2.244.308 3.168.946.902.638 1.452 1.672 1.65 3.102h-1.408c-.33-1.87-1.738-2.728-3.432-2.728-2.354 0-3.96 1.65-3.96 4.642 0 2.926 1.606 4.598 3.96 4.598 1.694 0 3.102-.858 3.432-2.772h1.408c-.176 1.452-.726 2.486-1.628 3.124-.924.638-1.98.968-3.19.968zm10.675-11.66h5.17V21h-1.562v-4.202h-3.432L106.02 21h-1.672l2.97-4.312c-1.958-.374-2.992-1.606-2.992-3.52 0-2.31 1.518-3.608 4.356-3.608zm3.608 5.962v-4.686h-3.52c-2.046 0-2.948.858-2.948 2.332 0 1.562.99 2.354 2.948 2.354h3.52zm14.119 5.698c-2.926 0-5.478-2.024-5.478-5.94 0-3.916 2.552-5.94 5.478-5.94 2.904 0 5.456 2.024 5.456 5.94 0 3.916-2.552 5.94-5.456 5.94zm0-1.32c2.112 0 3.96-1.54 3.96-4.62s-1.848-4.62-3.96-4.62c-2.156 0-3.96 1.54-3.96 4.62s1.804 4.62 3.96 4.62zm17.51 1.32c-3.036 0-5.5-2.002-5.5-5.918 0-3.96 2.464-5.962 5.5-5.962 1.188 0 2.244.308 3.168.946.902.638 1.452 1.672 1.65 3.102h-1.408c-.33-1.87-1.738-2.728-3.432-2.728-2.354 0-3.96 1.65-3.96 4.642 0 2.926 1.606 4.598 3.96 4.598 1.694 0 3.102-.858 3.432-2.772h1.408c-.176 1.452-.726 2.486-1.628 3.124-.924.638-1.98.968-3.19.968zm11.58 0c-2.926 0-5.478-2.024-5.478-5.94 0-3.916 2.552-5.94 5.478-5.94 2.904 0 5.456 2.024 5.456 5.94 0 3.916-2.552 5.94-5.456 5.94zm0-1.32c2.112 0 3.96-1.54 3.96-4.62s-1.848-4.62-3.96-4.62c-2.156 0-3.96 1.54-3.96 4.62s1.804 4.62 3.96 4.62zm6.444-10.34h8.976v1.276h-3.718V21h-1.562V10.836h-3.696V9.56zm16.605-.22c2.794 0 5.17 1.98 5.17 5.94 0 3.96-2.376 5.94-5.17 5.94-1.76 0-3.322-.77-4.136-2.178v6.138h-1.562V9.56h1.562v1.958c.814-1.408 2.376-2.178 4.136-2.178zm-.242 10.56c2.09 0 3.938-1.584 3.938-4.62s-1.848-4.62-3.938-4.62-3.96 1.584-3.96 4.62 1.87 4.62 3.96 4.62zm7.079 5.302v-1.364c.286.022.506.044.616.044 1.21 0 1.958-.638 2.464-1.892.132-.352.198-.66.198-.902 0-.154-.044-.352-.11-.572L184.197 9.56h1.628l3.696 9.636 3.674-9.636h1.628l-4.972 12.496c-.902 2.2-2.068 3.19-3.762 3.19-.308 0-.55-.022-.704-.044zm21.457-5.478h.748v2.728h-1.43V21h-8.888v1.452h-1.43v-2.728h.726c.638-.77.902-2.09.99-3.872.022-.902.044-2.178.044-3.872V9.56h9.24v10.164zm-8.734 0h7.172v-8.888h-6.116v1.144c0 1.694-.022 2.97-.044 3.872-.044.902-.132 1.672-.286 2.31-.154.66-.396 1.188-.726 1.562zM209.374 21V9.56h1.562v4.862h5.852V9.56h1.562V21h-1.562v-5.302h-5.852V21h-1.562zm11.537 0V9.56h1.562v9.394h.066l6.754-9.394h1.738V21h-1.562v-9.35h-.044l-6.71 9.35h-1.804zm22.818 0h-1.782l-4.73-5.434-2.068 2.156V21h-1.562V9.56h1.562v6.314l6.028-6.314h1.826l-4.796 4.994L243.729 21zm10.266-7.766v6.116c0 .484.22.726.66.704v.968c-.132.066-.33.11-.616.11-.946 0-1.518-.44-1.518-1.298v-.814h-.066c-.374.748-1.76 2.2-4.378 2.2-2.288 0-3.74-1.056-3.74-3.08 0-1.87 1.276-2.86 3.85-3.212l2.508-.33c1.166-.154 1.738-.418 1.738-.748v-.616c0-1.936-.968-2.684-2.97-2.684-1.958 0-2.926.726-2.926 2.222v.242h-1.496v-.352c0-2.222 1.606-3.322 4.488-3.322 3.014 0 4.466 1.166 4.466 3.894zm-1.562 3.762v-1.892c-.044.286-.572.484-1.606.616l-2.31.33c-1.936.264-2.618.924-2.618 2.002 0 1.32.968 1.914 2.464 1.914 2.618.066 4.092-2.024 4.07-2.97zm3.27 4.004l4.114-5.786-4.004-5.654h1.76l3.102 4.488 3.102-4.488h1.76l-4.004 5.654L265.625 21h-1.738l-3.212-4.62-3.212 4.62h-1.76z" fill="#1A1A1A"/><path d="M99.964 50.231V38.999h3.708v25.2h-3.708V53.327H87.76v10.872h-3.744v-25.2h3.744v11.232h12.204zm24.307 4.32c0 .504-.036.972-.108 1.368h-13.86c.252 3.924 2.16 5.868 5.724 5.868 2.412 0 3.996-.9 4.752-3.024h3.24c-1.044 3.996-4.068 5.868-8.1 5.868-2.7 0-4.86-.828-6.552-2.448-1.692-1.62-2.556-4.068-2.556-7.272 0-6.696 3.924-9.792 8.928-9.792 5.076 0 8.532 3.132 8.532 9.432zm-13.968-1.224h10.512c-.108-3.348-1.908-5.364-5.112-5.364-3.06 0-5.076 1.8-5.4 5.364zm24.98-8.208c5.22 0 7.632 2.016 7.632 6.516v12.564h-3.384v-2.916h-.144c-.36.72-1.044 1.44-2.088 2.16-1.044.756-2.52 1.116-4.464 1.116-3.78 0-6.336-1.728-6.336-5.22 0-3.312 2.304-4.752 6.336-5.292l4.104-.504c1.692-.252 2.34-.576 2.34-1.116v-.684c0-2.88-1.404-3.888-4.14-3.888-2.628 0-4.068.9-4.068 3.204v.396h-3.456v-.72c0-3.744 2.628-5.616 7.668-5.616zm3.996 12.132v-1.944c-.252.36-.972.612-2.124.756l-3.456.468c-2.628.324-3.564 1.116-3.564 2.592 0 1.692 1.224 2.592 3.348 2.592 3.816 0 5.796-2.88 5.796-4.464zm7.667 6.948v-25.2h3.636v25.2h-3.636zm15.656-2.7h1.404v2.844c-.54.072-1.296.108-2.34.108-3.276 0-5.256-1.512-5.256-5.004V48.323h-3.06v-2.844h3.06v-4.716h3.636v4.716h3.708v2.844h-3.708v10.512c0 1.872.72 2.664 2.556 2.664zm14.392-16.38c3.924 0 6.624 2.376 6.624 7.416v11.664h-3.636V53.363c0-3.348-1.476-5.184-4.392-5.184-3.024 0-5.004 1.908-5.004 5.184v10.836h-3.636v-25.2h3.636v10.224h.108c.36-1.62 2.412-4.104 6.3-4.104z" fill="#000"/><path d="M87.598 104.019v-1.139c.187.017.306.034.391.034.952 0 1.462-.476 1.853-1.411.119-.323.187-.578.187-.782 0-.187-.051-.374-.136-.595L86.476 92h1.36l2.907 7.208L93.667 92h1.36l-3.995 9.571c-.731 1.717-1.632 2.482-2.924 2.482-.119 0-.289-.017-.51-.034zm12.131.034c-2.363 0-3.672-1.207-3.672-3.128h1.105c0 1.292.97 2.193 2.601 2.193 1.428 0 2.397-.697 2.397-1.768 0-1.156-1.105-1.768-2.822-1.75v-.732c1.615-.017 2.448-.612 2.448-1.513 0-.884-.85-1.496-2.057-1.496-1.343 0-2.193.748-2.193 1.785h-1.122c0-1.632 1.224-2.703 3.315-2.703 1.955 0 3.179.952 3.179 2.312 0 .97-.663 1.666-1.768 1.921 1.207.187 2.21.952 2.21 2.261 0 .799-.34 1.445-1.003 1.904-.68.476-1.547.714-2.618.714zm5.27-.153v-8.84h1.207v3.757h4.522V95.06h1.207v8.84h-1.207v-4.097h-4.522v4.097h-1.207zm15.953-6v4.725c0 .374.17.561.51.544v.748c-.102.051-.255.085-.476.085-.731 0-1.173-.34-1.173-1.003v-.629h-.051c-.289.578-1.36 1.7-3.383 1.7-1.768 0-2.89-.816-2.89-2.38 0-1.445.986-2.21 2.975-2.482l1.938-.255c.901-.119 1.343-.323 1.343-.578V97.9c0-1.496-.748-2.074-2.295-2.074-1.513 0-2.261.561-2.261 1.717v.187h-1.156v-.272c0-1.717 1.241-2.567 3.468-2.567 2.329 0 3.451.901 3.451 3.01zm-1.207 2.906v-1.462c-.034.221-.442.374-1.241.476l-1.785.255c-1.496.204-2.023.714-2.023 1.547 0 1.02.748 1.479 1.904 1.479 2.023.051 3.162-1.564 3.145-2.295zm2.475-5.746h6.936v.986h-2.873v7.854h-1.207v-7.854h-2.856v-.986zm8.428 0h1.207v3.247h2.788c2.193 0 3.366 1.02 3.366 2.805 0 1.785-1.173 2.788-3.366 2.788h-3.995v-8.84zm1.207 7.854h2.72c1.581 0 2.278-.663 2.278-1.802 0-1.207-.765-1.819-2.278-1.819h-2.72v3.621zm19.463.986h-1.377l-3.655-4.199-1.598 1.666v2.533h-1.207v-8.84h1.207v4.88l4.658-4.88h1.411l-3.706 3.86 4.267 4.98zm7.934-6v4.725c0 .374.17.561.51.544v.748c-.102.051-.255.085-.476.085-.731 0-1.173-.34-1.173-1.003v-.629h-.051c-.289.578-1.36 1.7-3.383 1.7-1.768 0-2.89-.816-2.89-2.38 0-1.445.986-2.21 2.975-2.482l1.938-.255c.901-.119 1.343-.323 1.343-.578V97.9c0-1.496-.748-2.074-2.295-2.074-1.513 0-2.261.561-2.261 1.717v.187h-1.156v-.272c0-1.717 1.241-2.567 3.468-2.567 2.329 0 3.451.901 3.451 3.01zm-1.207 2.906v-1.462c-.034.221-.442.374-1.241.476l-1.785.255c-1.496.204-2.023.714-2.023 1.547 0 1.02.748 1.479 1.904 1.479 2.023.051 3.162-1.564 3.145-2.295zm10.954 3.094h-1.377l-3.655-4.199-1.598 1.666v2.533h-1.207v-8.84h1.207v4.88l4.658-4.88h1.411l-3.706 3.86 4.267 4.98zm4.924 0v-1.19l6.018-2.89-6.018-2.907v-1.19l7.089 3.502v1.173l-7.089 3.502z" fill="#009245"/></svg>