<svg width="267" height="111" viewBox="0 0 267 111" fill="none" xmlns="http://www.w3.org/2000/svg">
<path d="M5.478 21.1978C2.42 21.1978 0.726 19.6358 0.726 17.1498H2.156C2.156 18.8218 3.41 19.9878 5.522 19.9878C7.37 19.9878 8.624 19.0858 8.624 17.6998C8.624 16.2038 7.194 15.4118 4.972 15.4338V14.4878C7.062 14.4658 8.14 13.6958 8.14 12.5298C8.14 11.3858 7.04 10.5938 5.478 10.5938C3.74 10.5938 2.64 11.5618 2.64 12.9038H1.188C1.188 10.7918 2.772 9.40576 5.478 9.40576C8.008 9.40576 9.592 10.6378 9.592 12.3978C9.592 13.6518 8.734 14.5538 7.304 14.8838C8.866 15.1258 10.164 16.1158 10.164 17.8098C10.164 18.8438 9.724 19.6798 8.866 20.2738C7.986 20.8898 6.864 21.1978 5.478 21.1978ZM21.4055 13.2338V19.3498C21.4055 19.8338 21.6255 20.0758 22.0655 20.0538V21.0218C21.9335 21.0878 21.7355 21.1318 21.4495 21.1318C20.5035 21.1318 19.9315 20.6918 19.9315 19.8338V19.0198H19.8655C19.4915 19.7678 18.1055 21.2198 15.4875 21.2198C13.1995 21.2198 11.7475 20.1638 11.7475 18.1398C11.7475 16.2698 13.0235 15.2798 15.5975 14.9278L18.1055 14.5978C19.2715 14.4438 19.8435 14.1798 19.8435 13.8498V13.2338C19.8435 11.2978 18.8755 10.5498 16.8735 10.5498C14.9155 10.5498 13.9475 11.2758 13.9475 12.7718V13.0138H12.4515V12.6618C12.4515 10.4398 14.0575 9.33976 16.9395 9.33976C19.9535 9.33976 21.4055 10.5058 21.4055 13.2338ZM19.8435 16.9958V15.1038C19.7995 15.3898 19.2715 15.5878 18.2375 15.7198L15.9275 16.0498C13.9915 16.3138 13.3095 16.9738 13.3095 18.0518C13.3095 19.3718 14.2775 19.9658 15.7735 19.9658C18.3915 20.0318 19.8655 17.9418 19.8435 16.9958ZM28.8056 21.1978C26.0996 21.1978 23.5476 19.1738 23.5476 14.7078V10.6598C23.5696 7.31576 25.2416 5.59975 28.3876 5.59975H30.0156C30.9616 5.59975 31.3796 5.44576 31.7096 5.11575H33.2056C32.6116 6.43575 31.8196 6.87576 29.9496 6.87576H28.3876C26.2976 6.87576 25.0436 8.10776 25.0436 10.0658V11.8478C25.7256 10.2858 27.3536 9.44976 29.0256 9.44976C31.6216 9.44976 34.0636 11.4078 34.0636 15.3018C34.0636 19.2618 31.4456 21.1978 28.8056 21.1978ZM28.8056 19.8778C30.8076 19.8778 32.5896 18.3598 32.5896 15.3018C32.5896 12.2218 30.8076 10.7258 28.8056 10.7258C26.8256 10.7258 25.0656 12.2218 25.0656 15.3018C25.0656 18.3378 26.8476 19.8778 28.8056 19.8778ZM41.0946 21.2198C38.1686 21.2198 35.6166 19.1958 35.6166 15.2798C35.6166 11.3638 38.1686 9.33976 41.0946 9.33976C43.9986 9.33976 46.5506 11.3638 46.5506 15.2798C46.5506 19.1958 43.9986 21.2198 41.0946 21.2198ZM41.0946 19.8998C43.2066 19.8998 45.0546 18.3598 45.0546 15.2798C45.0546 12.1998 43.2066 10.6598 41.0946 10.6598C38.9386 10.6598 37.1346 12.1998 37.1346 15.2798C37.1346 18.3598 38.9386 19.8998 41.0946 19.8998ZM47.5389 9.55975H56.5149V10.8358H52.7969V20.9998H51.2349V10.8358H47.5389V9.55975ZM58.4459 20.9998V9.55975H60.0079V18.9538H60.0739L66.8279 9.55975H68.5659V20.9998H67.0039V11.6498H66.9599L60.2499 20.9998H58.4459ZM70.5057 9.55975H79.4817V10.8358H75.7637V20.9998H74.2017V10.8358H70.5057V9.55975ZM81.4127 9.55975H82.9747V13.7618H86.5827C89.4207 13.7618 90.9387 15.0818 90.9387 17.3918C90.9387 19.7018 89.4207 20.9998 86.5827 20.9998H81.4127V9.55975ZM82.9747 19.7238H86.4947C88.5407 19.7238 89.4427 18.8658 89.4427 17.3918C89.4427 15.8298 88.4527 15.0378 86.4947 15.0378H82.9747V19.7238ZM98.0073 21.2198C94.9713 21.2198 92.5072 19.2178 92.5072 15.3018C92.5072 11.3418 94.9713 9.33976 98.0073 9.33976C99.1953 9.33976 100.251 9.64776 101.175 10.2858C102.077 10.9238 102.627 11.9578 102.825 13.3878H101.417C101.087 11.5178 99.6793 10.6598 97.9853 10.6598C95.6313 10.6598 94.0253 12.3098 94.0253 15.3018C94.0253 18.2278 95.6313 19.8998 97.9853 19.8998C99.6793 19.8998 101.087 19.0418 101.417 17.1278H102.825C102.649 18.5798 102.099 19.6138 101.197 20.2518C100.273 20.8898 99.2173 21.2198 98.0073 21.2198ZM108.682 9.55975H113.852V20.9998H112.29V16.7978H108.858L106.02 20.9998H104.348L107.318 16.6878C105.36 16.3138 104.326 15.0818 104.326 13.1678C104.326 10.8578 105.844 9.55975 108.682 9.55975ZM112.29 15.5218V10.8358H108.77C106.724 10.8358 105.822 11.6938 105.822 13.1678C105.822 14.7298 106.812 15.5218 108.77 15.5218H112.29ZM126.409 21.2198C123.483 21.2198 120.931 19.1958 120.931 15.2798C120.931 11.3638 123.483 9.33976 126.409 9.33976C129.313 9.33976 131.865 11.3638 131.865 15.2798C131.865 19.1958 129.313 21.2198 126.409 21.2198ZM126.409 19.8998C128.521 19.8998 130.369 18.3598 130.369 15.2798C130.369 12.1998 128.521 10.6598 126.409 10.6598C124.253 10.6598 122.449 12.1998 122.449 15.2798C122.449 18.3598 124.253 19.8998 126.409 19.8998ZM143.919 21.2198C140.883 21.2198 138.419 19.2178 138.419 15.3018C138.419 11.3418 140.883 9.33976 143.919 9.33976C145.107 9.33976 146.163 9.64776 147.087 10.2858C147.989 10.9238 148.539 11.9578 148.737 13.3878H147.329C146.999 11.5178 145.591 10.6598 143.897 10.6598C141.543 10.6598 139.937 12.3098 139.937 15.3018C139.937 18.2278 141.543 19.8998 143.897 19.8998C145.591 19.8998 146.999 19.0418 147.329 17.1278H148.737C148.561 18.5798 148.011 19.6138 147.109 20.2518C146.185 20.8898 145.129 21.2198 143.919 21.2198ZM155.499 21.2198C152.573 21.2198 150.021 19.1958 150.021 15.2798C150.021 11.3638 152.573 9.33976 155.499 9.33976C158.403 9.33976 160.955 11.3638 160.955 15.2798C160.955 19.1958 158.403 21.2198 155.499 21.2198ZM155.499 19.8998C157.611 19.8998 159.459 18.3598 159.459 15.2798C159.459 12.1998 157.611 10.6598 155.499 10.6598C153.343 10.6598 151.539 12.1998 151.539 15.2798C151.539 18.3598 153.343 19.8998 155.499 19.8998ZM161.943 9.55975H170.919V10.8358H167.201V20.9998H165.639V10.8358H161.943V9.55975ZM178.548 9.33976C181.342 9.33976 183.718 11.3198 183.718 15.2798C183.718 19.2398 181.342 21.2198 178.548 21.2198C176.788 21.2198 175.226 20.4498 174.412 19.0418V25.1798H172.85V9.55975H174.412V11.5178C175.226 10.1098 176.788 9.33976 178.548 9.33976ZM178.306 19.8998C180.396 19.8998 182.244 18.3158 182.244 15.2798C182.244 12.2438 180.396 10.6598 178.306 10.6598C176.216 10.6598 174.346 12.2438 174.346 15.2798C174.346 18.3158 176.216 19.8998 178.306 19.8998ZM185.385 25.2018V23.8378C185.671 23.8598 185.891 23.8818 186.001 23.8818C187.211 23.8818 187.959 23.2438 188.465 21.9898C188.597 21.6378 188.663 21.3298 188.663 21.0878C188.663 20.9338 188.619 20.7358 188.553 20.5158L184.197 9.55975H185.825L189.521 19.1958L193.195 9.55975H194.823L189.851 22.0558C188.949 24.2558 187.783 25.2458 186.089 25.2458C185.781 25.2458 185.539 25.2238 185.385 25.2018ZM206.842 19.7238H207.59V22.4518H206.16V20.9998H197.272V22.4518H195.842V19.7238H196.568C197.206 18.9538 197.47 17.6338 197.558 15.8518C197.58 14.9498 197.602 13.6738 197.602 11.9798V9.55975H206.842V19.7238ZM198.108 19.7238H205.28V10.8358H199.164V11.9798C199.164 13.6738 199.142 14.9498 199.12 15.8518C199.076 16.7538 198.988 17.5238 198.834 18.1618C198.68 18.8218 198.438 19.3498 198.108 19.7238ZM209.374 20.9998V9.55975H210.936V14.4218H216.788V9.55975H218.35V20.9998H216.788V15.6978H210.936V20.9998H209.374ZM220.911 20.9998V9.55975H222.473V18.9538H222.539L229.293 9.55975H231.031V20.9998H229.469V11.6498H229.425L222.715 20.9998H220.911ZM243.729 20.9998H241.947L237.217 15.5658L235.149 17.7218V20.9998H233.587V9.55975H235.149V15.8738L241.177 9.55975H243.003L238.207 14.5538L243.729 20.9998ZM253.995 13.2338V19.3498C253.995 19.8338 254.215 20.0758 254.655 20.0538V21.0218C254.523 21.0878 254.325 21.1318 254.039 21.1318C253.093 21.1318 252.521 20.6918 252.521 19.8338V19.0198H252.455C252.081 19.7678 250.695 21.2198 248.077 21.2198C245.789 21.2198 244.337 20.1638 244.337 18.1398C244.337 16.2698 245.613 15.2798 248.187 14.9278L250.695 14.5978C251.861 14.4438 252.433 14.1798 252.433 13.8498V13.2338C252.433 11.2978 251.465 10.5498 249.463 10.5498C247.505 10.5498 246.537 11.2758 246.537 12.7718V13.0138H245.041V12.6618C245.041 10.4398 246.647 9.33976 249.529 9.33976C252.543 9.33976 253.995 10.5058 253.995 13.2338ZM252.433 16.9958V15.1038C252.389 15.3898 251.861 15.5878 250.827 15.7198L248.517 16.0498C246.581 16.3138 245.899 16.9738 245.899 18.0518C245.899 19.3718 246.867 19.9658 248.363 19.9658C250.981 20.0318 252.455 17.9418 252.433 16.9958ZM255.703 20.9998L259.817 15.2138L255.813 9.55975H257.573L260.675 14.0478L263.777 9.55975H265.537L261.533 15.2138L265.625 20.9998H263.887L260.675 16.3798L257.463 20.9998H255.703Z" fill="#1A1A1A"/>
<path d="M99.964 50.231V38.999H103.672V64.199H99.964V53.327H87.76V64.199H84.016V38.999H87.76V50.231H99.964ZM124.271 54.551C124.271 55.055 124.235 55.523 124.163 55.919H110.303C110.555 59.843 112.463 61.787 116.027 61.787C118.439 61.787 120.023 60.887 120.779 58.763H124.019C122.975 62.759 119.951 64.631 115.919 64.631C113.219 64.631 111.059 63.803 109.367 62.183C107.675 60.563 106.811 58.115 106.811 54.911C106.811 48.215 110.735 45.119 115.739 45.119C120.815 45.119 124.271 48.251 124.271 54.551ZM110.303 53.327H120.815C120.707 49.979 118.907 47.963 115.703 47.963C112.643 47.963 110.627 49.763 110.303 53.327ZM135.283 45.119C140.503 45.119 142.915 47.135 142.915 51.635V64.199H139.531V61.283H139.387C139.027 62.003 138.343 62.723 137.299 63.443C136.255 64.199 134.779 64.559 132.835 64.559C129.055 64.559 126.499 62.831 126.499 59.339C126.499 56.027 128.803 54.587 132.835 54.047L136.939 53.543C138.631 53.291 139.279 52.967 139.279 52.427V51.743C139.279 48.863 137.875 47.855 135.139 47.855C132.511 47.855 131.071 48.755 131.071 51.059V51.455H127.615V50.735C127.615 46.991 130.243 45.119 135.283 45.119ZM139.279 57.251V55.307C139.027 55.667 138.307 55.919 137.155 56.063L133.699 56.531C131.071 56.855 130.135 57.647 130.135 59.123C130.135 60.815 131.359 61.715 133.483 61.715C137.299 61.715 139.279 58.835 139.279 57.251ZM146.946 64.199V38.999H150.582V64.199H146.946ZM162.602 61.499H164.006V64.343C163.466 64.415 162.71 64.451 161.666 64.451C158.39 64.451 156.41 62.939 156.41 59.447V48.323H153.35V45.479H156.41V40.763H160.046V45.479H163.754V48.323H160.046V58.835C160.046 60.707 160.766 61.499 162.602 61.499ZM176.994 45.119C180.918 45.119 183.618 47.495 183.618 52.535V64.199H179.982V53.363C179.982 50.015 178.506 48.179 175.59 48.179C172.566 48.179 170.586 50.087 170.586 53.363V64.199H166.95V38.999H170.586V49.223H170.694C171.054 47.603 173.106 45.119 176.994 45.119Z" fill="black"/>
<path d="M87.598 104.019V102.88C87.785 102.897 87.904 102.914 87.989 102.914C88.941 102.914 89.451 102.438 89.842 101.503C89.961 101.18 90.029 100.925 90.029 100.721C90.029 100.534 89.978 100.347 89.893 100.126L86.476 92.0001H87.836L90.743 99.2081L93.667 92.0001H95.027L91.032 101.571C90.301 103.288 89.4 104.053 88.108 104.053C87.989 104.053 87.819 104.036 87.598 104.019ZM99.7291 104.053C97.3661 104.053 96.0571 102.846 96.0571 100.925H97.1621C97.1621 102.217 98.1311 103.118 99.7631 103.118C101.191 103.118 102.16 102.421 102.16 101.35C102.16 100.194 101.055 99.5821 99.3381 99.5991V98.8681C100.953 98.8511 101.786 98.2561 101.786 97.3551C101.786 96.4711 100.936 95.8591 99.7291 95.8591C98.3861 95.8591 97.5361 96.6071 97.5361 97.6441H96.4141C96.4141 96.0121 97.6381 94.9411 99.7291 94.9411C101.684 94.9411 102.908 95.8931 102.908 97.2531C102.908 98.2221 102.245 98.9191 101.14 99.1741C102.347 99.3611 103.35 100.126 103.35 101.435C103.35 102.234 103.01 102.88 102.347 103.339C101.667 103.815 100.8 104.053 99.7291 104.053ZM104.999 103.9V95.0601H106.206V98.8171H110.728V95.0601H111.935V103.9H110.728V99.8031H106.206V103.9H104.999ZM120.952 97.8991V102.625C120.952 102.999 121.122 103.186 121.462 103.169V103.917C121.36 103.968 121.207 104.002 120.986 104.002C120.255 104.002 119.813 103.662 119.813 102.999V102.37H119.762C119.473 102.948 118.402 104.07 116.379 104.07C114.611 104.07 113.489 103.254 113.489 101.69C113.489 100.245 114.475 99.4801 116.464 99.2081L118.402 98.9531C119.303 98.8341 119.745 98.6301 119.745 98.3751V97.8991C119.745 96.4031 118.997 95.8251 117.45 95.8251C115.937 95.8251 115.189 96.3861 115.189 97.5421V97.7291H114.033V97.4571C114.033 95.7401 115.274 94.8901 117.501 94.8901C119.83 94.8901 120.952 95.7911 120.952 97.8991ZM119.745 100.806V99.3441C119.711 99.5651 119.303 99.7181 118.504 99.8201L116.719 100.075C115.223 100.279 114.696 100.789 114.696 101.622C114.696 102.642 115.444 103.101 116.6 103.101C118.623 103.152 119.762 101.537 119.745 100.806ZM122.22 95.0601H129.156V96.0461H126.283V103.9H125.076V96.0461H122.22V95.0601ZM130.648 95.0601H131.855V98.3071H134.643C136.836 98.3071 138.009 99.3271 138.009 101.112C138.009 102.897 136.836 103.9 134.643 103.9H130.648V95.0601ZM131.855 102.914H134.575C136.156 102.914 136.853 102.251 136.853 101.112C136.853 99.9051 136.088 99.2931 134.575 99.2931H131.855V102.914ZM151.318 103.9H149.941L146.286 99.7011L144.688 101.367V103.9H143.481V95.0601H144.688V99.9391L149.346 95.0601H150.757L147.051 98.9191L151.318 103.9ZM159.252 97.8991V102.625C159.252 102.999 159.422 103.186 159.762 103.169V103.917C159.66 103.968 159.507 104.002 159.286 104.002C158.555 104.002 158.113 103.662 158.113 102.999V102.37H158.062C157.773 102.948 156.702 104.07 154.679 104.07C152.911 104.07 151.789 103.254 151.789 101.69C151.789 100.245 152.775 99.4801 154.764 99.2081L156.702 98.9531C157.603 98.8341 158.045 98.6301 158.045 98.3751V97.8991C158.045 96.4031 157.297 95.8251 155.75 95.8251C154.237 95.8251 153.489 96.3861 153.489 97.5421V97.7291H152.333V97.4571C152.333 95.7401 153.574 94.8901 155.801 94.8901C158.13 94.8901 159.252 95.7911 159.252 97.8991ZM158.045 100.806V99.3441C158.011 99.5651 157.603 99.7181 156.804 99.8201L155.019 100.075C153.523 100.279 152.996 100.789 152.996 101.622C152.996 102.642 153.744 103.101 154.9 103.101C156.923 103.152 158.062 101.537 158.045 100.806ZM168.999 103.9H167.622L163.967 99.7011L162.369 101.367V103.9H161.162V95.0601H162.369V99.9391L167.027 95.0601H168.438L164.732 98.9191L168.999 103.9ZM173.923 103.9V102.71L179.941 99.8201L173.923 96.9131V95.7231L181.012 99.2251V100.398L173.923 103.9Z" fill="#009245"/>
</svg>
