<svg width="71" height="58" fill="none" xmlns="http://www.w3.org/2000/svg"><path d="M6.842 48.606H48.16L62.361 5.73s1.881-3.087 4.5-2.061a3.97 3.97 0 011.72 5.166c-1 2.313-12.6 41.274-13.42 42.984-.819 1.71-2.762 4.554-5.76 4.698-2.996.144-41.624.126-43.874 0s-3.753-.81-3.7-4.176c.028-3.69 3.619-3.744 5.014-3.735z" stroke="#009245" stroke-width="2.7" stroke-miterlimit="10"/><path d="M37.9 31.885a2.7 2.7 0 11-2.7-2.97 2.844 2.844 0 012.7 2.97zm-29.86.864c0-17.271 12.78-31.284 28.547-31.284M16.292 33.027c0-12.276 9.081-22.239 20.295-22.239m-12.618 21.96c0-7.398 5.472-13.392 12.222-13.392" stroke="#009245" stroke-width="2.7" stroke-miterlimit="10"/></svg>