<svg width="71" height="58" viewBox="0 0 71 58" fill="none" xmlns="http://www.w3.org/2000/svg">
<path d="M6.84156 48.6059C9.70356 48.6059 48.1605 48.6059 48.1605 48.6059L62.3625 5.72988C62.3625 5.72988 64.2435 2.64285 66.8625 3.66885C67.7537 4.14848 68.4279 4.95037 68.7475 5.91061C69.067 6.87085 69.0076 7.9169 68.5815 8.83484C67.5825 11.1478 55.9815 50.1089 55.1625 51.8189C54.3435 53.5289 52.3995 56.3728 49.4025 56.5168C46.4055 56.6608 7.77754 56.6428 5.52754 56.5168C3.27754 56.3908 1.77456 55.7069 1.82856 52.3409C1.85556 48.6509 5.44656 48.5969 6.84156 48.6059Z" stroke="#009245" stroke-width="2.7" stroke-miterlimit="10"/>
<path d="M37.9001 31.8847C37.8479 32.404 37.6463 32.8972 37.3197 33.3043C36.9932 33.7114 36.5556 34.0151 36.06 34.1787C35.5644 34.3423 35.0319 34.3587 34.5272 34.226C34.0224 34.0933 33.5669 33.8171 33.2158 33.4309C32.8648 33.0448 32.6331 32.5651 32.549 32.05C32.4649 31.5349 32.5318 31.0065 32.7417 30.5287C32.9517 30.0509 33.2956 29.6441 33.7319 29.3577C34.1682 29.0712 34.6782 28.9174 35.2001 28.9148C35.9515 28.9521 36.6574 29.2855 37.1635 29.8422C37.6695 30.3988 37.9344 31.1332 37.9001 31.8847Z" stroke="#009245" stroke-width="2.7" stroke-miterlimit="10"/>
<path d="M8.03906 32.7489C8.03906 15.4779 20.8191 1.46484 36.5871 1.46484" stroke="#009245" stroke-width="2.7" stroke-miterlimit="10"/>
<path d="M16.292 33.0273C16.292 20.7513 25.373 10.7883 36.587 10.7883" stroke="#009245" stroke-width="2.7" stroke-miterlimit="10"/>
<path d="M23.9688 32.7478C23.9688 25.3498 29.4407 19.3558 36.1907 19.3558" stroke="#009245" stroke-width="2.7" stroke-miterlimit="10"/>
</svg>
