<svg width="62" height="69" fill="none" xmlns="http://www.w3.org/2000/svg"><path d="M56.926 21.943H5.006a2.97 2.97 0 00-2.97 2.97v6.471a2.97 2.97 0 002.97 2.97h51.92a2.97 2.97 0 002.97-2.97v-6.47a2.97 2.97 0 00-2.97-2.97zm-3.744 12.412H9.046a2.97 2.97 0 00-2.97 2.97v26.451a2.97 2.97 0 002.97 2.97h44.136a2.97 2.97 0 002.97-2.97v-26.45a2.97 2.97 0 00-2.97-2.97z" stroke="#009245" stroke-width="2.7" stroke-miterlimit="10"/><path d="M32.455 21.943H30.8a2.97 2.97 0 00-2.97 2.97v38.862a2.97 2.97 0 002.97 2.97h1.656a2.97 2.97 0 002.97-2.97V24.913a2.97 2.97 0 00-2.97-2.97z" stroke="#009245" stroke-width="2.7" stroke-miterlimit="10"/><path d="M30.997 21.943c-7.704-2.367-12.06-5.4-15.39-9.153-4.275-4.77.819-13.5 7.497-10.8 6.138 2.502 7.37 11.51 8.54 17.352 1.17 5.84 1.099-4.266 4.141-10.062 3.042-5.796 8.1-6.3 10.188-2.601 2.259 3.978.9 8.379-3.096 10.656a98.589 98.589 0 01-9.9 4.599" stroke="#009245" stroke-width="2.7" stroke-miterlimit="10"/></svg>