<svg width="62" height="69" viewBox="0 0 62 69" fill="none" xmlns="http://www.w3.org/2000/svg">
<path d="M56.9262 21.9434H5.00515C3.36486 21.9434 2.03516 23.2731 2.03516 24.9134V31.3844C2.03516 33.0246 3.36486 34.3544 5.00515 34.3544H56.9262C58.5664 34.3544 59.8961 33.0246 59.8961 31.3844V24.9134C59.8961 23.2731 58.5664 21.9434 56.9262 21.9434Z" stroke="#009245" stroke-width="2.7" stroke-miterlimit="10"/>
<path d="M53.1822 34.3552H9.04616C7.40588 34.3552 6.07617 35.685 6.07617 37.3253V63.7762C6.07617 65.4165 7.40588 66.7462 9.04616 66.7462H53.1822C54.8225 66.7462 56.1522 65.4165 56.1522 63.7762V37.3253C56.1522 35.685 54.8225 34.3552 53.1822 34.3552Z" stroke="#009245" stroke-width="2.7" stroke-miterlimit="10"/>
<path d="M32.4551 21.9434H30.7991C29.1589 21.9434 27.8291 23.2731 27.8291 24.9134V63.7753C27.8291 65.4156 29.1589 66.7454 30.7991 66.7454H32.4551C34.0954 66.7454 35.4251 65.4156 35.4251 63.7753V24.9134C35.4251 23.2731 34.0954 21.9434 32.4551 21.9434Z" stroke="#009245" stroke-width="2.7" stroke-miterlimit="10"/>
<path d="M30.9969 21.9427C23.2929 19.5757 18.937 16.5427 15.607 12.7897C11.332 8.01974 16.4259 -0.710256 23.1039 1.98974C29.2419 4.49174 30.4749 13.5007 31.6449 19.3417C32.8149 25.1827 32.743 15.0757 35.785 9.27972C38.827 3.48372 43.885 2.97971 45.973 6.67871C48.232 10.6567 46.873 15.0577 42.877 17.3347C39.6644 19.0494 36.3594 20.5847 32.977 21.9337" stroke="#009245" stroke-width="2.7" stroke-miterlimit="10"/>
</svg>
