<svg width="101" height="70" fill="none" xmlns="http://www.w3.org/2000/svg"><path d="M9.225 31.148c-.324 6.507-7.074 8.946-7.074 8.946l5.751 11.034s6.705-4.311 11.35-1.017c4.643 3.294 4.931 9.405 4.931 9.405l12.177.477s.297-6.561 5.292-9.477c4.995-2.916 10.521.522 10.521.522l6.147-10.413s-1.152-.981-2.493-2.403c-1.935-2.061-3.68-2.655-3.906-7.308.225-4.644 2.025-7.2 6.4-9.702l-6.148-10.413s-5.526 3.438-10.52.522c-4.996-2.916-5.293-9.477-5.293-9.477l-12.177.468s-.279 6.12-4.932 9.414c-4.653 3.294-11.349-1.017-11.349-1.017l-5.75 11.025s6.75 2.448 7.073 9v.414z" stroke="#009245" stroke-width="2.7" stroke-miterlimit="10"/><path d="M39.798 30.96a9.063 9.063 0 11-9.063-9.063 9.052 9.052 0 019.063 9.063zm26.11 13.454c-1.368 4.041-6.066 4.383-6.066 4.383l1.665 7.983s4.995-1.52 7.335 1.386c2.34 2.907 1.43 6.813 1.43 6.813l7.597 2.475s1.359-4.077 5.03-5.03c3.673-.955 6.544 2.213 6.544 2.213l5.742-5.472a21.636 21.636 0 01-1.143-1.962c-.855-1.647-1.854-2.33-1.161-5.31.972-2.889 2.565-4.176 5.769-4.977l-2.016-7.668s-4.104 1.188-6.732-1.548c-2.628-2.736-1.638-6.93-1.638-6.93l-7.776-1.872s-1.26 3.807-4.788 5.058c-3.528 1.251-6.975-2.7-6.975-2.7l-5.598 5.931s3.816 2.7 2.862 6.903l-.081.324z" stroke="#009245" stroke-width="2.7" stroke-miterlimit="10"/><path d="M83.565 49.247a4.122 4.122 0 11-2.844-5.103 4.131 4.131 0 012.844 5.103z" stroke="#009245" stroke-width="2.7" stroke-miterlimit="10"/></svg>