<svg width="101" height="70" viewBox="0 0 101 70" fill="none" xmlns="http://www.w3.org/2000/svg">
<path d="M9.22535 31.1478C8.90135 37.6548 2.15137 40.0938 2.15137 40.0938L7.90235 51.1278C7.90235 51.1278 14.6074 46.8168 19.2514 50.1108C23.8954 53.4048 24.1833 59.5158 24.1833 59.5158L36.3603 59.9928C36.3603 59.9928 36.6574 53.4318 41.6524 50.5158C46.6474 47.5998 52.1734 51.0378 52.1734 51.0378L58.3204 40.6248C58.3204 40.6248 57.1684 39.6438 55.8274 38.2218C53.8924 36.1608 52.1464 35.5668 51.9214 30.9138C52.1464 26.2698 53.9464 23.7138 58.3204 21.2118L52.1734 10.7988C52.1734 10.7988 46.6474 14.2368 41.6524 11.3208C36.6574 8.40478 36.3603 1.84375 36.3603 1.84375L24.1833 2.31177C24.1833 2.31177 23.9044 8.43184 19.2514 11.7258C14.5984 15.0198 7.90235 10.7088 7.90235 10.7088L2.15137 21.7338C2.15137 21.7338 8.90135 24.1818 9.22535 30.7338V31.1478Z" stroke="#009245" stroke-width="2.7" stroke-miterlimit="10"/>
<path d="M39.7979 30.9599C39.7979 32.7524 39.2664 34.5045 38.2705 35.995C37.2746 37.4854 35.8592 38.6471 34.2031 39.333C32.5471 40.019 30.7248 40.1984 28.9668 39.8487C27.2087 39.499 25.5939 38.6358 24.3264 37.3684C23.0589 36.1009 22.1957 34.486 21.846 32.7279C21.4963 30.9699 21.6758 29.1477 22.3618 27.4916C23.0477 25.8356 24.2094 24.4201 25.6998 23.4243C27.1902 22.4284 28.9424 21.8969 30.7349 21.8969C31.9254 21.8957 33.1044 22.1293 34.2045 22.5844C35.3047 23.0394 36.3042 23.7069 37.146 24.5487C37.9878 25.3905 38.6554 26.3901 39.1104 27.4902C39.5654 28.5903 39.7991 29.7694 39.7979 30.9599Z" stroke="#009245" stroke-width="2.7" stroke-miterlimit="10"/>
<path d="M65.9078 44.4142C64.5398 48.4552 59.8418 48.7972 59.8418 48.7972L61.5068 56.7802C61.5068 56.7802 66.5018 55.2592 68.8418 58.1662C71.1818 61.0732 70.2728 64.9792 70.2728 64.9792L77.8688 67.4542C77.8688 67.4542 79.2278 63.3772 82.8998 62.4232C86.5718 61.4692 89.4428 64.6372 89.4428 64.6372L95.1848 59.1652C94.7697 58.5316 94.3882 57.8767 94.0418 57.2031C93.1868 55.5561 92.1878 54.8722 92.8808 51.8932C93.8528 49.0042 95.4458 47.7172 98.6498 46.9162L96.6338 39.2482C96.6338 39.2482 92.5298 40.4362 89.9018 37.7002C87.2738 34.9642 88.2638 30.7702 88.2638 30.7702L80.4878 28.8982C80.4878 28.8982 79.2278 32.7052 75.6998 33.9562C72.1718 35.2072 68.7248 31.2562 68.7248 31.2562L63.1268 37.1872C63.1268 37.1872 66.9428 39.8872 65.9888 44.0902L65.9078 44.4142Z" stroke="#009245" stroke-width="2.7" stroke-miterlimit="10"/>
<path d="M83.5649 49.2467C83.3405 50.0297 82.8892 50.7286 82.2679 51.2553C81.6466 51.782 80.8832 52.1128 80.0741 52.206C79.2649 52.2991 78.4463 52.1506 77.7216 51.7789C76.9968 51.4073 76.3984 50.8291 76.0019 50.1177C75.6054 49.4062 75.4285 48.5932 75.4937 47.7813C75.5588 46.9694 75.863 46.1951 76.3679 45.5559C76.8728 44.9168 77.5557 44.4416 78.3304 44.1902C79.1052 43.9389 79.937 43.9226 80.7209 44.1436C81.7748 44.4432 82.6664 45.1492 83.1998 46.1062C83.7331 47.0632 83.8645 48.1928 83.5649 49.2467Z" stroke="#009245" stroke-width="2.7" stroke-miterlimit="10"/>
</svg>
