<svg width="56" height="77" viewBox="0 0 56 77" fill="none" xmlns="http://www.w3.org/2000/svg">
<path d="M19.9662 1.70434C23.0532 0.570343 24.3491 3.60334 26.8961 3.27934C29.4431 2.95534 29.6861 1.47936 32.4761 1.72236C35.9051 2.06436 34.3841 4.26933 36.9761 5.96133C39.5681 7.65333 41.4761 6.24042 43.2761 8.08542C45.3821 10.2904 43.5731 11.5594 44.4551 13.3054C45.7331 15.8074 47.8031 15.0064 48.7751 17.6884C49.7471 20.3704 46.8221 21.6394 47.3261 23.7094C47.8301 25.7794 48.7481 27.7774 48.0191 29.7304C47.2001 31.9174 45.8501 31.4674 44.6171 33.8074C43.4831 35.9674 45.7511 37.4074 43.2761 39.3334C40.8011 41.2594 38.7761 40.1704 36.8051 41.6554C34.8341 43.1404 35.5811 44.5354 32.8901 45.6064C30.6941 46.5064 29.0831 43.5724 26.8961 44.1484C24.7091 44.7244 24.6461 45.9483 21.4961 45.6963C18.3461 45.4443 19.6961 43.6084 17.7251 42.2224C15.0791 40.3594 13.6481 42.2224 11.2901 40.0894C9.13014 38.1274 10.3901 37.6053 9.40911 34.7883C8.42811 31.9713 5.87211 32.3944 5.01711 29.7484C4.16211 27.1024 6.50211 25.6353 6.47511 23.7363C6.47511 21.6483 4.99012 21.0993 4.85512 18.3363C4.72012 15.5733 7.40213 15.4383 9.14813 13.6203C10.8941 11.8023 8.87811 10.1104 10.2461 8.04939C11.6141 5.98839 13.6931 8.04942 16.1681 6.39342C18.6431 4.73742 17.5992 2.57734 19.9662 1.70434Z" stroke="#009245" stroke-width="2.7" stroke-miterlimit="10"/>
<path d="M10.5436 42.699L2.43457 63.318L11.8306 61.59L17.5276 69.1859L26.8966 46.263L38.1736 73.659L43.8796 66.0359L53.2846 67.755L42.7366 41.682" stroke="#009245" stroke-width="2.7" stroke-miterlimit="10"/>
<path d="M26.8964 36.8574C34.2131 36.8574 40.1444 30.9261 40.1444 23.6094C40.1444 16.2927 34.2131 10.3613 26.8964 10.3613C19.5797 10.3613 13.6484 16.2927 13.6484 23.6094C13.6484 30.9261 19.5797 36.8574 26.8964 36.8574Z" stroke="#009245" stroke-width="2.7" stroke-miterlimit="10"/>
</svg>
