<svg width="56" height="77" fill="none" xmlns="http://www.w3.org/2000/svg"><path d="M19.966 1.704c3.087-1.134 4.383 1.9 6.93 1.575 2.547-.324 2.79-1.8 5.58-1.557 3.43.342 1.908 2.547 4.5 4.24 2.592 1.691 4.5.278 6.3 2.123 2.106 2.205.297 3.474 1.18 5.22 1.277 2.502 3.347 1.701 4.32 4.383.971 2.682-1.954 3.951-1.45 6.021s1.422 4.068.693 6.021c-.819 2.187-2.169 1.737-3.402 4.077-1.134 2.16 1.134 3.6-1.34 5.526-2.476 1.926-4.5.837-6.472 2.322-1.97 1.485-1.224 2.88-3.915 3.951-2.196.9-3.807-2.034-5.994-1.458-2.187.576-2.25 1.8-5.4 1.548-3.15-.252-1.8-2.088-3.77-3.474-2.647-1.863-4.078 0-6.436-2.133-2.16-1.962-.9-2.484-1.88-5.3-.982-2.818-3.538-2.395-4.393-5.04-.855-2.647 1.485-4.114 1.458-6.013 0-2.088-1.485-2.637-1.62-5.4-.135-2.763 2.547-2.898 4.293-4.716s-.27-3.51 1.098-5.57c1.368-2.062 3.447 0 5.922-1.657 2.475-1.656 1.431-3.816 3.798-4.689z" stroke="#009245" stroke-width="2.7" stroke-miterlimit="10"/><path d="M10.544 42.699l-8.11 20.619 9.397-1.728 5.697 7.596 9.369-22.923 11.277 27.396 5.706-7.623 9.405 1.719-10.548-26.073m-15.841-4.825c7.317 0 13.248-5.93 13.248-13.248 0-7.316-5.93-13.248-13.248-13.248-7.316 0-13.248 5.932-13.248 13.248 0 7.317 5.932 13.248 13.248 13.248z" stroke="#009245" stroke-width="2.7" stroke-miterlimit="10"/></svg>